<?xml version="1.0" encoding="UTF-8"?>
<svg xmlns="http://www.w3.org/2000/svg" width="30.48mm" height="128.50mm" viewBox="0 0 30.48 128.50">
  <!-- Panel Background: 6 HP -->
  <rect width="30.48" height="128.50" fill="#6e6e6e"/>
  <!-- Left Edge Color Badge: Default Placeholder #5d5d5d (Centered 88.9mm, Flush X=0) -->
  <g id="palette-badge">
    <rect x="0.000" y="19.800" width="2.540" height="88.900" fill="#5d5d5d" stroke="none"/>
  </g>

  <!-- Delineator Line 1 (Main Controls / Attenuverters at Y = 52.50mm) -->
  <line x1="2.54" y1="52.50" x2="27.94" y2="52.50" stroke="#999999" stroke-width="0.176"/>

  <!-- Delineator Line 2 (Attenuverters / I/O Jacks at Y = 80.50mm) -->
  <line x1="2.54" y1="80.50" x2="27.94" y2="80.50" stroke="#999999" stroke-width="0.176"/>

  <!-- Label: "bit valanche" -->
    <g transform="translate(5.322, 7.620) scale(0.004000, -0.004000)"><path d="M 473.8 366.7 C 470.4 376.0 461.5 382.2 451.6 382.2 H 144.9 L 199.1 689.3 C 201.4 702.2 192.8 714.4 179.9 716.7 C 167.0 719.0 154.7 710.4 152.4 697.5 L 93.5 363.1 C 93.4 362.8 93.4 362.5 93.3 362.2 L 34.4 27.8 C 32.6 18.0 37.2 8.1 45.9 3.1 C 49.6 1.0 53.6 0.0 57.7 0.0 C 63.2 0.0 68.6 1.9 73.0 5.6 L 466.9 340.5 C 474.5 346.9 477.2 357.4 473.8 366.7 Z M 92.4 84.3 136.6 334.8 H 387.2 Z" fill="#ffffff"/></g>
    <g transform="translate(7.126, 7.620) scale(0.004000, -0.004000)"><path d="M 156.8 381.9 C 144.0 384.1 131.7 375.5 129.4 362.6 L 70.4 27.8 C 68.1 14.9 76.7 2.6 89.6 0.4 C 91.0 0.1 92.3 0.0 93.7 0.0 C 105.0 0.0 115.0 8.1 117.0 19.6 L 176.1 354.4 C 178.3 367.3 169.7 379.6 156.8 381.9 Z M 186.7 551.1 C 172.8 551.1 159.5 539.8 157.1 526.0 C 154.6 512.1 163.9 500.8 177.8 500.8 C 191.7 500.8 204.9 512.1 207.4 526.0 C 209.9 539.8 200.6 551.1 186.7 551.1 Z" fill="#ffffff"/></g>
    <g transform="translate(7.858, 7.620) scale(0.004000, -0.004000)"><path d="M 392.5 382.2 H 253.3 L 307.5 689.3 C 309.7 702.1 301.1 714.4 288.3 716.7 C 275.4 718.9 263.1 710.4 260.8 697.5 L 205.2 382.2 H 57.7 C 44.6 382.2 34.0 371.6 34.0 358.5 C 34.0 345.5 44.6 334.8 57.7 334.8 H 196.9 L 142.7 27.8 C 141.0 18.0 145.6 8.1 154.3 3.1 C 158.0 1.0 162.0 -1.5e-05 166.1 -1.5e-05 C 171.6 -1.5e-05 177.0 1.9 181.4 5.6 L 378.4 173.1 C 388.3 181.5 389.5 196.5 381.1 206.4 C 372.6 216.4 357.6 217.6 347.7 209.1 L 200.8 84.3 L 245.0 334.8 H 392.5 C 405.6 334.8 416.2 345.5 416.2 358.5 C 416.2 371.6 405.6 382.2 392.5 382.2 Z" fill="#ffffff"/></g>
    <g transform="translate(11.426, 7.620) scale(0.004000, -0.004000)"><path d="M 441.8 378.1 C 431.0 385.5 416.2 382.6 408.9 371.8 L 209.6 77.2 L 116.2 365.8 C 112.2 378.3 98.8 385.1 86.4 381.1 C 74.0 377.0 67.1 363.7 71.2 351.2 L 179.5 16.4 C 182.3 7.8 189.8 1.5 198.7 0.2 C 199.9 0.1 201.0 -0.0 202.1 -0.0 C 209.9 -0.0 217.2 3.8 221.7 10.4 L 448.1 345.3 C 455.5 356.1 452.6 370.8 441.8 378.1 Z" fill="#ffffff"/></g>
    <g transform="translate(13.138, 7.620) scale(0.004000, -0.004000)"><path d="M 469.6 373.9 C 465.6 378.6 460.0 381.4 454.3 382.0 C 453.9 382.1 453.5 382.1 453.1 382.2 H 453.0 C 452.5 382.2 451.9 382.2 451.4 382.2 H 116.7 C 103.6 382.2 93.0 371.6 93.0 358.5 C 93.0 345.5 103.6 334.8 116.7 334.8 H 387.2 L 42.3 41.7 C 34.8 35.3 32.0 24.8 35.5 15.5 C 38.9 6.2 47.8 1.5e-05 57.7 1.5e-05 H 392.5 C 404.0 1.5e-05 413.9 8.3 415.8 19.6 L 474.9 354.2 C 475.0 354.8 475.0 355.4 475.1 355.9 C 475.2 356.5 475.2 357.1 475.2 357.7 V 357.7 C 475.4 363.4 473.6 369.2 469.6 373.9 Z M 372.7 47.4 H 122.1 L 416.8 297.9 Z" fill="#ffffff"/></g>
    <g transform="translate(14.942, 7.620) scale(0.004000, -0.004000)"><path d="M 272.7 206.4 C 264.2 216.4 249.3 217.6 239.3 209.1 L 92.4 84.3 L 199.1 689.3 C 201.4 702.1 192.8 714.4 179.9 716.7 C 167.0 718.9 154.7 710.4 152.4 697.5 L 34.4 27.8 C 32.6 18.0 37.2 8.1 45.9 3.1 C 49.6 1.0 53.6 -3.1e-05 57.7 -3.1e-05 C 63.2 -3.1e-05 68.6 1.9 73.0 5.6 L 270.0 173.1 C 279.9 181.5 281.1 196.5 272.7 206.4 Z" fill="#ffffff"/></g>
    <g transform="translate(15.958, 7.620) scale(0.004000, -0.004000)"><path d="M 469.6 373.9 C 465.6 378.6 460.0 381.4 454.3 382.0 C 453.9 382.1 453.5 382.1 453.1 382.2 H 453.0 C 452.5 382.2 451.9 382.2 451.4 382.2 H 116.7 C 103.6 382.2 93.0 371.6 93.0 358.5 C 93.0 345.5 103.6 334.8 116.7 334.8 H 387.2 L 42.3 41.7 C 34.8 35.3 32.0 24.8 35.5 15.5 C 38.9 6.2 47.8 1.5e-05 57.7 1.5e-05 H 392.5 C 404.0 1.5e-05 413.9 8.3 415.8 19.6 L 474.9 354.2 C 475.0 354.8 475.0 355.4 475.1 355.9 C 475.2 356.5 475.2 357.1 475.2 357.7 V 357.7 C 475.4 363.4 473.6 369.2 469.6 373.9 Z M 372.7 47.4 H 122.1 L 416.8 297.9 Z" fill="#ffffff"/></g>
    <g transform="translate(17.762, 7.620) scale(0.004000, -0.004000)"><path d="M 466.0 377.3 C 459.1 382.7 449.7 383.7 441.7 380.0 L 118.4 231.5 L 140.0 354.4 C 142.3 367.3 133.7 379.6 120.8 381.9 C 108.0 384.1 95.7 375.5 93.4 362.6 L 63.8 195.0 V 194.9 L 34.4 27.8 C 32.1 14.9 40.7 2.6 53.6 0.4 C 55.0 0.1 56.3 0.0 57.7 0.0 C 69.0 0.0 79.0 8.1 81.0 19.6 L 108.4 174.8 L 420.4 318.2 L 369.2 27.8 C 366.9 14.9 375.5 2.6 388.4 0.4 C 389.8 0.1 391.2 0.0 392.6 0.0 C 403.8 0.0 413.8 8.1 415.9 19.6 L 474.9 354.4 C 476.4 363.1 473.0 371.9 466.0 377.3 Z" fill="#ffffff"/></g>
    <g transform="translate(19.566, 7.620) scale(0.004000, -0.004000)"><path d="M 461.6 373.9 C 453.1 383.8 438.2 385.0 428.2 376.6 L 34.3 41.7 C 26.8 35.3 24.0 24.8 27.4 15.5 C 30.9 6.2 39.7 -1.5e-05 49.7 -1.5e-05 H 384.5 C 397.6 -1.5e-05 408.2 10.6 408.2 23.7 C 408.2 36.8 397.6 47.4 384.5 47.4 H 114.1 L 458.9 340.5 C 468.9 349.0 470.1 363.9 461.6 373.9 Z" fill="#ffffff"/></g>
    <g transform="translate(21.474, 7.620) scale(0.004000, -0.004000)"><path d="M 469.7 373.8 C 465.2 379.1 458.6 382.2 451.6 382.2 H 144.9 L 199.1 689.3 C 201.4 702.2 192.8 714.4 179.9 716.7 C 167.0 718.9 154.7 710.4 152.4 697.5 L 34.4 27.8 C 32.1 14.9 40.7 2.6 53.6 0.4 C 55.0 0.1 56.3 0.0 57.7 0.0 C 69.0 0.0 79.0 8.1 81.0 19.6 L 136.6 334.9 H 423.4 L 369.2 27.8 C 366.9 14.9 375.5 2.6 388.4 0.4 C 389.8 0.1 391.2 0.0 392.6 0.0 C 403.8 0.0 413.8 8.1 415.9 19.6 L 474.9 354.4 C 476.1 361.3 474.2 368.4 469.7 373.8 Z" fill="#ffffff"/></g>
    <g transform="translate(23.278, 7.620) scale(0.004000, -0.004000)"><path d="M 475.8 366.7 C 472.4 376.0 463.5 382.2 453.6 382.2 H 118.7 C 107.2 382.2 97.4 374.0 95.4 362.6 L 36.4 28.0 C 36.3 27.4 36.2 26.9 36.1 26.3 C 36.1 25.7 36.0 25.1 36.0 24.4 C 35.8 18.8 37.7 13.0 41.6 8.4 C 45.7 3.6 51.2 0.8 56.9 0.2 C 56.9 0.2 56.9 0.2 56.9 0.2 C 56.9 0.2 56.9 0.2 57.0 0.2 C 57.4 0.1 57.8 0.1 58.2 0.1 H 58.2 C 58.7 0.0 59.2 0.0 59.7 0.0 H 394.5 C 407.6 0.0 418.2 10.6 418.2 23.7 C 418.2 36.8 407.6 47.4 394.5 47.4 H 124.1 L 468.9 340.5 C 476.5 346.9 479.2 357.4 475.8 366.7 Z M 94.4 84.3 138.6 334.8 H 389.2 Z" fill="#ffffff"/></g>
  <!-- Label: "v2.26.0" -->
  <!-- Label: "v2.26.0" -->
    <g transform="translate(12.734, 10.414) scale(0.001600, -0.001600)"><path d="M 67.0 522.0 Q 52.0 522.0 44.0 513.0 Q 36.0 504.0 36.0 493.0 Q 36.0 489.0 37.0 485.0 Q 38.0 481.0 39.0 479.0 L 236.0 19.0 Q 240.0 10.0 248.5 4.5 Q 257.0 -1.0 266.0 0.0 Q 285.0 1.0 293.0 19.0 L 489.0 479.0 Q 490.0 483.0 491.5 486.5 Q 493.0 490.0 493.0 496.0 Q 493.0 508.0 484.0 514.5 Q 475.0 521.0 465.0 521.0 Q 444.0 522.0 436.0 502.0 L 265.2 97.4 L 95.0 502.0 Q 91.0 512.0 83.0 517.0 Q 75.0 522.0 67.0 522.0 Z" fill="#aaaaaa"/></g>
    <g transform="translate(13.581, 10.414) scale(0.001600, -0.001600)"><path d="M 474.0 58.0 H 166.7 L 351.0 265.0 Q 415.0 336.0 447.5 397.5 Q 480.0 459.0 480.0 511.0 Q 480.0 572.0 454.5 616.5 Q 429.0 661.0 382.5 685.5 Q 336.0 710.0 272.0 710.0 Q 234.0 710.0 194.5 694.5 Q 155.0 679.0 123.0 653.0 Q 91.0 627.0 73.0 596.0 Q 66.0 587.0 62.5 580.0 Q 59.0 573.0 59.0 566.0 Q 59.0 555.0 68.0 547.5 Q 77.0 540.0 89.0 540.0 Q 97.0 540.0 103.5 544.0 Q 110.0 548.0 116.0 558.0 Q 129.0 585.0 152.5 606.0 Q 176.0 627.0 206.5 640.0 Q 237.0 653.0 268.0 653.0 Q 336.0 653.0 376.0 613.0 Q 416.0 573.0 416.0 507.0 Q 416.0 467.0 388.5 416.5 Q 361.0 366.0 306.0 306.0 L 75.0 51.0 Q 67.0 41.0 67.0 30.0 Q 67.0 15.0 76.5 7.5 Q 86.0 0.0 99.0 0.0 H 474.0 Q 486.0 0.0 494.5 8.0 Q 503.0 16.0 503.0 29.0 Q 503.0 41.0 494.5 49.5 Q 486.0 58.0 474.0 58.0 Z" fill="#aaaaaa"/></g>
    <g transform="translate(14.467, 10.414) scale(0.001600, -0.001600)"><path d="M 87.0 0.0 H 94.0 Q 111.0 0.0 120.0 11.0 Q 129.0 22.0 129.0 39.0 V 60.0 Q 129.0 78.0 120.0 88.0 Q 111.0 98.0 94.0 98.0 H 87.0 Q 70.0 98.0 61.0 88.0 Q 52.0 78.0 52.0 60.0 V 39.0 Q 52.0 22.0 61.0 11.0 Q 70.0 0.0 87.0 0.0 Z" fill="#aaaaaa"/></g>
    <g transform="translate(14.757, 10.414) scale(0.001600, -0.001600)"><path d="M 474.0 58.0 H 166.7 L 351.0 265.0 Q 415.0 336.0 447.5 397.5 Q 480.0 459.0 480.0 511.0 Q 480.0 572.0 454.5 616.5 Q 429.0 661.0 382.5 685.5 Q 336.0 710.0 272.0 710.0 Q 234.0 710.0 194.5 694.5 Q 155.0 679.0 123.0 653.0 Q 91.0 627.0 73.0 596.0 Q 66.0 587.0 62.5 580.0 Q 59.0 573.0 59.0 566.0 Q 59.0 555.0 68.0 547.5 Q 77.0 540.0 89.0 540.0 Q 97.0 540.0 103.5 544.0 Q 110.0 548.0 116.0 558.0 Q 129.0 585.0 152.5 606.0 Q 176.0 627.0 206.5 640.0 Q 237.0 653.0 268.0 653.0 Q 336.0 653.0 376.0 613.0 Q 416.0 573.0 416.0 507.0 Q 416.0 467.0 388.5 416.5 Q 361.0 366.0 306.0 306.0 L 75.0 51.0 Q 67.0 41.0 67.0 30.0 Q 67.0 15.0 76.5 7.5 Q 86.0 0.0 99.0 0.0 H 474.0 Q 486.0 0.0 494.5 8.0 Q 503.0 16.0 503.0 29.0 Q 503.0 41.0 494.5 49.5 Q 486.0 58.0 474.0 58.0 Z" fill="#aaaaaa"/></g>
    <g transform="translate(15.643, 10.414) scale(0.001600, -0.001600)"><path d="M 287.0 -10.0 Q 351.0 -10.0 400.5 21.5 Q 450.0 53.0 478.5 104.0 Q 507.0 155.0 507.0 214.0 Q 507.0 258.0 491.5 299.0 Q 476.0 340.0 448.5 372.5 Q 421.0 405.0 383.0 424.0 Q 345.0 443.0 300.0 443.0 Q 257.0 443.0 220.0 427.5 Q 183.0 412.0 154.5 386.5 Q 144.9 377.9 136.5 368.4 Q 146.6 405.4 164.5 441.5 Q 189.0 491.0 224.0 534.0 Q 259.0 577.0 300.0 610.0 Q 341.0 643.0 383.0 661.0 Q 394.0 665.0 400.5 672.5 Q 407.0 680.0 407.0 690.0 Q 407.0 707.0 397.5 714.0 Q 388.0 721.0 375.0 721.0 Q 370.0 721.0 363.0 719.0 Q 302.0 696.0 253.5 655.5 Q 205.0 615.0 168.5 564.0 Q 132.0 513.0 107.0 456.0 Q 82.0 399.0 70.0 343.5 Q 58.0 288.0 58.0 240.0 Q 58.0 193.0 71.5 148.0 Q 85.0 103.0 113.5 67.5 Q 142.0 32.0 185.5 11.0 Q 229.0 -10.0 287.0 -10.0 Z M 286.0 48.0 Q 234.0 48.0 196.5 71.0 Q 159.0 94.0 139.0 131.5 Q 119.0 169.0 119.0 211.0 Q 119.0 258.0 139.5 297.5 Q 160.0 337.0 198.5 361.0 Q 237.0 385.0 290.0 385.0 Q 341.0 385.0 375.5 360.5 Q 410.0 336.0 427.5 297.5 Q 445.0 259.0 445.0 214.0 Q 445.0 165.0 424.5 127.5 Q 404.0 90.0 368.0 69.0 Q 332.0 48.0 286.0 48.0 Z" fill="#aaaaaa"/></g>
    <g transform="translate(16.504, 10.414) scale(0.001600, -0.001600)"><path d="M 87.0 0.0 H 94.0 Q 111.0 0.0 120.0 11.0 Q 129.0 22.0 129.0 39.0 V 60.0 Q 129.0 78.0 120.0 88.0 Q 111.0 98.0 94.0 98.0 H 87.0 Q 70.0 98.0 61.0 88.0 Q 52.0 78.0 52.0 60.0 V 39.0 Q 52.0 22.0 61.0 11.0 Q 70.0 0.0 87.0 0.0 Z" fill="#aaaaaa"/></g>
    <g transform="translate(16.794, 10.414) scale(0.001600, -0.001600)"><path d="M 297.0 -10.0 Q 379.0 -10.0 432.5 38.0 Q 486.0 86.0 513.0 167.5 Q 540.0 249.0 540.0 350.0 Q 540.0 452.0 513.0 533.5 Q 486.0 615.0 432.5 662.5 Q 379.0 710.0 297.0 710.0 Q 217.0 710.0 163.0 662.5 Q 109.0 615.0 82.0 533.5 Q 55.0 452.0 55.0 350.0 Q 55.0 249.0 82.0 167.5 Q 109.0 86.0 163.0 38.0 Q 217.0 -10.0 297.0 -10.0 Z M 297.0 52.0 Q 239.0 52.0 199.5 89.0 Q 160.0 126.0 139.5 193.5 Q 119.0 261.0 119.0 350.0 Q 119.0 440.0 139.5 507.5 Q 160.0 575.0 199.5 612.0 Q 239.0 649.0 297.0 649.0 Q 356.0 649.0 395.5 612.0 Q 435.0 575.0 455.5 507.5 Q 476.0 440.0 476.0 350.0 Q 476.0 261.0 455.5 193.5 Q 435.0 126.0 395.5 89.0 Q 356.0 52.0 297.0 52.0 Z" fill="#aaaaaa"/></g>
  <!-- Label: "MASK" -->
    <g transform="translate(4.638, 13.070) scale(0.002200, -0.002200)"><path d="M 129.0 701.0 Q 111.0 701.0 99.5 688.5 Q 88.0 676.0 88.0 660.0 V 41.0 Q 88.0 24.0 98.5 12.0 Q 109.0 0.0 126.0 0.0 Q 143.0 0.0 154.0 12.0 Q 165.0 24.0 165.0 41.0 V 546.6 L 377.0 220.0 Q 383.0 213.0 392.0 208.0 Q 401.0 203.0 410.0 203.0 Q 419.0 203.0 427.5 208.0 Q 436.0 213.0 442.0 220.0 L 653.0 541.0 V 41.0 Q 653.0 24.0 665.0 12.0 Q 677.0 0.0 695.0 0.0 Q 713.0 0.0 725.0 12.0 Q 737.0 24.0 737.0 41.0 V 660.0 Q 737.0 678.0 725.0 689.0 Q 713.0 700.0 697.0 701.0 Q 676.0 702.0 663.0 683.0 L 412.3 308.8 L 165.0 683.0 Q 159.0 691.0 148.5 696.0 Q 138.0 701.0 129.0 701.0 Z" fill="#1c1c1c"/></g>
    <g transform="translate(6.451, 13.070) scale(0.002200, -0.002200)"><path d="M 162.0 187.0 H 478.6 L 546.0 25.0 Q 551.0 12.0 561.0 5.0 Q 571.0 -2.0 583.0 -2.0 Q 598.0 -2.0 610.0 8.5 Q 622.0 19.0 622.0 37.0 Q 622.0 45.0 619.0 53.0 L 361.0 677.0 Q 357.0 689.0 346.5 696.0 Q 336.0 703.0 323.0 703.0 Q 310.0 704.0 299.5 697.5 Q 289.0 691.0 284.0 677.0 L 25.0 47.0 Q 22.0 39.0 23.0 32.0 Q 23.0 18.0 32.0 8.0 Q 41.0 -2.0 60.0 -2.0 Q 71.0 -2.0 81.0 5.0 Q 91.0 12.0 95.0 24.0 L 162.0 187.0 Z M 319.3 569.9 446.1 265.0 H 194.0 L 319.3 569.9 Z" fill="#1c1c1c"/></g>
    <g transform="translate(7.868, 13.070) scale(0.002200, -0.002200)"><path d="M 292.0 -10.0 Q 359.0 -9.0 412.5 15.5 Q 466.0 40.0 497.0 83.0 Q 528.0 126.0 528.0 181.0 Q 528.0 233.0 511.5 268.5 Q 495.0 304.0 465.0 327.0 Q 435.0 350.0 393.5 365.5 Q 352.0 381.0 303.0 393.0 Q 258.0 405.0 221.0 420.5 Q 184.0 436.0 162.0 460.5 Q 140.0 485.0 140.0 523.0 Q 140.0 557.0 159.5 581.5 Q 179.0 606.0 214.0 619.5 Q 249.0 633.0 295.0 633.0 Q 326.0 633.0 357.0 624.0 Q 388.0 615.0 414.0 600.0 Q 440.0 585.0 457.0 566.0 Q 466.0 558.0 477.0 558.0 Q 493.0 558.0 505.5 570.5 Q 518.0 583.0 518.0 598.0 Q 518.0 616.0 498.0 635.0 Q 465.0 670.0 410.5 690.0 Q 356.0 710.0 295.0 710.0 Q 226.0 710.0 173.0 686.5 Q 120.0 663.0 90.0 620.0 Q 60.0 577.0 60.0 520.0 Q 60.0 475.0 75.5 441.5 Q 91.0 408.0 119.0 384.5 Q 147.0 361.0 185.5 345.0 Q 224.0 329.0 270.0 318.0 Q 322.0 306.0 361.5 288.5 Q 401.0 271.0 423.5 245.0 Q 446.0 219.0 447.0 179.0 Q 447.0 146.0 426.0 121.0 Q 405.0 96.0 369.5 82.0 Q 334.0 68.0 290.0 68.0 Q 233.0 68.0 187.5 88.0 Q 142.0 108.0 103.0 146.0 Q 92.0 157.0 78.0 157.0 Q 61.0 157.0 49.5 144.5 Q 38.0 132.0 38.0 116.0 Q 38.0 106.0 42.5 97.5 Q 47.0 89.0 54.0 82.0 Q 106.0 34.0 162.0 12.0 Q 218.0 -10.0 292.0 -10.0 Z" fill="#1c1c1c"/></g>
    <g transform="translate(9.130, 13.070) scale(0.002200, -0.002200)"><path d="M 582.0 -2.0 Q 598.0 -2.0 612.5 9.0 Q 627.0 20.0 627.0 40.0 Q 627.0 54.0 618.0 67.0 L 356.9 401.3 L 604.0 635.0 Q 616.0 647.0 616.0 661.0 Q 616.0 675.0 605.5 688.0 Q 595.0 701.0 579.0 701.0 Q 562.0 701.0 547.0 686.0 L 171.0 325.3 V 659.0 Q 171.0 677.0 160.0 688.5 Q 149.0 700.0 130.0 700.0 Q 112.0 700.0 100.0 688.5 Q 88.0 677.0 88.0 659.0 V 41.0 Q 88.0 24.0 99.0 12.0 Q 110.0 0.0 129.0 0.0 Q 148.0 0.0 159.5 12.0 Q 171.0 24.0 171.0 41.0 V 225.5 L 294.0 341.8 L 552.0 13.0 Q 564.0 -2.0 582.0 -2.0 Z" fill="#1c1c1c"/></g>
  <!-- Label: "SHIFT" -->
    <g transform="translate(19.858, 13.070) scale(0.002200, -0.002200)"><path d="M 292.0 -10.0 Q 359.0 -9.0 412.5 15.5 Q 466.0 40.0 497.0 83.0 Q 528.0 126.0 528.0 181.0 Q 528.0 233.0 511.5 268.5 Q 495.0 304.0 465.0 327.0 Q 435.0 350.0 393.5 365.5 Q 352.0 381.0 303.0 393.0 Q 258.0 405.0 221.0 420.5 Q 184.0 436.0 162.0 460.5 Q 140.0 485.0 140.0 523.0 Q 140.0 557.0 159.5 581.5 Q 179.0 606.0 214.0 619.5 Q 249.0 633.0 295.0 633.0 Q 326.0 633.0 357.0 624.0 Q 388.0 615.0 414.0 600.0 Q 440.0 585.0 457.0 566.0 Q 466.0 558.0 477.0 558.0 Q 493.0 558.0 505.5 570.5 Q 518.0 583.0 518.0 598.0 Q 518.0 616.0 498.0 635.0 Q 465.0 670.0 410.5 690.0 Q 356.0 710.0 295.0 710.0 Q 226.0 710.0 173.0 686.5 Q 120.0 663.0 90.0 620.0 Q 60.0 577.0 60.0 520.0 Q 60.0 475.0 75.5 441.5 Q 91.0 408.0 119.0 384.5 Q 147.0 361.0 185.5 345.0 Q 224.0 329.0 270.0 318.0 Q 322.0 306.0 361.5 288.5 Q 401.0 271.0 423.5 245.0 Q 446.0 219.0 447.0 179.0 Q 447.0 146.0 426.0 121.0 Q 405.0 96.0 369.5 82.0 Q 334.0 68.0 290.0 68.0 Q 233.0 68.0 187.5 88.0 Q 142.0 108.0 103.0 146.0 Q 92.0 157.0 78.0 157.0 Q 61.0 157.0 49.5 144.5 Q 38.0 132.0 38.0 116.0 Q 38.0 106.0 42.5 97.5 Q 47.0 89.0 54.0 82.0 Q 106.0 34.0 162.0 12.0 Q 218.0 -10.0 292.0 -10.0 Z" fill="#1c1c1c"/></g>
    <g transform="translate(21.121, 13.070) scale(0.002200, -0.002200)"><path d="M 130.0 700.0 Q 112.0 700.0 100.0 688.5 Q 88.0 677.0 88.0 659.0 V 41.0 Q 88.0 24.0 99.0 12.0 Q 110.0 0.0 129.0 0.0 Q 146.0 0.0 158.5 12.0 Q 171.0 24.0 171.0 41.0 V 317.0 H 549.0 V 41.0 Q 549.0 24.0 561.0 12.0 Q 573.0 0.0 590.0 0.0 Q 608.0 0.0 620.0 12.0 Q 632.0 24.0 632.0 41.0 V 659.0 Q 632.0 677.0 620.5 688.5 Q 609.0 700.0 591.0 700.0 Q 574.0 700.0 561.5 688.5 Q 549.0 677.0 549.0 659.0 V 395.0 H 171.0 V 659.0 Q 171.0 677.0 159.0 688.5 Q 147.0 700.0 130.0 700.0 Z" fill="#1c1c1c"/></g>
    <g transform="translate(22.705, 13.070) scale(0.002200, -0.002200)"><path d="M 171.0 41.0 V 659.0 Q 171.0 677.0 159.0 688.5 Q 147.0 700.0 130.0 700.0 Q 112.0 700.0 100.0 688.5 Q 88.0 677.0 88.0 659.0 V 41.0 Q 88.0 24.0 99.0 12.0 Q 110.0 0.0 129.0 0.0 Q 146.0 0.0 158.5 12.0 Q 171.0 24.0 171.0 41.0 Z" fill="#1c1c1c"/></g>
    <g transform="translate(23.275, 13.070) scale(0.002200, -0.002200)"><path d="M 129.0 0.0 Q 146.0 0.0 158.0 12.0 Q 170.0 24.0 170.0 41.0 V 319.0 H 434.0 Q 451.0 319.0 463.0 330.5 Q 475.0 342.0 475.0 357.0 Q 475.0 374.0 463.0 385.5 Q 451.0 397.0 434.0 397.0 H 170.0 V 623.0 H 479.0 Q 496.0 623.0 508.0 634.0 Q 520.0 645.0 520.0 661.0 Q 520.0 678.0 508.0 689.0 Q 496.0 700.0 479.0 700.0 H 128.0 Q 111.0 700.0 99.5 688.5 Q 88.0 677.0 88.0 660.0 V 41.0 Q 88.0 24.0 99.5 12.0 Q 111.0 0.0 129.0 0.0 Z" fill="#1c1c1c"/></g>
    <g transform="translate(24.518, 13.070) scale(0.002200, -0.002200)"><path d="M 305.0 0.0 Q 324.0 0.0 336.0 12.0 Q 348.0 24.0 348.0 41.0 V 624.0 H 538.0 Q 555.0 624.0 567.0 634.0 Q 579.0 644.0 579.0 662.0 Q 579.0 679.0 567.0 689.5 Q 555.0 700.0 538.0 700.0 H 73.0 Q 56.0 700.0 44.5 689.5 Q 33.0 679.0 33.0 662.0 Q 33.0 645.0 44.5 634.5 Q 56.0 624.0 73.0 624.0 H 263.0 V 41.0 Q 263.0 24.0 275.0 12.0 Q 287.0 0.0 305.0 0.0 Z" fill="#1c1c1c"/></g>
  <!-- Label: "BORROW" -->
    <g transform="translate(2.679, 34.500) scale(0.002200, -0.002200)"><path d="M 389.0 700.0 H 128.0 Q 111.0 700.0 99.5 688.5 Q 88.0 677.0 88.0 660.0 V 41.0 Q 88.0 24.0 99.5 12.0 Q 111.0 0.0 128.0 0.0 H 391.0 Q 430.0 0.0 468.5 10.0 Q 507.0 20.0 538.5 43.5 Q 570.0 67.0 589.0 105.5 Q 608.0 144.0 608.0 201.0 Q 608.0 254.0 588.5 290.0 Q 569.0 326.0 537.5 348.0 Q 509.3 367.7 476.8 377.7 Q 485.5 381.4 493.5 386.0 Q 532.0 408.0 552.0 445.0 Q 572.0 482.0 572.0 526.0 Q 572.0 609.0 524.5 654.5 Q 477.0 700.0 389.0 700.0 Z M 385.0 323.0 Q 419.0 323.0 450.5 313.0 Q 482.0 303.0 502.0 276.5 Q 522.0 250.0 522.0 201.0 Q 522.0 138.0 484.5 108.0 Q 447.0 78.0 388.0 78.0 H 174.0 V 323.0 Z M 377.0 621.0 Q 428.0 621.0 457.0 593.5 Q 486.0 566.0 486.0 516.0 Q 486.0 460.0 454.5 431.5 Q 423.0 403.0 379.0 403.0 H 174.0 V 621.0 Z" fill="#1c1c1c"/></g>
    <g transform="translate(4.115, 34.500) scale(0.002200, -0.002200)"><path d="M 719.0 350.0 Q 719.0 428.0 694.0 493.5 Q 669.0 559.0 624.0 607.5 Q 579.0 656.0 517.0 683.0 Q 455.0 710.0 382.0 710.0 Q 308.0 710.0 246.5 683.0 Q 185.0 656.0 140.0 607.5 Q 95.0 559.0 70.0 493.5 Q 45.0 428.0 45.0 350.0 Q 45.0 273.0 70.0 207.5 Q 95.0 142.0 140.0 93.0 Q 185.0 44.0 246.5 17.0 Q 308.0 -10.0 382.0 -10.0 Q 455.0 -10.0 517.0 17.0 Q 579.0 44.0 624.0 93.0 Q 669.0 142.0 694.0 207.5 Q 719.0 273.0 719.0 350.0 Z M 633.0 350.0 Q 633.0 269.0 600.5 205.5 Q 568.0 142.0 512.0 106.0 Q 456.0 70.0 382.0 70.0 Q 308.0 70.0 251.5 106.0 Q 195.0 142.0 163.0 205.5 Q 131.0 269.0 131.0 350.0 Q 131.0 432.0 163.0 495.0 Q 195.0 558.0 251.5 594.0 Q 308.0 630.0 382.0 630.0 Q 456.0 630.0 512.0 594.0 Q 568.0 558.0 600.5 495.0 Q 633.0 432.0 633.0 350.0 Z" fill="#1c1c1c"/></g>
    <g transform="translate(5.796, 34.500) scale(0.002200, -0.002200)"><path d="M 134.0 0.0 Q 151.0 0.0 161.0 12.0 Q 171.0 24.0 171.0 41.0 V 284.0 H 382.0 Q 404.0 284.0 425.0 279.0 Q 446.0 274.0 463.0 261.0 Q 480.0 248.0 490.0 227.0 Q 500.0 206.0 500.0 174.0 Q 500.0 117.0 510.0 84.0 Q 520.0 51.0 535.0 33.5 Q 550.0 16.0 566.0 7.0 Q 574.0 2.0 585.0 1.0 Q 596.0 0.0 607.0 3.5 Q 618.0 7.0 624.0 16.0 Q 634.0 30.0 629.5 45.0 Q 625.0 60.0 611.0 69.0 Q 600.0 76.0 594.0 88.5 Q 588.0 101.0 585.0 123.0 Q 582.0 145.0 580.0 182.0 Q 579.0 224.0 562.0 255.5 Q 545.0 287.0 518.0 307.5 Q 504.8 317.5 489.9 324.6 Q 519.3 338.1 543.0 360.5 Q 571.0 387.0 587.0 423.5 Q 603.0 460.0 603.0 502.0 Q 603.0 560.0 576.5 604.5 Q 550.0 649.0 505.0 674.5 Q 460.0 700.0 404.0 700.0 H 128.0 Q 111.0 700.0 99.5 688.5 Q 88.0 677.0 88.0 660.0 V 41.0 Q 88.0 24.0 101.5 12.0 Q 115.0 0.0 134.0 0.0 Z M 171.0 356.0 V 623.0 H 399.0 Q 450.0 623.0 483.5 588.0 Q 517.0 553.0 517.0 500.0 Q 517.0 459.0 500.5 426.5 Q 484.0 394.0 458.5 376.0 Q 433.0 358.0 404.0 356.0 H 171.0 Z" fill="#1c1c1c"/></g>
    <g transform="translate(7.283, 34.500) scale(0.002200, -0.002200)"><path d="M 134.0 0.0 Q 151.0 0.0 161.0 12.0 Q 171.0 24.0 171.0 41.0 V 284.0 H 382.0 Q 404.0 284.0 425.0 279.0 Q 446.0 274.0 463.0 261.0 Q 480.0 248.0 490.0 227.0 Q 500.0 206.0 500.0 174.0 Q 500.0 117.0 510.0 84.0 Q 520.0 51.0 535.0 33.5 Q 550.0 16.0 566.0 7.0 Q 574.0 2.0 585.0 1.0 Q 596.0 0.0 607.0 3.5 Q 618.0 7.0 624.0 16.0 Q 634.0 30.0 629.5 45.0 Q 625.0 60.0 611.0 69.0 Q 600.0 76.0 594.0 88.5 Q 588.0 101.0 585.0 123.0 Q 582.0 145.0 580.0 182.0 Q 579.0 224.0 562.0 255.5 Q 545.0 287.0 518.0 307.5 Q 504.8 317.5 489.9 324.6 Q 519.3 338.1 543.0 360.5 Q 571.0 387.0 587.0 423.5 Q 603.0 460.0 603.0 502.0 Q 603.0 560.0 576.5 604.5 Q 550.0 649.0 505.0 674.5 Q 460.0 700.0 404.0 700.0 H 128.0 Q 111.0 700.0 99.5 688.5 Q 88.0 677.0 88.0 660.0 V 41.0 Q 88.0 24.0 101.5 12.0 Q 115.0 0.0 134.0 0.0 Z M 171.0 356.0 V 623.0 H 399.0 Q 450.0 623.0 483.5 588.0 Q 517.0 553.0 517.0 500.0 Q 517.0 459.0 500.5 426.5 Q 484.0 394.0 458.5 376.0 Q 433.0 358.0 404.0 356.0 H 171.0 Z" fill="#1c1c1c"/></g>
    <g transform="translate(8.771, 34.500) scale(0.002200, -0.002200)"><path d="M 719.0 350.0 Q 719.0 428.0 694.0 493.5 Q 669.0 559.0 624.0 607.5 Q 579.0 656.0 517.0 683.0 Q 455.0 710.0 382.0 710.0 Q 308.0 710.0 246.5 683.0 Q 185.0 656.0 140.0 607.5 Q 95.0 559.0 70.0 493.5 Q 45.0 428.0 45.0 350.0 Q 45.0 273.0 70.0 207.5 Q 95.0 142.0 140.0 93.0 Q 185.0 44.0 246.5 17.0 Q 308.0 -10.0 382.0 -10.0 Q 455.0 -10.0 517.0 17.0 Q 579.0 44.0 624.0 93.0 Q 669.0 142.0 694.0 207.5 Q 719.0 273.0 719.0 350.0 Z M 633.0 350.0 Q 633.0 269.0 600.5 205.5 Q 568.0 142.0 512.0 106.0 Q 456.0 70.0 382.0 70.0 Q 308.0 70.0 251.5 106.0 Q 195.0 142.0 163.0 205.5 Q 131.0 269.0 131.0 350.0 Q 131.0 432.0 163.0 495.0 Q 195.0 558.0 251.5 594.0 Q 308.0 630.0 382.0 630.0 Q 456.0 630.0 512.0 594.0 Q 568.0 558.0 600.5 495.0 Q 633.0 432.0 633.0 350.0 Z" fill="#1c1c1c"/></g>
    <g transform="translate(10.451, 34.500) scale(0.002200, -0.002200)"><path d="M 890.0 703.0 Q 877.0 703.0 866.0 696.0 Q 855.0 689.0 851.0 677.0 L 671.4 145.0 L 519.0 528.0 Q 515.0 540.0 504.5 547.0 Q 494.0 554.0 482.0 554.0 Q 469.0 554.0 459.0 547.0 Q 449.0 540.0 444.0 528.0 L 288.6 143.8 L 108.0 677.0 Q 104.0 689.0 93.0 696.0 Q 82.0 703.0 70.0 703.0 Q 55.0 703.0 40.5 691.5 Q 26.0 680.0 26.0 660.0 Q 26.0 654.0 28.0 646.0 L 241.0 26.0 Q 245.0 14.0 255.5 7.5 Q 266.0 1.0 277.0 0.0 Q 289.0 0.0 300.0 6.5 Q 311.0 13.0 317.0 26.0 L 479.6 418.8 L 642.0 26.0 Q 648.0 13.0 659.0 6.5 Q 670.0 0.0 682.0 0.0 Q 693.0 1.0 703.5 7.5 Q 714.0 14.0 718.0 26.0 L 931.0 646.0 Q 933.0 654.0 933.0 661.0 Q 933.0 681.0 919.5 692.0 Q 906.0 703.0 890.0 703.0 Z" fill="#1c1c1c"/></g>
  <!-- Label: "MIX" -->
    <g transform="translate(20.985, 34.500) scale(0.002200, -0.002200)"><path d="M 129.0 701.0 Q 111.0 701.0 99.5 688.5 Q 88.0 676.0 88.0 660.0 V 41.0 Q 88.0 24.0 98.5 12.0 Q 109.0 0.0 126.0 0.0 Q 143.0 0.0 154.0 12.0 Q 165.0 24.0 165.0 41.0 V 546.6 L 377.0 220.0 Q 383.0 213.0 392.0 208.0 Q 401.0 203.0 410.0 203.0 Q 419.0 203.0 427.5 208.0 Q 436.0 213.0 442.0 220.0 L 653.0 541.0 V 41.0 Q 653.0 24.0 665.0 12.0 Q 677.0 0.0 695.0 0.0 Q 713.0 0.0 725.0 12.0 Q 737.0 24.0 737.0 41.0 V 660.0 Q 737.0 678.0 725.0 689.0 Q 713.0 700.0 697.0 701.0 Q 676.0 702.0 663.0 683.0 L 412.3 308.8 L 165.0 683.0 Q 159.0 691.0 148.5 696.0 Q 138.0 701.0 129.0 701.0 Z" fill="#1c1c1c"/></g>
    <g transform="translate(22.797, 34.500) scale(0.002200, -0.002200)"><path d="M 171.0 41.0 V 659.0 Q 171.0 677.0 159.0 688.5 Q 147.0 700.0 130.0 700.0 Q 112.0 700.0 100.0 688.5 Q 88.0 677.0 88.0 659.0 V 41.0 Q 88.0 24.0 99.0 12.0 Q 110.0 0.0 129.0 0.0 Q 146.0 0.0 158.5 12.0 Q 171.0 24.0 171.0 41.0 Z" fill="#1c1c1c"/></g>
    <g transform="translate(23.367, 34.500) scale(0.002200, -0.002200)"><path d="M 547.0 703.0 Q 528.0 703.0 515.0 684.0 L 314.7 413.0 L 112.0 686.0 Q 100.0 703.0 79.0 703.0 Q 64.0 703.0 51.5 691.5 Q 39.0 680.0 39.0 663.0 Q 39.0 649.0 47.0 639.0 L 261.8 349.2 L 48.0 58.0 Q 38.0 45.0 38.0 31.0 Q 38.0 19.0 48.5 7.5 Q 59.0 -4.0 75.0 -4.0 Q 95.0 -4.0 107.0 14.0 L 307.7 287.2 L 511.0 13.0 Q 524.0 -4.0 544.0 -4.0 Q 558.0 -4.0 571.0 7.0 Q 584.0 18.0 584.0 36.0 Q 584.0 49.0 576.0 61.0 L 360.6 351.2 L 576.0 642.0 Q 585.0 654.0 585.0 667.0 Q 585.0 681.0 573.5 692.0 Q 562.0 703.0 547.0 703.0 Z" fill="#1c1c1c"/></g>
  <!-- Label: "MASK TRIM" -->
    <g transform="translate(5.180, 56.500) scale(0.001800, -0.001800)"><path d="M 129.0 701.0 Q 111.0 701.0 99.5 688.5 Q 88.0 676.0 88.0 660.0 V 41.0 Q 88.0 24.0 98.5 12.0 Q 109.0 0.0 126.0 0.0 Q 143.0 0.0 154.0 12.0 Q 165.0 24.0 165.0 41.0 V 546.6 L 377.0 220.0 Q 383.0 213.0 392.0 208.0 Q 401.0 203.0 410.0 203.0 Q 419.0 203.0 427.5 208.0 Q 436.0 213.0 442.0 220.0 L 653.0 541.0 V 41.0 Q 653.0 24.0 665.0 12.0 Q 677.0 0.0 695.0 0.0 Q 713.0 0.0 725.0 12.0 Q 737.0 24.0 737.0 41.0 V 660.0 Q 737.0 678.0 725.0 689.0 Q 713.0 700.0 697.0 701.0 Q 676.0 702.0 663.0 683.0 L 412.3 308.8 L 165.0 683.0 Q 159.0 691.0 148.5 696.0 Q 138.0 701.0 129.0 701.0 Z" fill="#2c2c2c"/></g>
    <g transform="translate(6.663, 56.500) scale(0.001800, -0.001800)"><path d="M 162.0 187.0 H 478.6 L 546.0 25.0 Q 551.0 12.0 561.0 5.0 Q 571.0 -2.0 583.0 -2.0 Q 598.0 -2.0 610.0 8.5 Q 622.0 19.0 622.0 37.0 Q 622.0 45.0 619.0 53.0 L 361.0 677.0 Q 357.0 689.0 346.5 696.0 Q 336.0 703.0 323.0 703.0 Q 310.0 704.0 299.5 697.5 Q 289.0 691.0 284.0 677.0 L 25.0 47.0 Q 22.0 39.0 23.0 32.0 Q 23.0 18.0 32.0 8.0 Q 41.0 -2.0 60.0 -2.0 Q 71.0 -2.0 81.0 5.0 Q 91.0 12.0 95.0 24.0 L 162.0 187.0 Z M 319.3 569.9 446.1 265.0 H 194.0 L 319.3 569.9 Z" fill="#2c2c2c"/></g>
    <g transform="translate(7.823, 56.500) scale(0.001800, -0.001800)"><path d="M 292.0 -10.0 Q 359.0 -9.0 412.5 15.5 Q 466.0 40.0 497.0 83.0 Q 528.0 126.0 528.0 181.0 Q 528.0 233.0 511.5 268.5 Q 495.0 304.0 465.0 327.0 Q 435.0 350.0 393.5 365.5 Q 352.0 381.0 303.0 393.0 Q 258.0 405.0 221.0 420.5 Q 184.0 436.0 162.0 460.5 Q 140.0 485.0 140.0 523.0 Q 140.0 557.0 159.5 581.5 Q 179.0 606.0 214.0 619.5 Q 249.0 633.0 295.0 633.0 Q 326.0 633.0 357.0 624.0 Q 388.0 615.0 414.0 600.0 Q 440.0 585.0 457.0 566.0 Q 466.0 558.0 477.0 558.0 Q 493.0 558.0 505.5 570.5 Q 518.0 583.0 518.0 598.0 Q 518.0 616.0 498.0 635.0 Q 465.0 670.0 410.5 690.0 Q 356.0 710.0 295.0 710.0 Q 226.0 710.0 173.0 686.5 Q 120.0 663.0 90.0 620.0 Q 60.0 577.0 60.0 520.0 Q 60.0 475.0 75.5 441.5 Q 91.0 408.0 119.0 384.5 Q 147.0 361.0 185.5 345.0 Q 224.0 329.0 270.0 318.0 Q 322.0 306.0 361.5 288.5 Q 401.0 271.0 423.5 245.0 Q 446.0 219.0 447.0 179.0 Q 447.0 146.0 426.0 121.0 Q 405.0 96.0 369.5 82.0 Q 334.0 68.0 290.0 68.0 Q 233.0 68.0 187.5 88.0 Q 142.0 108.0 103.0 146.0 Q 92.0 157.0 78.0 157.0 Q 61.0 157.0 49.5 144.5 Q 38.0 132.0 38.0 116.0 Q 38.0 106.0 42.5 97.5 Q 47.0 89.0 54.0 82.0 Q 106.0 34.0 162.0 12.0 Q 218.0 -10.0 292.0 -10.0 Z" fill="#2c2c2c"/></g>
    <g transform="translate(8.856, 56.500) scale(0.001800, -0.001800)"><path d="M 582.0 -2.0 Q 598.0 -2.0 612.5 9.0 Q 627.0 20.0 627.0 40.0 Q 627.0 54.0 618.0 67.0 L 356.9 401.3 L 604.0 635.0 Q 616.0 647.0 616.0 661.0 Q 616.0 675.0 605.5 688.0 Q 595.0 701.0 579.0 701.0 Q 562.0 701.0 547.0 686.0 L 171.0 325.3 V 659.0 Q 171.0 677.0 160.0 688.5 Q 149.0 700.0 130.0 700.0 Q 112.0 700.0 100.0 688.5 Q 88.0 677.0 88.0 659.0 V 41.0 Q 88.0 24.0 99.0 12.0 Q 110.0 0.0 129.0 0.0 Q 148.0 0.0 159.5 12.0 Q 171.0 24.0 171.0 41.0 V 225.5 L 294.0 341.8 L 552.0 13.0 Q 564.0 -2.0 582.0 -2.0 Z" fill="#2c2c2c"/></g>
  <!-- Label: "SHIFT TRIM" -->
    <g transform="translate(20.404, 56.500) scale(0.001800, -0.001800)"><path d="M 292.0 -10.0 Q 359.0 -9.0 412.5 15.5 Q 466.0 40.0 497.0 83.0 Q 528.0 126.0 528.0 181.0 Q 528.0 233.0 511.5 268.5 Q 495.0 304.0 465.0 327.0 Q 435.0 350.0 393.5 365.5 Q 352.0 381.0 303.0 393.0 Q 258.0 405.0 221.0 420.5 Q 184.0 436.0 162.0 460.5 Q 140.0 485.0 140.0 523.0 Q 140.0 557.0 159.5 581.5 Q 179.0 606.0 214.0 619.5 Q 249.0 633.0 295.0 633.0 Q 326.0 633.0 357.0 624.0 Q 388.0 615.0 414.0 600.0 Q 440.0 585.0 457.0 566.0 Q 466.0 558.0 477.0 558.0 Q 493.0 558.0 505.5 570.5 Q 518.0 583.0 518.0 598.0 Q 518.0 616.0 498.0 635.0 Q 465.0 670.0 410.5 690.0 Q 356.0 710.0 295.0 710.0 Q 226.0 710.0 173.0 686.5 Q 120.0 663.0 90.0 620.0 Q 60.0 577.0 60.0 520.0 Q 60.0 475.0 75.5 441.5 Q 91.0 408.0 119.0 384.5 Q 147.0 361.0 185.5 345.0 Q 224.0 329.0 270.0 318.0 Q 322.0 306.0 361.5 288.5 Q 401.0 271.0 423.5 245.0 Q 446.0 219.0 447.0 179.0 Q 447.0 146.0 426.0 121.0 Q 405.0 96.0 369.5 82.0 Q 334.0 68.0 290.0 68.0 Q 233.0 68.0 187.5 88.0 Q 142.0 108.0 103.0 146.0 Q 92.0 157.0 78.0 157.0 Q 61.0 157.0 49.5 144.5 Q 38.0 132.0 38.0 116.0 Q 38.0 106.0 42.5 97.5 Q 47.0 89.0 54.0 82.0 Q 106.0 34.0 162.0 12.0 Q 218.0 -10.0 292.0 -10.0 Z" fill="#2c2c2c"/></g>
    <g transform="translate(21.437, 56.500) scale(0.001800, -0.001800)"><path d="M 130.0 700.0 Q 112.0 700.0 100.0 688.5 Q 88.0 677.0 88.0 659.0 V 41.0 Q 88.0 24.0 99.0 12.0 Q 110.0 0.0 129.0 0.0 Q 146.0 0.0 158.5 12.0 Q 171.0 24.0 171.0 41.0 V 317.0 H 549.0 V 41.0 Q 549.0 24.0 561.0 12.0 Q 573.0 0.0 590.0 0.0 Q 608.0 0.0 620.0 12.0 Q 632.0 24.0 632.0 41.0 V 659.0 Q 632.0 677.0 620.5 688.5 Q 609.0 700.0 591.0 700.0 Q 574.0 700.0 561.5 688.5 Q 549.0 677.0 549.0 659.0 V 395.0 H 171.0 V 659.0 Q 171.0 677.0 159.0 688.5 Q 147.0 700.0 130.0 700.0 Z" fill="#2c2c2c"/></g>
    <g transform="translate(22.733, 56.500) scale(0.001800, -0.001800)"><path d="M 171.0 41.0 V 659.0 Q 171.0 677.0 159.0 688.5 Q 147.0 700.0 130.0 700.0 Q 112.0 700.0 100.0 688.5 Q 88.0 677.0 88.0 659.0 V 41.0 Q 88.0 24.0 99.0 12.0 Q 110.0 0.0 129.0 0.0 Q 146.0 0.0 158.5 12.0 Q 171.0 24.0 171.0 41.0 Z" fill="#2c2c2c"/></g>
    <g transform="translate(23.199, 56.500) scale(0.001800, -0.001800)"><path d="M 129.0 0.0 Q 146.0 0.0 158.0 12.0 Q 170.0 24.0 170.0 41.0 V 319.0 H 434.0 Q 451.0 319.0 463.0 330.5 Q 475.0 342.0 475.0 357.0 Q 475.0 374.0 463.0 385.5 Q 451.0 397.0 434.0 397.0 H 170.0 V 623.0 H 479.0 Q 496.0 623.0 508.0 634.0 Q 520.0 645.0 520.0 661.0 Q 520.0 678.0 508.0 689.0 Q 496.0 700.0 479.0 700.0 H 128.0 Q 111.0 700.0 99.5 688.5 Q 88.0 677.0 88.0 660.0 V 41.0 Q 88.0 24.0 99.5 12.0 Q 111.0 0.0 129.0 0.0 Z" fill="#2c2c2c"/></g>
    <g transform="translate(24.216, 56.500) scale(0.001800, -0.001800)"><path d="M 305.0 0.0 Q 324.0 0.0 336.0 12.0 Q 348.0 24.0 348.0 41.0 V 624.0 H 538.0 Q 555.0 624.0 567.0 634.0 Q 579.0 644.0 579.0 662.0 Q 579.0 679.0 567.0 689.5 Q 555.0 700.0 538.0 700.0 H 73.0 Q 56.0 700.0 44.5 689.5 Q 33.0 679.0 33.0 662.0 Q 33.0 645.0 44.5 634.5 Q 56.0 624.0 73.0 624.0 H 263.0 V 41.0 Q 263.0 24.0 275.0 12.0 Q 287.0 0.0 305.0 0.0 Z" fill="#2c2c2c"/></g>
  <!-- Label: "BORROW TRIM" -->
    <g transform="translate(3.577, 68.500) scale(0.001800, -0.001800)"><path d="M 389.0 700.0 H 128.0 Q 111.0 700.0 99.5 688.5 Q 88.0 677.0 88.0 660.0 V 41.0 Q 88.0 24.0 99.5 12.0 Q 111.0 0.0 128.0 0.0 H 391.0 Q 430.0 0.0 468.5 10.0 Q 507.0 20.0 538.5 43.5 Q 570.0 67.0 589.0 105.5 Q 608.0 144.0 608.0 201.0 Q 608.0 254.0 588.5 290.0 Q 569.0 326.0 537.5 348.0 Q 509.3 367.7 476.8 377.7 Q 485.5 381.4 493.5 386.0 Q 532.0 408.0 552.0 445.0 Q 572.0 482.0 572.0 526.0 Q 572.0 609.0 524.5 654.5 Q 477.0 700.0 389.0 700.0 Z M 385.0 323.0 Q 419.0 323.0 450.5 313.0 Q 482.0 303.0 502.0 276.5 Q 522.0 250.0 522.0 201.0 Q 522.0 138.0 484.5 108.0 Q 447.0 78.0 388.0 78.0 H 174.0 V 323.0 Z M 377.0 621.0 Q 428.0 621.0 457.0 593.5 Q 486.0 566.0 486.0 516.0 Q 486.0 460.0 454.5 431.5 Q 423.0 403.0 379.0 403.0 H 174.0 V 621.0 Z" fill="#2c2c2c"/></g>
    <g transform="translate(4.753, 68.500) scale(0.001800, -0.001800)"><path d="M 719.0 350.0 Q 719.0 428.0 694.0 493.5 Q 669.0 559.0 624.0 607.5 Q 579.0 656.0 517.0 683.0 Q 455.0 710.0 382.0 710.0 Q 308.0 710.0 246.5 683.0 Q 185.0 656.0 140.0 607.5 Q 95.0 559.0 70.0 493.5 Q 45.0 428.0 45.0 350.0 Q 45.0 273.0 70.0 207.5 Q 95.0 142.0 140.0 93.0 Q 185.0 44.0 246.5 17.0 Q 308.0 -10.0 382.0 -10.0 Q 455.0 -10.0 517.0 17.0 Q 579.0 44.0 624.0 93.0 Q 669.0 142.0 694.0 207.5 Q 719.0 273.0 719.0 350.0 Z M 633.0 350.0 Q 633.0 269.0 600.5 205.5 Q 568.0 142.0 512.0 106.0 Q 456.0 70.0 382.0 70.0 Q 308.0 70.0 251.5 106.0 Q 195.0 142.0 163.0 205.5 Q 131.0 269.0 131.0 350.0 Q 131.0 432.0 163.0 495.0 Q 195.0 558.0 251.5 594.0 Q 308.0 630.0 382.0 630.0 Q 456.0 630.0 512.0 594.0 Q 568.0 558.0 600.5 495.0 Q 633.0 432.0 633.0 350.0 Z" fill="#2c2c2c"/></g>
    <g transform="translate(6.128, 68.500) scale(0.001800, -0.001800)"><path d="M 134.0 0.0 Q 151.0 0.0 161.0 12.0 Q 171.0 24.0 171.0 41.0 V 284.0 H 382.0 Q 404.0 284.0 425.0 279.0 Q 446.0 274.0 463.0 261.0 Q 480.0 248.0 490.0 227.0 Q 500.0 206.0 500.0 174.0 Q 500.0 117.0 510.0 84.0 Q 520.0 51.0 535.0 33.5 Q 550.0 16.0 566.0 7.0 Q 574.0 2.0 585.0 1.0 Q 596.0 0.0 607.0 3.5 Q 618.0 7.0 624.0 16.0 Q 634.0 30.0 629.5 45.0 Q 625.0 60.0 611.0 69.0 Q 600.0 76.0 594.0 88.5 Q 588.0 101.0 585.0 123.0 Q 582.0 145.0 580.0 182.0 Q 579.0 224.0 562.0 255.5 Q 545.0 287.0 518.0 307.5 Q 504.8 317.5 489.9 324.6 Q 519.3 338.1 543.0 360.5 Q 571.0 387.0 587.0 423.5 Q 603.0 460.0 603.0 502.0 Q 603.0 560.0 576.5 604.5 Q 550.0 649.0 505.0 674.5 Q 460.0 700.0 404.0 700.0 H 128.0 Q 111.0 700.0 99.5 688.5 Q 88.0 677.0 88.0 660.0 V 41.0 Q 88.0 24.0 101.5 12.0 Q 115.0 0.0 134.0 0.0 Z M 171.0 356.0 V 623.0 H 399.0 Q 450.0 623.0 483.5 588.0 Q 517.0 553.0 517.0 500.0 Q 517.0 459.0 500.5 426.5 Q 484.0 394.0 458.5 376.0 Q 433.0 358.0 404.0 356.0 H 171.0 Z" fill="#2c2c2c"/></g>
    <g transform="translate(7.345, 68.500) scale(0.001800, -0.001800)"><path d="M 134.0 0.0 Q 151.0 0.0 161.0 12.0 Q 171.0 24.0 171.0 41.0 V 284.0 H 382.0 Q 404.0 284.0 425.0 279.0 Q 446.0 274.0 463.0 261.0 Q 480.0 248.0 490.0 227.0 Q 500.0 206.0 500.0 174.0 Q 500.0 117.0 510.0 84.0 Q 520.0 51.0 535.0 33.5 Q 550.0 16.0 566.0 7.0 Q 574.0 2.0 585.0 1.0 Q 596.0 0.0 607.0 3.5 Q 618.0 7.0 624.0 16.0 Q 634.0 30.0 629.5 45.0 Q 625.0 60.0 611.0 69.0 Q 600.0 76.0 594.0 88.5 Q 588.0 101.0 585.0 123.0 Q 582.0 145.0 580.0 182.0 Q 579.0 224.0 562.0 255.5 Q 545.0 287.0 518.0 307.5 Q 504.8 317.5 489.9 324.6 Q 519.3 338.1 543.0 360.5 Q 571.0 387.0 587.0 423.5 Q 603.0 460.0 603.0 502.0 Q 603.0 560.0 576.5 604.5 Q 550.0 649.0 505.0 674.5 Q 460.0 700.0 404.0 700.0 H 128.0 Q 111.0 700.0 99.5 688.5 Q 88.0 677.0 88.0 660.0 V 41.0 Q 88.0 24.0 101.5 12.0 Q 115.0 0.0 134.0 0.0 Z M 171.0 356.0 V 623.0 H 399.0 Q 450.0 623.0 483.5 588.0 Q 517.0 553.0 517.0 500.0 Q 517.0 459.0 500.5 426.5 Q 484.0 394.0 458.5 376.0 Q 433.0 358.0 404.0 356.0 H 171.0 Z" fill="#2c2c2c"/></g>
    <g transform="translate(8.561, 68.500) scale(0.001800, -0.001800)"><path d="M 719.0 350.0 Q 719.0 428.0 694.0 493.5 Q 669.0 559.0 624.0 607.5 Q 579.0 656.0 517.0 683.0 Q 455.0 710.0 382.0 710.0 Q 308.0 710.0 246.5 683.0 Q 185.0 656.0 140.0 607.5 Q 95.0 559.0 70.0 493.5 Q 45.0 428.0 45.0 350.0 Q 45.0 273.0 70.0 207.5 Q 95.0 142.0 140.0 93.0 Q 185.0 44.0 246.5 17.0 Q 308.0 -10.0 382.0 -10.0 Q 455.0 -10.0 517.0 17.0 Q 579.0 44.0 624.0 93.0 Q 669.0 142.0 694.0 207.5 Q 719.0 273.0 719.0 350.0 Z M 633.0 350.0 Q 633.0 269.0 600.5 205.5 Q 568.0 142.0 512.0 106.0 Q 456.0 70.0 382.0 70.0 Q 308.0 70.0 251.5 106.0 Q 195.0 142.0 163.0 205.5 Q 131.0 269.0 131.0 350.0 Q 131.0 432.0 163.0 495.0 Q 195.0 558.0 251.5 594.0 Q 308.0 630.0 382.0 630.0 Q 456.0 630.0 512.0 594.0 Q 568.0 558.0 600.5 495.0 Q 633.0 432.0 633.0 350.0 Z" fill="#2c2c2c"/></g>
    <g transform="translate(9.937, 68.500) scale(0.001800, -0.001800)"><path d="M 890.0 703.0 Q 877.0 703.0 866.0 696.0 Q 855.0 689.0 851.0 677.0 L 671.4 145.0 L 519.0 528.0 Q 515.0 540.0 504.5 547.0 Q 494.0 554.0 482.0 554.0 Q 469.0 554.0 459.0 547.0 Q 449.0 540.0 444.0 528.0 L 288.6 143.8 L 108.0 677.0 Q 104.0 689.0 93.0 696.0 Q 82.0 703.0 70.0 703.0 Q 55.0 703.0 40.5 691.5 Q 26.0 680.0 26.0 660.0 Q 26.0 654.0 28.0 646.0 L 241.0 26.0 Q 245.0 14.0 255.5 7.5 Q 266.0 1.0 277.0 0.0 Q 289.0 0.0 300.0 6.5 Q 311.0 13.0 317.0 26.0 L 479.6 418.8 L 642.0 26.0 Q 648.0 13.0 659.0 6.5 Q 670.0 0.0 682.0 0.0 Q 693.0 1.0 703.5 7.5 Q 714.0 14.0 718.0 26.0 L 931.0 646.0 Q 933.0 654.0 933.0 661.0 Q 933.0 681.0 919.5 692.0 Q 906.0 703.0 890.0 703.0 Z" fill="#2c2c2c"/></g>
  <!-- Label: "MIX TRIM" -->
    <g transform="translate(21.325, 68.500) scale(0.001800, -0.001800)"><path d="M 129.0 701.0 Q 111.0 701.0 99.5 688.5 Q 88.0 676.0 88.0 660.0 V 41.0 Q 88.0 24.0 98.5 12.0 Q 109.0 0.0 126.0 0.0 Q 143.0 0.0 154.0 12.0 Q 165.0 24.0 165.0 41.0 V 546.6 L 377.0 220.0 Q 383.0 213.0 392.0 208.0 Q 401.0 203.0 410.0 203.0 Q 419.0 203.0 427.5 208.0 Q 436.0 213.0 442.0 220.0 L 653.0 541.0 V 41.0 Q 653.0 24.0 665.0 12.0 Q 677.0 0.0 695.0 0.0 Q 713.0 0.0 725.0 12.0 Q 737.0 24.0 737.0 41.0 V 660.0 Q 737.0 678.0 725.0 689.0 Q 713.0 700.0 697.0 701.0 Q 676.0 702.0 663.0 683.0 L 412.3 308.8 L 165.0 683.0 Q 159.0 691.0 148.5 696.0 Q 138.0 701.0 129.0 701.0 Z" fill="#2c2c2c"/></g>
    <g transform="translate(22.809, 68.500) scale(0.001800, -0.001800)"><path d="M 171.0 41.0 V 659.0 Q 171.0 677.0 159.0 688.5 Q 147.0 700.0 130.0 700.0 Q 112.0 700.0 100.0 688.5 Q 88.0 677.0 88.0 659.0 V 41.0 Q 88.0 24.0 99.0 12.0 Q 110.0 0.0 129.0 0.0 Q 146.0 0.0 158.5 12.0 Q 171.0 24.0 171.0 41.0 Z" fill="#2c2c2c"/></g>
    <g transform="translate(23.275, 68.500) scale(0.001800, -0.001800)"><path d="M 547.0 703.0 Q 528.0 703.0 515.0 684.0 L 314.7 413.0 L 112.0 686.0 Q 100.0 703.0 79.0 703.0 Q 64.0 703.0 51.5 691.5 Q 39.0 680.0 39.0 663.0 Q 39.0 649.0 47.0 639.0 L 261.8 349.2 L 48.0 58.0 Q 38.0 45.0 38.0 31.0 Q 38.0 19.0 48.5 7.5 Q 59.0 -4.0 75.0 -4.0 Q 95.0 -4.0 107.0 14.0 L 307.7 287.2 L 511.0 13.0 Q 524.0 -4.0 544.0 -4.0 Q 558.0 -4.0 571.0 7.0 Q 584.0 18.0 584.0 36.0 Q 584.0 49.0 576.0 61.0 L 360.6 351.2 L 576.0 642.0 Q 585.0 654.0 585.0 667.0 Q 585.0 681.0 573.5 692.0 Q 562.0 703.0 547.0 703.0 Z" fill="#2c2c2c"/></g>
  <!-- Label: "X" -->
    <g transform="translate(6.687, 84.000) scale(0.003000, -0.003000)"><path d="M 547.0 703.0 Q 528.0 703.0 515.0 684.0 L 314.7 413.0 L 112.0 686.0 Q 100.0 703.0 79.0 703.0 Q 64.0 703.0 51.5 691.5 Q 39.0 680.0 39.0 663.0 Q 39.0 649.0 47.0 639.0 L 261.8 349.2 L 48.0 58.0 Q 38.0 45.0 38.0 31.0 Q 38.0 19.0 48.5 7.5 Q 59.0 -4.0 75.0 -4.0 Q 95.0 -4.0 107.0 14.0 L 307.7 287.2 L 511.0 13.0 Q 524.0 -4.0 544.0 -4.0 Q 558.0 -4.0 571.0 7.0 Q 584.0 18.0 584.0 36.0 Q 584.0 49.0 576.0 61.0 L 360.6 351.2 L 576.0 642.0 Q 585.0 654.0 585.0 667.0 Q 585.0 681.0 573.5 692.0 Q 562.0 703.0 547.0 703.0 Z" fill="#1c1c1c"/></g>
  <!-- Label: "Y" -->
    <g transform="translate(22.002, 84.000) scale(0.003000, -0.003000)"><path d="M 514.0 704.0 Q 494.0 704.0 481.0 684.0 L 290.3 415.7 L 94.0 685.0 Q 81.0 704.0 61.0 704.0 Q 47.0 704.0 33.0 692.5 Q 19.0 681.0 19.0 664.0 Q 19.0 657.0 21.5 649.5 Q 24.0 642.0 30.0 634.0 L 248.0 339.5 V 41.0 Q 248.0 24.0 259.5 12.0 Q 271.0 0.0 289.0 0.0 Q 305.0 0.0 316.5 12.0 Q 328.0 24.0 328.0 41.0 V 333.1 L 547.0 638.0 Q 551.0 644.0 552.5 650.5 Q 554.0 657.0 554.0 663.0 Q 554.0 679.0 542.5 691.5 Q 531.0 704.0 514.0 704.0 Z" fill="#1c1c1c"/></g>
  <!-- Label: "IN" -->
    <g transform="translate(14.053, 88.000) scale(0.002400, -0.002400)"><path d="M 171.0 41.0 V 659.0 Q 171.0 677.0 159.0 688.5 Q 147.0 700.0 130.0 700.0 Q 112.0 700.0 100.0 688.5 Q 88.0 677.0 88.0 659.0 V 41.0 Q 88.0 24.0 99.0 12.0 Q 110.0 0.0 129.0 0.0 Q 146.0 0.0 158.5 12.0 Q 171.0 24.0 171.0 41.0 Z" fill="#2c2c2c"/></g>
    <g transform="translate(14.675, 88.000) scale(0.002400, -0.002400)"><path d="M 606.0 700.0 Q 590.0 700.0 579.5 689.5 Q 569.0 679.0 569.0 663.0 V 145.2 L 160.0 686.0 Q 155.0 693.0 145.5 696.5 Q 136.0 700.0 127.0 700.0 Q 111.0 700.0 99.5 689.0 Q 88.0 678.0 88.0 660.0 V 37.0 Q 88.0 21.0 98.0 10.5 Q 108.0 0.0 124.0 0.0 Q 141.0 0.0 151.5 10.5 Q 162.0 21.0 162.0 37.0 V 552.6 L 570.0 13.0 Q 575.0 7.0 584.0 3.5 Q 593.0 0.0 602.0 0.0 Q 619.0 0.0 631.0 11.5 Q 643.0 23.0 643.0 42.0 V 663.0 Q 643.0 679.0 633.0 689.5 Q 623.0 700.0 606.0 700.0 Z" fill="#2c2c2c"/></g>
  <!-- Label: "CV" -->
    <g transform="translate(13.663, 97.500) scale(0.002400, -0.002400)"><path d="M 592.0 654.0 Q 551.0 680.0 501.5 694.0 Q 452.0 708.0 400.0 708.0 Q 325.0 708.0 260.5 681.0 Q 196.0 654.0 147.5 606.0 Q 99.0 558.0 72.0 493.0 Q 45.0 428.0 45.0 350.0 Q 45.0 267.0 73.5 200.5 Q 102.0 134.0 151.0 87.0 Q 200.0 40.0 264.0 15.0 Q 328.0 -10.0 400.0 -10.0 Q 435.0 -10.0 469.5 -3.0 Q 504.0 4.0 536.0 16.5 Q 568.0 29.0 593.0 44.0 Q 609.0 52.0 612.0 69.5 Q 615.0 87.0 603.0 103.0 Q 593.0 115.0 579.0 117.0 Q 565.0 119.0 551.0 112.0 Q 517.0 91.0 479.0 80.0 Q 441.0 69.0 400.0 69.0 Q 343.0 69.0 294.5 88.0 Q 246.0 107.0 209.5 143.5 Q 173.0 180.0 152.0 232.0 Q 131.0 284.0 131.0 350.0 Q 131.0 412.0 151.0 463.0 Q 171.0 514.0 207.0 551.0 Q 243.0 588.0 292.0 608.5 Q 341.0 629.0 400.0 629.0 Q 442.0 629.0 480.0 617.5 Q 518.0 606.0 551.0 586.0 Q 565.0 579.0 579.0 580.0 Q 593.0 581.0 602.0 594.0 Q 614.0 609.0 611.5 627.0 Q 609.0 645.0 592.0 654.0 Z" fill="#2c2c2c"/></g>
    <g transform="translate(15.211, 97.500) scale(0.002400, -0.002400)"><path d="M 596.0 701.0 Q 571.0 701.0 559.0 676.0 L 339.3 131.9 L 112.0 674.0 Q 100.0 702.0 73.0 702.0 Q 60.0 702.0 46.5 691.5 Q 33.0 681.0 33.0 662.0 Q 33.0 657.0 34.0 652.5 Q 35.0 648.0 37.0 644.0 L 297.0 26.0 Q 302.0 14.0 312.0 7.5 Q 322.0 1.0 333.0 0.0 Q 345.0 0.0 355.5 6.5 Q 366.0 13.0 372.0 26.0 L 633.0 645.0 Q 637.0 655.0 637.0 663.0 Q 637.0 680.0 625.0 690.5 Q 613.0 701.0 596.0 701.0 Z" fill="#2c2c2c"/></g>
  <!-- Label: "CV" -->
    <g transform="translate(13.663, 107.000) scale(0.002400, -0.002400)"><path d="M 592.0 654.0 Q 551.0 680.0 501.5 694.0 Q 452.0 708.0 400.0 708.0 Q 325.0 708.0 260.5 681.0 Q 196.0 654.0 147.5 606.0 Q 99.0 558.0 72.0 493.0 Q 45.0 428.0 45.0 350.0 Q 45.0 267.0 73.5 200.5 Q 102.0 134.0 151.0 87.0 Q 200.0 40.0 264.0 15.0 Q 328.0 -10.0 400.0 -10.0 Q 435.0 -10.0 469.5 -3.0 Q 504.0 4.0 536.0 16.5 Q 568.0 29.0 593.0 44.0 Q 609.0 52.0 612.0 69.5 Q 615.0 87.0 603.0 103.0 Q 593.0 115.0 579.0 117.0 Q 565.0 119.0 551.0 112.0 Q 517.0 91.0 479.0 80.0 Q 441.0 69.0 400.0 69.0 Q 343.0 69.0 294.5 88.0 Q 246.0 107.0 209.5 143.5 Q 173.0 180.0 152.0 232.0 Q 131.0 284.0 131.0 350.0 Q 131.0 412.0 151.0 463.0 Q 171.0 514.0 207.0 551.0 Q 243.0 588.0 292.0 608.5 Q 341.0 629.0 400.0 629.0 Q 442.0 629.0 480.0 617.5 Q 518.0 606.0 551.0 586.0 Q 565.0 579.0 579.0 580.0 Q 593.0 581.0 602.0 594.0 Q 614.0 609.0 611.5 627.0 Q 609.0 645.0 592.0 654.0 Z" fill="#2c2c2c"/></g>
    <g transform="translate(15.211, 107.000) scale(0.002400, -0.002400)"><path d="M 596.0 701.0 Q 571.0 701.0 559.0 676.0 L 339.3 131.9 L 112.0 674.0 Q 100.0 702.0 73.0 702.0 Q 60.0 702.0 46.5 691.5 Q 33.0 681.0 33.0 662.0 Q 33.0 657.0 34.0 652.5 Q 35.0 648.0 37.0 644.0 L 297.0 26.0 Q 302.0 14.0 312.0 7.5 Q 322.0 1.0 333.0 0.0 Q 345.0 0.0 355.5 6.5 Q 366.0 13.0 372.0 26.0 L 633.0 645.0 Q 637.0 655.0 637.0 663.0 Q 637.0 680.0 625.0 690.5 Q 613.0 701.0 596.0 701.0 Z" fill="#2c2c2c"/></g>
  <!-- Label: "OUT" -->
    <g transform="translate(12.738, 116.500) scale(0.002400, -0.002400)"><path d="M 719.0 350.0 Q 719.0 428.0 694.0 493.5 Q 669.0 559.0 624.0 607.5 Q 579.0 656.0 517.0 683.0 Q 455.0 710.0 382.0 710.0 Q 308.0 710.0 246.5 683.0 Q 185.0 656.0 140.0 607.5 Q 95.0 559.0 70.0 493.5 Q 45.0 428.0 45.0 350.0 Q 45.0 273.0 70.0 207.5 Q 95.0 142.0 140.0 93.0 Q 185.0 44.0 246.5 17.0 Q 308.0 -10.0 382.0 -10.0 Q 455.0 -10.0 517.0 17.0 Q 579.0 44.0 624.0 93.0 Q 669.0 142.0 694.0 207.5 Q 719.0 273.0 719.0 350.0 Z M 633.0 350.0 Q 633.0 269.0 600.5 205.5 Q 568.0 142.0 512.0 106.0 Q 456.0 70.0 382.0 70.0 Q 308.0 70.0 251.5 106.0 Q 195.0 142.0 163.0 205.5 Q 131.0 269.0 131.0 350.0 Q 131.0 432.0 163.0 495.0 Q 195.0 558.0 251.5 594.0 Q 308.0 630.0 382.0 630.0 Q 456.0 630.0 512.0 594.0 Q 568.0 558.0 600.5 495.0 Q 633.0 432.0 633.0 350.0 Z" fill="#2c2c2c"/></g>
    <g transform="translate(14.572, 116.500) scale(0.002400, -0.002400)"><path d="M 584.0 701.0 Q 566.0 701.0 556.0 689.0 Q 546.0 677.0 546.0 660.0 V 263.0 Q 546.0 208.0 519.5 165.0 Q 493.0 122.0 450.0 97.5 Q 407.0 73.0 356.0 73.0 Q 306.0 73.0 263.5 97.5 Q 221.0 122.0 196.0 165.0 Q 171.0 208.0 171.0 263.0 V 660.0 Q 171.0 677.0 158.5 689.0 Q 146.0 701.0 130.0 701.0 Q 111.0 701.0 99.5 689.0 Q 88.0 677.0 88.0 660.0 V 263.0 Q 88.0 186.0 123.0 125.0 Q 158.0 64.0 218.5 28.5 Q 279.0 -7.0 356.0 -7.0 Q 432.0 -7.0 492.0 28.5 Q 552.0 64.0 587.5 125.0 Q 623.0 186.0 623.0 263.0 V 660.0 Q 623.0 677.0 612.0 689.0 Q 601.0 701.0 584.0 701.0 Z" fill="#2c2c2c"/></g>
    <g transform="translate(16.276, 116.500) scale(0.002400, -0.002400)"><path d="M 305.0 0.0 Q 324.0 0.0 336.0 12.0 Q 348.0 24.0 348.0 41.0 V 624.0 H 538.0 Q 555.0 624.0 567.0 634.0 Q 579.0 644.0 579.0 662.0 Q 579.0 679.0 567.0 689.5 Q 555.0 700.0 538.0 700.0 H 73.0 Q 56.0 700.0 44.5 689.5 Q 33.0 679.0 33.0 662.0 Q 33.0 645.0 44.5 634.5 Q 56.0 624.0 73.0 624.0 H 263.0 V 41.0 Q 263.0 24.0 275.0 12.0 Q 287.0 0.0 305.0 0.0 Z" fill="#2c2c2c"/></g>
</svg>
