<?xml version="1.0" encoding="UTF-8"?>
<svg xmlns="http://www.w3.org/2000/svg" width="30.48mm" height="128.5mm" viewBox="0 0 30.48 128.5">
  <!-- Panel Background: 6 HP -->
  <rect width="30.48" height="128.5" fill="#6e6e6e"/>

  <!-- Left Edge Color Badge (Centered 88.9mm x 1.35mm, Flush X=0) -->
  <g id="palette-badge">
    <rect x="0.000" y="19.800" width="1.350" height="42.672" fill="#FFFFFF" stroke="none"/>
    <rect x="0.000" y="62.472" width="1.350" height="17.780" fill="#882255" stroke="none"/>
    <rect x="0.000" y="80.252" width="1.350" height="28.448" fill="#56B4E9" stroke="none"/>
  </g>

  <!-- Delineator Line 1 (Main Controls / Attenuverters) -->
  <line x1="2.54" y1="52.50" x2="27.94" y2="52.50" stroke="#999999" stroke-width="0.176"/>

  <!-- Delineator Line 2 (Attenuverters / I/O Jacks) -->
  <line x1="2.54" y1="80.50" x2="27.94" y2="80.50" stroke="#999999" stroke-width="0.176"/>

  <!-- Label: "crest" -->
    <g transform="translate(10.265, 7.620) scale(0.004800, -0.004800)"><path d="M 461.6 373.9 C 453.1 383.8 438.2 385.0 428.2 376.6 L 34.3 41.7 C 26.8 35.3 24.0 24.8 27.4 15.5 C 30.9 6.2 39.7 -1.5e-05 49.7 -1.5e-05 H 384.5 C 397.6 -1.5e-05 408.2 10.6 408.2 23.7 C 408.2 36.8 397.6 47.4 384.5 47.4 H 114.1 L 458.9 340.5 C 468.9 349.0 470.1 363.9 461.6 373.9 Z" fill="#ffffff"/></g>
    <g transform="translate(12.554, 7.620) scale(0.004800, -0.004800)"><path d="M 302.2 373.9 C 293.7 383.8 278.8 385.0 268.8 376.6 L 121.9 251.7 L 140.1 354.4 C 142.3 367.3 133.7 379.6 120.8 381.9 C 108.0 384.1 95.7 375.5 93.4 362.6 L 34.4 27.8 C 32.1 14.9 40.7 2.6 53.6 0.4 C 55.0 0.1 56.3 0.0 57.7 0.0 C 69.0 0.0 79.0 8.1 81.0 19.6 L 109.1 178.6 L 299.5 340.5 C 309.5 349.0 310.7 363.9 302.2 373.9 Z" fill="#ffffff"/></g>
    <g transform="translate(13.913, 7.620) scale(0.004800, -0.004800)"><path d="M 475.8 366.7 C 472.4 376.0 463.5 382.2 453.6 382.2 H 118.7 C 107.2 382.2 97.4 374.0 95.4 362.6 L 36.4 28.0 C 36.3 27.4 36.2 26.9 36.1 26.3 C 36.1 25.7 36.0 25.1 36.0 24.4 C 35.8 18.8 37.7 13.0 41.6 8.4 C 45.7 3.6 51.2 0.8 56.9 0.2 C 56.9 0.2 56.9 0.2 56.9 0.2 C 56.9 0.2 56.9 0.2 57.0 0.2 C 57.4 0.1 57.8 0.1 58.2 0.1 H 58.2 C 58.7 0.0 59.2 0.0 59.7 0.0 H 394.5 C 407.6 0.0 418.2 10.6 418.2 23.7 C 418.2 36.8 407.6 47.4 394.5 47.4 H 124.1 L 468.9 340.5 C 476.5 346.9 479.2 357.4 475.8 366.7 Z M 94.4 84.3 138.6 334.8 H 389.2 Z" fill="#ffffff"/></g>
    <g transform="translate(16.169, 7.620) scale(0.004800, -0.004800)"><path d="M 473.1 368.4 C 467.6 380.3 453.6 385.5 441.7 380.0 L 77.3 212.6 C 67.2 208.0 61.7 196.9 64.1 186.0 C 66.4 175.2 76.1 167.4 87.2 167.4 H 393.8 L 372.7 47.4 H 57.7 C 44.6 47.4 34.0 36.8 34.0 23.7 C 34.0 10.6 44.6 1.5e-05 57.7 1.5e-05 H 392.5 C 404.0 1.5e-05 413.9 8.3 415.8 19.6 L 445.4 187.0 C 446.6 193.9 444.7 201.0 440.2 206.3 C 435.7 211.7 429.0 214.8 422.0 214.8 H 195.5 L 461.5 337.0 C 473.3 342.5 478.5 356.5 473.1 368.4 Z" fill="#ffffff"/></g>
    <g transform="translate(18.334, 7.620) scale(0.004800, -0.004800)"><path d="M 392.5 382.2 H 253.3 L 307.5 689.3 C 309.7 702.1 301.1 714.4 288.3 716.7 C 275.4 718.9 263.1 710.4 260.8 697.5 L 205.2 382.2 H 57.7 C 44.6 382.2 34.0 371.6 34.0 358.5 C 34.0 345.5 44.6 334.8 57.7 334.8 H 196.9 L 142.7 27.8 C 141.0 18.0 145.6 8.1 154.3 3.1 C 158.0 1.0 162.0 -1.5e-05 166.1 -1.5e-05 C 171.6 -1.5e-05 177.0 1.9 181.4 5.6 L 378.4 173.1 C 388.3 181.5 389.5 196.5 381.1 206.4 C 372.6 216.4 357.6 217.6 347.7 209.1 L 200.8 84.3 L 245.0 334.8 H 392.5 C 405.6 334.8 416.2 345.5 416.2 358.5 C 416.2 371.6 405.6 382.2 392.5 382.2 Z" fill="#ffffff"/></g>
  <!-- Label: "v1.0.5" -->
    <g transform="translate(13.255, 10.414) scale(0.001600, -0.001600)"><path d="M 74.0 526.0 Q 55.0 526.0 44.5 514.5 Q 34.0 503.0 34.0 490.0 Q 34.0 483.0 35.5 478.0 Q 37.0 473.0 39.0 469.0 L 232.0 26.0 Q 237.0 12.0 248.5 5.5 Q 260.0 -1.0 273.0 0.0 Q 297.0 1.0 308.0 26.0 L 501.0 470.0 Q 503.0 474.0 504.5 479.5 Q 506.0 485.0 506.0 491.0 Q 506.0 506.0 495.0 516.0 Q 484.0 526.0 469.0 526.0 Q 443.0 527.0 432.0 500.0 L 272.7 125.8 L 113.0 501.0 Q 108.0 513.0 97.0 519.5 Q 86.0 526.0 74.0 526.0 Z" fill="#aaaaaa"/></g>
    <g transform="translate(14.119, 10.414) scale(0.001600, -0.001600)"><path d="M 230.0 0.0 Q 249.0 0.0 261.5 12.0 Q 274.0 24.0 274.0 41.0 V 660.0 Q 274.0 677.0 263.5 688.5 Q 253.0 700.0 235.0 700.0 Q 227.0 701.0 219.0 699.0 Q 211.0 697.0 203.0 692.0 L 44.0 587.0 Q 23.0 574.0 23.0 552.0 Q 23.0 536.0 35.0 523.5 Q 47.0 511.0 64.0 511.0 Q 77.0 511.0 87.0 518.0 L 188.0 587.7 V 41.0 Q 188.0 24.0 200.0 12.0 Q 212.0 0.0 230.0 0.0 Z" fill="#aaaaaa"/></g>
    <g transform="translate(14.721, 10.414) scale(0.001600, -0.001600)"><path d="M 98.0 1.0 H 106.0 Q 128.0 1.0 139.0 13.0 Q 150.0 25.0 150.0 46.0 V 66.0 Q 150.0 88.0 139.0 100.0 Q 128.0 112.0 106.0 112.0 H 98.0 Q 77.0 112.0 65.5 100.0 Q 54.0 88.0 54.0 66.0 V 46.0 Q 54.0 25.0 65.5 13.0 Q 77.0 1.0 98.0 1.0 Z" fill="#aaaaaa"/></g>
    <g transform="translate(15.047, 10.414) scale(0.001600, -0.001600)"><path d="M 301.0 -10.0 Q 384.0 -10.0 439.5 37.0 Q 495.0 84.0 523.0 166.0 Q 551.0 248.0 551.0 350.0 Q 551.0 454.0 523.0 535.0 Q 495.0 616.0 439.5 663.0 Q 384.0 710.0 301.0 710.0 Q 218.0 710.0 162.5 663.0 Q 107.0 616.0 78.5 535.0 Q 50.0 454.0 50.0 350.0 Q 50.0 248.0 78.5 166.0 Q 107.0 84.0 162.5 37.0 Q 218.0 -10.0 301.0 -10.0 Z M 301.0 71.0 Q 248.0 71.0 211.5 105.0 Q 175.0 139.0 155.5 201.5 Q 136.0 264.0 136.0 350.0 Q 136.0 437.0 155.5 499.5 Q 175.0 562.0 211.5 595.5 Q 248.0 629.0 301.0 629.0 Q 354.0 629.0 390.5 595.5 Q 427.0 562.0 446.0 499.5 Q 465.0 437.0 465.0 350.0 Q 465.0 264.0 446.0 201.5 Q 427.0 139.0 390.5 105.0 Q 354.0 71.0 301.0 71.0 Z" fill="#aaaaaa"/></g>
    <g transform="translate(16.009, 10.414) scale(0.001600, -0.001600)"><path d="M 98.0 1.0 H 106.0 Q 128.0 1.0 139.0 13.0 Q 150.0 25.0 150.0 46.0 V 66.0 Q 150.0 88.0 139.0 100.0 Q 128.0 112.0 106.0 112.0 H 98.0 Q 77.0 112.0 65.5 100.0 Q 54.0 88.0 54.0 66.0 V 46.0 Q 54.0 25.0 65.5 13.0 Q 77.0 1.0 98.0 1.0 Z" fill="#aaaaaa"/></g>
    <g transform="translate(16.335, 10.414) scale(0.001600, -0.001600)"><path d="M 237.0 -4.0 Q 317.0 -4.0 375.5 26.5 Q 434.0 57.0 466.0 112.0 Q 498.0 167.0 498.0 240.0 Q 498.0 306.0 468.0 357.0 Q 438.0 408.0 386.5 437.5 Q 335.0 467.0 270.0 467.0 Q 239.0 467.0 209.5 460.0 Q 180.0 453.0 157.5 443.0 Q 151.2 440.2 145.8 437.4 L 175.5 619.0 H 444.0 Q 460.0 619.0 471.0 629.5 Q 482.0 640.0 482.0 656.0 Q 482.0 673.0 471.0 684.0 Q 460.0 695.0 444.0 695.0 H 147.0 Q 131.0 695.0 120.0 685.0 Q 109.0 675.0 106.0 662.0 L 67.0 403.0 Q 66.0 392.0 69.0 379.0 Q 72.0 366.0 82.0 357.5 Q 92.0 349.0 111.0 349.0 Q 126.0 349.0 146.5 360.0 Q 167.0 371.0 194.5 381.5 Q 222.0 392.0 257.0 392.0 Q 304.0 392.0 340.5 373.0 Q 377.0 354.0 397.5 319.5 Q 418.0 285.0 418.0 239.0 Q 418.0 188.0 396.0 150.0 Q 374.0 112.0 333.0 91.0 Q 292.0 70.0 236.0 70.0 Q 209.0 70.0 182.0 80.0 Q 155.0 90.0 133.0 107.0 Q 116.0 120.0 103.0 120.0 Q 86.0 120.0 75.5 108.5 Q 65.0 97.0 65.0 85.0 Q 65.0 75.0 70.0 64.0 Q 75.0 53.0 83.0 46.0 Q 114.0 21.0 155.5 8.5 Q 197.0 -4.0 237.0 -4.0 Z" fill="#aaaaaa"/></g>
  <!-- Label: "X" -->
    <g transform="translate(6.687, 13.070) scale(0.003000, -0.003000)"><path d="M 547.0 703.0 Q 528.0 703.0 515.0 684.0 L 314.7 413.0 L 112.0 686.0 Q 100.0 703.0 79.0 703.0 Q 64.0 703.0 51.5 691.5 Q 39.0 680.0 39.0 663.0 Q 39.0 649.0 47.0 639.0 L 261.8 349.2 L 48.0 58.0 Q 38.0 45.0 38.0 31.0 Q 38.0 19.0 48.5 7.5 Q 59.0 -4.0 75.0 -4.0 Q 95.0 -4.0 107.0 14.0 L 307.7 287.2 L 511.0 13.0 Q 524.0 -4.0 544.0 -4.0 Q 558.0 -4.0 571.0 7.0 Q 584.0 18.0 584.0 36.0 Q 584.0 49.0 576.0 61.0 L 360.6 351.2 L 576.0 642.0 Q 585.0 654.0 585.0 667.0 Q 585.0 681.0 573.5 692.0 Q 562.0 703.0 547.0 703.0 Z" fill="#1c1c1c"/></g>
  <!-- Label: "Y" -->
    <g transform="translate(22.002, 13.070) scale(0.003000, -0.003000)"><path d="M 514.0 704.0 Q 494.0 704.0 481.0 684.0 L 290.3 415.7 L 94.0 685.0 Q 81.0 704.0 61.0 704.0 Q 47.0 704.0 33.0 692.5 Q 19.0 681.0 19.0 664.0 Q 19.0 657.0 21.5 649.5 Q 24.0 642.0 30.0 634.0 L 248.0 339.5 V 41.0 Q 248.0 24.0 259.5 12.0 Q 271.0 0.0 289.0 0.0 Q 305.0 0.0 316.5 12.0 Q 328.0 24.0 328.0 41.0 V 333.1 L 547.0 638.0 Q 551.0 644.0 552.5 650.5 Q 554.0 657.0 554.0 663.0 Q 554.0 679.0 542.5 691.5 Q 531.0 704.0 514.0 704.0 Z" fill="#1c1c1c"/></g>
  <!-- Label: "TILT" -->
    <g transform="translate(12.206, 34.500) scale(0.003000, -0.003000)"><path d="M 305.0 0.0 Q 324.0 0.0 336.0 12.0 Q 348.0 24.0 348.0 41.0 V 624.0 H 538.0 Q 555.0 624.0 567.0 634.0 Q 579.0 644.0 579.0 662.0 Q 579.0 679.0 567.0 689.5 Q 555.0 700.0 538.0 700.0 H 73.0 Q 56.0 700.0 44.5 689.5 Q 33.0 679.0 33.0 662.0 Q 33.0 645.0 44.5 634.5 Q 56.0 624.0 73.0 624.0 H 263.0 V 41.0 Q 263.0 24.0 275.0 12.0 Q 287.0 0.0 305.0 0.0 Z" fill="#1c1c1c"/></g>
    <g transform="translate(14.039, 34.500) scale(0.003000, -0.003000)"><path d="M 171.0 41.0 V 659.0 Q 171.0 677.0 159.0 688.5 Q 147.0 700.0 130.0 700.0 Q 112.0 700.0 100.0 688.5 Q 88.0 677.0 88.0 659.0 V 41.0 Q 88.0 24.0 99.0 12.0 Q 110.0 0.0 129.0 0.0 Q 146.0 0.0 158.5 12.0 Q 171.0 24.0 171.0 41.0 Z" fill="#1c1c1c"/></g>
    <g transform="translate(14.816, 34.500) scale(0.003000, -0.003000)"><path d="M 474.0 79.0 H 171.0 V 660.0 Q 171.0 677.0 159.0 688.5 Q 147.0 700.0 130.0 700.0 Q 112.0 700.0 100.0 688.5 Q 88.0 677.0 88.0 660.0 V 41.0 Q 88.0 24.0 99.5 12.0 Q 111.0 0.0 128.0 0.0 H 474.0 Q 491.0 0.0 503.0 11.0 Q 515.0 22.0 515.0 39.0 Q 515.0 56.0 503.0 67.5 Q 491.0 79.0 474.0 79.0 Z" fill="#1c1c1c"/></g>
    <g transform="translate(16.442, 34.500) scale(0.003000, -0.003000)"><path d="M 305.0 0.0 Q 324.0 0.0 336.0 12.0 Q 348.0 24.0 348.0 41.0 V 624.0 H 538.0 Q 555.0 624.0 567.0 634.0 Q 579.0 644.0 579.0 662.0 Q 579.0 679.0 567.0 689.5 Q 555.0 700.0 538.0 700.0 H 73.0 Q 56.0 700.0 44.5 689.5 Q 33.0 679.0 33.0 662.0 Q 33.0 645.0 44.5 634.5 Q 56.0 624.0 73.0 624.0 H 263.0 V 41.0 Q 263.0 24.0 275.0 12.0 Q 287.0 0.0 305.0 0.0 Z" fill="#1c1c1c"/></g>
  <!-- Label: "X AMT CV" -->
    <g transform="translate(3.952, 56.500) scale(0.002000, -0.002000)"><path d="M 162.0 187.0 H 478.6 L 546.0 25.0 Q 551.0 12.0 561.0 5.0 Q 571.0 -2.0 583.0 -2.0 Q 598.0 -2.0 610.0 8.5 Q 622.0 19.0 622.0 37.0 Q 622.0 45.0 619.0 53.0 L 361.0 677.0 Q 357.0 689.0 346.5 696.0 Q 336.0 703.0 323.0 703.0 Q 310.0 704.0 299.5 697.5 Q 289.0 691.0 284.0 677.0 L 25.0 47.0 Q 22.0 39.0 23.0 32.0 Q 23.0 18.0 32.0 8.0 Q 41.0 -2.0 60.0 -2.0 Q 71.0 -2.0 81.0 5.0 Q 91.0 12.0 95.0 24.0 L 162.0 187.0 Z M 319.3 569.9 446.1 265.0 H 194.0 L 319.3 569.9 Z" fill="#2c2c2c"/></g>
    <g transform="translate(5.240, 56.500) scale(0.002000, -0.002000)"><path d="M 129.0 701.0 Q 111.0 701.0 99.5 688.5 Q 88.0 676.0 88.0 660.0 V 41.0 Q 88.0 24.0 98.5 12.0 Q 109.0 0.0 126.0 0.0 Q 143.0 0.0 154.0 12.0 Q 165.0 24.0 165.0 41.0 V 546.6 L 377.0 220.0 Q 383.0 213.0 392.0 208.0 Q 401.0 203.0 410.0 203.0 Q 419.0 203.0 427.5 208.0 Q 436.0 213.0 442.0 220.0 L 653.0 541.0 V 41.0 Q 653.0 24.0 665.0 12.0 Q 677.0 0.0 695.0 0.0 Q 713.0 0.0 725.0 12.0 Q 737.0 24.0 737.0 41.0 V 660.0 Q 737.0 678.0 725.0 689.0 Q 713.0 700.0 697.0 701.0 Q 676.0 702.0 663.0 683.0 L 412.3 308.8 L 165.0 683.0 Q 159.0 691.0 148.5 696.0 Q 138.0 701.0 129.0 701.0 Z" fill="#2c2c2c"/></g>
    <g transform="translate(6.888, 56.500) scale(0.002000, -0.002000)"><path d="M 305.0 0.0 Q 324.0 0.0 336.0 12.0 Q 348.0 24.0 348.0 41.0 V 624.0 H 538.0 Q 555.0 624.0 567.0 634.0 Q 579.0 644.0 579.0 662.0 Q 579.0 679.0 567.0 689.5 Q 555.0 700.0 538.0 700.0 H 73.0 Q 56.0 700.0 44.5 689.5 Q 33.0 679.0 33.0 662.0 Q 33.0 645.0 44.5 634.5 Q 56.0 624.0 73.0 624.0 H 263.0 V 41.0 Q 263.0 24.0 275.0 12.0 Q 287.0 0.0 305.0 0.0 Z" fill="#2c2c2c"/></g>
    <g transform="translate(8.660, 56.500) scale(0.002000, -0.002000)"><path d="M 592.0 654.0 Q 551.0 680.0 501.5 694.0 Q 452.0 708.0 400.0 708.0 Q 325.0 708.0 260.5 681.0 Q 196.0 654.0 147.5 606.0 Q 99.0 558.0 72.0 493.0 Q 45.0 428.0 45.0 350.0 Q 45.0 267.0 73.5 200.5 Q 102.0 134.0 151.0 87.0 Q 200.0 40.0 264.0 15.0 Q 328.0 -10.0 400.0 -10.0 Q 435.0 -10.0 469.5 -3.0 Q 504.0 4.0 536.0 16.5 Q 568.0 29.0 593.0 44.0 Q 609.0 52.0 612.0 69.5 Q 615.0 87.0 603.0 103.0 Q 593.0 115.0 579.0 117.0 Q 565.0 119.0 551.0 112.0 Q 517.0 91.0 479.0 80.0 Q 441.0 69.0 400.0 69.0 Q 343.0 69.0 294.5 88.0 Q 246.0 107.0 209.5 143.5 Q 173.0 180.0 152.0 232.0 Q 131.0 284.0 131.0 350.0 Q 131.0 412.0 151.0 463.0 Q 171.0 514.0 207.0 551.0 Q 243.0 588.0 292.0 608.5 Q 341.0 629.0 400.0 629.0 Q 442.0 629.0 480.0 617.5 Q 518.0 606.0 551.0 586.0 Q 565.0 579.0 579.0 580.0 Q 593.0 581.0 602.0 594.0 Q 614.0 609.0 611.5 627.0 Q 609.0 645.0 592.0 654.0 Z" fill="#2c2c2c"/></g>
    <g transform="translate(9.950, 56.500) scale(0.002000, -0.002000)"><path d="M 596.0 701.0 Q 571.0 701.0 559.0 676.0 L 339.3 131.9 L 112.0 674.0 Q 100.0 702.0 73.0 702.0 Q 60.0 702.0 46.5 691.5 Q 33.0 681.0 33.0 662.0 Q 33.0 657.0 34.0 652.5 Q 35.0 648.0 37.0 644.0 L 297.0 26.0 Q 302.0 14.0 312.0 7.5 Q 322.0 1.0 333.0 0.0 Q 345.0 0.0 355.5 6.5 Q 366.0 13.0 372.0 26.0 L 633.0 645.0 Q 637.0 655.0 637.0 663.0 Q 637.0 680.0 625.0 690.5 Q 613.0 701.0 596.0 701.0 Z" fill="#2c2c2c"/></g>
  <!-- Label: "Y AMT CV" -->
    <g transform="translate(19.192, 56.500) scale(0.002000, -0.002000)"><path d="M 162.0 187.0 H 478.6 L 546.0 25.0 Q 551.0 12.0 561.0 5.0 Q 571.0 -2.0 583.0 -2.0 Q 598.0 -2.0 610.0 8.5 Q 622.0 19.0 622.0 37.0 Q 622.0 45.0 619.0 53.0 L 361.0 677.0 Q 357.0 689.0 346.5 696.0 Q 336.0 703.0 323.0 703.0 Q 310.0 704.0 299.5 697.5 Q 289.0 691.0 284.0 677.0 L 25.0 47.0 Q 22.0 39.0 23.0 32.0 Q 23.0 18.0 32.0 8.0 Q 41.0 -2.0 60.0 -2.0 Q 71.0 -2.0 81.0 5.0 Q 91.0 12.0 95.0 24.0 L 162.0 187.0 Z M 319.3 569.9 446.1 265.0 H 194.0 L 319.3 569.9 Z" fill="#2c2c2c"/></g>
    <g transform="translate(20.480, 56.500) scale(0.002000, -0.002000)"><path d="M 129.0 701.0 Q 111.0 701.0 99.5 688.5 Q 88.0 676.0 88.0 660.0 V 41.0 Q 88.0 24.0 98.5 12.0 Q 109.0 0.0 126.0 0.0 Q 143.0 0.0 154.0 12.0 Q 165.0 24.0 165.0 41.0 V 546.6 L 377.0 220.0 Q 383.0 213.0 392.0 208.0 Q 401.0 203.0 410.0 203.0 Q 419.0 203.0 427.5 208.0 Q 436.0 213.0 442.0 220.0 L 653.0 541.0 V 41.0 Q 653.0 24.0 665.0 12.0 Q 677.0 0.0 695.0 0.0 Q 713.0 0.0 725.0 12.0 Q 737.0 24.0 737.0 41.0 V 660.0 Q 737.0 678.0 725.0 689.0 Q 713.0 700.0 697.0 701.0 Q 676.0 702.0 663.0 683.0 L 412.3 308.8 L 165.0 683.0 Q 159.0 691.0 148.5 696.0 Q 138.0 701.0 129.0 701.0 Z" fill="#2c2c2c"/></g>
    <g transform="translate(22.128, 56.500) scale(0.002000, -0.002000)"><path d="M 305.0 0.0 Q 324.0 0.0 336.0 12.0 Q 348.0 24.0 348.0 41.0 V 624.0 H 538.0 Q 555.0 624.0 567.0 634.0 Q 579.0 644.0 579.0 662.0 Q 579.0 679.0 567.0 689.5 Q 555.0 700.0 538.0 700.0 H 73.0 Q 56.0 700.0 44.5 689.5 Q 33.0 679.0 33.0 662.0 Q 33.0 645.0 44.5 634.5 Q 56.0 624.0 73.0 624.0 H 263.0 V 41.0 Q 263.0 24.0 275.0 12.0 Q 287.0 0.0 305.0 0.0 Z" fill="#2c2c2c"/></g>
    <g transform="translate(23.900, 56.500) scale(0.002000, -0.002000)"><path d="M 592.0 654.0 Q 551.0 680.0 501.5 694.0 Q 452.0 708.0 400.0 708.0 Q 325.0 708.0 260.5 681.0 Q 196.0 654.0 147.5 606.0 Q 99.0 558.0 72.0 493.0 Q 45.0 428.0 45.0 350.0 Q 45.0 267.0 73.5 200.5 Q 102.0 134.0 151.0 87.0 Q 200.0 40.0 264.0 15.0 Q 328.0 -10.0 400.0 -10.0 Q 435.0 -10.0 469.5 -3.0 Q 504.0 4.0 536.0 16.5 Q 568.0 29.0 593.0 44.0 Q 609.0 52.0 612.0 69.5 Q 615.0 87.0 603.0 103.0 Q 593.0 115.0 579.0 117.0 Q 565.0 119.0 551.0 112.0 Q 517.0 91.0 479.0 80.0 Q 441.0 69.0 400.0 69.0 Q 343.0 69.0 294.5 88.0 Q 246.0 107.0 209.5 143.5 Q 173.0 180.0 152.0 232.0 Q 131.0 284.0 131.0 350.0 Q 131.0 412.0 151.0 463.0 Q 171.0 514.0 207.0 551.0 Q 243.0 588.0 292.0 608.5 Q 341.0 629.0 400.0 629.0 Q 442.0 629.0 480.0 617.5 Q 518.0 606.0 551.0 586.0 Q 565.0 579.0 579.0 580.0 Q 593.0 581.0 602.0 594.0 Q 614.0 609.0 611.5 627.0 Q 609.0 645.0 592.0 654.0 Z" fill="#2c2c2c"/></g>
    <g transform="translate(25.190, 56.500) scale(0.002000, -0.002000)"><path d="M 596.0 701.0 Q 571.0 701.0 559.0 676.0 L 339.3 131.9 L 112.0 674.0 Q 100.0 702.0 73.0 702.0 Q 60.0 702.0 46.5 691.5 Q 33.0 681.0 33.0 662.0 Q 33.0 657.0 34.0 652.5 Q 35.0 648.0 37.0 644.0 L 297.0 26.0 Q 302.0 14.0 312.0 7.5 Q 322.0 1.0 333.0 0.0 Q 345.0 0.0 355.5 6.5 Q 366.0 13.0 372.0 26.0 L 633.0 645.0 Q 637.0 655.0 637.0 663.0 Q 637.0 680.0 625.0 690.5 Q 613.0 701.0 596.0 701.0 Z" fill="#2c2c2c"/></g>
  <!-- Label: "X TILT CV" -->
    <g transform="translate(4.008, 68.500) scale(0.002000, -0.002000)"><path d="M 305.0 0.0 Q 324.0 0.0 336.0 12.0 Q 348.0 24.0 348.0 41.0 V 624.0 H 538.0 Q 555.0 624.0 567.0 634.0 Q 579.0 644.0 579.0 662.0 Q 579.0 679.0 567.0 689.5 Q 555.0 700.0 538.0 700.0 H 73.0 Q 56.0 700.0 44.5 689.5 Q 33.0 679.0 33.0 662.0 Q 33.0 645.0 44.5 634.5 Q 56.0 624.0 73.0 624.0 H 263.0 V 41.0 Q 263.0 24.0 275.0 12.0 Q 287.0 0.0 305.0 0.0 Z" fill="#2c2c2c"/></g>
    <g transform="translate(5.230, 68.500) scale(0.002000, -0.002000)"><path d="M 171.0 41.0 V 659.0 Q 171.0 677.0 159.0 688.5 Q 147.0 700.0 130.0 700.0 Q 112.0 700.0 100.0 688.5 Q 88.0 677.0 88.0 659.0 V 41.0 Q 88.0 24.0 99.0 12.0 Q 110.0 0.0 129.0 0.0 Q 146.0 0.0 158.5 12.0 Q 171.0 24.0 171.0 41.0 Z" fill="#2c2c2c"/></g>
    <g transform="translate(5.748, 68.500) scale(0.002000, -0.002000)"><path d="M 474.0 79.0 H 171.0 V 660.0 Q 171.0 677.0 159.0 688.5 Q 147.0 700.0 130.0 700.0 Q 112.0 700.0 100.0 688.5 Q 88.0 677.0 88.0 660.0 V 41.0 Q 88.0 24.0 99.5 12.0 Q 111.0 0.0 128.0 0.0 H 474.0 Q 491.0 0.0 503.0 11.0 Q 515.0 22.0 515.0 39.0 Q 515.0 56.0 503.0 67.5 Q 491.0 79.0 474.0 79.0 Z" fill="#2c2c2c"/></g>
    <g transform="translate(6.832, 68.500) scale(0.002000, -0.002000)"><path d="M 305.0 0.0 Q 324.0 0.0 336.0 12.0 Q 348.0 24.0 348.0 41.0 V 624.0 H 538.0 Q 555.0 624.0 567.0 634.0 Q 579.0 644.0 579.0 662.0 Q 579.0 679.0 567.0 689.5 Q 555.0 700.0 538.0 700.0 H 73.0 Q 56.0 700.0 44.5 689.5 Q 33.0 679.0 33.0 662.0 Q 33.0 645.0 44.5 634.5 Q 56.0 624.0 73.0 624.0 H 263.0 V 41.0 Q 263.0 24.0 275.0 12.0 Q 287.0 0.0 305.0 0.0 Z" fill="#2c2c2c"/></g>
    <g transform="translate(8.604, 68.500) scale(0.002000, -0.002000)"><path d="M 592.0 654.0 Q 551.0 680.0 501.5 694.0 Q 452.0 708.0 400.0 708.0 Q 325.0 708.0 260.5 681.0 Q 196.0 654.0 147.5 606.0 Q 99.0 558.0 72.0 493.0 Q 45.0 428.0 45.0 350.0 Q 45.0 267.0 73.5 200.5 Q 102.0 134.0 151.0 87.0 Q 200.0 40.0 264.0 15.0 Q 328.0 -10.0 400.0 -10.0 Q 435.0 -10.0 469.5 -3.0 Q 504.0 4.0 536.0 16.5 Q 568.0 29.0 593.0 44.0 Q 609.0 52.0 612.0 69.5 Q 615.0 87.0 603.0 103.0 Q 593.0 115.0 579.0 117.0 Q 565.0 119.0 551.0 112.0 Q 517.0 91.0 479.0 80.0 Q 441.0 69.0 400.0 69.0 Q 343.0 69.0 294.5 88.0 Q 246.0 107.0 209.5 143.5 Q 173.0 180.0 152.0 232.0 Q 131.0 284.0 131.0 350.0 Q 131.0 412.0 151.0 463.0 Q 171.0 514.0 207.0 551.0 Q 243.0 588.0 292.0 608.5 Q 341.0 629.0 400.0 629.0 Q 442.0 629.0 480.0 617.5 Q 518.0 606.0 551.0 586.0 Q 565.0 579.0 579.0 580.0 Q 593.0 581.0 602.0 594.0 Q 614.0 609.0 611.5 627.0 Q 609.0 645.0 592.0 654.0 Z" fill="#2c2c2c"/></g>
    <g transform="translate(9.894, 68.500) scale(0.002000, -0.002000)"><path d="M 596.0 701.0 Q 571.0 701.0 559.0 676.0 L 339.3 131.9 L 112.0 674.0 Q 100.0 702.0 73.0 702.0 Q 60.0 702.0 46.5 691.5 Q 33.0 681.0 33.0 662.0 Q 33.0 657.0 34.0 652.5 Q 35.0 648.0 37.0 644.0 L 297.0 26.0 Q 302.0 14.0 312.0 7.5 Q 322.0 1.0 333.0 0.0 Q 345.0 0.0 355.5 6.5 Q 366.0 13.0 372.0 26.0 L 633.0 645.0 Q 637.0 655.0 637.0 663.0 Q 637.0 680.0 625.0 690.5 Q 613.0 701.0 596.0 701.0 Z" fill="#2c2c2c"/></g>
  <!-- Label: "Y TILT CV" -->
    <g transform="translate(19.248, 68.500) scale(0.002000, -0.002000)"><path d="M 305.0 0.0 Q 324.0 0.0 336.0 12.0 Q 348.0 24.0 348.0 41.0 V 624.0 H 538.0 Q 555.0 624.0 567.0 634.0 Q 579.0 644.0 579.0 662.0 Q 579.0 679.0 567.0 689.5 Q 555.0 700.0 538.0 700.0 H 73.0 Q 56.0 700.0 44.5 689.5 Q 33.0 679.0 33.0 662.0 Q 33.0 645.0 44.5 634.5 Q 56.0 624.0 73.0 624.0 H 263.0 V 41.0 Q 263.0 24.0 275.0 12.0 Q 287.0 0.0 305.0 0.0 Z" fill="#2c2c2c"/></g>
    <g transform="translate(20.470, 68.500) scale(0.002000, -0.002000)"><path d="M 171.0 41.0 V 659.0 Q 171.0 677.0 159.0 688.5 Q 147.0 700.0 130.0 700.0 Q 112.0 700.0 100.0 688.5 Q 88.0 677.0 88.0 659.0 V 41.0 Q 88.0 24.0 99.0 12.0 Q 110.0 0.0 129.0 0.0 Q 146.0 0.0 158.5 12.0 Q 171.0 24.0 171.0 41.0 Z" fill="#2c2c2c"/></g>
    <g transform="translate(20.988, 68.500) scale(0.002000, -0.002000)"><path d="M 474.0 79.0 H 171.0 V 660.0 Q 171.0 677.0 159.0 688.5 Q 147.0 700.0 130.0 700.0 Q 112.0 700.0 100.0 688.5 Q 88.0 677.0 88.0 660.0 V 41.0 Q 88.0 24.0 99.5 12.0 Q 111.0 0.0 128.0 0.0 H 474.0 Q 491.0 0.0 503.0 11.0 Q 515.0 22.0 515.0 39.0 Q 515.0 56.0 503.0 67.5 Q 491.0 79.0 474.0 79.0 Z" fill="#2c2c2c"/></g>
    <g transform="translate(22.072, 68.500) scale(0.002000, -0.002000)"><path d="M 305.0 0.0 Q 324.0 0.0 336.0 12.0 Q 348.0 24.0 348.0 41.0 V 624.0 H 538.0 Q 555.0 624.0 567.0 634.0 Q 579.0 644.0 579.0 662.0 Q 579.0 679.0 567.0 689.5 Q 555.0 700.0 538.0 700.0 H 73.0 Q 56.0 700.0 44.5 689.5 Q 33.0 679.0 33.0 662.0 Q 33.0 645.0 44.5 634.5 Q 56.0 624.0 73.0 624.0 H 263.0 V 41.0 Q 263.0 24.0 275.0 12.0 Q 287.0 0.0 305.0 0.0 Z" fill="#2c2c2c"/></g>
    <g transform="translate(23.844, 68.500) scale(0.002000, -0.002000)"><path d="M 592.0 654.0 Q 551.0 680.0 501.5 694.0 Q 452.0 708.0 400.0 708.0 Q 325.0 708.0 260.5 681.0 Q 196.0 654.0 147.5 606.0 Q 99.0 558.0 72.0 493.0 Q 45.0 428.0 45.0 350.0 Q 45.0 267.0 73.5 200.5 Q 102.0 134.0 151.0 87.0 Q 200.0 40.0 264.0 15.0 Q 328.0 -10.0 400.0 -10.0 Q 435.0 -10.0 469.5 -3.0 Q 504.0 4.0 536.0 16.5 Q 568.0 29.0 593.0 44.0 Q 609.0 52.0 612.0 69.5 Q 615.0 87.0 603.0 103.0 Q 593.0 115.0 579.0 117.0 Q 565.0 119.0 551.0 112.0 Q 517.0 91.0 479.0 80.0 Q 441.0 69.0 400.0 69.0 Q 343.0 69.0 294.5 88.0 Q 246.0 107.0 209.5 143.5 Q 173.0 180.0 152.0 232.0 Q 131.0 284.0 131.0 350.0 Q 131.0 412.0 151.0 463.0 Q 171.0 514.0 207.0 551.0 Q 243.0 588.0 292.0 608.5 Q 341.0 629.0 400.0 629.0 Q 442.0 629.0 480.0 617.5 Q 518.0 606.0 551.0 586.0 Q 565.0 579.0 579.0 580.0 Q 593.0 581.0 602.0 594.0 Q 614.0 609.0 611.5 627.0 Q 609.0 645.0 592.0 654.0 Z" fill="#2c2c2c"/></g>
    <g transform="translate(25.134, 68.500) scale(0.002000, -0.002000)"><path d="M 596.0 701.0 Q 571.0 701.0 559.0 676.0 L 339.3 131.9 L 112.0 674.0 Q 100.0 702.0 73.0 702.0 Q 60.0 702.0 46.5 691.5 Q 33.0 681.0 33.0 662.0 Q 33.0 657.0 34.0 652.5 Q 35.0 648.0 37.0 644.0 L 297.0 26.0 Q 302.0 14.0 312.0 7.5 Q 322.0 1.0 333.0 0.0 Q 345.0 0.0 355.5 6.5 Q 366.0 13.0 372.0 26.0 L 633.0 645.0 Q 637.0 655.0 637.0 663.0 Q 637.0 680.0 625.0 690.5 Q 613.0 701.0 596.0 701.0 Z" fill="#2c2c2c"/></g>
  <!-- Label: "X" -->
    <g transform="translate(6.687, 84.000) scale(0.003000, -0.003000)"><path d="M 547.0 703.0 Q 528.0 703.0 515.0 684.0 L 314.7 413.0 L 112.0 686.0 Q 100.0 703.0 79.0 703.0 Q 64.0 703.0 51.5 691.5 Q 39.0 680.0 39.0 663.0 Q 39.0 649.0 47.0 639.0 L 261.8 349.2 L 48.0 58.0 Q 38.0 45.0 38.0 31.0 Q 38.0 19.0 48.5 7.5 Q 59.0 -4.0 75.0 -4.0 Q 95.0 -4.0 107.0 14.0 L 307.7 287.2 L 511.0 13.0 Q 524.0 -4.0 544.0 -4.0 Q 558.0 -4.0 571.0 7.0 Q 584.0 18.0 584.0 36.0 Q 584.0 49.0 576.0 61.0 L 360.6 351.2 L 576.0 642.0 Q 585.0 654.0 585.0 667.0 Q 585.0 681.0 573.5 692.0 Q 562.0 703.0 547.0 703.0 Z" fill="#1c1c1c"/></g>
  <!-- Label: "Y" -->
    <g transform="translate(22.002, 84.000) scale(0.003000, -0.003000)"><path d="M 514.0 704.0 Q 494.0 704.0 481.0 684.0 L 290.3 415.7 L 94.0 685.0 Q 81.0 704.0 61.0 704.0 Q 47.0 704.0 33.0 692.5 Q 19.0 681.0 19.0 664.0 Q 19.0 657.0 21.5 649.5 Q 24.0 642.0 30.0 634.0 L 248.0 339.5 V 41.0 Q 248.0 24.0 259.5 12.0 Q 271.0 0.0 289.0 0.0 Q 305.0 0.0 316.5 12.0 Q 328.0 24.0 328.0 41.0 V 333.1 L 547.0 638.0 Q 551.0 644.0 552.5 650.5 Q 554.0 657.0 554.0 663.0 Q 554.0 679.0 542.5 691.5 Q 531.0 704.0 514.0 704.0 Z" fill="#1c1c1c"/></g>
  <!-- Label: "IN" -->
    <g transform="translate(14.053, 88.000) scale(0.002400, -0.002400)"><path d="M 171.0 41.0 V 659.0 Q 171.0 677.0 159.0 688.5 Q 147.0 700.0 130.0 700.0 Q 112.0 700.0 100.0 688.5 Q 88.0 677.0 88.0 659.0 V 41.0 Q 88.0 24.0 99.0 12.0 Q 110.0 0.0 129.0 0.0 Q 146.0 0.0 158.5 12.0 Q 171.0 24.0 171.0 41.0 Z" fill="#2c2c2c"/></g>
    <g transform="translate(14.675, 88.000) scale(0.002400, -0.002400)"><path d="M 606.0 700.0 Q 590.0 700.0 579.5 689.5 Q 569.0 679.0 569.0 663.0 V 145.2 L 160.0 686.0 Q 155.0 693.0 145.5 696.5 Q 136.0 700.0 127.0 700.0 Q 111.0 700.0 99.5 689.0 Q 88.0 678.0 88.0 660.0 V 37.0 Q 88.0 21.0 98.0 10.5 Q 108.0 0.0 124.0 0.0 Q 141.0 0.0 151.5 10.5 Q 162.0 21.0 162.0 37.0 V 552.6 L 570.0 13.0 Q 575.0 7.0 584.0 3.5 Q 593.0 0.0 602.0 0.0 Q 619.0 0.0 631.0 11.5 Q 643.0 23.0 643.0 42.0 V 663.0 Q 643.0 679.0 633.0 689.5 Q 623.0 700.0 606.0 700.0 Z" fill="#2c2c2c"/></g>
  <!-- Label: "AMT." -->
    <g transform="translate(12.500, 97.500) scale(0.002400, -0.002400)"><path d="M 162.0 187.0 H 478.6 L 546.0 25.0 Q 551.0 12.0 561.0 5.0 Q 571.0 -2.0 583.0 -2.0 Q 598.0 -2.0 610.0 8.5 Q 622.0 19.0 622.0 37.0 Q 622.0 45.0 619.0 53.0 L 361.0 677.0 Q 357.0 689.0 346.5 696.0 Q 336.0 703.0 323.0 703.0 Q 310.0 704.0 299.5 697.5 Q 289.0 691.0 284.0 677.0 L 25.0 47.0 Q 22.0 39.0 23.0 32.0 Q 23.0 18.0 32.0 8.0 Q 41.0 -2.0 60.0 -2.0 Q 71.0 -2.0 81.0 5.0 Q 91.0 12.0 95.0 24.0 L 162.0 187.0 Z M 319.3 569.9 446.1 265.0 H 194.0 L 319.3 569.9 Z" fill="#2c2c2c"/></g>
    <g transform="translate(14.046, 97.500) scale(0.002400, -0.002400)"><path d="M 129.0 701.0 Q 111.0 701.0 99.5 688.5 Q 88.0 676.0 88.0 660.0 V 41.0 Q 88.0 24.0 98.5 12.0 Q 109.0 0.0 126.0 0.0 Q 143.0 0.0 154.0 12.0 Q 165.0 24.0 165.0 41.0 V 546.6 L 377.0 220.0 Q 383.0 213.0 392.0 208.0 Q 401.0 203.0 410.0 203.0 Q 419.0 203.0 427.5 208.0 Q 436.0 213.0 442.0 220.0 L 653.0 541.0 V 41.0 Q 653.0 24.0 665.0 12.0 Q 677.0 0.0 695.0 0.0 Q 713.0 0.0 725.0 12.0 Q 737.0 24.0 737.0 41.0 V 660.0 Q 737.0 678.0 725.0 689.0 Q 713.0 700.0 697.0 701.0 Q 676.0 702.0 663.0 683.0 L 412.3 308.8 L 165.0 683.0 Q 159.0 691.0 148.5 696.0 Q 138.0 701.0 129.0 701.0 Z" fill="#2c2c2c"/></g>
    <g transform="translate(16.024, 97.500) scale(0.002400, -0.002400)"><path d="M 305.0 0.0 Q 324.0 0.0 336.0 12.0 Q 348.0 24.0 348.0 41.0 V 624.0 H 538.0 Q 555.0 624.0 567.0 634.0 Q 579.0 644.0 579.0 662.0 Q 579.0 679.0 567.0 689.5 Q 555.0 700.0 538.0 700.0 H 73.0 Q 56.0 700.0 44.5 689.5 Q 33.0 679.0 33.0 662.0 Q 33.0 645.0 44.5 634.5 Q 56.0 624.0 73.0 624.0 H 263.0 V 41.0 Q 263.0 24.0 275.0 12.0 Q 287.0 0.0 305.0 0.0 Z" fill="#2c2c2c"/></g>
    <g transform="translate(17.490, 97.500) scale(0.002400, -0.002400)"><path d="M 98.0 1.0 H 106.0 Q 128.0 1.0 139.0 13.0 Q 150.0 25.0 150.0 46.0 V 66.0 Q 150.0 88.0 139.0 100.0 Q 128.0 112.0 106.0 112.0 H 98.0 Q 77.0 112.0 65.5 100.0 Q 54.0 88.0 54.0 66.0 V 46.0 Q 54.0 25.0 65.5 13.0 Q 77.0 1.0 98.0 1.0 Z" fill="#2c2c2c"/></g>
  <!-- Label: "TILT" -->
    <g transform="translate(12.812, 107.000) scale(0.002400, -0.002400)"><path d="M 305.0 0.0 Q 324.0 0.0 336.0 12.0 Q 348.0 24.0 348.0 41.0 V 624.0 H 538.0 Q 555.0 624.0 567.0 634.0 Q 579.0 644.0 579.0 662.0 Q 579.0 679.0 567.0 689.5 Q 555.0 700.0 538.0 700.0 H 73.0 Q 56.0 700.0 44.5 689.5 Q 33.0 679.0 33.0 662.0 Q 33.0 645.0 44.5 634.5 Q 56.0 624.0 73.0 624.0 H 263.0 V 41.0 Q 263.0 24.0 275.0 12.0 Q 287.0 0.0 305.0 0.0 Z" fill="#2c2c2c"/></g>
    <g transform="translate(14.279, 107.000) scale(0.002400, -0.002400)"><path d="M 171.0 41.0 V 659.0 Q 171.0 677.0 159.0 688.5 Q 147.0 700.0 130.0 700.0 Q 112.0 700.0 100.0 688.5 Q 88.0 677.0 88.0 659.0 V 41.0 Q 88.0 24.0 99.0 12.0 Q 110.0 0.0 129.0 0.0 Q 146.0 0.0 158.5 12.0 Q 171.0 24.0 171.0 41.0 Z" fill="#2c2c2c"/></g>
    <g transform="translate(14.900, 107.000) scale(0.002400, -0.002400)"><path d="M 474.0 79.0 H 171.0 V 660.0 Q 171.0 677.0 159.0 688.5 Q 147.0 700.0 130.0 700.0 Q 112.0 700.0 100.0 688.5 Q 88.0 677.0 88.0 660.0 V 41.0 Q 88.0 24.0 99.5 12.0 Q 111.0 0.0 128.0 0.0 H 474.0 Q 491.0 0.0 503.0 11.0 Q 515.0 22.0 515.0 39.0 Q 515.0 56.0 503.0 67.5 Q 491.0 79.0 474.0 79.0 Z" fill="#2c2c2c"/></g>
    <g transform="translate(16.201, 107.000) scale(0.002400, -0.002400)"><path d="M 305.0 0.0 Q 324.0 0.0 336.0 12.0 Q 348.0 24.0 348.0 41.0 V 624.0 H 538.0 Q 555.0 624.0 567.0 634.0 Q 579.0 644.0 579.0 662.0 Q 579.0 679.0 567.0 689.5 Q 555.0 700.0 538.0 700.0 H 73.0 Q 56.0 700.0 44.5 689.5 Q 33.0 679.0 33.0 662.0 Q 33.0 645.0 44.5 634.5 Q 56.0 624.0 73.0 624.0 H 263.0 V 41.0 Q 263.0 24.0 275.0 12.0 Q 287.0 0.0 305.0 0.0 Z" fill="#2c2c2c"/></g>
  <!-- Label: "OUT" -->
    <g transform="translate(12.738, 116.500) scale(0.002400, -0.002400)"><path d="M 719.0 350.0 Q 719.0 428.0 694.0 493.5 Q 669.0 559.0 624.0 607.5 Q 579.0 656.0 517.0 683.0 Q 455.0 710.0 382.0 710.0 Q 308.0 710.0 246.5 683.0 Q 185.0 656.0 140.0 607.5 Q 95.0 559.0 70.0 493.5 Q 45.0 428.0 45.0 350.0 Q 45.0 273.0 70.0 207.5 Q 95.0 142.0 140.0 93.0 Q 185.0 44.0 246.5 17.0 Q 308.0 -10.0 382.0 -10.0 Q 455.0 -10.0 517.0 17.0 Q 579.0 44.0 624.0 93.0 Q 669.0 142.0 694.0 207.5 Q 719.0 273.0 719.0 350.0 Z M 633.0 350.0 Q 633.0 269.0 600.5 205.5 Q 568.0 142.0 512.0 106.0 Q 456.0 70.0 382.0 70.0 Q 308.0 70.0 251.5 106.0 Q 195.0 142.0 163.0 205.5 Q 131.0 269.0 131.0 350.0 Q 131.0 432.0 163.0 495.0 Q 195.0 558.0 251.5 594.0 Q 308.0 630.0 382.0 630.0 Q 456.0 630.0 512.0 594.0 Q 568.0 558.0 600.5 495.0 Q 633.0 432.0 633.0 350.0 Z" fill="#2c2c2c"/></g>
    <g transform="translate(14.572, 116.500) scale(0.002400, -0.002400)"><path d="M 584.0 701.0 Q 566.0 701.0 556.0 689.0 Q 546.0 677.0 546.0 660.0 V 263.0 Q 546.0 208.0 519.5 165.0 Q 493.0 122.0 450.0 97.5 Q 407.0 73.0 356.0 73.0 Q 306.0 73.0 263.5 97.5 Q 221.0 122.0 196.0 165.0 Q 171.0 208.0 171.0 263.0 V 660.0 Q 171.0 677.0 158.5 689.0 Q 146.0 701.0 130.0 701.0 Q 111.0 701.0 99.5 689.0 Q 88.0 677.0 88.0 660.0 V 263.0 Q 88.0 186.0 123.0 125.0 Q 158.0 64.0 218.5 28.5 Q 279.0 -7.0 356.0 -7.0 Q 432.0 -7.0 492.0 28.5 Q 552.0 64.0 587.5 125.0 Q 623.0 186.0 623.0 263.0 V 660.0 Q 623.0 677.0 612.0 689.0 Q 601.0 701.0 584.0 701.0 Z" fill="#2c2c2c"/></g>
    <g transform="translate(16.276, 116.500) scale(0.002400, -0.002400)"><path d="M 305.0 0.0 Q 324.0 0.0 336.0 12.0 Q 348.0 24.0 348.0 41.0 V 624.0 H 538.0 Q 555.0 624.0 567.0 634.0 Q 579.0 644.0 579.0 662.0 Q 579.0 679.0 567.0 689.5 Q 555.0 700.0 538.0 700.0 H 73.0 Q 56.0 700.0 44.5 689.5 Q 33.0 679.0 33.0 662.0 Q 33.0 645.0 44.5 634.5 Q 56.0 624.0 73.0 624.0 H 263.0 V 41.0 Q 263.0 24.0 275.0 12.0 Q 287.0 0.0 305.0 0.0 Z" fill="#2c2c2c"/></g>
</svg>
