<?xml version="1.0" encoding="UTF-8"?>
<svg xmlns="http://www.w3.org/2000/svg" width="30.48mm" height="128.5mm" viewBox="0 0 30.48 128.5">
  <!-- Panel Background: 6 HP -->
  <rect width="30.48" height="128.5" fill="#6e6e6e"/>

  <!-- Left Edge Color Badge (Centered 88.9mm x 1.35mm, Flush X=0) -->
  <g id="palette-badge">
    <rect x="0.000" y="19.800" width="1.350" height="35.560" fill="#1A1A1A" stroke="none"/>
    <rect x="0.000" y="55.360" width="1.350" height="16.002" fill="#B8A0E8" stroke="none"/>
    <rect x="0.000" y="71.362" width="1.350" height="23.114" fill="#D55E00" stroke="none"/>
    <rect x="0.000" y="94.476" width="1.350" height="14.224" fill="#EBEC72" stroke="none"/>
  </g>

  <!-- Delineator Line 1 (Above Color Preview Swatch at Y = 66.00mm) -->
  <line x1="2.54" y1="66.00" x2="27.94" y2="66.00" stroke="#999999" stroke-width="0.176"/>

  <!-- Color Display Swatch (19.05mm x 3.81mm [0.15in] at center Y = 71.58mm) -->
  <rect x="5.715" y="69.675" width="19.05" height="3.81" rx="1.0" ry="1.0" fill="#ff0000" stroke="#2c2c2c" stroke-width="0.3"/>

  <!-- Delineator Line 2 (Above Attenuverters at Y = 76.00mm) -->
  <line x1="2.54" y1="76.00" x2="27.94" y2="76.00" stroke="#999999" stroke-width="0.176"/>

  <!-- Delineator Line 3 (Above I/O Jacks at Y = 91.50mm) -->
  <line x1="2.54" y1="91.50" x2="27.94" y2="91.50" stroke="#999999" stroke-width="0.176"/>

  <!-- Label: "hsv / hsl" -->
    <g transform="translate(6.622, 7.620) scale(0.004800, -0.004800)"><path d="M 469.7 373.8 C 465.2 379.1 458.6 382.2 451.6 382.2 H 144.9 L 199.1 689.3 C 201.4 702.2 192.8 714.4 179.9 716.7 C 167.0 718.9 154.7 710.4 152.4 697.5 L 34.4 27.8 C 32.1 14.9 40.7 2.6 53.6 0.4 C 55.0 0.1 56.3 0.0 57.7 0.0 C 69.0 0.0 79.0 8.1 81.0 19.6 L 136.6 334.9 H 423.4 L 369.2 27.8 C 366.9 14.9 375.5 2.6 388.4 0.4 C 389.8 0.1 391.2 0.0 392.6 0.0 C 403.8 0.0 413.8 8.1 415.9 19.6 L 474.9 354.4 C 476.1 361.3 474.2 368.4 469.7 373.8 Z" fill="#ffffff"/></g>
    <g transform="translate(8.786, 7.620) scale(0.004800, -0.004800)"><path d="M 473.1 368.4 C 467.6 380.3 453.6 385.5 441.7 380.0 L 77.3 212.6 C 67.2 208.0 61.7 196.9 64.1 186.0 C 66.4 175.2 76.1 167.4 87.2 167.4 H 393.8 L 372.7 47.4 H 57.7 C 44.6 47.4 34.0 36.8 34.0 23.7 C 34.0 10.6 44.6 1.5e-05 57.7 1.5e-05 H 392.5 C 404.0 1.5e-05 413.9 8.3 415.8 19.6 L 445.4 187.0 C 446.6 193.9 444.7 201.0 440.2 206.3 C 435.7 211.7 429.0 214.8 422.0 214.8 H 195.5 L 461.5 337.0 C 473.3 342.5 478.5 356.5 473.1 368.4 Z" fill="#ffffff"/></g>
    <g transform="translate(10.951, 7.620) scale(0.004800, -0.004800)"><path d="M 441.8 378.1 C 431.0 385.5 416.2 382.6 408.9 371.8 L 209.6 77.2 L 116.2 365.8 C 112.2 378.3 98.8 385.1 86.4 381.1 C 74.0 377.0 67.1 363.7 71.2 351.2 L 179.5 16.4 C 182.3 7.8 189.8 1.5 198.7 0.2 C 199.9 0.1 201.0 -0.0 202.1 -0.0 C 209.9 -0.0 217.2 3.8 221.7 10.4 L 448.1 345.3 C 455.5 356.1 452.6 370.8 441.8 378.1 Z" fill="#ffffff"/></g>
    <g transform="translate(14.292, 7.620) scale(0.004800, -0.004800)"><path d="M 523.9 735.9 C 513.1 743.2 498.3 740.3 491.0 729.5 L 38.1 59.8 C 30.7 49.0 33.6 34.3 44.4 26.9 C 48.5 24.2 53.1 22.9 57.7 22.9 C 65.3 22.9 72.7 26.5 77.3 33.3 L 530.2 703.0 C 537.6 713.8 534.7 728.5 523.9 735.9 Z" fill="#ffffff"/></g>
    <g transform="translate(18.310, 7.620) scale(0.004800, -0.004800)"><path d="M 469.7 373.8 C 465.2 379.1 458.6 382.2 451.6 382.2 H 144.9 L 199.1 689.3 C 201.4 702.2 192.8 714.4 179.9 716.7 C 167.0 718.9 154.7 710.4 152.4 697.5 L 34.4 27.8 C 32.1 14.9 40.7 2.6 53.6 0.4 C 55.0 0.1 56.3 0.0 57.7 0.0 C 69.0 0.0 79.0 8.1 81.0 19.6 L 136.6 334.9 H 423.4 L 369.2 27.8 C 366.9 14.9 375.5 2.6 388.4 0.4 C 389.8 0.1 391.2 0.0 392.6 0.0 C 403.8 0.0 413.8 8.1 415.9 19.6 L 474.9 354.4 C 476.1 361.3 474.2 368.4 469.7 373.8 Z" fill="#ffffff"/></g>
    <g transform="translate(20.474, 7.620) scale(0.004800, -0.004800)"><path d="M 473.1 368.4 C 467.6 380.3 453.6 385.5 441.7 380.0 L 77.3 212.6 C 67.2 208.0 61.7 196.9 64.1 186.0 C 66.4 175.2 76.1 167.4 87.2 167.4 H 393.8 L 372.7 47.4 H 57.7 C 44.6 47.4 34.0 36.8 34.0 23.7 C 34.0 10.6 44.6 1.5e-05 57.7 1.5e-05 H 392.5 C 404.0 1.5e-05 413.9 8.3 415.8 19.6 L 445.4 187.0 C 446.6 193.9 444.7 201.0 440.2 206.3 C 435.7 211.7 429.0 214.8 422.0 214.8 H 195.5 L 461.5 337.0 C 473.3 342.5 478.5 356.5 473.1 368.4 Z" fill="#ffffff"/></g>
    <g transform="translate(22.639, 7.620) scale(0.004800, -0.004800)"><path d="M 272.7 206.4 C 264.2 216.4 249.3 217.6 239.3 209.1 L 92.4 84.3 L 199.1 689.3 C 201.4 702.1 192.8 714.4 179.9 716.7 C 167.0 718.9 154.7 710.4 152.4 697.5 L 34.4 27.8 C 32.6 18.0 37.2 8.1 45.9 3.1 C 49.6 1.0 53.6 -3.1e-05 57.7 -3.1e-05 C 63.2 -3.1e-05 68.6 1.9 73.0 5.6 L 270.0 173.1 C 279.9 181.5 281.1 196.5 272.7 206.4 Z" fill="#ffffff"/></g>
  <!-- Label: "Version v2.17.0" -->
    <g transform="translate(12.833, 10.414) scale(0.001600, -0.001600)"><path d="M 74.0 526.0 Q 55.0 526.0 44.5 514.5 Q 34.0 503.0 34.0 490.0 Q 34.0 483.0 35.5 478.0 Q 37.0 473.0 39.0 469.0 L 232.0 26.0 Q 237.0 12.0 248.5 5.5 Q 260.0 -1.0 273.0 0.0 Q 297.0 1.0 308.0 26.0 L 501.0 470.0 Q 503.0 474.0 504.5 479.5 Q 506.0 485.0 506.0 491.0 Q 506.0 506.0 495.0 516.0 Q 484.0 526.0 469.0 526.0 Q 443.0 527.0 432.0 500.0 L 272.7 125.8 L 113.0 501.0 Q 108.0 513.0 97.0 519.5 Q 86.0 526.0 74.0 526.0 Z" fill="#aaaaaa"/></g>
    <g transform="translate(13.697, 10.414) scale(0.001600, -0.001600)"><path d="M 469.0 75.0 H 194.0 L 360.0 259.0 Q 422.0 325.0 454.0 389.0 Q 486.0 453.0 486.0 506.0 Q 486.0 568.0 460.0 614.0 Q 434.0 660.0 386.5 685.0 Q 339.0 710.0 275.0 710.0 Q 239.0 710.0 201.5 696.0 Q 164.0 682.0 132.5 658.5 Q 101.0 635.0 80.0 606.0 Q 70.0 594.0 64.0 584.5 Q 58.0 575.0 58.0 564.0 Q 58.0 550.0 70.0 539.5 Q 82.0 529.0 97.0 529.0 Q 106.0 529.0 114.5 532.5 Q 123.0 536.0 131.0 549.0 Q 145.0 573.0 167.0 592.5 Q 189.0 612.0 216.0 623.5 Q 243.0 635.0 270.0 635.0 Q 331.0 635.0 367.5 598.5 Q 404.0 562.0 404.0 501.0 Q 404.0 464.0 378.5 416.5 Q 353.0 369.0 303.0 315.0 L 77.0 68.0 Q 65.0 55.0 65.0 39.0 Q 65.0 21.0 76.5 10.5 Q 88.0 0.0 106.0 0.0 H 469.0 Q 485.0 0.0 496.0 10.5 Q 507.0 21.0 507.0 37.0 Q 507.0 53.0 496.0 64.0 Q 485.0 75.0 469.0 75.0 Z" fill="#aaaaaa"/></g>
    <g transform="translate(14.591, 10.414) scale(0.001600, -0.001600)"><path d="M 98.0 1.0 H 106.0 Q 128.0 1.0 139.0 13.0 Q 150.0 25.0 150.0 46.0 V 66.0 Q 150.0 88.0 139.0 100.0 Q 128.0 112.0 106.0 112.0 H 98.0 Q 77.0 112.0 65.5 100.0 Q 54.0 88.0 54.0 66.0 V 46.0 Q 54.0 25.0 65.5 13.0 Q 77.0 1.0 98.0 1.0 Z" fill="#aaaaaa"/></g>
    <g transform="translate(14.918, 10.414) scale(0.001600, -0.001600)"><path d="M 230.0 0.0 Q 249.0 0.0 261.5 12.0 Q 274.0 24.0 274.0 41.0 V 660.0 Q 274.0 677.0 263.5 688.5 Q 253.0 700.0 235.0 700.0 Q 227.0 701.0 219.0 699.0 Q 211.0 697.0 203.0 692.0 L 44.0 587.0 Q 23.0 574.0 23.0 552.0 Q 23.0 536.0 35.0 523.5 Q 47.0 511.0 64.0 511.0 Q 77.0 511.0 87.0 518.0 L 188.0 587.7 V 41.0 Q 188.0 24.0 200.0 12.0 Q 212.0 0.0 230.0 0.0 Z" fill="#aaaaaa"/></g>
    <g transform="translate(15.519, 10.414) scale(0.001600, -0.001600)"><path d="M 185.0 -3.0 Q 197.0 -3.0 207.5 3.5 Q 218.0 10.0 223.0 22.0 L 494.0 638.0 Q 498.0 647.0 498.0 656.0 Q 498.0 673.0 486.5 684.0 Q 475.0 695.0 457.0 695.0 H 96.0 Q 80.0 695.0 69.0 684.5 Q 58.0 674.0 58.0 658.0 Q 58.0 641.0 69.0 630.5 Q 80.0 620.0 96.0 620.0 H 398.1 L 148.0 53.0 Q 144.0 44.0 144.0 35.0 Q 144.0 18.0 156.5 7.5 Q 169.0 -3.0 185.0 -3.0 Z" fill="#aaaaaa"/></g>
    <g transform="translate(16.359, 10.414) scale(0.001600, -0.001600)"><path d="M 98.0 1.0 H 106.0 Q 128.0 1.0 139.0 13.0 Q 150.0 25.0 150.0 46.0 V 66.0 Q 150.0 88.0 139.0 100.0 Q 128.0 112.0 106.0 112.0 H 98.0 Q 77.0 112.0 65.5 100.0 Q 54.0 88.0 54.0 66.0 V 46.0 Q 54.0 25.0 65.5 13.0 Q 77.0 1.0 98.0 1.0 Z" fill="#aaaaaa"/></g>
    <g transform="translate(16.686, 10.414) scale(0.001600, -0.001600)"><path d="M 301.0 -10.0 Q 384.0 -10.0 439.5 37.0 Q 495.0 84.0 523.0 166.0 Q 551.0 248.0 551.0 350.0 Q 551.0 454.0 523.0 535.0 Q 495.0 616.0 439.5 663.0 Q 384.0 710.0 301.0 710.0 Q 218.0 710.0 162.5 663.0 Q 107.0 616.0 78.5 535.0 Q 50.0 454.0 50.0 350.0 Q 50.0 248.0 78.5 166.0 Q 107.0 84.0 162.5 37.0 Q 218.0 -10.0 301.0 -10.0 Z M 301.0 71.0 Q 248.0 71.0 211.5 105.0 Q 175.0 139.0 155.5 201.5 Q 136.0 264.0 136.0 350.0 Q 136.0 437.0 155.5 499.5 Q 175.0 562.0 211.5 595.5 Q 248.0 629.0 301.0 629.0 Q 354.0 629.0 390.5 595.5 Q 427.0 562.0 446.0 499.5 Q 465.0 437.0 465.0 350.0 Q 465.0 264.0 446.0 201.5 Q 427.0 139.0 390.5 105.0 Q 354.0 71.0 301.0 71.0 Z" fill="#aaaaaa"/></g>
  <!-- Label: "HUE" -->
    <g transform="translate(12.240, 13.070) scale(0.003000, -0.003000)"><path d="M 130.0 700.0 Q 112.0 700.0 100.0 688.5 Q 88.0 677.0 88.0 659.0 V 41.0 Q 88.0 24.0 99.0 12.0 Q 110.0 0.0 129.0 0.0 Q 146.0 0.0 158.5 12.0 Q 171.0 24.0 171.0 41.0 V 317.0 H 549.0 V 41.0 Q 549.0 24.0 561.0 12.0 Q 573.0 0.0 590.0 0.0 Q 608.0 0.0 620.0 12.0 Q 632.0 24.0 632.0 41.0 V 659.0 Q 632.0 677.0 620.5 688.5 Q 609.0 700.0 591.0 700.0 Q 574.0 700.0 561.5 688.5 Q 549.0 677.0 549.0 659.0 V 395.0 H 171.0 V 659.0 Q 171.0 677.0 159.0 688.5 Q 147.0 700.0 130.0 700.0 Z" fill="#1c1c1c"/></g>
    <g transform="translate(14.400, 13.070) scale(0.003000, -0.003000)"><path d="M 584.0 701.0 Q 566.0 701.0 556.0 689.0 Q 546.0 677.0 546.0 660.0 V 263.0 Q 546.0 208.0 519.5 165.0 Q 493.0 122.0 450.0 97.5 Q 407.0 73.0 356.0 73.0 Q 306.0 73.0 263.5 97.5 Q 221.0 122.0 196.0 165.0 Q 171.0 208.0 171.0 263.0 V 660.0 Q 171.0 677.0 158.5 689.0 Q 146.0 701.0 130.0 701.0 Q 111.0 701.0 99.5 689.0 Q 88.0 677.0 88.0 660.0 V 263.0 Q 88.0 186.0 123.0 125.0 Q 158.0 64.0 218.5 28.5 Q 279.0 -7.0 356.0 -7.0 Q 432.0 -7.0 492.0 28.5 Q 552.0 64.0 587.5 125.0 Q 623.0 186.0 623.0 263.0 V 660.0 Q 623.0 677.0 612.0 689.0 Q 601.0 701.0 584.0 701.0 Z" fill="#1c1c1c"/></g>
    <g transform="translate(16.530, 13.070) scale(0.003000, -0.003000)"><path d="M 128.0 700.0 Q 111.0 700.0 99.5 688.5 Q 88.0 677.0 88.0 660.0 V 41.0 Q 88.0 24.0 99.5 12.0 Q 111.0 0.0 128.0 0.0 H 484.0 Q 501.0 0.0 513.0 11.0 Q 525.0 22.0 525.0 39.0 Q 525.0 54.0 513.0 66.0 Q 501.0 78.0 484.0 78.0 H 171.0 V 321.0 H 439.0 Q 456.0 321.0 468.0 331.5 Q 480.0 342.0 480.0 359.0 Q 480.0 376.0 468.0 387.0 Q 456.0 398.0 439.0 398.0 H 171.0 V 623.0 H 484.0 Q 501.0 623.0 513.0 633.5 Q 525.0 644.0 525.0 661.0 Q 525.0 678.0 513.0 689.0 Q 501.0 700.0 484.0 700.0 Z" fill="#1c1c1c"/></g>
  <!-- Label: "SAT" -->
    <g transform="translate(12.497, 31.480) scale(0.003000, -0.003000)"><path d="M 292.0 -10.0 Q 359.0 -9.0 412.5 15.5 Q 466.0 40.0 497.0 83.0 Q 528.0 126.0 528.0 181.0 Q 528.0 233.0 511.5 268.5 Q 495.0 304.0 465.0 327.0 Q 435.0 350.0 393.5 365.5 Q 352.0 381.0 303.0 393.0 Q 258.0 405.0 221.0 420.5 Q 184.0 436.0 162.0 460.5 Q 140.0 485.0 140.0 523.0 Q 140.0 557.0 159.5 581.5 Q 179.0 606.0 214.0 619.5 Q 249.0 633.0 295.0 633.0 Q 326.0 633.0 357.0 624.0 Q 388.0 615.0 414.0 600.0 Q 440.0 585.0 457.0 566.0 Q 466.0 558.0 477.0 558.0 Q 493.0 558.0 505.5 570.5 Q 518.0 583.0 518.0 598.0 Q 518.0 616.0 498.0 635.0 Q 465.0 670.0 410.5 690.0 Q 356.0 710.0 295.0 710.0 Q 226.0 710.0 173.0 686.5 Q 120.0 663.0 90.0 620.0 Q 60.0 577.0 60.0 520.0 Q 60.0 475.0 75.5 441.5 Q 91.0 408.0 119.0 384.5 Q 147.0 361.0 185.5 345.0 Q 224.0 329.0 270.0 318.0 Q 322.0 306.0 361.5 288.5 Q 401.0 271.0 423.5 245.0 Q 446.0 219.0 447.0 179.0 Q 447.0 146.0 426.0 121.0 Q 405.0 96.0 369.5 82.0 Q 334.0 68.0 290.0 68.0 Q 233.0 68.0 187.5 88.0 Q 142.0 108.0 103.0 146.0 Q 92.0 157.0 78.0 157.0 Q 61.0 157.0 49.5 144.5 Q 38.0 132.0 38.0 116.0 Q 38.0 106.0 42.5 97.5 Q 47.0 89.0 54.0 82.0 Q 106.0 34.0 162.0 12.0 Q 218.0 -10.0 292.0 -10.0 Z" fill="#1c1c1c"/></g>
    <g transform="translate(14.219, 31.480) scale(0.003000, -0.003000)"><path d="M 162.0 187.0 H 478.6 L 546.0 25.0 Q 551.0 12.0 561.0 5.0 Q 571.0 -2.0 583.0 -2.0 Q 598.0 -2.0 610.0 8.5 Q 622.0 19.0 622.0 37.0 Q 622.0 45.0 619.0 53.0 L 361.0 677.0 Q 357.0 689.0 346.5 696.0 Q 336.0 703.0 323.0 703.0 Q 310.0 704.0 299.5 697.5 Q 289.0 691.0 284.0 677.0 L 25.0 47.0 Q 22.0 39.0 23.0 32.0 Q 23.0 18.0 32.0 8.0 Q 41.0 -2.0 60.0 -2.0 Q 71.0 -2.0 81.0 5.0 Q 91.0 12.0 95.0 24.0 L 162.0 187.0 Z M 319.3 569.9 446.1 265.0 H 194.0 L 319.3 569.9 Z" fill="#1c1c1c"/></g>
    <g transform="translate(16.151, 31.480) scale(0.003000, -0.003000)"><path d="M 305.0 0.0 Q 324.0 0.0 336.0 12.0 Q 348.0 24.0 348.0 41.0 V 624.0 H 538.0 Q 555.0 624.0 567.0 634.0 Q 579.0 644.0 579.0 662.0 Q 579.0 679.0 567.0 689.5 Q 555.0 700.0 538.0 700.0 H 73.0 Q 56.0 700.0 44.5 689.5 Q 33.0 679.0 33.0 662.0 Q 33.0 645.0 44.5 634.5 Q 56.0 624.0 73.0 624.0 H 263.0 V 41.0 Q 263.0 24.0 275.0 12.0 Q 287.0 0.0 305.0 0.0 Z" fill="#1c1c1c"/></g>
  <!-- Label: "VAL / LUM" -->
    <g transform="translate(7.712, 49.890) scale(0.003000, -0.003000)"><path d="M 596.0 701.0 Q 571.0 701.0 559.0 676.0 L 339.3 131.9 L 112.0 674.0 Q 100.0 702.0 73.0 702.0 Q 60.0 702.0 46.5 691.5 Q 33.0 681.0 33.0 662.0 Q 33.0 657.0 34.0 652.5 Q 35.0 648.0 37.0 644.0 L 297.0 26.0 Q 302.0 14.0 312.0 7.5 Q 322.0 1.0 333.0 0.0 Q 345.0 0.0 355.5 6.5 Q 366.0 13.0 372.0 26.0 L 633.0 645.0 Q 637.0 655.0 637.0 663.0 Q 637.0 680.0 625.0 690.5 Q 613.0 701.0 596.0 701.0 Z" fill="#1c1c1c"/></g>
    <g transform="translate(9.719, 49.890) scale(0.003000, -0.003000)"><path d="M 162.0 187.0 H 478.6 L 546.0 25.0 Q 551.0 12.0 561.0 5.0 Q 571.0 -2.0 583.0 -2.0 Q 598.0 -2.0 610.0 8.5 Q 622.0 19.0 622.0 37.0 Q 622.0 45.0 619.0 53.0 L 361.0 677.0 Q 357.0 689.0 346.5 696.0 Q 336.0 703.0 323.0 703.0 Q 310.0 704.0 299.5 697.5 Q 289.0 691.0 284.0 677.0 L 25.0 47.0 Q 22.0 39.0 23.0 32.0 Q 23.0 18.0 32.0 8.0 Q 41.0 -2.0 60.0 -2.0 Q 71.0 -2.0 81.0 5.0 Q 91.0 12.0 95.0 24.0 L 162.0 187.0 Z M 319.3 569.9 446.1 265.0 H 194.0 L 319.3 569.9 Z" fill="#1c1c1c"/></g>
    <g transform="translate(11.651, 49.890) scale(0.003000, -0.003000)"><path d="M 474.0 79.0 H 171.0 V 660.0 Q 171.0 677.0 159.0 688.5 Q 147.0 700.0 130.0 700.0 Q 112.0 700.0 100.0 688.5 Q 88.0 677.0 88.0 660.0 V 41.0 Q 88.0 24.0 99.5 12.0 Q 111.0 0.0 128.0 0.0 H 474.0 Q 491.0 0.0 503.0 11.0 Q 515.0 22.0 515.0 39.0 Q 515.0 56.0 503.0 67.5 Q 491.0 79.0 474.0 79.0 Z" fill="#1c1c1c"/></g>
    <g transform="translate(14.101, 49.890) scale(0.003000, -0.003000)"><path d="M 52.0 -131.0 Q 63.0 -131.0 72.0 -125.0 Q 81.0 -119.0 87.0 -106.0 L 512.0 745.0 Q 517.0 755.0 517.0 765.0 Q 517.0 781.0 505.5 790.5 Q 494.0 800.0 482.0 800.0 Q 471.0 800.0 462.0 794.0 Q 453.0 788.0 446.0 774.0 L 20.0 -77.0 Q 16.0 -86.0 16.0 -95.0 Q 16.0 -110.0 27.5 -120.5 Q 39.0 -131.0 52.0 -131.0 Z" fill="#1c1c1c"/></g>
    <g transform="translate(16.541, 49.890) scale(0.003000, -0.003000)"><path d="M 474.0 79.0 H 171.0 V 660.0 Q 171.0 677.0 159.0 688.5 Q 147.0 700.0 130.0 700.0 Q 112.0 700.0 100.0 688.5 Q 88.0 677.0 88.0 660.0 V 41.0 Q 88.0 24.0 99.5 12.0 Q 111.0 0.0 128.0 0.0 H 474.0 Q 491.0 0.0 503.0 11.0 Q 515.0 22.0 515.0 39.0 Q 515.0 56.0 503.0 67.5 Q 491.0 79.0 474.0 79.0 Z" fill="#1c1c1c"/></g>
    <g transform="translate(18.167, 49.890) scale(0.003000, -0.003000)"><path d="M 584.0 701.0 Q 566.0 701.0 556.0 689.0 Q 546.0 677.0 546.0 660.0 V 263.0 Q 546.0 208.0 519.5 165.0 Q 493.0 122.0 450.0 97.5 Q 407.0 73.0 356.0 73.0 Q 306.0 73.0 263.5 97.5 Q 221.0 122.0 196.0 165.0 Q 171.0 208.0 171.0 263.0 V 660.0 Q 171.0 677.0 158.5 689.0 Q 146.0 701.0 130.0 701.0 Q 111.0 701.0 99.5 689.0 Q 88.0 677.0 88.0 660.0 V 263.0 Q 88.0 186.0 123.0 125.0 Q 158.0 64.0 218.5 28.5 Q 279.0 -7.0 356.0 -7.0 Q 432.0 -7.0 492.0 28.5 Q 552.0 64.0 587.5 125.0 Q 623.0 186.0 623.0 263.0 V 660.0 Q 623.0 677.0 612.0 689.0 Q 601.0 701.0 584.0 701.0 Z" fill="#1c1c1c"/></g>
    <g transform="translate(20.297, 49.890) scale(0.003000, -0.003000)"><path d="M 129.0 701.0 Q 111.0 701.0 99.5 688.5 Q 88.0 676.0 88.0 660.0 V 41.0 Q 88.0 24.0 98.5 12.0 Q 109.0 0.0 126.0 0.0 Q 143.0 0.0 154.0 12.0 Q 165.0 24.0 165.0 41.0 V 546.6 L 377.0 220.0 Q 383.0 213.0 392.0 208.0 Q 401.0 203.0 410.0 203.0 Q 419.0 203.0 427.5 208.0 Q 436.0 213.0 442.0 220.0 L 653.0 541.0 V 41.0 Q 653.0 24.0 665.0 12.0 Q 677.0 0.0 695.0 0.0 Q 713.0 0.0 725.0 12.0 Q 737.0 24.0 737.0 41.0 V 660.0 Q 737.0 678.0 725.0 689.0 Q 713.0 700.0 697.0 701.0 Q 676.0 702.0 663.0 683.0 L 412.3 308.8 L 165.0 683.0 Q 159.0 691.0 148.5 696.0 Q 138.0 701.0 129.0 701.0 Z" fill="#1c1c1c"/></g>
  <!-- Label: "HSV MODE" -->
    <g transform="translate(22.713, 53.500) scale(0.001800, -0.001800)"><path d="M 130.0 700.0 Q 112.0 700.0 100.0 688.5 Q 88.0 677.0 88.0 659.0 V 41.0 Q 88.0 24.0 99.0 12.0 Q 110.0 0.0 129.0 0.0 Q 146.0 0.0 158.5 12.0 Q 171.0 24.0 171.0 41.0 V 317.0 H 549.0 V 41.0 Q 549.0 24.0 561.0 12.0 Q 573.0 0.0 590.0 0.0 Q 608.0 0.0 620.0 12.0 Q 632.0 24.0 632.0 41.0 V 659.0 Q 632.0 677.0 620.5 688.5 Q 609.0 700.0 591.0 700.0 Q 574.0 700.0 561.5 688.5 Q 549.0 677.0 549.0 659.0 V 395.0 H 171.0 V 659.0 Q 171.0 677.0 159.0 688.5 Q 147.0 700.0 130.0 700.0 Z" fill="#2c2c2c"/></g>
    <g transform="translate(24.009, 53.500) scale(0.001800, -0.001800)"><path d="M 292.0 -10.0 Q 359.0 -9.0 412.5 15.5 Q 466.0 40.0 497.0 83.0 Q 528.0 126.0 528.0 181.0 Q 528.0 233.0 511.5 268.5 Q 495.0 304.0 465.0 327.0 Q 435.0 350.0 393.5 365.5 Q 352.0 381.0 303.0 393.0 Q 258.0 405.0 221.0 420.5 Q 184.0 436.0 162.0 460.5 Q 140.0 485.0 140.0 523.0 Q 140.0 557.0 159.5 581.5 Q 179.0 606.0 214.0 619.5 Q 249.0 633.0 295.0 633.0 Q 326.0 633.0 357.0 624.0 Q 388.0 615.0 414.0 600.0 Q 440.0 585.0 457.0 566.0 Q 466.0 558.0 477.0 558.0 Q 493.0 558.0 505.5 570.5 Q 518.0 583.0 518.0 598.0 Q 518.0 616.0 498.0 635.0 Q 465.0 670.0 410.5 690.0 Q 356.0 710.0 295.0 710.0 Q 226.0 710.0 173.0 686.5 Q 120.0 663.0 90.0 620.0 Q 60.0 577.0 60.0 520.0 Q 60.0 475.0 75.5 441.5 Q 91.0 408.0 119.0 384.5 Q 147.0 361.0 185.5 345.0 Q 224.0 329.0 270.0 318.0 Q 322.0 306.0 361.5 288.5 Q 401.0 271.0 423.5 245.0 Q 446.0 219.0 447.0 179.0 Q 447.0 146.0 426.0 121.0 Q 405.0 96.0 369.5 82.0 Q 334.0 68.0 290.0 68.0 Q 233.0 68.0 187.5 88.0 Q 142.0 108.0 103.0 146.0 Q 92.0 157.0 78.0 157.0 Q 61.0 157.0 49.5 144.5 Q 38.0 132.0 38.0 116.0 Q 38.0 106.0 42.5 97.5 Q 47.0 89.0 54.0 82.0 Q 106.0 34.0 162.0 12.0 Q 218.0 -10.0 292.0 -10.0 Z" fill="#2c2c2c"/></g>
    <g transform="translate(25.043, 53.500) scale(0.001800, -0.001800)"><path d="M 596.0 701.0 Q 571.0 701.0 559.0 676.0 L 339.3 131.9 L 112.0 674.0 Q 100.0 702.0 73.0 702.0 Q 60.0 702.0 46.5 691.5 Q 33.0 681.0 33.0 662.0 Q 33.0 657.0 34.0 652.5 Q 35.0 648.0 37.0 644.0 L 297.0 26.0 Q 302.0 14.0 312.0 7.5 Q 322.0 1.0 333.0 0.0 Q 345.0 0.0 355.5 6.5 Q 366.0 13.0 372.0 26.0 L 633.0 645.0 Q 637.0 655.0 637.0 663.0 Q 637.0 680.0 625.0 690.5 Q 613.0 701.0 596.0 701.0 Z" fill="#2c2c2c"/></g>
  <!-- Label: "HSL MODE" -->
    <g transform="translate(22.828, 63.500) scale(0.001800, -0.001800)"><path d="M 130.0 700.0 Q 112.0 700.0 100.0 688.5 Q 88.0 677.0 88.0 659.0 V 41.0 Q 88.0 24.0 99.0 12.0 Q 110.0 0.0 129.0 0.0 Q 146.0 0.0 158.5 12.0 Q 171.0 24.0 171.0 41.0 V 317.0 H 549.0 V 41.0 Q 549.0 24.0 561.0 12.0 Q 573.0 0.0 590.0 0.0 Q 608.0 0.0 620.0 12.0 Q 632.0 24.0 632.0 41.0 V 659.0 Q 632.0 677.0 620.5 688.5 Q 609.0 700.0 591.0 700.0 Q 574.0 700.0 561.5 688.5 Q 549.0 677.0 549.0 659.0 V 395.0 H 171.0 V 659.0 Q 171.0 677.0 159.0 688.5 Q 147.0 700.0 130.0 700.0 Z" fill="#2c2c2c"/></g>
    <g transform="translate(24.124, 63.500) scale(0.001800, -0.001800)"><path d="M 292.0 -10.0 Q 359.0 -9.0 412.5 15.5 Q 466.0 40.0 497.0 83.0 Q 528.0 126.0 528.0 181.0 Q 528.0 233.0 511.5 268.5 Q 495.0 304.0 465.0 327.0 Q 435.0 350.0 393.5 365.5 Q 352.0 381.0 303.0 393.0 Q 258.0 405.0 221.0 420.5 Q 184.0 436.0 162.0 460.5 Q 140.0 485.0 140.0 523.0 Q 140.0 557.0 159.5 581.5 Q 179.0 606.0 214.0 619.5 Q 249.0 633.0 295.0 633.0 Q 326.0 633.0 357.0 624.0 Q 388.0 615.0 414.0 600.0 Q 440.0 585.0 457.0 566.0 Q 466.0 558.0 477.0 558.0 Q 493.0 558.0 505.5 570.5 Q 518.0 583.0 518.0 598.0 Q 518.0 616.0 498.0 635.0 Q 465.0 670.0 410.5 690.0 Q 356.0 710.0 295.0 710.0 Q 226.0 710.0 173.0 686.5 Q 120.0 663.0 90.0 620.0 Q 60.0 577.0 60.0 520.0 Q 60.0 475.0 75.5 441.5 Q 91.0 408.0 119.0 384.5 Q 147.0 361.0 185.5 345.0 Q 224.0 329.0 270.0 318.0 Q 322.0 306.0 361.5 288.5 Q 401.0 271.0 423.5 245.0 Q 446.0 219.0 447.0 179.0 Q 447.0 146.0 426.0 121.0 Q 405.0 96.0 369.5 82.0 Q 334.0 68.0 290.0 68.0 Q 233.0 68.0 187.5 88.0 Q 142.0 108.0 103.0 146.0 Q 92.0 157.0 78.0 157.0 Q 61.0 157.0 49.5 144.5 Q 38.0 132.0 38.0 116.0 Q 38.0 106.0 42.5 97.5 Q 47.0 89.0 54.0 82.0 Q 106.0 34.0 162.0 12.0 Q 218.0 -10.0 292.0 -10.0 Z" fill="#2c2c2c"/></g>
    <g transform="translate(25.157, 63.500) scale(0.001800, -0.001800)"><path d="M 474.0 79.0 H 171.0 V 660.0 Q 171.0 677.0 159.0 688.5 Q 147.0 700.0 130.0 700.0 Q 112.0 700.0 100.0 688.5 Q 88.0 677.0 88.0 660.0 V 41.0 Q 88.0 24.0 99.5 12.0 Q 111.0 0.0 128.0 0.0 H 474.0 Q 491.0 0.0 503.0 11.0 Q 515.0 22.0 515.0 39.0 Q 515.0 56.0 503.0 67.5 Q 491.0 79.0 474.0 79.0 Z" fill="#2c2c2c"/></g>
  <!-- Label: "HUE CV" -->
    <g transform="translate(4.000, 78.800) scale(0.002000, -0.002000)"><path d="M 130.0 700.0 Q 112.0 700.0 100.0 688.5 Q 88.0 677.0 88.0 659.0 V 41.0 Q 88.0 24.0 99.0 12.0 Q 110.0 0.0 129.0 0.0 Q 146.0 0.0 158.5 12.0 Q 171.0 24.0 171.0 41.0 V 317.0 H 549.0 V 41.0 Q 549.0 24.0 561.0 12.0 Q 573.0 0.0 590.0 0.0 Q 608.0 0.0 620.0 12.0 Q 632.0 24.0 632.0 41.0 V 659.0 Q 632.0 677.0 620.5 688.5 Q 609.0 700.0 591.0 700.0 Q 574.0 700.0 561.5 688.5 Q 549.0 677.0 549.0 659.0 V 395.0 H 171.0 V 659.0 Q 171.0 677.0 159.0 688.5 Q 147.0 700.0 130.0 700.0 Z" fill="#2c2c2c"/></g>
    <g transform="translate(5.440, 78.800) scale(0.002000, -0.002000)"><path d="M 584.0 701.0 Q 566.0 701.0 556.0 689.0 Q 546.0 677.0 546.0 660.0 V 263.0 Q 546.0 208.0 519.5 165.0 Q 493.0 122.0 450.0 97.5 Q 407.0 73.0 356.0 73.0 Q 306.0 73.0 263.5 97.5 Q 221.0 122.0 196.0 165.0 Q 171.0 208.0 171.0 263.0 V 660.0 Q 171.0 677.0 158.5 689.0 Q 146.0 701.0 130.0 701.0 Q 111.0 701.0 99.5 689.0 Q 88.0 677.0 88.0 660.0 V 263.0 Q 88.0 186.0 123.0 125.0 Q 158.0 64.0 218.5 28.5 Q 279.0 -7.0 356.0 -7.0 Q 432.0 -7.0 492.0 28.5 Q 552.0 64.0 587.5 125.0 Q 623.0 186.0 623.0 263.0 V 660.0 Q 623.0 677.0 612.0 689.0 Q 601.0 701.0 584.0 701.0 Z" fill="#2c2c2c"/></g>
    <g transform="translate(6.860, 78.800) scale(0.002000, -0.002000)"><path d="M 128.0 700.0 Q 111.0 700.0 99.5 688.5 Q 88.0 677.0 88.0 660.0 V 41.0 Q 88.0 24.0 99.5 12.0 Q 111.0 0.0 128.0 0.0 H 484.0 Q 501.0 0.0 513.0 11.0 Q 525.0 22.0 525.0 39.0 Q 525.0 54.0 513.0 66.0 Q 501.0 78.0 484.0 78.0 H 171.0 V 321.0 H 439.0 Q 456.0 321.0 468.0 331.5 Q 480.0 342.0 480.0 359.0 Q 480.0 376.0 468.0 387.0 Q 456.0 398.0 439.0 398.0 H 171.0 V 623.0 H 484.0 Q 501.0 623.0 513.0 633.5 Q 525.0 644.0 525.0 661.0 Q 525.0 678.0 513.0 689.0 Q 501.0 700.0 484.0 700.0 Z" fill="#2c2c2c"/></g>
  <!-- Label: "SAT CV" -->
    <g transform="translate(13.411, 78.800) scale(0.002000, -0.002000)"><path d="M 292.0 -10.0 Q 359.0 -9.0 412.5 15.5 Q 466.0 40.0 497.0 83.0 Q 528.0 126.0 528.0 181.0 Q 528.0 233.0 511.5 268.5 Q 495.0 304.0 465.0 327.0 Q 435.0 350.0 393.5 365.5 Q 352.0 381.0 303.0 393.0 Q 258.0 405.0 221.0 420.5 Q 184.0 436.0 162.0 460.5 Q 140.0 485.0 140.0 523.0 Q 140.0 557.0 159.5 581.5 Q 179.0 606.0 214.0 619.5 Q 249.0 633.0 295.0 633.0 Q 326.0 633.0 357.0 624.0 Q 388.0 615.0 414.0 600.0 Q 440.0 585.0 457.0 566.0 Q 466.0 558.0 477.0 558.0 Q 493.0 558.0 505.5 570.5 Q 518.0 583.0 518.0 598.0 Q 518.0 616.0 498.0 635.0 Q 465.0 670.0 410.5 690.0 Q 356.0 710.0 295.0 710.0 Q 226.0 710.0 173.0 686.5 Q 120.0 663.0 90.0 620.0 Q 60.0 577.0 60.0 520.0 Q 60.0 475.0 75.5 441.5 Q 91.0 408.0 119.0 384.5 Q 147.0 361.0 185.5 345.0 Q 224.0 329.0 270.0 318.0 Q 322.0 306.0 361.5 288.5 Q 401.0 271.0 423.5 245.0 Q 446.0 219.0 447.0 179.0 Q 447.0 146.0 426.0 121.0 Q 405.0 96.0 369.5 82.0 Q 334.0 68.0 290.0 68.0 Q 233.0 68.0 187.5 88.0 Q 142.0 108.0 103.0 146.0 Q 92.0 157.0 78.0 157.0 Q 61.0 157.0 49.5 144.5 Q 38.0 132.0 38.0 116.0 Q 38.0 106.0 42.5 97.5 Q 47.0 89.0 54.0 82.0 Q 106.0 34.0 162.0 12.0 Q 218.0 -10.0 292.0 -10.0 Z" fill="#2c2c2c"/></g>
    <g transform="translate(14.559, 78.800) scale(0.002000, -0.002000)"><path d="M 162.0 187.0 H 478.6 L 546.0 25.0 Q 551.0 12.0 561.0 5.0 Q 571.0 -2.0 583.0 -2.0 Q 598.0 -2.0 610.0 8.5 Q 622.0 19.0 622.0 37.0 Q 622.0 45.0 619.0 53.0 L 361.0 677.0 Q 357.0 689.0 346.5 696.0 Q 336.0 703.0 323.0 703.0 Q 310.0 704.0 299.5 697.5 Q 289.0 691.0 284.0 677.0 L 25.0 47.0 Q 22.0 39.0 23.0 32.0 Q 23.0 18.0 32.0 8.0 Q 41.0 -2.0 60.0 -2.0 Q 71.0 -2.0 81.0 5.0 Q 91.0 12.0 95.0 24.0 L 162.0 187.0 Z M 319.3 569.9 446.1 265.0 H 194.0 L 319.3 569.9 Z" fill="#2c2c2c"/></g>
    <g transform="translate(15.847, 78.800) scale(0.002000, -0.002000)"><path d="M 305.0 0.0 Q 324.0 0.0 336.0 12.0 Q 348.0 24.0 348.0 41.0 V 624.0 H 538.0 Q 555.0 624.0 567.0 634.0 Q 579.0 644.0 579.0 662.0 Q 579.0 679.0 567.0 689.5 Q 555.0 700.0 538.0 700.0 H 73.0 Q 56.0 700.0 44.5 689.5 Q 33.0 679.0 33.0 662.0 Q 33.0 645.0 44.5 634.5 Q 56.0 624.0 73.0 624.0 H 263.0 V 41.0 Q 263.0 24.0 275.0 12.0 Q 287.0 0.0 305.0 0.0 Z" fill="#2c2c2c"/></g>
  <!-- Label: "VAL CV" -->
    <g transform="translate(22.625, 78.800) scale(0.002000, -0.002000)"><path d="M 596.0 701.0 Q 571.0 701.0 559.0 676.0 L 339.3 131.9 L 112.0 674.0 Q 100.0 702.0 73.0 702.0 Q 60.0 702.0 46.5 691.5 Q 33.0 681.0 33.0 662.0 Q 33.0 657.0 34.0 652.5 Q 35.0 648.0 37.0 644.0 L 297.0 26.0 Q 302.0 14.0 312.0 7.5 Q 322.0 1.0 333.0 0.0 Q 345.0 0.0 355.5 6.5 Q 366.0 13.0 372.0 26.0 L 633.0 645.0 Q 637.0 655.0 637.0 663.0 Q 637.0 680.0 625.0 690.5 Q 613.0 701.0 596.0 701.0 Z" fill="#2c2c2c"/></g>
    <g transform="translate(23.963, 78.800) scale(0.002000, -0.002000)"><path d="M 162.0 187.0 H 478.6 L 546.0 25.0 Q 551.0 12.0 561.0 5.0 Q 571.0 -2.0 583.0 -2.0 Q 598.0 -2.0 610.0 8.5 Q 622.0 19.0 622.0 37.0 Q 622.0 45.0 619.0 53.0 L 361.0 677.0 Q 357.0 689.0 346.5 696.0 Q 336.0 703.0 323.0 703.0 Q 310.0 704.0 299.5 697.5 Q 289.0 691.0 284.0 677.0 L 25.0 47.0 Q 22.0 39.0 23.0 32.0 Q 23.0 18.0 32.0 8.0 Q 41.0 -2.0 60.0 -2.0 Q 71.0 -2.0 81.0 5.0 Q 91.0 12.0 95.0 24.0 L 162.0 187.0 Z M 319.3 569.9 446.1 265.0 H 194.0 L 319.3 569.9 Z" fill="#2c2c2c"/></g>
    <g transform="translate(25.251, 78.800) scale(0.002000, -0.002000)"><path d="M 474.0 79.0 H 171.0 V 660.0 Q 171.0 677.0 159.0 688.5 Q 147.0 700.0 130.0 700.0 Q 112.0 700.0 100.0 688.5 Q 88.0 677.0 88.0 660.0 V 41.0 Q 88.0 24.0 99.5 12.0 Q 111.0 0.0 128.0 0.0 H 474.0 Q 491.0 0.0 503.0 11.0 Q 515.0 22.0 515.0 39.0 Q 515.0 56.0 503.0 67.5 Q 491.0 79.0 474.0 79.0 Z" fill="#2c2c2c"/></g>
  <!-- Label: "HUE IN" -->
    <g transform="translate(3.600, 103.910) scale(0.002400, -0.002400)"><path d="M 130.0 700.0 Q 112.0 700.0 100.0 688.5 Q 88.0 677.0 88.0 659.0 V 41.0 Q 88.0 24.0 99.0 12.0 Q 110.0 0.0 129.0 0.0 Q 146.0 0.0 158.5 12.0 Q 171.0 24.0 171.0 41.0 V 317.0 H 549.0 V 41.0 Q 549.0 24.0 561.0 12.0 Q 573.0 0.0 590.0 0.0 Q 608.0 0.0 620.0 12.0 Q 632.0 24.0 632.0 41.0 V 659.0 Q 632.0 677.0 620.5 688.5 Q 609.0 700.0 591.0 700.0 Q 574.0 700.0 561.5 688.5 Q 549.0 677.0 549.0 659.0 V 395.0 H 171.0 V 659.0 Q 171.0 677.0 159.0 688.5 Q 147.0 700.0 130.0 700.0 Z" fill="#2c2c2c"/></g>
    <g transform="translate(5.328, 103.910) scale(0.002400, -0.002400)"><path d="M 584.0 701.0 Q 566.0 701.0 556.0 689.0 Q 546.0 677.0 546.0 660.0 V 263.0 Q 546.0 208.0 519.5 165.0 Q 493.0 122.0 450.0 97.5 Q 407.0 73.0 356.0 73.0 Q 306.0 73.0 263.5 97.5 Q 221.0 122.0 196.0 165.0 Q 171.0 208.0 171.0 263.0 V 660.0 Q 171.0 677.0 158.5 689.0 Q 146.0 701.0 130.0 701.0 Q 111.0 701.0 99.5 689.0 Q 88.0 677.0 88.0 660.0 V 263.0 Q 88.0 186.0 123.0 125.0 Q 158.0 64.0 218.5 28.5 Q 279.0 -7.0 356.0 -7.0 Q 432.0 -7.0 492.0 28.5 Q 552.0 64.0 587.5 125.0 Q 623.0 186.0 623.0 263.0 V 660.0 Q 623.0 677.0 612.0 689.0 Q 601.0 701.0 584.0 701.0 Z" fill="#2c2c2c"/></g>
    <g transform="translate(7.032, 103.910) scale(0.002400, -0.002400)"><path d="M 128.0 700.0 Q 111.0 700.0 99.5 688.5 Q 88.0 677.0 88.0 660.0 V 41.0 Q 88.0 24.0 99.5 12.0 Q 111.0 0.0 128.0 0.0 H 484.0 Q 501.0 0.0 513.0 11.0 Q 525.0 22.0 525.0 39.0 Q 525.0 54.0 513.0 66.0 Q 501.0 78.0 484.0 78.0 H 171.0 V 321.0 H 439.0 Q 456.0 321.0 468.0 331.5 Q 480.0 342.0 480.0 359.0 Q 480.0 376.0 468.0 387.0 Q 456.0 398.0 439.0 398.0 H 171.0 V 623.0 H 484.0 Q 501.0 623.0 513.0 633.5 Q 525.0 644.0 525.0 661.0 Q 525.0 678.0 513.0 689.0 Q 501.0 700.0 484.0 700.0 Z" fill="#2c2c2c"/></g>
  <!-- Label: "SAT IN" -->
    <g transform="translate(13.045, 103.910) scale(0.002400, -0.002400)"><path d="M 292.0 -10.0 Q 359.0 -9.0 412.5 15.5 Q 466.0 40.0 497.0 83.0 Q 528.0 126.0 528.0 181.0 Q 528.0 233.0 511.5 268.5 Q 495.0 304.0 465.0 327.0 Q 435.0 350.0 393.5 365.5 Q 352.0 381.0 303.0 393.0 Q 258.0 405.0 221.0 420.5 Q 184.0 436.0 162.0 460.5 Q 140.0 485.0 140.0 523.0 Q 140.0 557.0 159.5 581.5 Q 179.0 606.0 214.0 619.5 Q 249.0 633.0 295.0 633.0 Q 326.0 633.0 357.0 624.0 Q 388.0 615.0 414.0 600.0 Q 440.0 585.0 457.0 566.0 Q 466.0 558.0 477.0 558.0 Q 493.0 558.0 505.5 570.5 Q 518.0 583.0 518.0 598.0 Q 518.0 616.0 498.0 635.0 Q 465.0 670.0 410.5 690.0 Q 356.0 710.0 295.0 710.0 Q 226.0 710.0 173.0 686.5 Q 120.0 663.0 90.0 620.0 Q 60.0 577.0 60.0 520.0 Q 60.0 475.0 75.5 441.5 Q 91.0 408.0 119.0 384.5 Q 147.0 361.0 185.5 345.0 Q 224.0 329.0 270.0 318.0 Q 322.0 306.0 361.5 288.5 Q 401.0 271.0 423.5 245.0 Q 446.0 219.0 447.0 179.0 Q 447.0 146.0 426.0 121.0 Q 405.0 96.0 369.5 82.0 Q 334.0 68.0 290.0 68.0 Q 233.0 68.0 187.5 88.0 Q 142.0 108.0 103.0 146.0 Q 92.0 157.0 78.0 157.0 Q 61.0 157.0 49.5 144.5 Q 38.0 132.0 38.0 116.0 Q 38.0 106.0 42.5 97.5 Q 47.0 89.0 54.0 82.0 Q 106.0 34.0 162.0 12.0 Q 218.0 -10.0 292.0 -10.0 Z" fill="#2c2c2c"/></g>
    <g transform="translate(14.423, 103.910) scale(0.002400, -0.002400)"><path d="M 162.0 187.0 H 478.6 L 546.0 25.0 Q 551.0 12.0 561.0 5.0 Q 571.0 -2.0 583.0 -2.0 Q 598.0 -2.0 610.0 8.5 Q 622.0 19.0 622.0 37.0 Q 622.0 45.0 619.0 53.0 L 361.0 677.0 Q 357.0 689.0 346.5 696.0 Q 336.0 703.0 323.0 703.0 Q 310.0 704.0 299.5 697.5 Q 289.0 691.0 284.0 677.0 L 25.0 47.0 Q 22.0 39.0 23.0 32.0 Q 23.0 18.0 32.0 8.0 Q 41.0 -2.0 60.0 -2.0 Q 71.0 -2.0 81.0 5.0 Q 91.0 12.0 95.0 24.0 L 162.0 187.0 Z M 319.3 569.9 446.1 265.0 H 194.0 L 319.3 569.9 Z" fill="#2c2c2c"/></g>
    <g transform="translate(15.968, 103.910) scale(0.002400, -0.002400)"><path d="M 305.0 0.0 Q 324.0 0.0 336.0 12.0 Q 348.0 24.0 348.0 41.0 V 624.0 H 538.0 Q 555.0 624.0 567.0 634.0 Q 579.0 644.0 579.0 662.0 Q 579.0 679.0 567.0 689.5 Q 555.0 700.0 538.0 700.0 H 73.0 Q 56.0 700.0 44.5 689.5 Q 33.0 679.0 33.0 662.0 Q 33.0 645.0 44.5 634.5 Q 56.0 624.0 73.0 624.0 H 263.0 V 41.0 Q 263.0 24.0 275.0 12.0 Q 287.0 0.0 305.0 0.0 Z" fill="#2c2c2c"/></g>
  <!-- Label: "VAL IN" -->
    <g transform="translate(22.254, 103.910) scale(0.002400, -0.002400)"><path d="M 596.0 701.0 Q 571.0 701.0 559.0 676.0 L 339.3 131.9 L 112.0 674.0 Q 100.0 702.0 73.0 702.0 Q 60.0 702.0 46.5 691.5 Q 33.0 681.0 33.0 662.0 Q 33.0 657.0 34.0 652.5 Q 35.0 648.0 37.0 644.0 L 297.0 26.0 Q 302.0 14.0 312.0 7.5 Q 322.0 1.0 333.0 0.0 Q 345.0 0.0 355.5 6.5 Q 366.0 13.0 372.0 26.0 L 633.0 645.0 Q 637.0 655.0 637.0 663.0 Q 637.0 680.0 625.0 690.5 Q 613.0 701.0 596.0 701.0 Z" fill="#2c2c2c"/></g>
    <g transform="translate(23.860, 103.910) scale(0.002400, -0.002400)"><path d="M 162.0 187.0 H 478.6 L 546.0 25.0 Q 551.0 12.0 561.0 5.0 Q 571.0 -2.0 583.0 -2.0 Q 598.0 -2.0 610.0 8.5 Q 622.0 19.0 622.0 37.0 Q 622.0 45.0 619.0 53.0 L 361.0 677.0 Q 357.0 689.0 346.5 696.0 Q 336.0 703.0 323.0 703.0 Q 310.0 704.0 299.5 697.5 Q 289.0 691.0 284.0 677.0 L 25.0 47.0 Q 22.0 39.0 23.0 32.0 Q 23.0 18.0 32.0 8.0 Q 41.0 -2.0 60.0 -2.0 Q 71.0 -2.0 81.0 5.0 Q 91.0 12.0 95.0 24.0 L 162.0 187.0 Z M 319.3 569.9 446.1 265.0 H 194.0 L 319.3 569.9 Z" fill="#2c2c2c"/></g>
    <g transform="translate(25.405, 103.910) scale(0.002400, -0.002400)"><path d="M 474.0 79.0 H 171.0 V 660.0 Q 171.0 677.0 159.0 688.5 Q 147.0 700.0 130.0 700.0 Q 112.0 700.0 100.0 688.5 Q 88.0 677.0 88.0 660.0 V 41.0 Q 88.0 24.0 99.5 12.0 Q 111.0 0.0 128.0 0.0 H 474.0 Q 491.0 0.0 503.0 11.0 Q 515.0 22.0 515.0 39.0 Q 515.0 56.0 503.0 67.5 Q 491.0 79.0 474.0 79.0 Z" fill="#2c2c2c"/></g>
  <!-- Label: "R OUT" -->
    <g transform="translate(5.189, 115.340) scale(0.002400, -0.002400)"><path d="M 134.0 0.0 Q 151.0 0.0 161.0 12.0 Q 171.0 24.0 171.0 41.0 V 284.0 H 382.0 Q 404.0 284.0 425.0 279.0 Q 446.0 274.0 463.0 261.0 Q 480.0 248.0 490.0 227.0 Q 500.0 206.0 500.0 174.0 Q 500.0 117.0 510.0 84.0 Q 520.0 51.0 535.0 33.5 Q 550.0 16.0 566.0 7.0 Q 574.0 2.0 585.0 1.0 Q 596.0 0.0 607.0 3.5 Q 618.0 7.0 624.0 16.0 Q 634.0 30.0 629.5 45.0 Q 625.0 60.0 611.0 69.0 Q 600.0 76.0 594.0 88.5 Q 588.0 101.0 585.0 123.0 Q 582.0 145.0 580.0 182.0 Q 579.0 224.0 562.0 255.5 Q 545.0 287.0 518.0 307.5 Q 504.8 317.5 489.9 324.6 Q 519.3 338.1 543.0 360.5 Q 571.0 387.0 587.0 423.5 Q 603.0 460.0 603.0 502.0 Q 603.0 560.0 576.5 604.5 Q 550.0 649.0 505.0 674.5 Q 460.0 700.0 404.0 700.0 H 128.0 Q 111.0 700.0 99.5 688.5 Q 88.0 677.0 88.0 660.0 V 41.0 Q 88.0 24.0 101.5 12.0 Q 115.0 0.0 134.0 0.0 Z M 171.0 356.0 V 623.0 H 399.0 Q 450.0 623.0 483.5 588.0 Q 517.0 553.0 517.0 500.0 Q 517.0 459.0 500.5 426.5 Q 484.0 394.0 458.5 376.0 Q 433.0 358.0 404.0 356.0 H 171.0 Z" fill="#1c1c1c"/></g>
  <!-- Label: "G OUT" -->
    <g transform="translate(14.406, 115.340) scale(0.002400, -0.002400)"><path d="M 407.0 -10.0 Q 466.0 -10.0 520.5 7.5 Q 575.0 25.0 620.0 54.0 Q 629.0 60.0 634.5 69.0 Q 640.0 78.0 640.0 90.0 V 321.0 Q 640.0 338.0 629.0 350.0 Q 618.0 362.0 600.0 362.0 H 418.0 Q 401.0 362.0 389.5 350.5 Q 378.0 339.0 378.0 322.0 Q 378.0 305.0 389.5 293.5 Q 401.0 282.0 418.0 282.0 H 555.0 V 105.2 Q 527.2 90.7 489.5 81.0 Q 447.0 70.0 407.0 70.0 Q 328.0 70.0 265.5 107.0 Q 203.0 144.0 167.0 207.5 Q 131.0 271.0 131.0 350.0 Q 131.0 430.0 167.0 493.0 Q 203.0 556.0 265.5 593.0 Q 328.0 630.0 407.0 630.0 Q 447.0 630.0 483.0 620.5 Q 519.0 611.0 550.0 595.0 Q 556.0 593.0 561.5 591.0 Q 567.0 589.0 573.0 589.0 Q 588.0 589.0 599.5 601.0 Q 611.0 613.0 611.0 630.0 Q 611.0 640.0 606.5 649.0 Q 602.0 658.0 592.0 663.0 Q 553.0 687.0 505.5 698.5 Q 458.0 710.0 407.0 710.0 Q 330.0 710.0 264.5 683.0 Q 199.0 656.0 149.5 607.0 Q 100.0 558.0 72.5 492.5 Q 45.0 427.0 45.0 350.0 Q 45.0 274.0 72.5 208.5 Q 100.0 143.0 149.5 94.0 Q 199.0 45.0 264.5 17.5 Q 330.0 -10.0 407.0 -10.0 Z" fill="#1c1c1c"/></g>
  <!-- Label: "B OUT" -->
    <g transform="translate(23.696, 115.340) scale(0.002400, -0.002400)"><path d="M 389.0 700.0 H 128.0 Q 111.0 700.0 99.5 688.5 Q 88.0 677.0 88.0 660.0 V 41.0 Q 88.0 24.0 99.5 12.0 Q 111.0 0.0 128.0 0.0 H 391.0 Q 430.0 0.0 468.5 10.0 Q 507.0 20.0 538.5 43.5 Q 570.0 67.0 589.0 105.5 Q 608.0 144.0 608.0 201.0 Q 608.0 254.0 588.5 290.0 Q 569.0 326.0 537.5 348.0 Q 509.3 367.7 476.8 377.7 Q 485.5 381.4 493.5 386.0 Q 532.0 408.0 552.0 445.0 Q 572.0 482.0 572.0 526.0 Q 572.0 609.0 524.5 654.5 Q 477.0 700.0 389.0 700.0 Z M 385.0 323.0 Q 419.0 323.0 450.5 313.0 Q 482.0 303.0 502.0 276.5 Q 522.0 250.0 522.0 201.0 Q 522.0 138.0 484.5 108.0 Q 447.0 78.0 388.0 78.0 H 174.0 V 323.0 Z M 377.0 621.0 Q 428.0 621.0 457.0 593.5 Q 486.0 566.0 486.0 516.0 Q 486.0 460.0 454.5 431.5 Q 423.0 403.0 379.0 403.0 H 174.0 V 621.0 Z" fill="#1c1c1c"/></g>
</svg>
