<?xml version="1.0" encoding="UTF-8"?>
<svg xmlns="http://www.w3.org/2000/svg" width="30.48mm" height="128.5mm" viewBox="0 0 30.48 128.5">
  <!-- Panel Background: 6 HP -->
  <rect width="30.48" height="128.5" fill="#6e6e6e"/>

  <!-- Left Edge Color Badge (Centered 88.9mm x 2.54mm, Flush X=0) -->
  <g id="palette-badge">
    <rect x="0.000" y="19.800" width="2.540" height="44.450" fill="#FFFFFF" stroke="none"/>
    <rect x="0.000" y="64.250" width="2.540" height="28.448" fill="#0072B2" stroke="none"/>
    <rect x="0.000" y="92.698" width="2.540" height="16.002" fill="#56B4E9" stroke="none"/>
  </g>

  <!-- Delineator Line 1 (Main Controls / Attenuverters) -->
  <line x1="2.54" y1="52.50" x2="27.94" y2="52.50" stroke="#999999" stroke-width="0.176"/>

  <!-- Delineator Line 2 (Attenuverters / I/O Jacks) -->
  <line x1="2.54" y1="80.50" x2="27.94" y2="80.50" stroke="#999999" stroke-width="0.176"/>

  <!-- Label: "quake" -->
    <g transform="translate(9.638, 7.620) scale(0.004800, -0.004800)"><path d="M 548.5 -128.4 C 540.0 -118.4 525.1 -117.2 515.1 -125.7 L 368.2 -250.6 L 474.9 354.2 C 475.0 354.8 475.0 355.4 475.1 355.9 C 475.2 356.5 475.2 357.1 475.2 357.7 V 357.7 C 475.4 363.3 473.6 369.0 469.8 373.7 C 469.8 373.7 469.8 373.7 469.8 373.7 C 469.7 373.7 469.7 373.7 469.7 373.7 C 469.6 373.8 469.5 374.0 469.5 374.1 L 469.4 374.1 C 465.4 378.7 460.0 381.4 454.3 382.0 C 453.9 382.1 453.5 382.1 453.0 382.2 H 453.0 C 452.5 382.2 451.9 382.2 451.4 382.2 H 116.7 C 105.2 382.2 95.4 374.0 93.4 362.6 L 34.4 27.8 C 32.6 17.9 37.2 8.1 45.9 3.1 C 54.6 -1.8 65.4 -0.8 73.0 5.6 L 416.8 297.9 L 310.2 -307.0 C 308.4 -316.9 313.1 -326.7 321.7 -331.7 C 325.4 -333.8 329.4 -334.8 333.5 -334.8 C 339.0 -334.8 344.4 -332.9 348.8 -329.2 L 545.8 -161.8 C 555.7 -153.3 556.9 -138.4 548.5 -128.4 Z M 92.4 84.3 136.6 334.8 H 387.2 Z" fill="#ffffff"/></g>
    <g transform="translate(11.914, 7.620) scale(0.004800, -0.004800)"><path d="M 491.7 381.9 C 478.8 384.1 466.5 375.5 464.3 362.6 L 436.9 207.4 L 124.9 64.1 L 176.0 354.4 C 178.3 367.3 169.7 379.6 156.8 381.9 C 143.9 384.1 131.7 375.5 129.4 362.6 L 70.4 27.8 C 68.8 19.1 72.2 10.3 79.2 4.9 C 83.4 1.7 88.5 0.0 93.7 0.0 C 97.0 0.0 100.4 0.7 103.6 2.2 L 426.9 150.7 L 405.2 27.8 C 402.9 14.9 411.5 2.6 424.4 0.4 C 425.8 0.1 427.2 -1.5e-05 428.6 -1.5e-05 C 439.8 -1.5e-05 449.8 8.1 451.9 19.6 L 510.9 354.4 C 513.2 367.3 504.6 379.6 491.7 381.9 Z" fill="#ffffff"/></g>
    <g transform="translate(14.256, 7.620) scale(0.004800, -0.004800)"><path d="M 469.6 373.9 C 465.6 378.6 460.0 381.4 454.3 382.0 C 453.9 382.1 453.5 382.1 453.1 382.2 H 453.0 C 452.5 382.2 451.9 382.2 451.4 382.2 H 116.7 C 103.6 382.2 93.0 371.6 93.0 358.5 C 93.0 345.5 103.6 334.8 116.7 334.8 H 387.2 L 42.3 41.7 C 34.8 35.3 32.0 24.8 35.5 15.5 C 38.9 6.2 47.8 1.5e-05 57.7 1.5e-05 H 392.5 C 404.0 1.5e-05 413.9 8.3 415.8 19.6 L 474.9 354.2 C 475.0 354.8 475.0 355.4 475.1 355.9 C 475.2 356.5 475.2 357.1 475.2 357.7 V 357.7 C 475.4 363.4 473.6 369.2 469.6 373.9 Z M 372.7 47.4 H 122.1 L 416.8 297.9 Z" fill="#ffffff"/></g>
    <g transform="translate(16.421, 7.620) scale(0.004800, -0.004800)"><path d="M 473.1 368.4 C 467.6 380.3 453.6 385.5 441.7 380.0 L 118.4 231.5 L 199.1 689.3 C 201.4 702.1 192.8 714.4 179.9 716.7 C 167.0 718.9 154.7 710.4 152.5 697.5 L 63.9 195.3 C 63.9 195.3 63.9 195.2 63.9 195.2 L 34.4 27.8 C 32.1 14.9 40.7 2.6 53.6 0.4 C 55.0 0.1 56.4 0.0 57.7 0.0 C 69.0 0.0 79.0 8.1 81.0 19.6 L 104.8 154.5 L 381.2 2.9 C 384.8 0.9 388.7 -3.1e-05 392.5 -3.1e-05 C 400.9 -3.1e-05 409.0 4.4 413.3 12.3 C 419.6 23.8 415.4 38.2 403.9 44.5 L 139.9 189.2 L 461.5 337.0 C 473.4 342.5 478.6 356.5 473.1 368.4 Z" fill="#ffffff"/></g>
    <g transform="translate(18.586, 7.620) scale(0.004800, -0.004800)"><path d="M 475.8 366.7 C 472.4 376.0 463.5 382.2 453.6 382.2 H 118.7 C 107.2 382.2 97.4 374.0 95.4 362.6 L 36.4 28.0 C 36.3 27.4 36.2 26.9 36.1 26.3 C 36.1 25.7 36.0 25.1 36.0 24.4 C 35.8 18.8 37.7 13.0 41.6 8.4 C 45.7 3.6 51.2 0.8 56.9 0.2 C 56.9 0.2 56.9 0.2 56.9 0.2 C 56.9 0.2 56.9 0.2 57.0 0.2 C 57.4 0.1 57.8 0.1 58.2 0.1 H 58.2 C 58.7 0.0 59.2 0.0 59.7 0.0 H 394.5 C 407.6 0.0 418.2 10.6 418.2 23.7 C 418.2 36.8 407.6 47.4 394.5 47.4 H 124.1 L 468.9 340.5 C 476.5 346.9 479.2 357.4 475.8 366.7 Z M 94.4 84.3 138.6 334.8 H 389.2 Z" fill="#ffffff"/></g>
  <!-- Label: "v1.0.2" -->
    <g transform="translate(10.406, 7.620) scale(0.004800, -0.004800)"><path d="M392.528564453125 382.20867919921875H253.32508850097656L307.4696350097656 689.2626342773438C309.73699951171875 702.1445922851562 301.14111328125 714.4227294921875 288.2591552734375 716.696044921875C275.3653259277344 718.9337768554688 263.0990295410156 710.3674926757812 260.82574462890625 697.4855346679688L205.2307891845703 382.2086486816406H57.680084228515625C44.60273742675781 382.2086486816406 33.99998474121094 371.60589599609375 33.99998474121094 358.528564453125C33.99998474121094 345.4512023925781 44.602752685546875 334.84844970703125 57.680084228515625 334.84844970703125H196.88356018066406L142.739013671875 27.79449462890625C141.01036071777344 17.961334228515625 145.62205505371094 8.09857177734375 154.28897094726562 3.1316680908203125C157.9593963623047 1.030059814453125 162.02052307128906 -1.52587890625e-05 166.0579833984375 -1.52587890625e-05C171.55767822265625 -1.52587890625e-05 177.0159454345703 1.9121551513671875 181.40267944335938 5.6417694091796875L378.35009765625 173.0659942626953C388.3134765625 181.5375518798828 389.527099609375 196.4796905517578 381.0555419921875 206.44308471679688C372.583984375 216.40647888183594 357.641845703125 217.61416625976562 347.6725158691406 209.14852905273438L200.79669189453125 84.28927612304688L244.97784423828125 334.8484191894531H392.528564453125C405.60589599609375 334.8484191894531 416.2086486816406 345.451171875 416.2086486816406 358.52850341796875C416.2086486816406 371.6058654785156 405.60589599609375 382.2086181640625 392.528564453125 382.20867919921875Z" fill="#ffffff"/></g>
    <g transform="translate(12.288, 7.620) scale(0.004800, -0.004800)"><path d="M302.2024841308594 373.86737060546875C293.7309265136719 383.83074951171875 278.7887878417969 385.04437255859375 268.8194580078125 376.57281494140625L121.94364929199219 251.71946716308594L140.05300903320312 354.4200744628906C142.32037353515625 367.30206298828125 133.7244873046875 379.5802001953125 120.84251403808594 381.85345458984375C107.97238159179688 384.10308837890625 95.68240356445312 375.52496337890625 93.40911865234375 362.6429748535156L34.36279296875 27.794509887695312C32.095428466796875 14.91253662109375 40.691314697265625 2.6343994140625 53.57328796386719 0.361114501953125C54.96449279785156 0.1183929443359375 56.34977722167969 0.0 57.71730041503906 0.0C68.98902893066406 0.0 78.98202514648438 8.080825805664062 81.01258850097656 19.57159423828125L109.05575561523438 178.59532165527344L299.4970397949219 340.48431396484375C309.46636962890625 348.9617919921875 310.6740417480469 363.9039306640625 302.2024841308594 373.86737060546875Z" fill="#ffffff"/></g>
    <g transform="translate(13.646, 7.620) scale(0.004800, -0.004800)"><path d="M475.7926330566406 366.7041015625C472.370849609375 376.022216796875 463.49676513671875 382.214599609375 453.56884765625 382.214599609375H118.72039794921875C107.22962951660156 382.214599609375 97.39054870605469 373.9620666503906 95.40141296386719 362.64892578125L36.39060974121094 27.983963012695312C36.28404235839844 27.427490234375 36.20707702636719 26.871017456054688 36.14195251464844 26.308609008789062C36.07090759277344 25.68701171875 36.02946472167969 25.059478759765625 36.01170349121094 24.437881469726562C35.8341064453125 18.766494750976562 37.67523193359375 13.018142700195312 41.63572692871094 8.353164672851562C45.673187255859375 3.6053009033203125 51.172882080078125 0.8465728759765625 56.915313720703125 0.17169189453125C56.92189025878906 0.1782701313495636 56.928470611572266 0.17571192979812622 56.9350471496582 0.17315372824668884C56.940311431884766 0.17110715806484222 56.94557189941406 0.1690606027841568 56.950836181640625 0.17169189453125C57.35931396484375 0.12432861328125 57.779632568359375 0.0828857421875 58.19404602050781 0.0592041015625H58.24732971191406C58.72685241699219 0.02960205078125 59.20637512207031 0.01776123046875 59.68589782714844 0.01776123046875H394.5166015625C407.5939636230469 0.01776123046875 418.19671630859375 10.620529174804688 418.19671630859375 23.697860717773438C418.19671630859375 36.77520751953125 407.59393310546875 47.377960205078125 394.5166015625 47.377960205078125H124.08395385742188L468.89581298828125 340.5020751953125C476.467529296875 346.9194030761719 479.2203369140625 357.38006591796875 475.7926330566406 366.7041015625ZM94.41278076171875 84.28932189941406 138.59393310546875 334.84844970703125H389.153076171875Z" fill="#ffffff"/></g>
    <g transform="translate(15.902, 7.620) scale(0.004800, -0.004800)"><path d="M392.528564453125 382.20867919921875H253.32508850097656L307.4696350097656 689.2626342773438C309.73699951171875 702.1445922851562 301.14111328125 714.4227294921875 288.2591552734375 716.696044921875C275.3653259277344 718.9337768554688 263.0990295410156 710.3674926757812 260.82574462890625 697.4855346679688L205.2307891845703 382.2086486816406H57.680084228515625C44.60273742675781 382.2086486816406 33.99998474121094 371.60589599609375 33.99998474121094 358.528564453125C33.99998474121094 345.4512023925781 44.602752685546875 334.84844970703125 57.680084228515625 334.84844970703125H196.88356018066406L142.739013671875 27.79449462890625C141.01036071777344 17.961334228515625 145.62205505371094 8.09857177734375 154.28897094726562 3.1316680908203125C157.9593963623047 1.030059814453125 162.02052307128906 -1.52587890625e-05 166.0579833984375 -1.52587890625e-05C171.55767822265625 -1.52587890625e-05 177.0159454345703 1.9121551513671875 181.40267944335938 5.6417694091796875L378.35009765625 173.0659942626953C388.3134765625 181.5375518798828 389.527099609375 196.4796905517578 381.0555419921875 206.44308471679688C372.583984375 216.40647888183594 357.641845703125 217.61416625976562 347.6725158691406 209.14852905273438L200.79669189453125 84.28927612304688L244.97784423828125 334.8484191894531H392.528564453125C405.60589599609375 334.8484191894531 416.2086486816406 345.451171875 416.2086486816406 358.52850341796875C416.2086486816406 371.6058654785156 405.60589599609375 382.2086181640625 392.528564453125 382.20867919921875Z" fill="#ffffff"/></g>
    <g transform="translate(17.784, 7.620) scale(0.004800, -0.004800)"><path d="M461.6199951171875 373.8699951171875C453.1400146484375 383.83001708984375 438.20001220703125 385.0400085449219 428.22998046875 376.57000732421875L34.339996337890625 41.720001220703125C26.779998779296875 35.30000305175781 24.029998779296875 24.830001831054688 27.449996948242188 15.509994506835938C30.879989624023438 6.1899871826171875 39.74998474121094 -1.52587890625e-05 49.67997741699219 -1.52587890625e-05H384.51995849609375C397.5999755859375 -1.52587890625e-05 408.2099609375 10.599990844726562 408.2099609375 23.67999267578125C408.2099609375 36.75999450683594 397.5999755859375 47.36000061035156 384.51995849609375 47.36000061035156H114.0999755859375L458.90997314453125 340.47998046875C468.8799743652344 348.9599914550781 470.0899658203125 363.8999938964844 461.6199951171875 373.8699951171875Z" fill="#ffffff"/></g>
    <g transform="translate(16.333, 10.414) scale(0.001600, -0.001600)"><path d="M469.7095947265625 373.7548828125C465.21038818359375 379.118408203125 458.568115234375 382.214599609375 451.57061767578125 382.214599609375H144.94883728027344L199.08746337890625 689.2685546875C201.36074829101562 702.1505126953125 192.75894165039062 714.4286499023438 179.8828887939453 716.7019653320312C167.00091552734375 718.939697265625 154.7227783203125 710.3734130859375 152.44949340820312 697.491455078125L34.36274719238281 27.800430297851562C32.09538269042969 14.91845703125 40.69126892089844 2.64031982421875 53.5732421875 0.367034912109375C54.964447021484375 0.1243133544921875 56.3497314453125 0.00592041015625 57.711334228515625 0.00592041015625C68.98306274414062 0.00592041015625 78.98197937011719 8.086746215820312 81.00662231445312 19.5775146484375L136.60157775878906 334.8543701171875H423.35577392578125L369.2171325683594 27.800430297851562C366.94976806640625 14.92437744140625 375.545654296875 2.64031982421875 388.4276123046875 0.367034912109375C389.81884765625 0.1243133544921875 391.2041015625 0.00592041015625 392.56573486328125 0.00592041015625C403.83746337890625 0.00592041015625 413.83636474609375 8.086746215820312 415.86102294921875 19.5775146484375L474.90142822265625 354.42596435546875C476.1091003417969 361.31097412109375 474.2087707519531 368.3913269042969 469.7095947265625 373.7548828125Z" fill="#aaaaaa"/></g>
  <!-- Label: "X" -->
    <g transform="translate(6.687, 13.070) scale(0.003000, -0.003000)"><path d="M 547.0 703.0 Q 528.0 703.0 515.0 684.0 L 314.7 413.0 L 112.0 686.0 Q 100.0 703.0 79.0 703.0 Q 64.0 703.0 51.5 691.5 Q 39.0 680.0 39.0 663.0 Q 39.0 649.0 47.0 639.0 L 261.8 349.2 L 48.0 58.0 Q 38.0 45.0 38.0 31.0 Q 38.0 19.0 48.5 7.5 Q 59.0 -4.0 75.0 -4.0 Q 95.0 -4.0 107.0 14.0 L 307.7 287.2 L 511.0 13.0 Q 524.0 -4.0 544.0 -4.0 Q 558.0 -4.0 571.0 7.0 Q 584.0 18.0 584.0 36.0 Q 584.0 49.0 576.0 61.0 L 360.6 351.2 L 576.0 642.0 Q 585.0 654.0 585.0 667.0 Q 585.0 681.0 573.5 692.0 Q 562.0 703.0 547.0 703.0 Z" fill="#1c1c1c"/></g>
  <!-- Label: "Y" -->
    <g transform="translate(22.002, 13.070) scale(0.003000, -0.003000)"><path d="M 514.0 704.0 Q 494.0 704.0 481.0 684.0 L 290.3 415.7 L 94.0 685.0 Q 81.0 704.0 61.0 704.0 Q 47.0 704.0 33.0 692.5 Q 19.0 681.0 19.0 664.0 Q 19.0 657.0 21.5 649.5 Q 24.0 642.0 30.0 634.0 L 248.0 339.5 V 41.0 Q 248.0 24.0 259.5 12.0 Q 271.0 0.0 289.0 0.0 Q 305.0 0.0 316.5 12.0 Q 328.0 24.0 328.0 41.0 V 333.1 L 547.0 638.0 Q 551.0 644.0 552.5 650.5 Q 554.0 657.0 554.0 663.0 Q 554.0 679.0 542.5 691.5 Q 531.0 704.0 514.0 704.0 Z" fill="#1c1c1c"/></g>
  <!-- Label: "SPEED" -->
    <g transform="translate(10.694, 34.500) scale(0.003000, -0.003000)"><path d="M 292.0 -10.0 Q 359.0 -9.0 412.5 15.5 Q 466.0 40.0 497.0 83.0 Q 528.0 126.0 528.0 181.0 Q 528.0 233.0 511.5 268.5 Q 495.0 304.0 465.0 327.0 Q 435.0 350.0 393.5 365.5 Q 352.0 381.0 303.0 393.0 Q 258.0 405.0 221.0 420.5 Q 184.0 436.0 162.0 460.5 Q 140.0 485.0 140.0 523.0 Q 140.0 557.0 159.5 581.5 Q 179.0 606.0 214.0 619.5 Q 249.0 633.0 295.0 633.0 Q 326.0 633.0 357.0 624.0 Q 388.0 615.0 414.0 600.0 Q 440.0 585.0 457.0 566.0 Q 466.0 558.0 477.0 558.0 Q 493.0 558.0 505.5 570.5 Q 518.0 583.0 518.0 598.0 Q 518.0 616.0 498.0 635.0 Q 465.0 670.0 410.5 690.0 Q 356.0 710.0 295.0 710.0 Q 226.0 710.0 173.0 686.5 Q 120.0 663.0 90.0 620.0 Q 60.0 577.0 60.0 520.0 Q 60.0 475.0 75.5 441.5 Q 91.0 408.0 119.0 384.5 Q 147.0 361.0 185.5 345.0 Q 224.0 329.0 270.0 318.0 Q 322.0 306.0 361.5 288.5 Q 401.0 271.0 423.5 245.0 Q 446.0 219.0 447.0 179.0 Q 447.0 146.0 426.0 121.0 Q 405.0 96.0 369.5 82.0 Q 334.0 68.0 290.0 68.0 Q 233.0 68.0 187.5 88.0 Q 142.0 108.0 103.0 146.0 Q 92.0 157.0 78.0 157.0 Q 61.0 157.0 49.5 144.5 Q 38.0 132.0 38.0 116.0 Q 38.0 106.0 42.5 97.5 Q 47.0 89.0 54.0 82.0 Q 106.0 34.0 162.0 12.0 Q 218.0 -10.0 292.0 -10.0 Z" fill="#1c1c1c"/></g>
    <g transform="translate(12.415, 34.500) scale(0.003000, -0.003000)"><path d="M 362.0 700.0 H 128.0 Q 111.0 700.0 99.5 688.5 Q 88.0 677.0 88.0 660.0 V 41.0 Q 88.0 24.0 98.5 12.0 Q 109.0 0.0 127.0 0.0 Q 144.0 0.0 155.0 12.0 Q 166.0 24.0 166.0 41.0 V 281.0 H 362.0 Q 417.0 281.0 461.0 309.0 Q 505.0 337.0 530.5 385.0 Q 556.0 433.0 556.0 492.0 Q 556.0 552.0 530.5 599.0 Q 505.0 646.0 461.0 673.0 Q 417.0 700.0 362.0 700.0 Z M 362.0 358.0 H 166.0 V 623.0 H 362.0 Q 395.0 623.0 420.0 605.5 Q 445.0 588.0 460.0 559.0 Q 475.0 530.0 475.0 492.0 Q 475.0 456.0 460.0 425.0 Q 445.0 394.0 420.0 376.0 Q 395.0 358.0 362.0 358.0 Z" fill="#1c1c1c"/></g>
    <g transform="translate(14.213, 34.500) scale(0.003000, -0.003000)"><path d="M 128.0 700.0 Q 111.0 700.0 99.5 688.5 Q 88.0 677.0 88.0 660.0 V 41.0 Q 88.0 24.0 99.5 12.0 Q 111.0 0.0 128.0 0.0 H 484.0 Q 501.0 0.0 513.0 11.0 Q 525.0 22.0 525.0 39.0 Q 525.0 54.0 513.0 66.0 Q 501.0 78.0 484.0 78.0 H 171.0 V 321.0 H 439.0 Q 456.0 321.0 468.0 331.5 Q 480.0 342.0 480.0 359.0 Q 480.0 376.0 468.0 387.0 Q 456.0 398.0 439.0 398.0 H 171.0 V 623.0 H 484.0 Q 501.0 623.0 513.0 633.5 Q 525.0 644.0 525.0 661.0 Q 525.0 678.0 513.0 689.0 Q 501.0 700.0 484.0 700.0 Z" fill="#1c1c1c"/></g>
    <g transform="translate(15.922, 34.500) scale(0.003000, -0.003000)"><path d="M 128.0 700.0 Q 111.0 700.0 99.5 688.5 Q 88.0 677.0 88.0 660.0 V 41.0 Q 88.0 24.0 99.5 12.0 Q 111.0 0.0 128.0 0.0 H 484.0 Q 501.0 0.0 513.0 11.0 Q 525.0 22.0 525.0 39.0 Q 525.0 54.0 513.0 66.0 Q 501.0 78.0 484.0 78.0 H 171.0 V 321.0 H 439.0 Q 456.0 321.0 468.0 331.5 Q 480.0 342.0 480.0 359.0 Q 480.0 376.0 468.0 387.0 Q 456.0 398.0 439.0 398.0 H 171.0 V 623.0 H 484.0 Q 501.0 623.0 513.0 633.5 Q 525.0 644.0 525.0 661.0 Q 525.0 678.0 513.0 689.0 Q 501.0 700.0 484.0 700.0 Z" fill="#1c1c1c"/></g>
    <g transform="translate(17.633, 34.500) scale(0.003000, -0.003000)"><path d="M 378.0 700.0 H 128.0 Q 111.0 700.0 99.5 688.5 Q 88.0 677.0 88.0 660.0 V 41.0 Q 88.0 24.0 99.5 12.0 Q 111.0 0.0 128.0 0.0 H 378.0 Q 477.0 0.0 542.0 47.5 Q 607.0 95.0 640.0 174.5 Q 673.0 254.0 673.0 350.0 Q 673.0 420.0 654.5 483.5 Q 636.0 547.0 599.0 596.0 Q 562.0 645.0 506.5 672.5 Q 451.0 700.0 378.0 700.0 Z M 368.0 78.0 H 171.0 V 623.0 H 368.0 Q 426.0 623.0 467.5 601.0 Q 509.0 579.0 535.5 541.0 Q 562.0 503.0 574.5 453.5 Q 587.0 404.0 587.0 350.0 Q 587.0 276.0 564.5 214.0 Q 542.0 152.0 493.5 115.0 Q 445.0 78.0 368.0 78.0 Z" fill="#1c1c1c"/></g>
  <!-- Label: "X AMT CV" -->
    <g transform="translate(3.952, 56.500) scale(0.002000, -0.002000)"><path d="M 162.0 187.0 H 478.6 L 546.0 25.0 Q 551.0 12.0 561.0 5.0 Q 571.0 -2.0 583.0 -2.0 Q 598.0 -2.0 610.0 8.5 Q 622.0 19.0 622.0 37.0 Q 622.0 45.0 619.0 53.0 L 361.0 677.0 Q 357.0 689.0 346.5 696.0 Q 336.0 703.0 323.0 703.0 Q 310.0 704.0 299.5 697.5 Q 289.0 691.0 284.0 677.0 L 25.0 47.0 Q 22.0 39.0 23.0 32.0 Q 23.0 18.0 32.0 8.0 Q 41.0 -2.0 60.0 -2.0 Q 71.0 -2.0 81.0 5.0 Q 91.0 12.0 95.0 24.0 L 162.0 187.0 Z M 319.3 569.9 446.1 265.0 H 194.0 L 319.3 569.9 Z" fill="#2c2c2c"/></g>
    <g transform="translate(5.240, 56.500) scale(0.002000, -0.002000)"><path d="M 129.0 701.0 Q 111.0 701.0 99.5 688.5 Q 88.0 676.0 88.0 660.0 V 41.0 Q 88.0 24.0 98.5 12.0 Q 109.0 0.0 126.0 0.0 Q 143.0 0.0 154.0 12.0 Q 165.0 24.0 165.0 41.0 V 546.6 L 377.0 220.0 Q 383.0 213.0 392.0 208.0 Q 401.0 203.0 410.0 203.0 Q 419.0 203.0 427.5 208.0 Q 436.0 213.0 442.0 220.0 L 653.0 541.0 V 41.0 Q 653.0 24.0 665.0 12.0 Q 677.0 0.0 695.0 0.0 Q 713.0 0.0 725.0 12.0 Q 737.0 24.0 737.0 41.0 V 660.0 Q 737.0 678.0 725.0 689.0 Q 713.0 700.0 697.0 701.0 Q 676.0 702.0 663.0 683.0 L 412.3 308.8 L 165.0 683.0 Q 159.0 691.0 148.5 696.0 Q 138.0 701.0 129.0 701.0 Z" fill="#2c2c2c"/></g>
    <g transform="translate(6.888, 56.500) scale(0.002000, -0.002000)"><path d="M 305.0 0.0 Q 324.0 0.0 336.0 12.0 Q 348.0 24.0 348.0 41.0 V 624.0 H 538.0 Q 555.0 624.0 567.0 634.0 Q 579.0 644.0 579.0 662.0 Q 579.0 679.0 567.0 689.5 Q 555.0 700.0 538.0 700.0 H 73.0 Q 56.0 700.0 44.5 689.5 Q 33.0 679.0 33.0 662.0 Q 33.0 645.0 44.5 634.5 Q 56.0 624.0 73.0 624.0 H 263.0 V 41.0 Q 263.0 24.0 275.0 12.0 Q 287.0 0.0 305.0 0.0 Z" fill="#2c2c2c"/></g>
    <g transform="translate(8.660, 56.500) scale(0.002000, -0.002000)"><path d="M 592.0 654.0 Q 551.0 680.0 501.5 694.0 Q 452.0 708.0 400.0 708.0 Q 325.0 708.0 260.5 681.0 Q 196.0 654.0 147.5 606.0 Q 99.0 558.0 72.0 493.0 Q 45.0 428.0 45.0 350.0 Q 45.0 267.0 73.5 200.5 Q 102.0 134.0 151.0 87.0 Q 200.0 40.0 264.0 15.0 Q 328.0 -10.0 400.0 -10.0 Q 435.0 -10.0 469.5 -3.0 Q 504.0 4.0 536.0 16.5 Q 568.0 29.0 593.0 44.0 Q 609.0 52.0 612.0 69.5 Q 615.0 87.0 603.0 103.0 Q 593.0 115.0 579.0 117.0 Q 565.0 119.0 551.0 112.0 Q 517.0 91.0 479.0 80.0 Q 441.0 69.0 400.0 69.0 Q 343.0 69.0 294.5 88.0 Q 246.0 107.0 209.5 143.5 Q 173.0 180.0 152.0 232.0 Q 131.0 284.0 131.0 350.0 Q 131.0 412.0 151.0 463.0 Q 171.0 514.0 207.0 551.0 Q 243.0 588.0 292.0 608.5 Q 341.0 629.0 400.0 629.0 Q 442.0 629.0 480.0 617.5 Q 518.0 606.0 551.0 586.0 Q 565.0 579.0 579.0 580.0 Q 593.0 581.0 602.0 594.0 Q 614.0 609.0 611.5 627.0 Q 609.0 645.0 592.0 654.0 Z" fill="#2c2c2c"/></g>
    <g transform="translate(9.950, 56.500) scale(0.002000, -0.002000)"><path d="M 596.0 701.0 Q 571.0 701.0 559.0 676.0 L 339.3 131.9 L 112.0 674.0 Q 100.0 702.0 73.0 702.0 Q 60.0 702.0 46.5 691.5 Q 33.0 681.0 33.0 662.0 Q 33.0 657.0 34.0 652.5 Q 35.0 648.0 37.0 644.0 L 297.0 26.0 Q 302.0 14.0 312.0 7.5 Q 322.0 1.0 333.0 0.0 Q 345.0 0.0 355.5 6.5 Q 366.0 13.0 372.0 26.0 L 633.0 645.0 Q 637.0 655.0 637.0 663.0 Q 637.0 680.0 625.0 690.5 Q 613.0 701.0 596.0 701.0 Z" fill="#2c2c2c"/></g>
  <!-- Label: "Y AMT CV" -->
    <g transform="translate(19.192, 56.500) scale(0.002000, -0.002000)"><path d="M 162.0 187.0 H 478.6 L 546.0 25.0 Q 551.0 12.0 561.0 5.0 Q 571.0 -2.0 583.0 -2.0 Q 598.0 -2.0 610.0 8.5 Q 622.0 19.0 622.0 37.0 Q 622.0 45.0 619.0 53.0 L 361.0 677.0 Q 357.0 689.0 346.5 696.0 Q 336.0 703.0 323.0 703.0 Q 310.0 704.0 299.5 697.5 Q 289.0 691.0 284.0 677.0 L 25.0 47.0 Q 22.0 39.0 23.0 32.0 Q 23.0 18.0 32.0 8.0 Q 41.0 -2.0 60.0 -2.0 Q 71.0 -2.0 81.0 5.0 Q 91.0 12.0 95.0 24.0 L 162.0 187.0 Z M 319.3 569.9 446.1 265.0 H 194.0 L 319.3 569.9 Z" fill="#2c2c2c"/></g>
    <g transform="translate(20.480, 56.500) scale(0.002000, -0.002000)"><path d="M 129.0 701.0 Q 111.0 701.0 99.5 688.5 Q 88.0 676.0 88.0 660.0 V 41.0 Q 88.0 24.0 98.5 12.0 Q 109.0 0.0 126.0 0.0 Q 143.0 0.0 154.0 12.0 Q 165.0 24.0 165.0 41.0 V 546.6 L 377.0 220.0 Q 383.0 213.0 392.0 208.0 Q 401.0 203.0 410.0 203.0 Q 419.0 203.0 427.5 208.0 Q 436.0 213.0 442.0 220.0 L 653.0 541.0 V 41.0 Q 653.0 24.0 665.0 12.0 Q 677.0 0.0 695.0 0.0 Q 713.0 0.0 725.0 12.0 Q 737.0 24.0 737.0 41.0 V 660.0 Q 737.0 678.0 725.0 689.0 Q 713.0 700.0 697.0 701.0 Q 676.0 702.0 663.0 683.0 L 412.3 308.8 L 165.0 683.0 Q 159.0 691.0 148.5 696.0 Q 138.0 701.0 129.0 701.0 Z" fill="#2c2c2c"/></g>
    <g transform="translate(22.128, 56.500) scale(0.002000, -0.002000)"><path d="M 305.0 0.0 Q 324.0 0.0 336.0 12.0 Q 348.0 24.0 348.0 41.0 V 624.0 H 538.0 Q 555.0 624.0 567.0 634.0 Q 579.0 644.0 579.0 662.0 Q 579.0 679.0 567.0 689.5 Q 555.0 700.0 538.0 700.0 H 73.0 Q 56.0 700.0 44.5 689.5 Q 33.0 679.0 33.0 662.0 Q 33.0 645.0 44.5 634.5 Q 56.0 624.0 73.0 624.0 H 263.0 V 41.0 Q 263.0 24.0 275.0 12.0 Q 287.0 0.0 305.0 0.0 Z" fill="#2c2c2c"/></g>
    <g transform="translate(23.900, 56.500) scale(0.002000, -0.002000)"><path d="M 592.0 654.0 Q 551.0 680.0 501.5 694.0 Q 452.0 708.0 400.0 708.0 Q 325.0 708.0 260.5 681.0 Q 196.0 654.0 147.5 606.0 Q 99.0 558.0 72.0 493.0 Q 45.0 428.0 45.0 350.0 Q 45.0 267.0 73.5 200.5 Q 102.0 134.0 151.0 87.0 Q 200.0 40.0 264.0 15.0 Q 328.0 -10.0 400.0 -10.0 Q 435.0 -10.0 469.5 -3.0 Q 504.0 4.0 536.0 16.5 Q 568.0 29.0 593.0 44.0 Q 609.0 52.0 612.0 69.5 Q 615.0 87.0 603.0 103.0 Q 593.0 115.0 579.0 117.0 Q 565.0 119.0 551.0 112.0 Q 517.0 91.0 479.0 80.0 Q 441.0 69.0 400.0 69.0 Q 343.0 69.0 294.5 88.0 Q 246.0 107.0 209.5 143.5 Q 173.0 180.0 152.0 232.0 Q 131.0 284.0 131.0 350.0 Q 131.0 412.0 151.0 463.0 Q 171.0 514.0 207.0 551.0 Q 243.0 588.0 292.0 608.5 Q 341.0 629.0 400.0 629.0 Q 442.0 629.0 480.0 617.5 Q 518.0 606.0 551.0 586.0 Q 565.0 579.0 579.0 580.0 Q 593.0 581.0 602.0 594.0 Q 614.0 609.0 611.5 627.0 Q 609.0 645.0 592.0 654.0 Z" fill="#2c2c2c"/></g>
    <g transform="translate(25.190, 56.500) scale(0.002000, -0.002000)"><path d="M 596.0 701.0 Q 571.0 701.0 559.0 676.0 L 339.3 131.9 L 112.0 674.0 Q 100.0 702.0 73.0 702.0 Q 60.0 702.0 46.5 691.5 Q 33.0 681.0 33.0 662.0 Q 33.0 657.0 34.0 652.5 Q 35.0 648.0 37.0 644.0 L 297.0 26.0 Q 302.0 14.0 312.0 7.5 Q 322.0 1.0 333.0 0.0 Q 345.0 0.0 355.5 6.5 Q 366.0 13.0 372.0 26.0 L 633.0 645.0 Q 637.0 655.0 637.0 663.0 Q 637.0 680.0 625.0 690.5 Q 613.0 701.0 596.0 701.0 Z" fill="#2c2c2c"/></g>
  <!-- Label: "X SPEED CV" -->
    <g transform="translate(3.000, 68.500) scale(0.002000, -0.002000)"><path d="M 292.0 -10.0 Q 359.0 -9.0 412.5 15.5 Q 466.0 40.0 497.0 83.0 Q 528.0 126.0 528.0 181.0 Q 528.0 233.0 511.5 268.5 Q 495.0 304.0 465.0 327.0 Q 435.0 350.0 393.5 365.5 Q 352.0 381.0 303.0 393.0 Q 258.0 405.0 221.0 420.5 Q 184.0 436.0 162.0 460.5 Q 140.0 485.0 140.0 523.0 Q 140.0 557.0 159.5 581.5 Q 179.0 606.0 214.0 619.5 Q 249.0 633.0 295.0 633.0 Q 326.0 633.0 357.0 624.0 Q 388.0 615.0 414.0 600.0 Q 440.0 585.0 457.0 566.0 Q 466.0 558.0 477.0 558.0 Q 493.0 558.0 505.5 570.5 Q 518.0 583.0 518.0 598.0 Q 518.0 616.0 498.0 635.0 Q 465.0 670.0 410.5 690.0 Q 356.0 710.0 295.0 710.0 Q 226.0 710.0 173.0 686.5 Q 120.0 663.0 90.0 620.0 Q 60.0 577.0 60.0 520.0 Q 60.0 475.0 75.5 441.5 Q 91.0 408.0 119.0 384.5 Q 147.0 361.0 185.5 345.0 Q 224.0 329.0 270.0 318.0 Q 322.0 306.0 361.5 288.5 Q 401.0 271.0 423.5 245.0 Q 446.0 219.0 447.0 179.0 Q 447.0 146.0 426.0 121.0 Q 405.0 96.0 369.5 82.0 Q 334.0 68.0 290.0 68.0 Q 233.0 68.0 187.5 88.0 Q 142.0 108.0 103.0 146.0 Q 92.0 157.0 78.0 157.0 Q 61.0 157.0 49.5 144.5 Q 38.0 132.0 38.0 116.0 Q 38.0 106.0 42.5 97.5 Q 47.0 89.0 54.0 82.0 Q 106.0 34.0 162.0 12.0 Q 218.0 -10.0 292.0 -10.0 Z" fill="#2c2c2c"/></g>
    <g transform="translate(4.148, 68.500) scale(0.002000, -0.002000)"><path d="M 362.0 700.0 H 128.0 Q 111.0 700.0 99.5 688.5 Q 88.0 677.0 88.0 660.0 V 41.0 Q 88.0 24.0 98.5 12.0 Q 109.0 0.0 127.0 0.0 Q 144.0 0.0 155.0 12.0 Q 166.0 24.0 166.0 41.0 V 281.0 H 362.0 Q 417.0 281.0 461.0 309.0 Q 505.0 337.0 530.5 385.0 Q 556.0 433.0 556.0 492.0 Q 556.0 552.0 530.5 599.0 Q 505.0 646.0 461.0 673.0 Q 417.0 700.0 362.0 700.0 Z M 362.0 358.0 H 166.0 V 623.0 H 362.0 Q 395.0 623.0 420.0 605.5 Q 445.0 588.0 460.0 559.0 Q 475.0 530.0 475.0 492.0 Q 475.0 456.0 460.0 425.0 Q 445.0 394.0 420.0 376.0 Q 395.0 358.0 362.0 358.0 Z" fill="#2c2c2c"/></g>
    <g transform="translate(5.346, 68.500) scale(0.002000, -0.002000)"><path d="M 128.0 700.0 Q 111.0 700.0 99.5 688.5 Q 88.0 677.0 88.0 660.0 V 41.0 Q 88.0 24.0 99.5 12.0 Q 111.0 0.0 128.0 0.0 H 484.0 Q 501.0 0.0 513.0 11.0 Q 525.0 22.0 525.0 39.0 Q 525.0 54.0 513.0 66.0 Q 501.0 78.0 484.0 78.0 H 171.0 V 321.0 H 439.0 Q 456.0 321.0 468.0 331.5 Q 480.0 342.0 480.0 359.0 Q 480.0 376.0 468.0 387.0 Q 456.0 398.0 439.0 398.0 H 171.0 V 623.0 H 484.0 Q 501.0 623.0 513.0 633.5 Q 525.0 644.0 525.0 661.0 Q 525.0 678.0 513.0 689.0 Q 501.0 700.0 484.0 700.0 Z" fill="#2c2c2c"/></g>
    <g transform="translate(6.486, 68.500) scale(0.002000, -0.002000)"><path d="M 128.0 700.0 Q 111.0 700.0 99.5 688.5 Q 88.0 677.0 88.0 660.0 V 41.0 Q 88.0 24.0 99.5 12.0 Q 111.0 0.0 128.0 0.0 H 484.0 Q 501.0 0.0 513.0 11.0 Q 525.0 22.0 525.0 39.0 Q 525.0 54.0 513.0 66.0 Q 501.0 78.0 484.0 78.0 H 171.0 V 321.0 H 439.0 Q 456.0 321.0 468.0 331.5 Q 480.0 342.0 480.0 359.0 Q 480.0 376.0 468.0 387.0 Q 456.0 398.0 439.0 398.0 H 171.0 V 623.0 H 484.0 Q 501.0 623.0 513.0 633.5 Q 525.0 644.0 525.0 661.0 Q 525.0 678.0 513.0 689.0 Q 501.0 700.0 484.0 700.0 Z" fill="#2c2c2c"/></g>
    <g transform="translate(7.626, 68.500) scale(0.002000, -0.002000)"><path d="M 378.0 700.0 H 128.0 Q 111.0 700.0 99.5 688.5 Q 88.0 677.0 88.0 660.0 V 41.0 Q 88.0 24.0 99.5 12.0 Q 111.0 0.0 128.0 0.0 H 378.0 Q 477.0 0.0 542.0 47.5 Q 607.0 95.0 640.0 174.5 Q 673.0 254.0 673.0 350.0 Q 673.0 420.0 654.5 483.5 Q 636.0 547.0 599.0 596.0 Q 562.0 645.0 506.5 672.5 Q 451.0 700.0 378.0 700.0 Z M 368.0 78.0 H 171.0 V 623.0 H 368.0 Q 426.0 623.0 467.5 601.0 Q 509.0 579.0 535.5 541.0 Q 562.0 503.0 574.5 453.5 Q 587.0 404.0 587.0 350.0 Q 587.0 276.0 564.5 214.0 Q 542.0 152.0 493.5 115.0 Q 445.0 78.0 368.0 78.0 Z" fill="#2c2c2c"/></g>
    <g transform="translate(9.612, 68.500) scale(0.002000, -0.002000)"><path d="M 592.0 654.0 Q 551.0 680.0 501.5 694.0 Q 452.0 708.0 400.0 708.0 Q 325.0 708.0 260.5 681.0 Q 196.0 654.0 147.5 606.0 Q 99.0 558.0 72.0 493.0 Q 45.0 428.0 45.0 350.0 Q 45.0 267.0 73.5 200.5 Q 102.0 134.0 151.0 87.0 Q 200.0 40.0 264.0 15.0 Q 328.0 -10.0 400.0 -10.0 Q 435.0 -10.0 469.5 -3.0 Q 504.0 4.0 536.0 16.5 Q 568.0 29.0 593.0 44.0 Q 609.0 52.0 612.0 69.5 Q 615.0 87.0 603.0 103.0 Q 593.0 115.0 579.0 117.0 Q 565.0 119.0 551.0 112.0 Q 517.0 91.0 479.0 80.0 Q 441.0 69.0 400.0 69.0 Q 343.0 69.0 294.5 88.0 Q 246.0 107.0 209.5 143.5 Q 173.0 180.0 152.0 232.0 Q 131.0 284.0 131.0 350.0 Q 131.0 412.0 151.0 463.0 Q 171.0 514.0 207.0 551.0 Q 243.0 588.0 292.0 608.5 Q 341.0 629.0 400.0 629.0 Q 442.0 629.0 480.0 617.5 Q 518.0 606.0 551.0 586.0 Q 565.0 579.0 579.0 580.0 Q 593.0 581.0 602.0 594.0 Q 614.0 609.0 611.5 627.0 Q 609.0 645.0 592.0 654.0 Z" fill="#2c2c2c"/></g>
    <g transform="translate(10.902, 68.500) scale(0.002000, -0.002000)"><path d="M 596.0 701.0 Q 571.0 701.0 559.0 676.0 L 339.3 131.9 L 112.0 674.0 Q 100.0 702.0 73.0 702.0 Q 60.0 702.0 46.5 691.5 Q 33.0 681.0 33.0 662.0 Q 33.0 657.0 34.0 652.5 Q 35.0 648.0 37.0 644.0 L 297.0 26.0 Q 302.0 14.0 312.0 7.5 Q 322.0 1.0 333.0 0.0 Q 345.0 0.0 355.5 6.5 Q 366.0 13.0 372.0 26.0 L 633.0 645.0 Q 637.0 655.0 637.0 663.0 Q 637.0 680.0 625.0 690.5 Q 613.0 701.0 596.0 701.0 Z" fill="#2c2c2c"/></g>
  <!-- Label: "Y SPEED CV" -->
    <g transform="translate(18.240, 68.500) scale(0.002000, -0.002000)"><path d="M 292.0 -10.0 Q 359.0 -9.0 412.5 15.5 Q 466.0 40.0 497.0 83.0 Q 528.0 126.0 528.0 181.0 Q 528.0 233.0 511.5 268.5 Q 495.0 304.0 465.0 327.0 Q 435.0 350.0 393.5 365.5 Q 352.0 381.0 303.0 393.0 Q 258.0 405.0 221.0 420.5 Q 184.0 436.0 162.0 460.5 Q 140.0 485.0 140.0 523.0 Q 140.0 557.0 159.5 581.5 Q 179.0 606.0 214.0 619.5 Q 249.0 633.0 295.0 633.0 Q 326.0 633.0 357.0 624.0 Q 388.0 615.0 414.0 600.0 Q 440.0 585.0 457.0 566.0 Q 466.0 558.0 477.0 558.0 Q 493.0 558.0 505.5 570.5 Q 518.0 583.0 518.0 598.0 Q 518.0 616.0 498.0 635.0 Q 465.0 670.0 410.5 690.0 Q 356.0 710.0 295.0 710.0 Q 226.0 710.0 173.0 686.5 Q 120.0 663.0 90.0 620.0 Q 60.0 577.0 60.0 520.0 Q 60.0 475.0 75.5 441.5 Q 91.0 408.0 119.0 384.5 Q 147.0 361.0 185.5 345.0 Q 224.0 329.0 270.0 318.0 Q 322.0 306.0 361.5 288.5 Q 401.0 271.0 423.5 245.0 Q 446.0 219.0 447.0 179.0 Q 447.0 146.0 426.0 121.0 Q 405.0 96.0 369.5 82.0 Q 334.0 68.0 290.0 68.0 Q 233.0 68.0 187.5 88.0 Q 142.0 108.0 103.0 146.0 Q 92.0 157.0 78.0 157.0 Q 61.0 157.0 49.5 144.5 Q 38.0 132.0 38.0 116.0 Q 38.0 106.0 42.5 97.5 Q 47.0 89.0 54.0 82.0 Q 106.0 34.0 162.0 12.0 Q 218.0 -10.0 292.0 -10.0 Z" fill="#2c2c2c"/></g>
    <g transform="translate(19.388, 68.500) scale(0.002000, -0.002000)"><path d="M 362.0 700.0 H 128.0 Q 111.0 700.0 99.5 688.5 Q 88.0 677.0 88.0 660.0 V 41.0 Q 88.0 24.0 98.5 12.0 Q 109.0 0.0 127.0 0.0 Q 144.0 0.0 155.0 12.0 Q 166.0 24.0 166.0 41.0 V 281.0 H 362.0 Q 417.0 281.0 461.0 309.0 Q 505.0 337.0 530.5 385.0 Q 556.0 433.0 556.0 492.0 Q 556.0 552.0 530.5 599.0 Q 505.0 646.0 461.0 673.0 Q 417.0 700.0 362.0 700.0 Z M 362.0 358.0 H 166.0 V 623.0 H 362.0 Q 395.0 623.0 420.0 605.5 Q 445.0 588.0 460.0 559.0 Q 475.0 530.0 475.0 492.0 Q 475.0 456.0 460.0 425.0 Q 445.0 394.0 420.0 376.0 Q 395.0 358.0 362.0 358.0 Z" fill="#2c2c2c"/></g>
    <g transform="translate(20.586, 68.500) scale(0.002000, -0.002000)"><path d="M 128.0 700.0 Q 111.0 700.0 99.5 688.5 Q 88.0 677.0 88.0 660.0 V 41.0 Q 88.0 24.0 99.5 12.0 Q 111.0 0.0 128.0 0.0 H 484.0 Q 501.0 0.0 513.0 11.0 Q 525.0 22.0 525.0 39.0 Q 525.0 54.0 513.0 66.0 Q 501.0 78.0 484.0 78.0 H 171.0 V 321.0 H 439.0 Q 456.0 321.0 468.0 331.5 Q 480.0 342.0 480.0 359.0 Q 480.0 376.0 468.0 387.0 Q 456.0 398.0 439.0 398.0 H 171.0 V 623.0 H 484.0 Q 501.0 623.0 513.0 633.5 Q 525.0 644.0 525.0 661.0 Q 525.0 678.0 513.0 689.0 Q 501.0 700.0 484.0 700.0 Z" fill="#2c2c2c"/></g>
    <g transform="translate(21.726, 68.500) scale(0.002000, -0.002000)"><path d="M 128.0 700.0 Q 111.0 700.0 99.5 688.5 Q 88.0 677.0 88.0 660.0 V 41.0 Q 88.0 24.0 99.5 12.0 Q 111.0 0.0 128.0 0.0 H 484.0 Q 501.0 0.0 513.0 11.0 Q 525.0 22.0 525.0 39.0 Q 525.0 54.0 513.0 66.0 Q 501.0 78.0 484.0 78.0 H 171.0 V 321.0 H 439.0 Q 456.0 321.0 468.0 331.5 Q 480.0 342.0 480.0 359.0 Q 480.0 376.0 468.0 387.0 Q 456.0 398.0 439.0 398.0 H 171.0 V 623.0 H 484.0 Q 501.0 623.0 513.0 633.5 Q 525.0 644.0 525.0 661.0 Q 525.0 678.0 513.0 689.0 Q 501.0 700.0 484.0 700.0 Z" fill="#2c2c2c"/></g>
    <g transform="translate(22.866, 68.500) scale(0.002000, -0.002000)"><path d="M 378.0 700.0 H 128.0 Q 111.0 700.0 99.5 688.5 Q 88.0 677.0 88.0 660.0 V 41.0 Q 88.0 24.0 99.5 12.0 Q 111.0 0.0 128.0 0.0 H 378.0 Q 477.0 0.0 542.0 47.5 Q 607.0 95.0 640.0 174.5 Q 673.0 254.0 673.0 350.0 Q 673.0 420.0 654.5 483.5 Q 636.0 547.0 599.0 596.0 Q 562.0 645.0 506.5 672.5 Q 451.0 700.0 378.0 700.0 Z M 368.0 78.0 H 171.0 V 623.0 H 368.0 Q 426.0 623.0 467.5 601.0 Q 509.0 579.0 535.5 541.0 Q 562.0 503.0 574.5 453.5 Q 587.0 404.0 587.0 350.0 Q 587.0 276.0 564.5 214.0 Q 542.0 152.0 493.5 115.0 Q 445.0 78.0 368.0 78.0 Z" fill="#2c2c2c"/></g>
    <g transform="translate(24.852, 68.500) scale(0.002000, -0.002000)"><path d="M 592.0 654.0 Q 551.0 680.0 501.5 694.0 Q 452.0 708.0 400.0 708.0 Q 325.0 708.0 260.5 681.0 Q 196.0 654.0 147.5 606.0 Q 99.0 558.0 72.0 493.0 Q 45.0 428.0 45.0 350.0 Q 45.0 267.0 73.5 200.5 Q 102.0 134.0 151.0 87.0 Q 200.0 40.0 264.0 15.0 Q 328.0 -10.0 400.0 -10.0 Q 435.0 -10.0 469.5 -3.0 Q 504.0 4.0 536.0 16.5 Q 568.0 29.0 593.0 44.0 Q 609.0 52.0 612.0 69.5 Q 615.0 87.0 603.0 103.0 Q 593.0 115.0 579.0 117.0 Q 565.0 119.0 551.0 112.0 Q 517.0 91.0 479.0 80.0 Q 441.0 69.0 400.0 69.0 Q 343.0 69.0 294.5 88.0 Q 246.0 107.0 209.5 143.5 Q 173.0 180.0 152.0 232.0 Q 131.0 284.0 131.0 350.0 Q 131.0 412.0 151.0 463.0 Q 171.0 514.0 207.0 551.0 Q 243.0 588.0 292.0 608.5 Q 341.0 629.0 400.0 629.0 Q 442.0 629.0 480.0 617.5 Q 518.0 606.0 551.0 586.0 Q 565.0 579.0 579.0 580.0 Q 593.0 581.0 602.0 594.0 Q 614.0 609.0 611.5 627.0 Q 609.0 645.0 592.0 654.0 Z" fill="#2c2c2c"/></g>
    <g transform="translate(26.142, 68.500) scale(0.002000, -0.002000)"><path d="M 596.0 701.0 Q 571.0 701.0 559.0 676.0 L 339.3 131.9 L 112.0 674.0 Q 100.0 702.0 73.0 702.0 Q 60.0 702.0 46.5 691.5 Q 33.0 681.0 33.0 662.0 Q 33.0 657.0 34.0 652.5 Q 35.0 648.0 37.0 644.0 L 297.0 26.0 Q 302.0 14.0 312.0 7.5 Q 322.0 1.0 333.0 0.0 Q 345.0 0.0 355.5 6.5 Q 366.0 13.0 372.0 26.0 L 633.0 645.0 Q 637.0 655.0 637.0 663.0 Q 637.0 680.0 625.0 690.5 Q 613.0 701.0 596.0 701.0 Z" fill="#2c2c2c"/></g>
  <!-- Label: "X" -->
    <g transform="translate(6.687, 84.000) scale(0.003000, -0.003000)"><path d="M 547.0 703.0 Q 528.0 703.0 515.0 684.0 L 314.7 413.0 L 112.0 686.0 Q 100.0 703.0 79.0 703.0 Q 64.0 703.0 51.5 691.5 Q 39.0 680.0 39.0 663.0 Q 39.0 649.0 47.0 639.0 L 261.8 349.2 L 48.0 58.0 Q 38.0 45.0 38.0 31.0 Q 38.0 19.0 48.5 7.5 Q 59.0 -4.0 75.0 -4.0 Q 95.0 -4.0 107.0 14.0 L 307.7 287.2 L 511.0 13.0 Q 524.0 -4.0 544.0 -4.0 Q 558.0 -4.0 571.0 7.0 Q 584.0 18.0 584.0 36.0 Q 584.0 49.0 576.0 61.0 L 360.6 351.2 L 576.0 642.0 Q 585.0 654.0 585.0 667.0 Q 585.0 681.0 573.5 692.0 Q 562.0 703.0 547.0 703.0 Z" fill="#1c1c1c"/></g>
  <!-- Label: "Y" -->
    <g transform="translate(22.002, 84.000) scale(0.003000, -0.003000)"><path d="M 514.0 704.0 Q 494.0 704.0 481.0 684.0 L 290.3 415.7 L 94.0 685.0 Q 81.0 704.0 61.0 704.0 Q 47.0 704.0 33.0 692.5 Q 19.0 681.0 19.0 664.0 Q 19.0 657.0 21.5 649.5 Q 24.0 642.0 30.0 634.0 L 248.0 339.5 V 41.0 Q 248.0 24.0 259.5 12.0 Q 271.0 0.0 289.0 0.0 Q 305.0 0.0 316.5 12.0 Q 328.0 24.0 328.0 41.0 V 333.1 L 547.0 638.0 Q 551.0 644.0 552.5 650.5 Q 554.0 657.0 554.0 663.0 Q 554.0 679.0 542.5 691.5 Q 531.0 704.0 514.0 704.0 Z" fill="#1c1c1c"/></g>
  <!-- Label: "IN" -->
    <g transform="translate(14.053, 88.000) scale(0.002400, -0.002400)"><path d="M 171.0 41.0 V 659.0 Q 171.0 677.0 159.0 688.5 Q 147.0 700.0 130.0 700.0 Q 112.0 700.0 100.0 688.5 Q 88.0 677.0 88.0 659.0 V 41.0 Q 88.0 24.0 99.0 12.0 Q 110.0 0.0 129.0 0.0 Q 146.0 0.0 158.5 12.0 Q 171.0 24.0 171.0 41.0 Z" fill="#2c2c2c"/></g>
    <g transform="translate(14.675, 88.000) scale(0.002400, -0.002400)"><path d="M 606.0 700.0 Q 590.0 700.0 579.5 689.5 Q 569.0 679.0 569.0 663.0 V 145.2 L 160.0 686.0 Q 155.0 693.0 145.5 696.5 Q 136.0 700.0 127.0 700.0 Q 111.0 700.0 99.5 689.0 Q 88.0 678.0 88.0 660.0 V 37.0 Q 88.0 21.0 98.0 10.5 Q 108.0 0.0 124.0 0.0 Q 141.0 0.0 151.5 10.5 Q 162.0 21.0 162.0 37.0 V 552.6 L 570.0 13.0 Q 575.0 7.0 584.0 3.5 Q 593.0 0.0 602.0 0.0 Q 619.0 0.0 631.0 11.5 Q 643.0 23.0 643.0 42.0 V 663.0 Q 643.0 679.0 633.0 689.5 Q 623.0 700.0 606.0 700.0 Z" fill="#2c2c2c"/></g>
  <!-- Label: "AMT." -->
    <g transform="translate(12.500, 97.500) scale(0.002400, -0.002400)"><path d="M 162.0 187.0 H 478.6 L 546.0 25.0 Q 551.0 12.0 561.0 5.0 Q 571.0 -2.0 583.0 -2.0 Q 598.0 -2.0 610.0 8.5 Q 622.0 19.0 622.0 37.0 Q 622.0 45.0 619.0 53.0 L 361.0 677.0 Q 357.0 689.0 346.5 696.0 Q 336.0 703.0 323.0 703.0 Q 310.0 704.0 299.5 697.5 Q 289.0 691.0 284.0 677.0 L 25.0 47.0 Q 22.0 39.0 23.0 32.0 Q 23.0 18.0 32.0 8.0 Q 41.0 -2.0 60.0 -2.0 Q 71.0 -2.0 81.0 5.0 Q 91.0 12.0 95.0 24.0 L 162.0 187.0 Z M 319.3 569.9 446.1 265.0 H 194.0 L 319.3 569.9 Z" fill="#2c2c2c"/></g>
    <g transform="translate(14.046, 97.500) scale(0.002400, -0.002400)"><path d="M 129.0 701.0 Q 111.0 701.0 99.5 688.5 Q 88.0 676.0 88.0 660.0 V 41.0 Q 88.0 24.0 98.5 12.0 Q 109.0 0.0 126.0 0.0 Q 143.0 0.0 154.0 12.0 Q 165.0 24.0 165.0 41.0 V 546.6 L 377.0 220.0 Q 383.0 213.0 392.0 208.0 Q 401.0 203.0 410.0 203.0 Q 419.0 203.0 427.5 208.0 Q 436.0 213.0 442.0 220.0 L 653.0 541.0 V 41.0 Q 653.0 24.0 665.0 12.0 Q 677.0 0.0 695.0 0.0 Q 713.0 0.0 725.0 12.0 Q 737.0 24.0 737.0 41.0 V 660.0 Q 737.0 678.0 725.0 689.0 Q 713.0 700.0 697.0 701.0 Q 676.0 702.0 663.0 683.0 L 412.3 308.8 L 165.0 683.0 Q 159.0 691.0 148.5 696.0 Q 138.0 701.0 129.0 701.0 Z" fill="#2c2c2c"/></g>
    <g transform="translate(16.024, 97.500) scale(0.002400, -0.002400)"><path d="M 305.0 0.0 Q 324.0 0.0 336.0 12.0 Q 348.0 24.0 348.0 41.0 V 624.0 H 538.0 Q 555.0 624.0 567.0 634.0 Q 579.0 644.0 579.0 662.0 Q 579.0 679.0 567.0 689.5 Q 555.0 700.0 538.0 700.0 H 73.0 Q 56.0 700.0 44.5 689.5 Q 33.0 679.0 33.0 662.0 Q 33.0 645.0 44.5 634.5 Q 56.0 624.0 73.0 624.0 H 263.0 V 41.0 Q 263.0 24.0 275.0 12.0 Q 287.0 0.0 305.0 0.0 Z" fill="#2c2c2c"/></g>
    <g transform="translate(17.490, 97.500) scale(0.002400, -0.002400)"><path d="M 98.0 1.0 H 106.0 Q 128.0 1.0 139.0 13.0 Q 150.0 25.0 150.0 46.0 V 66.0 Q 150.0 88.0 139.0 100.0 Q 128.0 112.0 106.0 112.0 H 98.0 Q 77.0 112.0 65.5 100.0 Q 54.0 88.0 54.0 66.0 V 46.0 Q 54.0 25.0 65.5 13.0 Q 77.0 1.0 98.0 1.0 Z" fill="#2c2c2c"/></g>
  <!-- Label: "SPEED" -->
    <g transform="translate(11.603, 107.000) scale(0.002400, -0.002400)"><path d="M 292.0 -10.0 Q 359.0 -9.0 412.5 15.5 Q 466.0 40.0 497.0 83.0 Q 528.0 126.0 528.0 181.0 Q 528.0 233.0 511.5 268.5 Q 495.0 304.0 465.0 327.0 Q 435.0 350.0 393.5 365.5 Q 352.0 381.0 303.0 393.0 Q 258.0 405.0 221.0 420.5 Q 184.0 436.0 162.0 460.5 Q 140.0 485.0 140.0 523.0 Q 140.0 557.0 159.5 581.5 Q 179.0 606.0 214.0 619.5 Q 249.0 633.0 295.0 633.0 Q 326.0 633.0 357.0 624.0 Q 388.0 615.0 414.0 600.0 Q 440.0 585.0 457.0 566.0 Q 466.0 558.0 477.0 558.0 Q 493.0 558.0 505.5 570.5 Q 518.0 583.0 518.0 598.0 Q 518.0 616.0 498.0 635.0 Q 465.0 670.0 410.5 690.0 Q 356.0 710.0 295.0 710.0 Q 226.0 710.0 173.0 686.5 Q 120.0 663.0 90.0 620.0 Q 60.0 577.0 60.0 520.0 Q 60.0 475.0 75.5 441.5 Q 91.0 408.0 119.0 384.5 Q 147.0 361.0 185.5 345.0 Q 224.0 329.0 270.0 318.0 Q 322.0 306.0 361.5 288.5 Q 401.0 271.0 423.5 245.0 Q 446.0 219.0 447.0 179.0 Q 447.0 146.0 426.0 121.0 Q 405.0 96.0 369.5 82.0 Q 334.0 68.0 290.0 68.0 Q 233.0 68.0 187.5 88.0 Q 142.0 108.0 103.0 146.0 Q 92.0 157.0 78.0 157.0 Q 61.0 157.0 49.5 144.5 Q 38.0 132.0 38.0 116.0 Q 38.0 106.0 42.5 97.5 Q 47.0 89.0 54.0 82.0 Q 106.0 34.0 162.0 12.0 Q 218.0 -10.0 292.0 -10.0 Z" fill="#2c2c2c"/></g>
    <g transform="translate(12.980, 107.000) scale(0.002400, -0.002400)"><path d="M 362.0 700.0 H 128.0 Q 111.0 700.0 99.5 688.5 Q 88.0 677.0 88.0 660.0 V 41.0 Q 88.0 24.0 98.5 12.0 Q 109.0 0.0 127.0 0.0 Q 144.0 0.0 155.0 12.0 Q 166.0 24.0 166.0 41.0 V 281.0 H 362.0 Q 417.0 281.0 461.0 309.0 Q 505.0 337.0 530.5 385.0 Q 556.0 433.0 556.0 492.0 Q 556.0 552.0 530.5 599.0 Q 505.0 646.0 461.0 673.0 Q 417.0 700.0 362.0 700.0 Z M 362.0 358.0 H 166.0 V 623.0 H 362.0 Q 395.0 623.0 420.0 605.5 Q 445.0 588.0 460.0 559.0 Q 475.0 530.0 475.0 492.0 Q 475.0 456.0 460.0 425.0 Q 445.0 394.0 420.0 376.0 Q 395.0 358.0 362.0 358.0 Z" fill="#2c2c2c"/></g>
    <g transform="translate(14.418, 107.000) scale(0.002400, -0.002400)"><path d="M 128.0 700.0 Q 111.0 700.0 99.5 688.5 Q 88.0 677.0 88.0 660.0 V 41.0 Q 88.0 24.0 99.5 12.0 Q 111.0 0.0 128.0 0.0 H 484.0 Q 501.0 0.0 513.0 11.0 Q 525.0 22.0 525.0 39.0 Q 525.0 54.0 513.0 66.0 Q 501.0 78.0 484.0 78.0 H 171.0 V 321.0 H 439.0 Q 456.0 321.0 468.0 331.5 Q 480.0 342.0 480.0 359.0 Q 480.0 376.0 468.0 387.0 Q 456.0 398.0 439.0 398.0 H 171.0 V 623.0 H 484.0 Q 501.0 623.0 513.0 633.5 Q 525.0 644.0 525.0 661.0 Q 525.0 678.0 513.0 689.0 Q 501.0 700.0 484.0 700.0 Z" fill="#2c2c2c"/></g>
    <g transform="translate(15.786, 107.000) scale(0.002400, -0.002400)"><path d="M 128.0 700.0 Q 111.0 700.0 99.5 688.5 Q 88.0 677.0 88.0 660.0 V 41.0 Q 88.0 24.0 99.5 12.0 Q 111.0 0.0 128.0 0.0 H 484.0 Q 501.0 0.0 513.0 11.0 Q 525.0 22.0 525.0 39.0 Q 525.0 54.0 513.0 66.0 Q 501.0 78.0 484.0 78.0 H 171.0 V 321.0 H 439.0 Q 456.0 321.0 468.0 331.5 Q 480.0 342.0 480.0 359.0 Q 480.0 376.0 468.0 387.0 Q 456.0 398.0 439.0 398.0 H 171.0 V 623.0 H 484.0 Q 501.0 623.0 513.0 633.5 Q 525.0 644.0 525.0 661.0 Q 525.0 678.0 513.0 689.0 Q 501.0 700.0 484.0 700.0 Z" fill="#2c2c2c"/></g>
    <g transform="translate(17.154, 107.000) scale(0.002400, -0.002400)"><path d="M 378.0 700.0 H 128.0 Q 111.0 700.0 99.5 688.5 Q 88.0 677.0 88.0 660.0 V 41.0 Q 88.0 24.0 99.5 12.0 Q 111.0 0.0 128.0 0.0 H 378.0 Q 477.0 0.0 542.0 47.5 Q 607.0 95.0 640.0 174.5 Q 673.0 254.0 673.0 350.0 Q 673.0 420.0 654.5 483.5 Q 636.0 547.0 599.0 596.0 Q 562.0 645.0 506.5 672.5 Q 451.0 700.0 378.0 700.0 Z M 368.0 78.0 H 171.0 V 623.0 H 368.0 Q 426.0 623.0 467.5 601.0 Q 509.0 579.0 535.5 541.0 Q 562.0 503.0 574.5 453.5 Q 587.0 404.0 587.0 350.0 Q 587.0 276.0 564.5 214.0 Q 542.0 152.0 493.5 115.0 Q 445.0 78.0 368.0 78.0 Z" fill="#2c2c2c"/></g>
  <!-- Label: "OUT" -->
    <g transform="translate(12.738, 116.500) scale(0.002400, -0.002400)"><path d="M 719.0 350.0 Q 719.0 428.0 694.0 493.5 Q 669.0 559.0 624.0 607.5 Q 579.0 656.0 517.0 683.0 Q 455.0 710.0 382.0 710.0 Q 308.0 710.0 246.5 683.0 Q 185.0 656.0 140.0 607.5 Q 95.0 559.0 70.0 493.5 Q 45.0 428.0 45.0 350.0 Q 45.0 273.0 70.0 207.5 Q 95.0 142.0 140.0 93.0 Q 185.0 44.0 246.5 17.0 Q 308.0 -10.0 382.0 -10.0 Q 455.0 -10.0 517.0 17.0 Q 579.0 44.0 624.0 93.0 Q 669.0 142.0 694.0 207.5 Q 719.0 273.0 719.0 350.0 Z M 633.0 350.0 Q 633.0 269.0 600.5 205.5 Q 568.0 142.0 512.0 106.0 Q 456.0 70.0 382.0 70.0 Q 308.0 70.0 251.5 106.0 Q 195.0 142.0 163.0 205.5 Q 131.0 269.0 131.0 350.0 Q 131.0 432.0 163.0 495.0 Q 195.0 558.0 251.5 594.0 Q 308.0 630.0 382.0 630.0 Q 456.0 630.0 512.0 594.0 Q 568.0 558.0 600.5 495.0 Q 633.0 432.0 633.0 350.0 Z" fill="#2c2c2c"/></g>
    <g transform="translate(14.572, 116.500) scale(0.002400, -0.002400)"><path d="M 584.0 701.0 Q 566.0 701.0 556.0 689.0 Q 546.0 677.0 546.0 660.0 V 263.0 Q 546.0 208.0 519.5 165.0 Q 493.0 122.0 450.0 97.5 Q 407.0 73.0 356.0 73.0 Q 306.0 73.0 263.5 97.5 Q 221.0 122.0 196.0 165.0 Q 171.0 208.0 171.0 263.0 V 660.0 Q 171.0 677.0 158.5 689.0 Q 146.0 701.0 130.0 701.0 Q 111.0 701.0 99.5 689.0 Q 88.0 677.0 88.0 660.0 V 263.0 Q 88.0 186.0 123.0 125.0 Q 158.0 64.0 218.5 28.5 Q 279.0 -7.0 356.0 -7.0 Q 432.0 -7.0 492.0 28.5 Q 552.0 64.0 587.5 125.0 Q 623.0 186.0 623.0 263.0 V 660.0 Q 623.0 677.0 612.0 689.0 Q 601.0 701.0 584.0 701.0 Z" fill="#2c2c2c"/></g>
    <g transform="translate(16.276, 116.500) scale(0.002400, -0.002400)"><path d="M 305.0 0.0 Q 324.0 0.0 336.0 12.0 Q 348.0 24.0 348.0 41.0 V 624.0 H 538.0 Q 555.0 624.0 567.0 634.0 Q 579.0 644.0 579.0 662.0 Q 579.0 679.0 567.0 689.5 Q 555.0 700.0 538.0 700.0 H 73.0 Q 56.0 700.0 44.5 689.5 Q 33.0 679.0 33.0 662.0 Q 33.0 645.0 44.5 634.5 Q 56.0 624.0 73.0 624.0 H 263.0 V 41.0 Q 263.0 24.0 275.0 12.0 Q 287.0 0.0 305.0 0.0 Z" fill="#2c2c2c"/></g>
</svg>
