<?xml version="1.0" encoding="UTF-8"?>
<svg xmlns="http://www.w3.org/2000/svg" width="50.80mm" height="128.50mm" viewBox="0 0 50.80 128.50">
  <!-- Panel Background: 10 HP -->
  <rect width="50.80" height="128.50" fill="#6e6e6e"/>
  <!-- Left Edge Color Badge: Default Placeholder #5d5d5d (Centered 88.9mm, Flush X=0) -->
  <g id="palette-badge">
    <rect x="0.000" y="19.800" width="2.540" height="88.900" fill="#5d5d5d" stroke="none"/>
  </g>

  <!-- Delineator Line 1 (Above Attenuverters at Y = 51.50mm) -->
  <line x1="3.00" y1="51.50" x2="47.80" y2="51.50" stroke="#999999" stroke-width="0.176"/>

  <!-- Delineator Line 2 (Above I/O Jacks at Y = 80.50mm) -->
  <line x1="3.00" y1="80.50" x2="47.80" y2="80.50" stroke="#999999" stroke-width="0.176"/>

  <!-- Label: "stepped slew" -->
    <g transform="translate(11.982, 7.620) scale(0.004800, -0.004800)"><path d="M 473.1 368.4 C 467.6 380.3 453.6 385.5 441.7 380.0 L 77.3 212.6 C 67.2 208.0 61.7 196.9 64.1 186.0 C 66.4 175.2 76.1 167.4 87.2 167.4 H 393.8 L 372.7 47.4 H 57.7 C 44.6 47.4 34.0 36.8 34.0 23.7 C 34.0 10.6 44.6 1.5e-05 57.7 1.5e-05 H 392.5 C 404.0 1.5e-05 413.9 8.3 415.8 19.6 L 445.4 187.0 C 446.6 193.9 444.7 201.0 440.2 206.3 C 435.7 211.7 429.0 214.8 422.0 214.8 H 195.5 L 461.5 337.0 C 473.3 342.5 478.5 356.5 473.1 368.4 Z" fill="#ffffff"/></g>
    <g transform="translate(14.146, 7.620) scale(0.004800, -0.004800)"><path d="M 392.5 382.2 H 253.3 L 307.5 689.3 C 309.7 702.1 301.1 714.4 288.3 716.7 C 275.4 718.9 263.1 710.4 260.8 697.5 L 205.2 382.2 H 57.7 C 44.6 382.2 34.0 371.6 34.0 358.5 C 34.0 345.5 44.6 334.8 57.7 334.8 H 196.9 L 142.7 27.8 C 141.0 18.0 145.6 8.1 154.3 3.1 C 158.0 1.0 162.0 -1.5e-05 166.1 -1.5e-05 C 171.6 -1.5e-05 177.0 1.9 181.4 5.6 L 378.4 173.1 C 388.3 181.5 389.5 196.5 381.1 206.4 C 372.6 216.4 357.6 217.6 347.7 209.1 L 200.8 84.3 L 245.0 334.8 H 392.5 C 405.6 334.8 416.2 345.5 416.2 358.5 C 416.2 371.6 405.6 382.2 392.5 382.2 Z" fill="#ffffff"/></g>
    <g transform="translate(16.028, 7.620) scale(0.004800, -0.004800)"><path d="M 475.8 366.7 C 472.4 376.0 463.5 382.2 453.6 382.2 H 118.7 C 107.2 382.2 97.4 374.0 95.4 362.6 L 36.4 28.0 C 36.3 27.4 36.2 26.9 36.1 26.3 C 36.1 25.7 36.0 25.1 36.0 24.4 C 35.8 18.8 37.7 13.0 41.6 8.4 C 45.7 3.6 51.2 0.8 56.9 0.2 C 56.9 0.2 56.9 0.2 56.9 0.2 C 56.9 0.2 56.9 0.2 57.0 0.2 C 57.4 0.1 57.8 0.1 58.2 0.1 H 58.2 C 58.7 0.0 59.2 0.0 59.7 0.0 H 394.5 C 407.6 0.0 418.2 10.6 418.2 23.7 C 418.2 36.8 407.6 47.4 394.5 47.4 H 124.1 L 468.9 340.5 C 476.5 346.9 479.2 357.4 475.8 366.7 Z M 94.4 84.3 138.6 334.8 H 389.2 Z" fill="#ffffff"/></g>
    <g transform="translate(18.284, 7.620) scale(0.004800, -0.004800)"><path d="M 498.9 366.7 C 495.4 376.0 486.5 382.2 476.6 382.2 H 141.8 C 130.3 382.2 120.4 374.0 118.5 362.7 L 59.5 28.1 C 59.4 27.9 59.4 27.7 59.4 27.5 L 0.4 -307.0 C -1.9 -319.9 6.7 -332.2 19.6 -334.5 C 21.0 -334.7 22.4 -334.8 23.7 -334.8 C 35.0 -334.8 45.0 -326.8 47.0 -315.3 L 104.6 11.2 L 492.0 340.5 C 499.5 346.9 502.3 357.4 498.9 366.7 Z M 117.5 84.3 161.6 334.9 H 412.2 Z" fill="#ffffff"/></g>
    <g transform="translate(20.569, 7.620) scale(0.004800, -0.004800)"><path d="M 498.9 366.7 C 495.4 376.0 486.5 382.2 476.6 382.2 H 141.8 C 130.3 382.2 120.4 374.0 118.5 362.7 L 59.5 28.1 C 59.4 27.9 59.4 27.7 59.4 27.5 L 0.4 -307.0 C -1.9 -319.9 6.7 -332.2 19.6 -334.5 C 21.0 -334.7 22.4 -334.8 23.7 -334.8 C 35.0 -334.8 45.0 -326.8 47.0 -315.3 L 104.6 11.2 L 492.0 340.5 C 499.5 346.9 502.3 357.4 498.9 366.7 Z M 117.5 84.3 161.6 334.9 H 412.2 Z" fill="#ffffff"/></g>
    <g transform="translate(22.854, 7.620) scale(0.004800, -0.004800)"><path d="M 475.8 366.7 C 472.4 376.0 463.5 382.2 453.6 382.2 H 118.7 C 107.2 382.2 97.4 374.0 95.4 362.6 L 36.4 28.0 C 36.3 27.4 36.2 26.9 36.1 26.3 C 36.1 25.7 36.0 25.1 36.0 24.4 C 35.8 18.8 37.7 13.0 41.6 8.4 C 45.7 3.6 51.2 0.8 56.9 0.2 C 56.9 0.2 56.9 0.2 56.9 0.2 C 56.9 0.2 56.9 0.2 57.0 0.2 C 57.4 0.1 57.8 0.1 58.2 0.1 H 58.2 C 58.7 0.0 59.2 0.0 59.7 0.0 H 394.5 C 407.6 0.0 418.2 10.6 418.2 23.7 C 418.2 36.8 407.6 47.4 394.5 47.4 H 124.1 L 468.9 340.5 C 476.5 346.9 479.2 357.4 475.8 366.7 Z M 94.4 84.3 138.6 334.8 H 389.2 Z" fill="#ffffff"/></g>
    <g transform="translate(25.110, 7.620) scale(0.004800, -0.004800)"><path d="M 455.7 716.7 C 442.8 718.9 430.5 710.4 428.2 697.5 L 372.7 382.2 H 57.7 C 48.5 382.2 40.2 376.9 36.3 368.6 C 32.4 360.3 33.6 350.5 39.4 343.5 L 315.2 8.6 C 319.8 3.1 326.5 -1.5e-05 333.5 -1.5e-05 C 335.5 -1.5e-05 337.5 0.3 339.5 0.8 C 348.4 3.1 355.2 10.5 356.8 19.6 L 415.8 354.0 C 415.8 354.2 415.9 354.5 415.9 354.8 L 474.9 689.3 C 477.2 702.1 468.6 714.4 455.7 716.7 Z M 319.1 78.4 107.9 334.8 H 364.3 Z" fill="#ffffff"/></g>
    <g transform="translate(29.406, 7.620) scale(0.004800, -0.004800)"><path d="M 473.1 368.4 C 467.6 380.3 453.6 385.5 441.7 380.0 L 77.3 212.6 C 67.2 208.0 61.7 196.9 64.1 186.0 C 66.4 175.2 76.1 167.4 87.2 167.4 H 393.8 L 372.7 47.4 H 57.7 C 44.6 47.4 34.0 36.8 34.0 23.7 C 34.0 10.6 44.6 1.5e-05 57.7 1.5e-05 H 392.5 C 404.0 1.5e-05 413.9 8.3 415.8 19.6 L 445.4 187.0 C 446.6 193.9 444.7 201.0 440.2 206.3 C 435.7 211.7 429.0 214.8 422.0 214.8 H 195.5 L 461.5 337.0 C 473.3 342.5 478.5 356.5 473.1 368.4 Z" fill="#ffffff"/></g>
    <g transform="translate(31.570, 7.620) scale(0.004800, -0.004800)"><path d="M 272.7 206.4 C 264.2 216.4 249.3 217.6 239.3 209.1 L 92.4 84.3 L 199.1 689.3 C 201.4 702.1 192.8 714.4 179.9 716.7 C 167.0 718.9 154.7 710.4 152.4 697.5 L 34.4 27.8 C 32.6 18.0 37.2 8.1 45.9 3.1 C 49.6 1.0 53.6 -3.1e-05 57.7 -3.1e-05 C 63.2 -3.1e-05 68.6 1.9 73.0 5.6 L 270.0 173.1 C 279.9 181.5 281.1 196.5 272.7 206.4 Z" fill="#ffffff"/></g>
    <g transform="translate(32.790, 7.620) scale(0.004800, -0.004800)"><path d="M 475.8 366.7 C 472.4 376.0 463.5 382.2 453.6 382.2 H 118.7 C 107.2 382.2 97.4 374.0 95.4 362.6 L 36.4 28.0 C 36.3 27.4 36.2 26.9 36.1 26.3 C 36.1 25.7 36.0 25.1 36.0 24.4 C 35.8 18.8 37.7 13.0 41.6 8.4 C 45.7 3.6 51.2 0.8 56.9 0.2 C 56.9 0.2 56.9 0.2 56.9 0.2 C 56.9 0.2 56.9 0.2 57.0 0.2 C 57.4 0.1 57.8 0.1 58.2 0.1 H 58.2 C 58.7 0.0 59.2 0.0 59.7 0.0 H 394.5 C 407.6 0.0 418.2 10.6 418.2 23.7 C 418.2 36.8 407.6 47.4 394.5 47.4 H 124.1 L 468.9 340.5 C 476.5 346.9 479.2 357.4 475.8 366.7 Z M 94.4 84.3 138.6 334.8 H 389.2 Z" fill="#ffffff"/></g>
    <g transform="translate(35.046, 7.620) scale(0.004800, -0.004800)"><path d="M 790.5 381.9 C 777.7 384.1 765.4 375.5 763.1 362.6 L 735.7 207.4 L 423.7 64.1 L 474.9 354.4 C 477.2 367.3 468.6 379.6 455.7 381.9 C 442.8 384.1 430.5 375.5 428.3 362.6 L 400.9 207.4 L 88.9 64.1 L 140.0 354.4 C 142.3 367.3 133.7 379.6 120.8 381.9 C 108.0 384.1 95.7 375.5 93.4 362.6 L 34.4 27.8 C 32.8 19.1 36.2 10.3 43.2 4.9 C 47.4 1.7 52.5 0.0 57.7 0.0 C 61.0 0.0 64.4 0.7 67.6 2.2 L 390.9 150.7 L 369.2 27.8 C 367.7 19.1 371.1 10.3 378.1 4.9 C 382.3 1.7 387.4 0.0 392.5 0.0 C 395.9 0.0 399.3 0.7 402.4 2.2 L 766.8 169.6 C 773.8 172.8 778.9 179.3 780.2 187.0 L 809.7 354.4 C 812.0 367.3 803.4 379.6 790.5 381.9 Z" fill="#ffffff"/></g>
  <!-- Label: "v2.26.0" -->
    <g transform="translate(22.894, 10.414) scale(0.001600, -0.001600)"><path d="M 67.0 522.0 Q 52.0 522.0 44.0 513.0 Q 36.0 504.0 36.0 493.0 Q 36.0 489.0 37.0 485.0 Q 38.0 481.0 39.0 479.0 L 236.0 19.0 Q 240.0 10.0 248.5 4.5 Q 257.0 -1.0 266.0 0.0 Q 285.0 1.0 293.0 19.0 L 489.0 479.0 Q 490.0 483.0 491.5 486.5 Q 493.0 490.0 493.0 496.0 Q 493.0 508.0 484.0 514.5 Q 475.0 521.0 465.0 521.0 Q 444.0 522.0 436.0 502.0 L 265.2 97.4 L 95.0 502.0 Q 91.0 512.0 83.0 517.0 Q 75.0 522.0 67.0 522.0 Z" fill="#aaaaaa"/></g>
    <g transform="translate(23.741, 10.414) scale(0.001600, -0.001600)"><path d="M 474.0 58.0 H 166.7 L 351.0 265.0 Q 415.0 336.0 447.5 397.5 Q 480.0 459.0 480.0 511.0 Q 480.0 572.0 454.5 616.5 Q 429.0 661.0 382.5 685.5 Q 336.0 710.0 272.0 710.0 Q 234.0 710.0 194.5 694.5 Q 155.0 679.0 123.0 653.0 Q 91.0 627.0 73.0 596.0 Q 66.0 587.0 62.5 580.0 Q 59.0 573.0 59.0 566.0 Q 59.0 555.0 68.0 547.5 Q 77.0 540.0 89.0 540.0 Q 97.0 540.0 103.5 544.0 Q 110.0 548.0 116.0 558.0 Q 129.0 585.0 152.5 606.0 Q 176.0 627.0 206.5 640.0 Q 237.0 653.0 268.0 653.0 Q 336.0 653.0 376.0 613.0 Q 416.0 573.0 416.0 507.0 Q 416.0 467.0 388.5 416.5 Q 361.0 366.0 306.0 306.0 L 75.0 51.0 Q 67.0 41.0 67.0 30.0 Q 67.0 15.0 76.5 7.5 Q 86.0 0.0 99.0 0.0 H 474.0 Q 486.0 0.0 494.5 8.0 Q 503.0 16.0 503.0 29.0 Q 503.0 41.0 494.5 49.5 Q 486.0 58.0 474.0 58.0 Z" fill="#aaaaaa"/></g>
    <g transform="translate(24.627, 10.414) scale(0.001600, -0.001600)"><path d="M 87.0 0.0 H 94.0 Q 111.0 0.0 120.0 11.0 Q 129.0 22.0 129.0 39.0 V 60.0 Q 129.0 78.0 120.0 88.0 Q 111.0 98.0 94.0 98.0 H 87.0 Q 70.0 98.0 61.0 88.0 Q 52.0 78.0 52.0 60.0 V 39.0 Q 52.0 22.0 61.0 11.0 Q 70.0 0.0 87.0 0.0 Z" fill="#aaaaaa"/></g>
    <g transform="translate(24.917, 10.414) scale(0.001600, -0.001600)"><path d="M 474.0 58.0 H 166.7 L 351.0 265.0 Q 415.0 336.0 447.5 397.5 Q 480.0 459.0 480.0 511.0 Q 480.0 572.0 454.5 616.5 Q 429.0 661.0 382.5 685.5 Q 336.0 710.0 272.0 710.0 Q 234.0 710.0 194.5 694.5 Q 155.0 679.0 123.0 653.0 Q 91.0 627.0 73.0 596.0 Q 66.0 587.0 62.5 580.0 Q 59.0 573.0 59.0 566.0 Q 59.0 555.0 68.0 547.5 Q 77.0 540.0 89.0 540.0 Q 97.0 540.0 103.5 544.0 Q 110.0 548.0 116.0 558.0 Q 129.0 585.0 152.5 606.0 Q 176.0 627.0 206.5 640.0 Q 237.0 653.0 268.0 653.0 Q 336.0 653.0 376.0 613.0 Q 416.0 573.0 416.0 507.0 Q 416.0 467.0 388.5 416.5 Q 361.0 366.0 306.0 306.0 L 75.0 51.0 Q 67.0 41.0 67.0 30.0 Q 67.0 15.0 76.5 7.5 Q 86.0 0.0 99.0 0.0 H 474.0 Q 486.0 0.0 494.5 8.0 Q 503.0 16.0 503.0 29.0 Q 503.0 41.0 494.5 49.5 Q 486.0 58.0 474.0 58.0 Z" fill="#aaaaaa"/></g>
    <g transform="translate(25.803, 10.414) scale(0.001600, -0.001600)"><path d="M 287.0 -10.0 Q 351.0 -10.0 400.5 21.5 Q 450.0 53.0 478.5 104.0 Q 507.0 155.0 507.0 214.0 Q 507.0 258.0 491.5 299.0 Q 476.0 340.0 448.5 372.5 Q 421.0 405.0 383.0 424.0 Q 345.0 443.0 300.0 443.0 Q 257.0 443.0 220.0 427.5 Q 183.0 412.0 154.5 386.5 Q 144.9 377.9 136.5 368.4 Q 146.6 405.4 164.5 441.5 Q 189.0 491.0 224.0 534.0 Q 259.0 577.0 300.0 610.0 Q 341.0 643.0 383.0 661.0 Q 394.0 665.0 400.5 672.5 Q 407.0 680.0 407.0 690.0 Q 407.0 707.0 397.5 714.0 Q 388.0 721.0 375.0 721.0 Q 370.0 721.0 363.0 719.0 Q 302.0 696.0 253.5 655.5 Q 205.0 615.0 168.5 564.0 Q 132.0 513.0 107.0 456.0 Q 82.0 399.0 70.0 343.5 Q 58.0 288.0 58.0 240.0 Q 58.0 193.0 71.5 148.0 Q 85.0 103.0 113.5 67.5 Q 142.0 32.0 185.5 11.0 Q 229.0 -10.0 287.0 -10.0 Z M 286.0 48.0 Q 234.0 48.0 196.5 71.0 Q 159.0 94.0 139.0 131.5 Q 119.0 169.0 119.0 211.0 Q 119.0 258.0 139.5 297.5 Q 160.0 337.0 198.5 361.0 Q 237.0 385.0 290.0 385.0 Q 341.0 385.0 375.5 360.5 Q 410.0 336.0 427.5 297.5 Q 445.0 259.0 445.0 214.0 Q 445.0 165.0 424.5 127.5 Q 404.0 90.0 368.0 69.0 Q 332.0 48.0 286.0 48.0 Z" fill="#aaaaaa"/></g>
    <g transform="translate(26.664, 10.414) scale(0.001600, -0.001600)"><path d="M 87.0 0.0 H 94.0 Q 111.0 0.0 120.0 11.0 Q 129.0 22.0 129.0 39.0 V 60.0 Q 129.0 78.0 120.0 88.0 Q 111.0 98.0 94.0 98.0 H 87.0 Q 70.0 98.0 61.0 88.0 Q 52.0 78.0 52.0 60.0 V 39.0 Q 52.0 22.0 61.0 11.0 Q 70.0 0.0 87.0 0.0 Z" fill="#aaaaaa"/></g>
    <g transform="translate(26.954, 10.414) scale(0.001600, -0.001600)"><path d="M 297.0 -10.0 Q 379.0 -10.0 432.5 38.0 Q 486.0 86.0 513.0 167.5 Q 540.0 249.0 540.0 350.0 Q 540.0 452.0 513.0 533.5 Q 486.0 615.0 432.5 662.5 Q 379.0 710.0 297.0 710.0 Q 217.0 710.0 163.0 662.5 Q 109.0 615.0 82.0 533.5 Q 55.0 452.0 55.0 350.0 Q 55.0 249.0 82.0 167.5 Q 109.0 86.0 163.0 38.0 Q 217.0 -10.0 297.0 -10.0 Z M 297.0 52.0 Q 239.0 52.0 199.5 89.0 Q 160.0 126.0 139.5 193.5 Q 119.0 261.0 119.0 350.0 Q 119.0 440.0 139.5 507.5 Q 160.0 575.0 199.5 612.0 Q 239.0 649.0 297.0 649.0 Q 356.0 649.0 395.5 612.0 Q 435.0 575.0 455.5 507.5 Q 476.0 440.0 476.0 350.0 Q 476.0 261.0 455.5 193.5 Q 435.0 126.0 395.5 89.0 Q 356.0 52.0 297.0 52.0 Z" fill="#aaaaaa"/></g>
  <!-- Label: "TIME" -->
    <g transform="translate(6.683, 13.070) scale(0.002400, -0.002400)"><path d="M 305.0 0.0 Q 324.0 0.0 336.0 12.0 Q 348.0 24.0 348.0 41.0 V 624.0 H 538.0 Q 555.0 624.0 567.0 634.0 Q 579.0 644.0 579.0 662.0 Q 579.0 679.0 567.0 689.5 Q 555.0 700.0 538.0 700.0 H 73.0 Q 56.0 700.0 44.5 689.5 Q 33.0 679.0 33.0 662.0 Q 33.0 645.0 44.5 634.5 Q 56.0 624.0 73.0 624.0 H 263.0 V 41.0 Q 263.0 24.0 275.0 12.0 Q 287.0 0.0 305.0 0.0 Z" fill="#1c1c1c"/></g>
    <g transform="translate(8.150, 13.070) scale(0.002400, -0.002400)"><path d="M 171.0 41.0 V 659.0 Q 171.0 677.0 159.0 688.5 Q 147.0 700.0 130.0 700.0 Q 112.0 700.0 100.0 688.5 Q 88.0 677.0 88.0 659.0 V 41.0 Q 88.0 24.0 99.0 12.0 Q 110.0 0.0 129.0 0.0 Q 146.0 0.0 158.5 12.0 Q 171.0 24.0 171.0 41.0 Z" fill="#1c1c1c"/></g>
    <g transform="translate(8.771, 13.070) scale(0.002400, -0.002400)"><path d="M 129.0 701.0 Q 111.0 701.0 99.5 688.5 Q 88.0 676.0 88.0 660.0 V 41.0 Q 88.0 24.0 98.5 12.0 Q 109.0 0.0 126.0 0.0 Q 143.0 0.0 154.0 12.0 Q 165.0 24.0 165.0 41.0 V 546.6 L 377.0 220.0 Q 383.0 213.0 392.0 208.0 Q 401.0 203.0 410.0 203.0 Q 419.0 203.0 427.5 208.0 Q 436.0 213.0 442.0 220.0 L 653.0 541.0 V 41.0 Q 653.0 24.0 665.0 12.0 Q 677.0 0.0 695.0 0.0 Q 713.0 0.0 725.0 12.0 Q 737.0 24.0 737.0 41.0 V 660.0 Q 737.0 678.0 725.0 689.0 Q 713.0 700.0 697.0 701.0 Q 676.0 702.0 663.0 683.0 L 412.3 308.8 L 165.0 683.0 Q 159.0 691.0 148.5 696.0 Q 138.0 701.0 129.0 701.0 Z" fill="#1c1c1c"/></g>
    <g transform="translate(10.749, 13.070) scale(0.002400, -0.002400)"><path d="M 128.0 700.0 Q 111.0 700.0 99.5 688.5 Q 88.0 677.0 88.0 660.0 V 41.0 Q 88.0 24.0 99.5 12.0 Q 111.0 0.0 128.0 0.0 H 484.0 Q 501.0 0.0 513.0 11.0 Q 525.0 22.0 525.0 39.0 Q 525.0 54.0 513.0 66.0 Q 501.0 78.0 484.0 78.0 H 171.0 V 321.0 H 439.0 Q 456.0 321.0 468.0 331.5 Q 480.0 342.0 480.0 359.0 Q 480.0 376.0 468.0 387.0 Q 456.0 398.0 439.0 398.0 H 171.0 V 623.0 H 484.0 Q 501.0 623.0 513.0 633.5 Q 525.0 644.0 525.0 661.0 Q 525.0 678.0 513.0 689.0 Q 501.0 700.0 484.0 700.0 Z" fill="#1c1c1c"/></g>
  <!-- Label: "SHAPE" -->
    <g transform="translate(21.672, 13.070) scale(0.002400, -0.002400)"><path d="M 292.0 -10.0 Q 359.0 -9.0 412.5 15.5 Q 466.0 40.0 497.0 83.0 Q 528.0 126.0 528.0 181.0 Q 528.0 233.0 511.5 268.5 Q 495.0 304.0 465.0 327.0 Q 435.0 350.0 393.5 365.5 Q 352.0 381.0 303.0 393.0 Q 258.0 405.0 221.0 420.5 Q 184.0 436.0 162.0 460.5 Q 140.0 485.0 140.0 523.0 Q 140.0 557.0 159.5 581.5 Q 179.0 606.0 214.0 619.5 Q 249.0 633.0 295.0 633.0 Q 326.0 633.0 357.0 624.0 Q 388.0 615.0 414.0 600.0 Q 440.0 585.0 457.0 566.0 Q 466.0 558.0 477.0 558.0 Q 493.0 558.0 505.5 570.5 Q 518.0 583.0 518.0 598.0 Q 518.0 616.0 498.0 635.0 Q 465.0 670.0 410.5 690.0 Q 356.0 710.0 295.0 710.0 Q 226.0 710.0 173.0 686.5 Q 120.0 663.0 90.0 620.0 Q 60.0 577.0 60.0 520.0 Q 60.0 475.0 75.5 441.5 Q 91.0 408.0 119.0 384.5 Q 147.0 361.0 185.5 345.0 Q 224.0 329.0 270.0 318.0 Q 322.0 306.0 361.5 288.5 Q 401.0 271.0 423.5 245.0 Q 446.0 219.0 447.0 179.0 Q 447.0 146.0 426.0 121.0 Q 405.0 96.0 369.5 82.0 Q 334.0 68.0 290.0 68.0 Q 233.0 68.0 187.5 88.0 Q 142.0 108.0 103.0 146.0 Q 92.0 157.0 78.0 157.0 Q 61.0 157.0 49.5 144.5 Q 38.0 132.0 38.0 116.0 Q 38.0 106.0 42.5 97.5 Q 47.0 89.0 54.0 82.0 Q 106.0 34.0 162.0 12.0 Q 218.0 -10.0 292.0 -10.0 Z" fill="#1c1c1c"/></g>
    <g transform="translate(23.049, 13.070) scale(0.002400, -0.002400)"><path d="M 130.0 700.0 Q 112.0 700.0 100.0 688.5 Q 88.0 677.0 88.0 659.0 V 41.0 Q 88.0 24.0 99.0 12.0 Q 110.0 0.0 129.0 0.0 Q 146.0 0.0 158.5 12.0 Q 171.0 24.0 171.0 41.0 V 317.0 H 549.0 V 41.0 Q 549.0 24.0 561.0 12.0 Q 573.0 0.0 590.0 0.0 Q 608.0 0.0 620.0 12.0 Q 632.0 24.0 632.0 41.0 V 659.0 Q 632.0 677.0 620.5 688.5 Q 609.0 700.0 591.0 700.0 Q 574.0 700.0 561.5 688.5 Q 549.0 677.0 549.0 659.0 V 395.0 H 171.0 V 659.0 Q 171.0 677.0 159.0 688.5 Q 147.0 700.0 130.0 700.0 Z" fill="#1c1c1c"/></g>
    <g transform="translate(24.777, 13.070) scale(0.002400, -0.002400)"><path d="M 162.0 187.0 H 478.6 L 546.0 25.0 Q 551.0 12.0 561.0 5.0 Q 571.0 -2.0 583.0 -2.0 Q 598.0 -2.0 610.0 8.5 Q 622.0 19.0 622.0 37.0 Q 622.0 45.0 619.0 53.0 L 361.0 677.0 Q 357.0 689.0 346.5 696.0 Q 336.0 703.0 323.0 703.0 Q 310.0 704.0 299.5 697.5 Q 289.0 691.0 284.0 677.0 L 25.0 47.0 Q 22.0 39.0 23.0 32.0 Q 23.0 18.0 32.0 8.0 Q 41.0 -2.0 60.0 -2.0 Q 71.0 -2.0 81.0 5.0 Q 91.0 12.0 95.0 24.0 L 162.0 187.0 Z M 319.3 569.9 446.1 265.0 H 194.0 L 319.3 569.9 Z" fill="#1c1c1c"/></g>
    <g transform="translate(26.323, 13.070) scale(0.002400, -0.002400)"><path d="M 362.0 700.0 H 128.0 Q 111.0 700.0 99.5 688.5 Q 88.0 677.0 88.0 660.0 V 41.0 Q 88.0 24.0 98.5 12.0 Q 109.0 0.0 127.0 0.0 Q 144.0 0.0 155.0 12.0 Q 166.0 24.0 166.0 41.0 V 281.0 H 362.0 Q 417.0 281.0 461.0 309.0 Q 505.0 337.0 530.5 385.0 Q 556.0 433.0 556.0 492.0 Q 556.0 552.0 530.5 599.0 Q 505.0 646.0 461.0 673.0 Q 417.0 700.0 362.0 700.0 Z M 362.0 358.0 H 166.0 V 623.0 H 362.0 Q 395.0 623.0 420.0 605.5 Q 445.0 588.0 460.0 559.0 Q 475.0 530.0 475.0 492.0 Q 475.0 456.0 460.0 425.0 Q 445.0 394.0 420.0 376.0 Q 395.0 358.0 362.0 358.0 Z" fill="#1c1c1c"/></g>
    <g transform="translate(27.760, 13.070) scale(0.002400, -0.002400)"><path d="M 128.0 700.0 Q 111.0 700.0 99.5 688.5 Q 88.0 677.0 88.0 660.0 V 41.0 Q 88.0 24.0 99.5 12.0 Q 111.0 0.0 128.0 0.0 H 484.0 Q 501.0 0.0 513.0 11.0 Q 525.0 22.0 525.0 39.0 Q 525.0 54.0 513.0 66.0 Q 501.0 78.0 484.0 78.0 H 171.0 V 321.0 H 439.0 Q 456.0 321.0 468.0 331.5 Q 480.0 342.0 480.0 359.0 Q 480.0 376.0 468.0 387.0 Q 456.0 398.0 439.0 398.0 H 171.0 V 623.0 H 484.0 Q 501.0 623.0 513.0 633.5 Q 525.0 644.0 525.0 661.0 Q 525.0 678.0 513.0 689.0 Q 501.0 700.0 484.0 700.0 Z" fill="#1c1c1c"/></g>
  <!-- Label: "STEPS" -->
    <g transform="translate(37.886, 13.070) scale(0.002400, -0.002400)"><path d="M 292.0 -10.0 Q 359.0 -9.0 412.5 15.5 Q 466.0 40.0 497.0 83.0 Q 528.0 126.0 528.0 181.0 Q 528.0 233.0 511.5 268.5 Q 495.0 304.0 465.0 327.0 Q 435.0 350.0 393.5 365.5 Q 352.0 381.0 303.0 393.0 Q 258.0 405.0 221.0 420.5 Q 184.0 436.0 162.0 460.5 Q 140.0 485.0 140.0 523.0 Q 140.0 557.0 159.5 581.5 Q 179.0 606.0 214.0 619.5 Q 249.0 633.0 295.0 633.0 Q 326.0 633.0 357.0 624.0 Q 388.0 615.0 414.0 600.0 Q 440.0 585.0 457.0 566.0 Q 466.0 558.0 477.0 558.0 Q 493.0 558.0 505.5 570.5 Q 518.0 583.0 518.0 598.0 Q 518.0 616.0 498.0 635.0 Q 465.0 670.0 410.5 690.0 Q 356.0 710.0 295.0 710.0 Q 226.0 710.0 173.0 686.5 Q 120.0 663.0 90.0 620.0 Q 60.0 577.0 60.0 520.0 Q 60.0 475.0 75.5 441.5 Q 91.0 408.0 119.0 384.5 Q 147.0 361.0 185.5 345.0 Q 224.0 329.0 270.0 318.0 Q 322.0 306.0 361.5 288.5 Q 401.0 271.0 423.5 245.0 Q 446.0 219.0 447.0 179.0 Q 447.0 146.0 426.0 121.0 Q 405.0 96.0 369.5 82.0 Q 334.0 68.0 290.0 68.0 Q 233.0 68.0 187.5 88.0 Q 142.0 108.0 103.0 146.0 Q 92.0 157.0 78.0 157.0 Q 61.0 157.0 49.5 144.5 Q 38.0 132.0 38.0 116.0 Q 38.0 106.0 42.5 97.5 Q 47.0 89.0 54.0 82.0 Q 106.0 34.0 162.0 12.0 Q 218.0 -10.0 292.0 -10.0 Z" fill="#1c1c1c"/></g>
    <g transform="translate(39.264, 13.070) scale(0.002400, -0.002400)"><path d="M 305.0 0.0 Q 324.0 0.0 336.0 12.0 Q 348.0 24.0 348.0 41.0 V 624.0 H 538.0 Q 555.0 624.0 567.0 634.0 Q 579.0 644.0 579.0 662.0 Q 579.0 679.0 567.0 689.5 Q 555.0 700.0 538.0 700.0 H 73.0 Q 56.0 700.0 44.5 689.5 Q 33.0 679.0 33.0 662.0 Q 33.0 645.0 44.5 634.5 Q 56.0 624.0 73.0 624.0 H 263.0 V 41.0 Q 263.0 24.0 275.0 12.0 Q 287.0 0.0 305.0 0.0 Z" fill="#1c1c1c"/></g>
    <g transform="translate(40.730, 13.070) scale(0.002400, -0.002400)"><path d="M 128.0 700.0 Q 111.0 700.0 99.5 688.5 Q 88.0 677.0 88.0 660.0 V 41.0 Q 88.0 24.0 99.5 12.0 Q 111.0 0.0 128.0 0.0 H 484.0 Q 501.0 0.0 513.0 11.0 Q 525.0 22.0 525.0 39.0 Q 525.0 54.0 513.0 66.0 Q 501.0 78.0 484.0 78.0 H 171.0 V 321.0 H 439.0 Q 456.0 321.0 468.0 331.5 Q 480.0 342.0 480.0 359.0 Q 480.0 376.0 468.0 387.0 Q 456.0 398.0 439.0 398.0 H 171.0 V 623.0 H 484.0 Q 501.0 623.0 513.0 633.5 Q 525.0 644.0 525.0 661.0 Q 525.0 678.0 513.0 689.0 Q 501.0 700.0 484.0 700.0 Z" fill="#1c1c1c"/></g>
    <g transform="translate(42.098, 13.070) scale(0.002400, -0.002400)"><path d="M 362.0 700.0 H 128.0 Q 111.0 700.0 99.5 688.5 Q 88.0 677.0 88.0 660.0 V 41.0 Q 88.0 24.0 98.5 12.0 Q 109.0 0.0 127.0 0.0 Q 144.0 0.0 155.0 12.0 Q 166.0 24.0 166.0 41.0 V 281.0 H 362.0 Q 417.0 281.0 461.0 309.0 Q 505.0 337.0 530.5 385.0 Q 556.0 433.0 556.0 492.0 Q 556.0 552.0 530.5 599.0 Q 505.0 646.0 461.0 673.0 Q 417.0 700.0 362.0 700.0 Z M 362.0 358.0 H 166.0 V 623.0 H 362.0 Q 395.0 623.0 420.0 605.5 Q 445.0 588.0 460.0 559.0 Q 475.0 530.0 475.0 492.0 Q 475.0 456.0 460.0 425.0 Q 445.0 394.0 420.0 376.0 Q 395.0 358.0 362.0 358.0 Z" fill="#1c1c1c"/></g>
    <g transform="translate(43.536, 13.070) scale(0.002400, -0.002400)"><path d="M 292.0 -10.0 Q 359.0 -9.0 412.5 15.5 Q 466.0 40.0 497.0 83.0 Q 528.0 126.0 528.0 181.0 Q 528.0 233.0 511.5 268.5 Q 495.0 304.0 465.0 327.0 Q 435.0 350.0 393.5 365.5 Q 352.0 381.0 303.0 393.0 Q 258.0 405.0 221.0 420.5 Q 184.0 436.0 162.0 460.5 Q 140.0 485.0 140.0 523.0 Q 140.0 557.0 159.5 581.5 Q 179.0 606.0 214.0 619.5 Q 249.0 633.0 295.0 633.0 Q 326.0 633.0 357.0 624.0 Q 388.0 615.0 414.0 600.0 Q 440.0 585.0 457.0 566.0 Q 466.0 558.0 477.0 558.0 Q 493.0 558.0 505.5 570.5 Q 518.0 583.0 518.0 598.0 Q 518.0 616.0 498.0 635.0 Q 465.0 670.0 410.5 690.0 Q 356.0 710.0 295.0 710.0 Q 226.0 710.0 173.0 686.5 Q 120.0 663.0 90.0 620.0 Q 60.0 577.0 60.0 520.0 Q 60.0 475.0 75.5 441.5 Q 91.0 408.0 119.0 384.5 Q 147.0 361.0 185.5 345.0 Q 224.0 329.0 270.0 318.0 Q 322.0 306.0 361.5 288.5 Q 401.0 271.0 423.5 245.0 Q 446.0 219.0 447.0 179.0 Q 447.0 146.0 426.0 121.0 Q 405.0 96.0 369.5 82.0 Q 334.0 68.0 290.0 68.0 Q 233.0 68.0 187.5 88.0 Q 142.0 108.0 103.0 146.0 Q 92.0 157.0 78.0 157.0 Q 61.0 157.0 49.5 144.5 Q 38.0 132.0 38.0 116.0 Q 38.0 106.0 42.5 97.5 Q 47.0 89.0 54.0 82.0 Q 106.0 34.0 162.0 12.0 Q 218.0 -10.0 292.0 -10.0 Z" fill="#1c1c1c"/></g>
  <!-- Label: "UP" -->
    <g transform="translate(3.491, 22.500) scale(0.002000, -0.002000)"><path d="M 584.0 701.0 Q 566.0 701.0 556.0 689.0 Q 546.0 677.0 546.0 660.0 V 263.0 Q 546.0 208.0 519.5 165.0 Q 493.0 122.0 450.0 97.5 Q 407.0 73.0 356.0 73.0 Q 306.0 73.0 263.5 97.5 Q 221.0 122.0 196.0 165.0 Q 171.0 208.0 171.0 263.0 V 660.0 Q 171.0 677.0 158.5 689.0 Q 146.0 701.0 130.0 701.0 Q 111.0 701.0 99.5 689.0 Q 88.0 677.0 88.0 660.0 V 263.0 Q 88.0 186.0 123.0 125.0 Q 158.0 64.0 218.5 28.5 Q 279.0 -7.0 356.0 -7.0 Q 432.0 -7.0 492.0 28.5 Q 552.0 64.0 587.5 125.0 Q 623.0 186.0 623.0 263.0 V 660.0 Q 623.0 677.0 612.0 689.0 Q 601.0 701.0 584.0 701.0 Z" fill="#2c2c2c"/></g>
    <g transform="translate(4.911, 22.500) scale(0.002000, -0.002000)"><path d="M 362.0 700.0 H 128.0 Q 111.0 700.0 99.5 688.5 Q 88.0 677.0 88.0 660.0 V 41.0 Q 88.0 24.0 98.5 12.0 Q 109.0 0.0 127.0 0.0 Q 144.0 0.0 155.0 12.0 Q 166.0 24.0 166.0 41.0 V 281.0 H 362.0 Q 417.0 281.0 461.0 309.0 Q 505.0 337.0 530.5 385.0 Q 556.0 433.0 556.0 492.0 Q 556.0 552.0 530.5 599.0 Q 505.0 646.0 461.0 673.0 Q 417.0 700.0 362.0 700.0 Z M 362.0 358.0 H 166.0 V 623.0 H 362.0 Q 395.0 623.0 420.0 605.5 Q 445.0 588.0 460.0 559.0 Q 475.0 530.0 475.0 492.0 Q 475.0 456.0 460.0 425.0 Q 445.0 394.0 420.0 376.0 Q 395.0 358.0 362.0 358.0 Z" fill="#2c2c2c"/></g>
  <!-- Label: "DOWN" -->
    <g transform="translate(1.629, 43.900) scale(0.002000, -0.002000)"><path d="M 378.0 700.0 H 128.0 Q 111.0 700.0 99.5 688.5 Q 88.0 677.0 88.0 660.0 V 41.0 Q 88.0 24.0 99.5 12.0 Q 111.0 0.0 128.0 0.0 H 378.0 Q 477.0 0.0 542.0 47.5 Q 607.0 95.0 640.0 174.5 Q 673.0 254.0 673.0 350.0 Q 673.0 420.0 654.5 483.5 Q 636.0 547.0 599.0 596.0 Q 562.0 645.0 506.5 672.5 Q 451.0 700.0 378.0 700.0 Z M 368.0 78.0 H 171.0 V 623.0 H 368.0 Q 426.0 623.0 467.5 601.0 Q 509.0 579.0 535.5 541.0 Q 562.0 503.0 574.5 453.5 Q 587.0 404.0 587.0 350.0 Q 587.0 276.0 564.5 214.0 Q 542.0 152.0 493.5 115.0 Q 445.0 78.0 368.0 78.0 Z" fill="#2c2c2c"/></g>
    <g transform="translate(3.065, 43.900) scale(0.002000, -0.002000)"><path d="M 719.0 350.0 Q 719.0 428.0 694.0 493.5 Q 669.0 559.0 624.0 607.5 Q 579.0 656.0 517.0 683.0 Q 455.0 710.0 382.0 710.0 Q 308.0 710.0 246.5 683.0 Q 185.0 656.0 140.0 607.5 Q 95.0 559.0 70.0 493.5 Q 45.0 428.0 45.0 350.0 Q 45.0 273.0 70.0 207.5 Q 95.0 142.0 140.0 93.0 Q 185.0 44.0 246.5 17.0 Q 308.0 -10.0 382.0 -10.0 Q 455.0 -10.0 517.0 17.0 Q 579.0 44.0 624.0 93.0 Q 669.0 142.0 694.0 207.5 Q 719.0 273.0 719.0 350.0 Z M 633.0 350.0 Q 633.0 269.0 600.5 205.5 Q 568.0 142.0 512.0 106.0 Q 456.0 70.0 382.0 70.0 Q 308.0 70.0 251.5 106.0 Q 195.0 142.0 163.0 205.5 Q 131.0 269.0 131.0 350.0 Q 131.0 432.0 163.0 495.0 Q 195.0 558.0 251.5 594.0 Q 308.0 630.0 382.0 630.0 Q 456.0 630.0 512.0 594.0 Q 568.0 558.0 600.5 495.0 Q 633.0 432.0 633.0 350.0 Z" fill="#2c2c2c"/></g>
    <g transform="translate(4.593, 43.900) scale(0.002000, -0.002000)"><path d="M 890.0 703.0 Q 877.0 703.0 866.0 696.0 Q 855.0 689.0 851.0 677.0 L 671.4 145.0 L 519.0 528.0 Q 515.0 540.0 504.5 547.0 Q 494.0 554.0 482.0 554.0 Q 469.0 554.0 459.0 547.0 Q 449.0 540.0 444.0 528.0 L 288.6 143.8 L 108.0 677.0 Q 104.0 689.0 93.0 696.0 Q 82.0 703.0 70.0 703.0 Q 55.0 703.0 40.5 691.5 Q 26.0 680.0 26.0 660.0 Q 26.0 654.0 28.0 646.0 L 241.0 26.0 Q 245.0 14.0 255.5 7.5 Q 266.0 1.0 277.0 0.0 Q 289.0 0.0 300.0 6.5 Q 311.0 13.0 317.0 26.0 L 479.6 418.8 L 642.0 26.0 Q 648.0 13.0 659.0 6.5 Q 670.0 0.0 682.0 0.0 Q 693.0 1.0 703.5 7.5 Q 714.0 14.0 718.0 26.0 L 931.0 646.0 Q 933.0 654.0 933.0 661.0 Q 933.0 681.0 919.5 692.0 Q 906.0 703.0 890.0 703.0 Z" fill="#2c2c2c"/></g>
    <g transform="translate(6.511, 43.900) scale(0.002000, -0.002000)"><path d="M 606.0 700.0 Q 590.0 700.0 579.5 689.5 Q 569.0 679.0 569.0 663.0 V 145.2 L 160.0 686.0 Q 155.0 693.0 145.5 696.5 Q 136.0 700.0 127.0 700.0 Q 111.0 700.0 99.5 689.0 Q 88.0 678.0 88.0 660.0 V 37.0 Q 88.0 21.0 98.0 10.5 Q 108.0 0.0 124.0 0.0 Q 141.0 0.0 151.5 10.5 Q 162.0 21.0 162.0 37.0 V 552.6 L 570.0 13.0 Q 575.0 7.0 584.0 3.5 Q 593.0 0.0 602.0 0.0 Q 619.0 0.0 631.0 11.5 Q 643.0 23.0 643.0 42.0 V 663.0 Q 643.0 679.0 633.0 689.5 Q 623.0 700.0 606.0 700.0 Z" fill="#2c2c2c"/></g>
  <!-- Label: "UP CV" -->
    <g transform="translate(22.502, 53.500) scale(0.002000, -0.002000)"><path d="M 584.0 701.0 Q 566.0 701.0 556.0 689.0 Q 546.0 677.0 546.0 660.0 V 263.0 Q 546.0 208.0 519.5 165.0 Q 493.0 122.0 450.0 97.5 Q 407.0 73.0 356.0 73.0 Q 306.0 73.0 263.5 97.5 Q 221.0 122.0 196.0 165.0 Q 171.0 208.0 171.0 263.0 V 660.0 Q 171.0 677.0 158.5 689.0 Q 146.0 701.0 130.0 701.0 Q 111.0 701.0 99.5 689.0 Q 88.0 677.0 88.0 660.0 V 263.0 Q 88.0 186.0 123.0 125.0 Q 158.0 64.0 218.5 28.5 Q 279.0 -7.0 356.0 -7.0 Q 432.0 -7.0 492.0 28.5 Q 552.0 64.0 587.5 125.0 Q 623.0 186.0 623.0 263.0 V 660.0 Q 623.0 677.0 612.0 689.0 Q 601.0 701.0 584.0 701.0 Z" fill="#2c2c2c"/></g>
    <g transform="translate(23.922, 53.500) scale(0.002000, -0.002000)"><path d="M 362.0 700.0 H 128.0 Q 111.0 700.0 99.5 688.5 Q 88.0 677.0 88.0 660.0 V 41.0 Q 88.0 24.0 98.5 12.0 Q 109.0 0.0 127.0 0.0 Q 144.0 0.0 155.0 12.0 Q 166.0 24.0 166.0 41.0 V 281.0 H 362.0 Q 417.0 281.0 461.0 309.0 Q 505.0 337.0 530.5 385.0 Q 556.0 433.0 556.0 492.0 Q 556.0 552.0 530.5 599.0 Q 505.0 646.0 461.0 673.0 Q 417.0 700.0 362.0 700.0 Z M 362.0 358.0 H 166.0 V 623.0 H 362.0 Q 395.0 623.0 420.0 605.5 Q 445.0 588.0 460.0 559.0 Q 475.0 530.0 475.0 492.0 Q 475.0 456.0 460.0 425.0 Q 445.0 394.0 420.0 376.0 Q 395.0 358.0 362.0 358.0 Z" fill="#2c2c2c"/></g>
    <g transform="translate(25.670, 53.500) scale(0.002000, -0.002000)"><path d="M 592.0 654.0 Q 551.0 680.0 501.5 694.0 Q 452.0 708.0 400.0 708.0 Q 325.0 708.0 260.5 681.0 Q 196.0 654.0 147.5 606.0 Q 99.0 558.0 72.0 493.0 Q 45.0 428.0 45.0 350.0 Q 45.0 267.0 73.5 200.5 Q 102.0 134.0 151.0 87.0 Q 200.0 40.0 264.0 15.0 Q 328.0 -10.0 400.0 -10.0 Q 435.0 -10.0 469.5 -3.0 Q 504.0 4.0 536.0 16.5 Q 568.0 29.0 593.0 44.0 Q 609.0 52.0 612.0 69.5 Q 615.0 87.0 603.0 103.0 Q 593.0 115.0 579.0 117.0 Q 565.0 119.0 551.0 112.0 Q 517.0 91.0 479.0 80.0 Q 441.0 69.0 400.0 69.0 Q 343.0 69.0 294.5 88.0 Q 246.0 107.0 209.5 143.5 Q 173.0 180.0 152.0 232.0 Q 131.0 284.0 131.0 350.0 Q 131.0 412.0 151.0 463.0 Q 171.0 514.0 207.0 551.0 Q 243.0 588.0 292.0 608.5 Q 341.0 629.0 400.0 629.0 Q 442.0 629.0 480.0 617.5 Q 518.0 606.0 551.0 586.0 Q 565.0 579.0 579.0 580.0 Q 593.0 581.0 602.0 594.0 Q 614.0 609.0 611.5 627.0 Q 609.0 645.0 592.0 654.0 Z" fill="#2c2c2c"/></g>
    <g transform="translate(26.960, 53.500) scale(0.002000, -0.002000)"><path d="M 596.0 701.0 Q 571.0 701.0 559.0 676.0 L 339.3 131.9 L 112.0 674.0 Q 100.0 702.0 73.0 702.0 Q 60.0 702.0 46.5 691.5 Q 33.0 681.0 33.0 662.0 Q 33.0 657.0 34.0 652.5 Q 35.0 648.0 37.0 644.0 L 297.0 26.0 Q 302.0 14.0 312.0 7.5 Q 322.0 1.0 333.0 0.0 Q 345.0 0.0 355.5 6.5 Q 366.0 13.0 372.0 26.0 L 633.0 645.0 Q 637.0 655.0 637.0 663.0 Q 637.0 680.0 625.0 690.5 Q 613.0 701.0 596.0 701.0 Z" fill="#2c2c2c"/></g>
  <!-- Label: "DOWN CV" -->
    <g transform="translate(20.640, 65.500) scale(0.002000, -0.002000)"><path d="M 378.0 700.0 H 128.0 Q 111.0 700.0 99.5 688.5 Q 88.0 677.0 88.0 660.0 V 41.0 Q 88.0 24.0 99.5 12.0 Q 111.0 0.0 128.0 0.0 H 378.0 Q 477.0 0.0 542.0 47.5 Q 607.0 95.0 640.0 174.5 Q 673.0 254.0 673.0 350.0 Q 673.0 420.0 654.5 483.5 Q 636.0 547.0 599.0 596.0 Q 562.0 645.0 506.5 672.5 Q 451.0 700.0 378.0 700.0 Z M 368.0 78.0 H 171.0 V 623.0 H 368.0 Q 426.0 623.0 467.5 601.0 Q 509.0 579.0 535.5 541.0 Q 562.0 503.0 574.5 453.5 Q 587.0 404.0 587.0 350.0 Q 587.0 276.0 564.5 214.0 Q 542.0 152.0 493.5 115.0 Q 445.0 78.0 368.0 78.0 Z" fill="#2c2c2c"/></g>
    <g transform="translate(22.076, 65.500) scale(0.002000, -0.002000)"><path d="M 719.0 350.0 Q 719.0 428.0 694.0 493.5 Q 669.0 559.0 624.0 607.5 Q 579.0 656.0 517.0 683.0 Q 455.0 710.0 382.0 710.0 Q 308.0 710.0 246.5 683.0 Q 185.0 656.0 140.0 607.5 Q 95.0 559.0 70.0 493.5 Q 45.0 428.0 45.0 350.0 Q 45.0 273.0 70.0 207.5 Q 95.0 142.0 140.0 93.0 Q 185.0 44.0 246.5 17.0 Q 308.0 -10.0 382.0 -10.0 Q 455.0 -10.0 517.0 17.0 Q 579.0 44.0 624.0 93.0 Q 669.0 142.0 694.0 207.5 Q 719.0 273.0 719.0 350.0 Z M 633.0 350.0 Q 633.0 269.0 600.5 205.5 Q 568.0 142.0 512.0 106.0 Q 456.0 70.0 382.0 70.0 Q 308.0 70.0 251.5 106.0 Q 195.0 142.0 163.0 205.5 Q 131.0 269.0 131.0 350.0 Q 131.0 432.0 163.0 495.0 Q 195.0 558.0 251.5 594.0 Q 308.0 630.0 382.0 630.0 Q 456.0 630.0 512.0 594.0 Q 568.0 558.0 600.5 495.0 Q 633.0 432.0 633.0 350.0 Z" fill="#2c2c2c"/></g>
    <g transform="translate(23.604, 65.500) scale(0.002000, -0.002000)"><path d="M 890.0 703.0 Q 877.0 703.0 866.0 696.0 Q 855.0 689.0 851.0 677.0 L 671.4 145.0 L 519.0 528.0 Q 515.0 540.0 504.5 547.0 Q 494.0 554.0 482.0 554.0 Q 469.0 554.0 459.0 547.0 Q 449.0 540.0 444.0 528.0 L 288.6 143.8 L 108.0 677.0 Q 104.0 689.0 93.0 696.0 Q 82.0 703.0 70.0 703.0 Q 55.0 703.0 40.5 691.5 Q 26.0 680.0 26.0 660.0 Q 26.0 654.0 28.0 646.0 L 241.0 26.0 Q 245.0 14.0 255.5 7.5 Q 266.0 1.0 277.0 0.0 Q 289.0 0.0 300.0 6.5 Q 311.0 13.0 317.0 26.0 L 479.6 418.8 L 642.0 26.0 Q 648.0 13.0 659.0 6.5 Q 670.0 0.0 682.0 0.0 Q 693.0 1.0 703.5 7.5 Q 714.0 14.0 718.0 26.0 L 931.0 646.0 Q 933.0 654.0 933.0 661.0 Q 933.0 681.0 919.5 692.0 Q 906.0 703.0 890.0 703.0 Z" fill="#2c2c2c"/></g>
    <g transform="translate(25.522, 65.500) scale(0.002000, -0.002000)"><path d="M 606.0 700.0 Q 590.0 700.0 579.5 689.5 Q 569.0 679.0 569.0 663.0 V 145.2 L 160.0 686.0 Q 155.0 693.0 145.5 696.5 Q 136.0 700.0 127.0 700.0 Q 111.0 700.0 99.5 689.0 Q 88.0 678.0 88.0 660.0 V 37.0 Q 88.0 21.0 98.0 10.5 Q 108.0 0.0 124.0 0.0 Q 141.0 0.0 151.5 10.5 Q 162.0 21.0 162.0 37.0 V 552.6 L 570.0 13.0 Q 575.0 7.0 584.0 3.5 Q 593.0 0.0 602.0 0.0 Q 619.0 0.0 631.0 11.5 Q 643.0 23.0 643.0 42.0 V 663.0 Q 643.0 679.0 633.0 689.5 Q 623.0 700.0 606.0 700.0 Z" fill="#2c2c2c"/></g>
    <g transform="translate(27.532, 65.500) scale(0.002000, -0.002000)"><path d="M 592.0 654.0 Q 551.0 680.0 501.5 694.0 Q 452.0 708.0 400.0 708.0 Q 325.0 708.0 260.5 681.0 Q 196.0 654.0 147.5 606.0 Q 99.0 558.0 72.0 493.0 Q 45.0 428.0 45.0 350.0 Q 45.0 267.0 73.5 200.5 Q 102.0 134.0 151.0 87.0 Q 200.0 40.0 264.0 15.0 Q 328.0 -10.0 400.0 -10.0 Q 435.0 -10.0 469.5 -3.0 Q 504.0 4.0 536.0 16.5 Q 568.0 29.0 593.0 44.0 Q 609.0 52.0 612.0 69.5 Q 615.0 87.0 603.0 103.0 Q 593.0 115.0 579.0 117.0 Q 565.0 119.0 551.0 112.0 Q 517.0 91.0 479.0 80.0 Q 441.0 69.0 400.0 69.0 Q 343.0 69.0 294.5 88.0 Q 246.0 107.0 209.5 143.5 Q 173.0 180.0 152.0 232.0 Q 131.0 284.0 131.0 350.0 Q 131.0 412.0 151.0 463.0 Q 171.0 514.0 207.0 551.0 Q 243.0 588.0 292.0 608.5 Q 341.0 629.0 400.0 629.0 Q 442.0 629.0 480.0 617.5 Q 518.0 606.0 551.0 586.0 Q 565.0 579.0 579.0 580.0 Q 593.0 581.0 602.0 594.0 Q 614.0 609.0 611.5 627.0 Q 609.0 645.0 592.0 654.0 Z" fill="#2c2c2c"/></g>
    <g transform="translate(28.822, 65.500) scale(0.002000, -0.002000)"><path d="M 596.0 701.0 Q 571.0 701.0 559.0 676.0 L 339.3 131.9 L 112.0 674.0 Q 100.0 702.0 73.0 702.0 Q 60.0 702.0 46.5 691.5 Q 33.0 681.0 33.0 662.0 Q 33.0 657.0 34.0 652.5 Q 35.0 648.0 37.0 644.0 L 297.0 26.0 Q 302.0 14.0 312.0 7.5 Q 322.0 1.0 333.0 0.0 Q 345.0 0.0 355.5 6.5 Q 366.0 13.0 372.0 26.0 L 633.0 645.0 Q 637.0 655.0 637.0 663.0 Q 637.0 680.0 625.0 690.5 Q 613.0 701.0 596.0 701.0 Z" fill="#2c2c2c"/></g>
  <!-- Label: "UP CV IN" -->
    <g transform="translate(21.238, 82.500) scale(0.002000, -0.002000)"><path d="M 584.0 701.0 Q 566.0 701.0 556.0 689.0 Q 546.0 677.0 546.0 660.0 V 263.0 Q 546.0 208.0 519.5 165.0 Q 493.0 122.0 450.0 97.5 Q 407.0 73.0 356.0 73.0 Q 306.0 73.0 263.5 97.5 Q 221.0 122.0 196.0 165.0 Q 171.0 208.0 171.0 263.0 V 660.0 Q 171.0 677.0 158.5 689.0 Q 146.0 701.0 130.0 701.0 Q 111.0 701.0 99.5 689.0 Q 88.0 677.0 88.0 660.0 V 263.0 Q 88.0 186.0 123.0 125.0 Q 158.0 64.0 218.5 28.5 Q 279.0 -7.0 356.0 -7.0 Q 432.0 -7.0 492.0 28.5 Q 552.0 64.0 587.5 125.0 Q 623.0 186.0 623.0 263.0 V 660.0 Q 623.0 677.0 612.0 689.0 Q 601.0 701.0 584.0 701.0 Z" fill="#2c2c2c"/></g>
    <g transform="translate(22.658, 82.500) scale(0.002000, -0.002000)"><path d="M 362.0 700.0 H 128.0 Q 111.0 700.0 99.5 688.5 Q 88.0 677.0 88.0 660.0 V 41.0 Q 88.0 24.0 98.5 12.0 Q 109.0 0.0 127.0 0.0 Q 144.0 0.0 155.0 12.0 Q 166.0 24.0 166.0 41.0 V 281.0 H 362.0 Q 417.0 281.0 461.0 309.0 Q 505.0 337.0 530.5 385.0 Q 556.0 433.0 556.0 492.0 Q 556.0 552.0 530.5 599.0 Q 505.0 646.0 461.0 673.0 Q 417.0 700.0 362.0 700.0 Z M 362.0 358.0 H 166.0 V 623.0 H 362.0 Q 395.0 623.0 420.0 605.5 Q 445.0 588.0 460.0 559.0 Q 475.0 530.0 475.0 492.0 Q 475.0 456.0 460.0 425.0 Q 445.0 394.0 420.0 376.0 Q 395.0 358.0 362.0 358.0 Z" fill="#2c2c2c"/></g>
    <g transform="translate(24.406, 82.500) scale(0.002000, -0.002000)"><path d="M 592.0 654.0 Q 551.0 680.0 501.5 694.0 Q 452.0 708.0 400.0 708.0 Q 325.0 708.0 260.5 681.0 Q 196.0 654.0 147.5 606.0 Q 99.0 558.0 72.0 493.0 Q 45.0 428.0 45.0 350.0 Q 45.0 267.0 73.5 200.5 Q 102.0 134.0 151.0 87.0 Q 200.0 40.0 264.0 15.0 Q 328.0 -10.0 400.0 -10.0 Q 435.0 -10.0 469.5 -3.0 Q 504.0 4.0 536.0 16.5 Q 568.0 29.0 593.0 44.0 Q 609.0 52.0 612.0 69.5 Q 615.0 87.0 603.0 103.0 Q 593.0 115.0 579.0 117.0 Q 565.0 119.0 551.0 112.0 Q 517.0 91.0 479.0 80.0 Q 441.0 69.0 400.0 69.0 Q 343.0 69.0 294.5 88.0 Q 246.0 107.0 209.5 143.5 Q 173.0 180.0 152.0 232.0 Q 131.0 284.0 131.0 350.0 Q 131.0 412.0 151.0 463.0 Q 171.0 514.0 207.0 551.0 Q 243.0 588.0 292.0 608.5 Q 341.0 629.0 400.0 629.0 Q 442.0 629.0 480.0 617.5 Q 518.0 606.0 551.0 586.0 Q 565.0 579.0 579.0 580.0 Q 593.0 581.0 602.0 594.0 Q 614.0 609.0 611.5 627.0 Q 609.0 645.0 592.0 654.0 Z" fill="#2c2c2c"/></g>
    <g transform="translate(25.696, 82.500) scale(0.002000, -0.002000)"><path d="M 596.0 701.0 Q 571.0 701.0 559.0 676.0 L 339.3 131.9 L 112.0 674.0 Q 100.0 702.0 73.0 702.0 Q 60.0 702.0 46.5 691.5 Q 33.0 681.0 33.0 662.0 Q 33.0 657.0 34.0 652.5 Q 35.0 648.0 37.0 644.0 L 297.0 26.0 Q 302.0 14.0 312.0 7.5 Q 322.0 1.0 333.0 0.0 Q 345.0 0.0 355.5 6.5 Q 366.0 13.0 372.0 26.0 L 633.0 645.0 Q 637.0 655.0 637.0 663.0 Q 637.0 680.0 625.0 690.5 Q 613.0 701.0 596.0 701.0 Z" fill="#2c2c2c"/></g>
    <g transform="translate(27.584, 82.500) scale(0.002000, -0.002000)"><path d="M 171.0 41.0 V 659.0 Q 171.0 677.0 159.0 688.5 Q 147.0 700.0 130.0 700.0 Q 112.0 700.0 100.0 688.5 Q 88.0 677.0 88.0 659.0 V 41.0 Q 88.0 24.0 99.0 12.0 Q 110.0 0.0 129.0 0.0 Q 146.0 0.0 158.5 12.0 Q 171.0 24.0 171.0 41.0 Z" fill="#2c2c2c"/></g>
    <g transform="translate(28.102, 82.500) scale(0.002000, -0.002000)"><path d="M 606.0 700.0 Q 590.0 700.0 579.5 689.5 Q 569.0 679.0 569.0 663.0 V 145.2 L 160.0 686.0 Q 155.0 693.0 145.5 696.5 Q 136.0 700.0 127.0 700.0 Q 111.0 700.0 99.5 689.0 Q 88.0 678.0 88.0 660.0 V 37.0 Q 88.0 21.0 98.0 10.5 Q 108.0 0.0 124.0 0.0 Q 141.0 0.0 151.5 10.5 Q 162.0 21.0 162.0 37.0 V 552.6 L 570.0 13.0 Q 575.0 7.0 584.0 3.5 Q 593.0 0.0 602.0 0.0 Q 619.0 0.0 631.0 11.5 Q 643.0 23.0 643.0 42.0 V 663.0 Q 643.0 679.0 633.0 689.5 Q 623.0 700.0 606.0 700.0 Z" fill="#2c2c2c"/></g>
  <!-- Label: "DOWN CV IN" -->
    <g transform="translate(19.376, 93.800) scale(0.002000, -0.002000)"><path d="M 378.0 700.0 H 128.0 Q 111.0 700.0 99.5 688.5 Q 88.0 677.0 88.0 660.0 V 41.0 Q 88.0 24.0 99.5 12.0 Q 111.0 0.0 128.0 0.0 H 378.0 Q 477.0 0.0 542.0 47.5 Q 607.0 95.0 640.0 174.5 Q 673.0 254.0 673.0 350.0 Q 673.0 420.0 654.5 483.5 Q 636.0 547.0 599.0 596.0 Q 562.0 645.0 506.5 672.5 Q 451.0 700.0 378.0 700.0 Z M 368.0 78.0 H 171.0 V 623.0 H 368.0 Q 426.0 623.0 467.5 601.0 Q 509.0 579.0 535.5 541.0 Q 562.0 503.0 574.5 453.5 Q 587.0 404.0 587.0 350.0 Q 587.0 276.0 564.5 214.0 Q 542.0 152.0 493.5 115.0 Q 445.0 78.0 368.0 78.0 Z" fill="#2c2c2c"/></g>
    <g transform="translate(20.812, 93.800) scale(0.002000, -0.002000)"><path d="M 719.0 350.0 Q 719.0 428.0 694.0 493.5 Q 669.0 559.0 624.0 607.5 Q 579.0 656.0 517.0 683.0 Q 455.0 710.0 382.0 710.0 Q 308.0 710.0 246.5 683.0 Q 185.0 656.0 140.0 607.5 Q 95.0 559.0 70.0 493.5 Q 45.0 428.0 45.0 350.0 Q 45.0 273.0 70.0 207.5 Q 95.0 142.0 140.0 93.0 Q 185.0 44.0 246.5 17.0 Q 308.0 -10.0 382.0 -10.0 Q 455.0 -10.0 517.0 17.0 Q 579.0 44.0 624.0 93.0 Q 669.0 142.0 694.0 207.5 Q 719.0 273.0 719.0 350.0 Z M 633.0 350.0 Q 633.0 269.0 600.5 205.5 Q 568.0 142.0 512.0 106.0 Q 456.0 70.0 382.0 70.0 Q 308.0 70.0 251.5 106.0 Q 195.0 142.0 163.0 205.5 Q 131.0 269.0 131.0 350.0 Q 131.0 432.0 163.0 495.0 Q 195.0 558.0 251.5 594.0 Q 308.0 630.0 382.0 630.0 Q 456.0 630.0 512.0 594.0 Q 568.0 558.0 600.5 495.0 Q 633.0 432.0 633.0 350.0 Z" fill="#2c2c2c"/></g>
    <g transform="translate(22.340, 93.800) scale(0.002000, -0.002000)"><path d="M 890.0 703.0 Q 877.0 703.0 866.0 696.0 Q 855.0 689.0 851.0 677.0 L 671.4 145.0 L 519.0 528.0 Q 515.0 540.0 504.5 547.0 Q 494.0 554.0 482.0 554.0 Q 469.0 554.0 459.0 547.0 Q 449.0 540.0 444.0 528.0 L 288.6 143.8 L 108.0 677.0 Q 104.0 689.0 93.0 696.0 Q 82.0 703.0 70.0 703.0 Q 55.0 703.0 40.5 691.5 Q 26.0 680.0 26.0 660.0 Q 26.0 654.0 28.0 646.0 L 241.0 26.0 Q 245.0 14.0 255.5 7.5 Q 266.0 1.0 277.0 0.0 Q 289.0 0.0 300.0 6.5 Q 311.0 13.0 317.0 26.0 L 479.6 418.8 L 642.0 26.0 Q 648.0 13.0 659.0 6.5 Q 670.0 0.0 682.0 0.0 Q 693.0 1.0 703.5 7.5 Q 714.0 14.0 718.0 26.0 L 931.0 646.0 Q 933.0 654.0 933.0 661.0 Q 933.0 681.0 919.5 692.0 Q 906.0 703.0 890.0 703.0 Z" fill="#2c2c2c"/></g>
    <g transform="translate(24.258, 93.800) scale(0.002000, -0.002000)"><path d="M 606.0 700.0 Q 590.0 700.0 579.5 689.5 Q 569.0 679.0 569.0 663.0 V 145.2 L 160.0 686.0 Q 155.0 693.0 145.5 696.5 Q 136.0 700.0 127.0 700.0 Q 111.0 700.0 99.5 689.0 Q 88.0 678.0 88.0 660.0 V 37.0 Q 88.0 21.0 98.0 10.5 Q 108.0 0.0 124.0 0.0 Q 141.0 0.0 151.5 10.5 Q 162.0 21.0 162.0 37.0 V 552.6 L 570.0 13.0 Q 575.0 7.0 584.0 3.5 Q 593.0 0.0 602.0 0.0 Q 619.0 0.0 631.0 11.5 Q 643.0 23.0 643.0 42.0 V 663.0 Q 643.0 679.0 633.0 689.5 Q 623.0 700.0 606.0 700.0 Z" fill="#2c2c2c"/></g>
    <g transform="translate(26.268, 93.800) scale(0.002000, -0.002000)"><path d="M 592.0 654.0 Q 551.0 680.0 501.5 694.0 Q 452.0 708.0 400.0 708.0 Q 325.0 708.0 260.5 681.0 Q 196.0 654.0 147.5 606.0 Q 99.0 558.0 72.0 493.0 Q 45.0 428.0 45.0 350.0 Q 45.0 267.0 73.5 200.5 Q 102.0 134.0 151.0 87.0 Q 200.0 40.0 264.0 15.0 Q 328.0 -10.0 400.0 -10.0 Q 435.0 -10.0 469.5 -3.0 Q 504.0 4.0 536.0 16.5 Q 568.0 29.0 593.0 44.0 Q 609.0 52.0 612.0 69.5 Q 615.0 87.0 603.0 103.0 Q 593.0 115.0 579.0 117.0 Q 565.0 119.0 551.0 112.0 Q 517.0 91.0 479.0 80.0 Q 441.0 69.0 400.0 69.0 Q 343.0 69.0 294.5 88.0 Q 246.0 107.0 209.5 143.5 Q 173.0 180.0 152.0 232.0 Q 131.0 284.0 131.0 350.0 Q 131.0 412.0 151.0 463.0 Q 171.0 514.0 207.0 551.0 Q 243.0 588.0 292.0 608.5 Q 341.0 629.0 400.0 629.0 Q 442.0 629.0 480.0 617.5 Q 518.0 606.0 551.0 586.0 Q 565.0 579.0 579.0 580.0 Q 593.0 581.0 602.0 594.0 Q 614.0 609.0 611.5 627.0 Q 609.0 645.0 592.0 654.0 Z" fill="#2c2c2c"/></g>
    <g transform="translate(27.558, 93.800) scale(0.002000, -0.002000)"><path d="M 596.0 701.0 Q 571.0 701.0 559.0 676.0 L 339.3 131.9 L 112.0 674.0 Q 100.0 702.0 73.0 702.0 Q 60.0 702.0 46.5 691.5 Q 33.0 681.0 33.0 662.0 Q 33.0 657.0 34.0 652.5 Q 35.0 648.0 37.0 644.0 L 297.0 26.0 Q 302.0 14.0 312.0 7.5 Q 322.0 1.0 333.0 0.0 Q 345.0 0.0 355.5 6.5 Q 366.0 13.0 372.0 26.0 L 633.0 645.0 Q 637.0 655.0 637.0 663.0 Q 637.0 680.0 625.0 690.5 Q 613.0 701.0 596.0 701.0 Z" fill="#2c2c2c"/></g>
    <g transform="translate(29.446, 93.800) scale(0.002000, -0.002000)"><path d="M 171.0 41.0 V 659.0 Q 171.0 677.0 159.0 688.5 Q 147.0 700.0 130.0 700.0 Q 112.0 700.0 100.0 688.5 Q 88.0 677.0 88.0 659.0 V 41.0 Q 88.0 24.0 99.0 12.0 Q 110.0 0.0 129.0 0.0 Q 146.0 0.0 158.5 12.0 Q 171.0 24.0 171.0 41.0 Z" fill="#2c2c2c"/></g>
    <g transform="translate(29.964, 93.800) scale(0.002000, -0.002000)"><path d="M 606.0 700.0 Q 590.0 700.0 579.5 689.5 Q 569.0 679.0 569.0 663.0 V 145.2 L 160.0 686.0 Q 155.0 693.0 145.5 696.5 Q 136.0 700.0 127.0 700.0 Q 111.0 700.0 99.5 689.0 Q 88.0 678.0 88.0 660.0 V 37.0 Q 88.0 21.0 98.0 10.5 Q 108.0 0.0 124.0 0.0 Q 141.0 0.0 151.5 10.5 Q 162.0 21.0 162.0 37.0 V 552.6 L 570.0 13.0 Q 575.0 7.0 584.0 3.5 Q 593.0 0.0 602.0 0.0 Q 619.0 0.0 631.0 11.5 Q 643.0 23.0 643.0 42.0 V 663.0 Q 643.0 679.0 633.0 689.5 Q 623.0 700.0 606.0 700.0 Z" fill="#2c2c2c"/></g>
  <!-- Label: "UP GATE" -->
    <g transform="translate(6.591, 103.800) scale(0.002000, -0.002000)"><path d="M 584.0 701.0 Q 566.0 701.0 556.0 689.0 Q 546.0 677.0 546.0 660.0 V 263.0 Q 546.0 208.0 519.5 165.0 Q 493.0 122.0 450.0 97.5 Q 407.0 73.0 356.0 73.0 Q 306.0 73.0 263.5 97.5 Q 221.0 122.0 196.0 165.0 Q 171.0 208.0 171.0 263.0 V 660.0 Q 171.0 677.0 158.5 689.0 Q 146.0 701.0 130.0 701.0 Q 111.0 701.0 99.5 689.0 Q 88.0 677.0 88.0 660.0 V 263.0 Q 88.0 186.0 123.0 125.0 Q 158.0 64.0 218.5 28.5 Q 279.0 -7.0 356.0 -7.0 Q 432.0 -7.0 492.0 28.5 Q 552.0 64.0 587.5 125.0 Q 623.0 186.0 623.0 263.0 V 660.0 Q 623.0 677.0 612.0 689.0 Q 601.0 701.0 584.0 701.0 Z" fill="#2c2c2c"/></g>
    <g transform="translate(8.011, 103.800) scale(0.002000, -0.002000)"><path d="M 362.0 700.0 H 128.0 Q 111.0 700.0 99.5 688.5 Q 88.0 677.0 88.0 660.0 V 41.0 Q 88.0 24.0 98.5 12.0 Q 109.0 0.0 127.0 0.0 Q 144.0 0.0 155.0 12.0 Q 166.0 24.0 166.0 41.0 V 281.0 H 362.0 Q 417.0 281.0 461.0 309.0 Q 505.0 337.0 530.5 385.0 Q 556.0 433.0 556.0 492.0 Q 556.0 552.0 530.5 599.0 Q 505.0 646.0 461.0 673.0 Q 417.0 700.0 362.0 700.0 Z M 362.0 358.0 H 166.0 V 623.0 H 362.0 Q 395.0 623.0 420.0 605.5 Q 445.0 588.0 460.0 559.0 Q 475.0 530.0 475.0 492.0 Q 475.0 456.0 460.0 425.0 Q 445.0 394.0 420.0 376.0 Q 395.0 358.0 362.0 358.0 Z" fill="#2c2c2c"/></g>
  <!-- Label: "EOU TRIG" -->
    <g transform="translate(17.523, 103.800) scale(0.002000, -0.002000)"><path d="M 128.0 700.0 Q 111.0 700.0 99.5 688.5 Q 88.0 677.0 88.0 660.0 V 41.0 Q 88.0 24.0 99.5 12.0 Q 111.0 0.0 128.0 0.0 H 484.0 Q 501.0 0.0 513.0 11.0 Q 525.0 22.0 525.0 39.0 Q 525.0 54.0 513.0 66.0 Q 501.0 78.0 484.0 78.0 H 171.0 V 321.0 H 439.0 Q 456.0 321.0 468.0 331.5 Q 480.0 342.0 480.0 359.0 Q 480.0 376.0 468.0 387.0 Q 456.0 398.0 439.0 398.0 H 171.0 V 623.0 H 484.0 Q 501.0 623.0 513.0 633.5 Q 525.0 644.0 525.0 661.0 Q 525.0 678.0 513.0 689.0 Q 501.0 700.0 484.0 700.0 Z" fill="#2c2c2c"/></g>
    <g transform="translate(18.663, 103.800) scale(0.002000, -0.002000)"><path d="M 719.0 350.0 Q 719.0 428.0 694.0 493.5 Q 669.0 559.0 624.0 607.5 Q 579.0 656.0 517.0 683.0 Q 455.0 710.0 382.0 710.0 Q 308.0 710.0 246.5 683.0 Q 185.0 656.0 140.0 607.5 Q 95.0 559.0 70.0 493.5 Q 45.0 428.0 45.0 350.0 Q 45.0 273.0 70.0 207.5 Q 95.0 142.0 140.0 93.0 Q 185.0 44.0 246.5 17.0 Q 308.0 -10.0 382.0 -10.0 Q 455.0 -10.0 517.0 17.0 Q 579.0 44.0 624.0 93.0 Q 669.0 142.0 694.0 207.5 Q 719.0 273.0 719.0 350.0 Z M 633.0 350.0 Q 633.0 269.0 600.5 205.5 Q 568.0 142.0 512.0 106.0 Q 456.0 70.0 382.0 70.0 Q 308.0 70.0 251.5 106.0 Q 195.0 142.0 163.0 205.5 Q 131.0 269.0 131.0 350.0 Q 131.0 432.0 163.0 495.0 Q 195.0 558.0 251.5 594.0 Q 308.0 630.0 382.0 630.0 Q 456.0 630.0 512.0 594.0 Q 568.0 558.0 600.5 495.0 Q 633.0 432.0 633.0 350.0 Z" fill="#2c2c2c"/></g>
    <g transform="translate(20.191, 103.800) scale(0.002000, -0.002000)"><path d="M 584.0 701.0 Q 566.0 701.0 556.0 689.0 Q 546.0 677.0 546.0 660.0 V 263.0 Q 546.0 208.0 519.5 165.0 Q 493.0 122.0 450.0 97.5 Q 407.0 73.0 356.0 73.0 Q 306.0 73.0 263.5 97.5 Q 221.0 122.0 196.0 165.0 Q 171.0 208.0 171.0 263.0 V 660.0 Q 171.0 677.0 158.5 689.0 Q 146.0 701.0 130.0 701.0 Q 111.0 701.0 99.5 689.0 Q 88.0 677.0 88.0 660.0 V 263.0 Q 88.0 186.0 123.0 125.0 Q 158.0 64.0 218.5 28.5 Q 279.0 -7.0 356.0 -7.0 Q 432.0 -7.0 492.0 28.5 Q 552.0 64.0 587.5 125.0 Q 623.0 186.0 623.0 263.0 V 660.0 Q 623.0 677.0 612.0 689.0 Q 601.0 701.0 584.0 701.0 Z" fill="#2c2c2c"/></g>
  <!-- Label: "DOWN GATE" -->
    <g transform="translate(28.062, 103.800) scale(0.002000, -0.002000)"><path d="M 378.0 700.0 H 128.0 Q 111.0 700.0 99.5 688.5 Q 88.0 677.0 88.0 660.0 V 41.0 Q 88.0 24.0 99.5 12.0 Q 111.0 0.0 128.0 0.0 H 378.0 Q 477.0 0.0 542.0 47.5 Q 607.0 95.0 640.0 174.5 Q 673.0 254.0 673.0 350.0 Q 673.0 420.0 654.5 483.5 Q 636.0 547.0 599.0 596.0 Q 562.0 645.0 506.5 672.5 Q 451.0 700.0 378.0 700.0 Z M 368.0 78.0 H 171.0 V 623.0 H 368.0 Q 426.0 623.0 467.5 601.0 Q 509.0 579.0 535.5 541.0 Q 562.0 503.0 574.5 453.5 Q 587.0 404.0 587.0 350.0 Q 587.0 276.0 564.5 214.0 Q 542.0 152.0 493.5 115.0 Q 445.0 78.0 368.0 78.0 Z" fill="#2c2c2c"/></g>
    <g transform="translate(29.498, 103.800) scale(0.002000, -0.002000)"><path d="M 719.0 350.0 Q 719.0 428.0 694.0 493.5 Q 669.0 559.0 624.0 607.5 Q 579.0 656.0 517.0 683.0 Q 455.0 710.0 382.0 710.0 Q 308.0 710.0 246.5 683.0 Q 185.0 656.0 140.0 607.5 Q 95.0 559.0 70.0 493.5 Q 45.0 428.0 45.0 350.0 Q 45.0 273.0 70.0 207.5 Q 95.0 142.0 140.0 93.0 Q 185.0 44.0 246.5 17.0 Q 308.0 -10.0 382.0 -10.0 Q 455.0 -10.0 517.0 17.0 Q 579.0 44.0 624.0 93.0 Q 669.0 142.0 694.0 207.5 Q 719.0 273.0 719.0 350.0 Z M 633.0 350.0 Q 633.0 269.0 600.5 205.5 Q 568.0 142.0 512.0 106.0 Q 456.0 70.0 382.0 70.0 Q 308.0 70.0 251.5 106.0 Q 195.0 142.0 163.0 205.5 Q 131.0 269.0 131.0 350.0 Q 131.0 432.0 163.0 495.0 Q 195.0 558.0 251.5 594.0 Q 308.0 630.0 382.0 630.0 Q 456.0 630.0 512.0 594.0 Q 568.0 558.0 600.5 495.0 Q 633.0 432.0 633.0 350.0 Z" fill="#2c2c2c"/></g>
    <g transform="translate(31.026, 103.800) scale(0.002000, -0.002000)"><path d="M 890.0 703.0 Q 877.0 703.0 866.0 696.0 Q 855.0 689.0 851.0 677.0 L 671.4 145.0 L 519.0 528.0 Q 515.0 540.0 504.5 547.0 Q 494.0 554.0 482.0 554.0 Q 469.0 554.0 459.0 547.0 Q 449.0 540.0 444.0 528.0 L 288.6 143.8 L 108.0 677.0 Q 104.0 689.0 93.0 696.0 Q 82.0 703.0 70.0 703.0 Q 55.0 703.0 40.5 691.5 Q 26.0 680.0 26.0 660.0 Q 26.0 654.0 28.0 646.0 L 241.0 26.0 Q 245.0 14.0 255.5 7.5 Q 266.0 1.0 277.0 0.0 Q 289.0 0.0 300.0 6.5 Q 311.0 13.0 317.0 26.0 L 479.6 418.8 L 642.0 26.0 Q 648.0 13.0 659.0 6.5 Q 670.0 0.0 682.0 0.0 Q 693.0 1.0 703.5 7.5 Q 714.0 14.0 718.0 26.0 L 931.0 646.0 Q 933.0 654.0 933.0 661.0 Q 933.0 681.0 919.5 692.0 Q 906.0 703.0 890.0 703.0 Z" fill="#2c2c2c"/></g>
    <g transform="translate(32.944, 103.800) scale(0.002000, -0.002000)"><path d="M 606.0 700.0 Q 590.0 700.0 579.5 689.5 Q 569.0 679.0 569.0 663.0 V 145.2 L 160.0 686.0 Q 155.0 693.0 145.5 696.5 Q 136.0 700.0 127.0 700.0 Q 111.0 700.0 99.5 689.0 Q 88.0 678.0 88.0 660.0 V 37.0 Q 88.0 21.0 98.0 10.5 Q 108.0 0.0 124.0 0.0 Q 141.0 0.0 151.5 10.5 Q 162.0 21.0 162.0 37.0 V 552.6 L 570.0 13.0 Q 575.0 7.0 584.0 3.5 Q 593.0 0.0 602.0 0.0 Q 619.0 0.0 631.0 11.5 Q 643.0 23.0 643.0 42.0 V 663.0 Q 643.0 679.0 633.0 689.5 Q 623.0 700.0 606.0 700.0 Z" fill="#2c2c2c"/></g>
  <!-- Label: "EOD TRIG" -->
    <g transform="translate(40.848, 103.800) scale(0.002000, -0.002000)"><path d="M 128.0 700.0 Q 111.0 700.0 99.5 688.5 Q 88.0 677.0 88.0 660.0 V 41.0 Q 88.0 24.0 99.5 12.0 Q 111.0 0.0 128.0 0.0 H 484.0 Q 501.0 0.0 513.0 11.0 Q 525.0 22.0 525.0 39.0 Q 525.0 54.0 513.0 66.0 Q 501.0 78.0 484.0 78.0 H 171.0 V 321.0 H 439.0 Q 456.0 321.0 468.0 331.5 Q 480.0 342.0 480.0 359.0 Q 480.0 376.0 468.0 387.0 Q 456.0 398.0 439.0 398.0 H 171.0 V 623.0 H 484.0 Q 501.0 623.0 513.0 633.5 Q 525.0 644.0 525.0 661.0 Q 525.0 678.0 513.0 689.0 Q 501.0 700.0 484.0 700.0 Z" fill="#2c2c2c"/></g>
    <g transform="translate(41.988, 103.800) scale(0.002000, -0.002000)"><path d="M 719.0 350.0 Q 719.0 428.0 694.0 493.5 Q 669.0 559.0 624.0 607.5 Q 579.0 656.0 517.0 683.0 Q 455.0 710.0 382.0 710.0 Q 308.0 710.0 246.5 683.0 Q 185.0 656.0 140.0 607.5 Q 95.0 559.0 70.0 493.5 Q 45.0 428.0 45.0 350.0 Q 45.0 273.0 70.0 207.5 Q 95.0 142.0 140.0 93.0 Q 185.0 44.0 246.5 17.0 Q 308.0 -10.0 382.0 -10.0 Q 455.0 -10.0 517.0 17.0 Q 579.0 44.0 624.0 93.0 Q 669.0 142.0 694.0 207.5 Q 719.0 273.0 719.0 350.0 Z M 633.0 350.0 Q 633.0 269.0 600.5 205.5 Q 568.0 142.0 512.0 106.0 Q 456.0 70.0 382.0 70.0 Q 308.0 70.0 251.5 106.0 Q 195.0 142.0 163.0 205.5 Q 131.0 269.0 131.0 350.0 Q 131.0 432.0 163.0 495.0 Q 195.0 558.0 251.5 594.0 Q 308.0 630.0 382.0 630.0 Q 456.0 630.0 512.0 594.0 Q 568.0 558.0 600.5 495.0 Q 633.0 432.0 633.0 350.0 Z" fill="#2c2c2c"/></g>
    <g transform="translate(43.516, 103.800) scale(0.002000, -0.002000)"><path d="M 378.0 700.0 H 128.0 Q 111.0 700.0 99.5 688.5 Q 88.0 677.0 88.0 660.0 V 41.0 Q 88.0 24.0 99.5 12.0 Q 111.0 0.0 128.0 0.0 H 378.0 Q 477.0 0.0 542.0 47.5 Q 607.0 95.0 640.0 174.5 Q 673.0 254.0 673.0 350.0 Q 673.0 420.0 654.5 483.5 Q 636.0 547.0 599.0 596.0 Q 562.0 645.0 506.5 672.5 Q 451.0 700.0 378.0 700.0 Z M 368.0 78.0 H 171.0 V 623.0 H 368.0 Q 426.0 623.0 467.5 601.0 Q 509.0 579.0 535.5 541.0 Q 562.0 503.0 574.5 453.5 Q 587.0 404.0 587.0 350.0 Q 587.0 276.0 564.5 214.0 Q 542.0 152.0 493.5 115.0 Q 445.0 78.0 368.0 78.0 Z" fill="#2c2c2c"/></g>
  <!-- Label: "IN JACK" -->
    <g transform="translate(6.812, 113.300) scale(0.002200, -0.002200)"><path d="M 171.0 41.0 V 659.0 Q 171.0 677.0 159.0 688.5 Q 147.0 700.0 130.0 700.0 Q 112.0 700.0 100.0 688.5 Q 88.0 677.0 88.0 659.0 V 41.0 Q 88.0 24.0 99.0 12.0 Q 110.0 0.0 129.0 0.0 Q 146.0 0.0 158.5 12.0 Q 171.0 24.0 171.0 41.0 Z" fill="#1c1c1c"/></g>
    <g transform="translate(7.382, 113.300) scale(0.002200, -0.002200)"><path d="M 606.0 700.0 Q 590.0 700.0 579.5 689.5 Q 569.0 679.0 569.0 663.0 V 145.2 L 160.0 686.0 Q 155.0 693.0 145.5 696.5 Q 136.0 700.0 127.0 700.0 Q 111.0 700.0 99.5 689.0 Q 88.0 678.0 88.0 660.0 V 37.0 Q 88.0 21.0 98.0 10.5 Q 108.0 0.0 124.0 0.0 Q 141.0 0.0 151.5 10.5 Q 162.0 21.0 162.0 37.0 V 552.6 L 570.0 13.0 Q 575.0 7.0 584.0 3.5 Q 593.0 0.0 602.0 0.0 Q 619.0 0.0 631.0 11.5 Q 643.0 23.0 643.0 42.0 V 663.0 Q 643.0 679.0 633.0 689.5 Q 623.0 700.0 606.0 700.0 Z" fill="#1c1c1c"/></g>
  <!-- Label: "SLEW JACK" -->
    <g transform="translate(16.657, 113.300) scale(0.002200, -0.002200)"><path d="M 292.0 -10.0 Q 359.0 -9.0 412.5 15.5 Q 466.0 40.0 497.0 83.0 Q 528.0 126.0 528.0 181.0 Q 528.0 233.0 511.5 268.5 Q 495.0 304.0 465.0 327.0 Q 435.0 350.0 393.5 365.5 Q 352.0 381.0 303.0 393.0 Q 258.0 405.0 221.0 420.5 Q 184.0 436.0 162.0 460.5 Q 140.0 485.0 140.0 523.0 Q 140.0 557.0 159.5 581.5 Q 179.0 606.0 214.0 619.5 Q 249.0 633.0 295.0 633.0 Q 326.0 633.0 357.0 624.0 Q 388.0 615.0 414.0 600.0 Q 440.0 585.0 457.0 566.0 Q 466.0 558.0 477.0 558.0 Q 493.0 558.0 505.5 570.5 Q 518.0 583.0 518.0 598.0 Q 518.0 616.0 498.0 635.0 Q 465.0 670.0 410.5 690.0 Q 356.0 710.0 295.0 710.0 Q 226.0 710.0 173.0 686.5 Q 120.0 663.0 90.0 620.0 Q 60.0 577.0 60.0 520.0 Q 60.0 475.0 75.5 441.5 Q 91.0 408.0 119.0 384.5 Q 147.0 361.0 185.5 345.0 Q 224.0 329.0 270.0 318.0 Q 322.0 306.0 361.5 288.5 Q 401.0 271.0 423.5 245.0 Q 446.0 219.0 447.0 179.0 Q 447.0 146.0 426.0 121.0 Q 405.0 96.0 369.5 82.0 Q 334.0 68.0 290.0 68.0 Q 233.0 68.0 187.5 88.0 Q 142.0 108.0 103.0 146.0 Q 92.0 157.0 78.0 157.0 Q 61.0 157.0 49.5 144.5 Q 38.0 132.0 38.0 116.0 Q 38.0 106.0 42.5 97.5 Q 47.0 89.0 54.0 82.0 Q 106.0 34.0 162.0 12.0 Q 218.0 -10.0 292.0 -10.0 Z" fill="#1c1c1c"/></g>
    <g transform="translate(17.920, 113.300) scale(0.002200, -0.002200)"><path d="M 474.0 79.0 H 171.0 V 660.0 Q 171.0 677.0 159.0 688.5 Q 147.0 700.0 130.0 700.0 Q 112.0 700.0 100.0 688.5 Q 88.0 677.0 88.0 660.0 V 41.0 Q 88.0 24.0 99.5 12.0 Q 111.0 0.0 128.0 0.0 H 474.0 Q 491.0 0.0 503.0 11.0 Q 515.0 22.0 515.0 39.0 Q 515.0 56.0 503.0 67.5 Q 491.0 79.0 474.0 79.0 Z" fill="#1c1c1c"/></g>
    <g transform="translate(19.113, 113.300) scale(0.002200, -0.002200)"><path d="M 128.0 700.0 Q 111.0 700.0 99.5 688.5 Q 88.0 677.0 88.0 660.0 V 41.0 Q 88.0 24.0 99.5 12.0 Q 111.0 0.0 128.0 0.0 H 484.0 Q 501.0 0.0 513.0 11.0 Q 525.0 22.0 525.0 39.0 Q 525.0 54.0 513.0 66.0 Q 501.0 78.0 484.0 78.0 H 171.0 V 321.0 H 439.0 Q 456.0 321.0 468.0 331.5 Q 480.0 342.0 480.0 359.0 Q 480.0 376.0 468.0 387.0 Q 456.0 398.0 439.0 398.0 H 171.0 V 623.0 H 484.0 Q 501.0 623.0 513.0 633.5 Q 525.0 644.0 525.0 661.0 Q 525.0 678.0 513.0 689.0 Q 501.0 700.0 484.0 700.0 Z" fill="#1c1c1c"/></g>
    <g transform="translate(20.367, 113.300) scale(0.002200, -0.002200)"><path d="M 890.0 703.0 Q 877.0 703.0 866.0 696.0 Q 855.0 689.0 851.0 677.0 L 671.4 145.0 L 519.0 528.0 Q 515.0 540.0 504.5 547.0 Q 494.0 554.0 482.0 554.0 Q 469.0 554.0 459.0 547.0 Q 449.0 540.0 444.0 528.0 L 288.6 143.8 L 108.0 677.0 Q 104.0 689.0 93.0 696.0 Q 82.0 703.0 70.0 703.0 Q 55.0 703.0 40.5 691.5 Q 26.0 680.0 26.0 660.0 Q 26.0 654.0 28.0 646.0 L 241.0 26.0 Q 245.0 14.0 255.5 7.5 Q 266.0 1.0 277.0 0.0 Q 289.0 0.0 300.0 6.5 Q 311.0 13.0 317.0 26.0 L 479.6 418.8 L 642.0 26.0 Q 648.0 13.0 659.0 6.5 Q 670.0 0.0 682.0 0.0 Q 693.0 1.0 703.5 7.5 Q 714.0 14.0 718.0 26.0 L 931.0 646.0 Q 933.0 654.0 933.0 661.0 Q 933.0 681.0 919.5 692.0 Q 906.0 703.0 890.0 703.0 Z" fill="#1c1c1c"/></g>
  <!-- Label: "STEP JACK" -->
    <g transform="translate(28.644, 113.300) scale(0.002200, -0.002200)"><path d="M 292.0 -10.0 Q 359.0 -9.0 412.5 15.5 Q 466.0 40.0 497.0 83.0 Q 528.0 126.0 528.0 181.0 Q 528.0 233.0 511.5 268.5 Q 495.0 304.0 465.0 327.0 Q 435.0 350.0 393.5 365.5 Q 352.0 381.0 303.0 393.0 Q 258.0 405.0 221.0 420.5 Q 184.0 436.0 162.0 460.5 Q 140.0 485.0 140.0 523.0 Q 140.0 557.0 159.5 581.5 Q 179.0 606.0 214.0 619.5 Q 249.0 633.0 295.0 633.0 Q 326.0 633.0 357.0 624.0 Q 388.0 615.0 414.0 600.0 Q 440.0 585.0 457.0 566.0 Q 466.0 558.0 477.0 558.0 Q 493.0 558.0 505.5 570.5 Q 518.0 583.0 518.0 598.0 Q 518.0 616.0 498.0 635.0 Q 465.0 670.0 410.5 690.0 Q 356.0 710.0 295.0 710.0 Q 226.0 710.0 173.0 686.5 Q 120.0 663.0 90.0 620.0 Q 60.0 577.0 60.0 520.0 Q 60.0 475.0 75.5 441.5 Q 91.0 408.0 119.0 384.5 Q 147.0 361.0 185.5 345.0 Q 224.0 329.0 270.0 318.0 Q 322.0 306.0 361.5 288.5 Q 401.0 271.0 423.5 245.0 Q 446.0 219.0 447.0 179.0 Q 447.0 146.0 426.0 121.0 Q 405.0 96.0 369.5 82.0 Q 334.0 68.0 290.0 68.0 Q 233.0 68.0 187.5 88.0 Q 142.0 108.0 103.0 146.0 Q 92.0 157.0 78.0 157.0 Q 61.0 157.0 49.5 144.5 Q 38.0 132.0 38.0 116.0 Q 38.0 106.0 42.5 97.5 Q 47.0 89.0 54.0 82.0 Q 106.0 34.0 162.0 12.0 Q 218.0 -10.0 292.0 -10.0 Z" fill="#1c1c1c"/></g>
    <g transform="translate(29.906, 113.300) scale(0.002200, -0.002200)"><path d="M 305.0 0.0 Q 324.0 0.0 336.0 12.0 Q 348.0 24.0 348.0 41.0 V 624.0 H 538.0 Q 555.0 624.0 567.0 634.0 Q 579.0 644.0 579.0 662.0 Q 579.0 679.0 567.0 689.5 Q 555.0 700.0 538.0 700.0 H 73.0 Q 56.0 700.0 44.5 689.5 Q 33.0 679.0 33.0 662.0 Q 33.0 645.0 44.5 634.5 Q 56.0 624.0 73.0 624.0 H 263.0 V 41.0 Q 263.0 24.0 275.0 12.0 Q 287.0 0.0 305.0 0.0 Z" fill="#1c1c1c"/></g>
    <g transform="translate(31.251, 113.300) scale(0.002200, -0.002200)"><path d="M 128.0 700.0 Q 111.0 700.0 99.5 688.5 Q 88.0 677.0 88.0 660.0 V 41.0 Q 88.0 24.0 99.5 12.0 Q 111.0 0.0 128.0 0.0 H 484.0 Q 501.0 0.0 513.0 11.0 Q 525.0 22.0 525.0 39.0 Q 525.0 54.0 513.0 66.0 Q 501.0 78.0 484.0 78.0 H 171.0 V 321.0 H 439.0 Q 456.0 321.0 468.0 331.5 Q 480.0 342.0 480.0 359.0 Q 480.0 376.0 468.0 387.0 Q 456.0 398.0 439.0 398.0 H 171.0 V 623.0 H 484.0 Q 501.0 623.0 513.0 633.5 Q 525.0 644.0 525.0 661.0 Q 525.0 678.0 513.0 689.0 Q 501.0 700.0 484.0 700.0 Z" fill="#1c1c1c"/></g>
    <g transform="translate(32.505, 113.300) scale(0.002200, -0.002200)"><path d="M 362.0 700.0 H 128.0 Q 111.0 700.0 99.5 688.5 Q 88.0 677.0 88.0 660.0 V 41.0 Q 88.0 24.0 98.5 12.0 Q 109.0 0.0 127.0 0.0 Q 144.0 0.0 155.0 12.0 Q 166.0 24.0 166.0 41.0 V 281.0 H 362.0 Q 417.0 281.0 461.0 309.0 Q 505.0 337.0 530.5 385.0 Q 556.0 433.0 556.0 492.0 Q 556.0 552.0 530.5 599.0 Q 505.0 646.0 461.0 673.0 Q 417.0 700.0 362.0 700.0 Z M 362.0 358.0 H 166.0 V 623.0 H 362.0 Q 395.0 623.0 420.0 605.5 Q 445.0 588.0 460.0 559.0 Q 475.0 530.0 475.0 492.0 Q 475.0 456.0 460.0 425.0 Q 445.0 394.0 420.0 376.0 Q 395.0 358.0 362.0 358.0 Z" fill="#1c1c1c"/></g>
  <!-- Label: "STEP TRIG" -->
    <g transform="translate(40.435, 113.300) scale(0.002200, -0.002200)"><path d="M 305.0 0.0 Q 324.0 0.0 336.0 12.0 Q 348.0 24.0 348.0 41.0 V 624.0 H 538.0 Q 555.0 624.0 567.0 634.0 Q 579.0 644.0 579.0 662.0 Q 579.0 679.0 567.0 689.5 Q 555.0 700.0 538.0 700.0 H 73.0 Q 56.0 700.0 44.5 689.5 Q 33.0 679.0 33.0 662.0 Q 33.0 645.0 44.5 634.5 Q 56.0 624.0 73.0 624.0 H 263.0 V 41.0 Q 263.0 24.0 275.0 12.0 Q 287.0 0.0 305.0 0.0 Z" fill="#1c1c1c"/></g>
    <g transform="translate(41.779, 113.300) scale(0.002200, -0.002200)"><path d="M 134.0 0.0 Q 151.0 0.0 161.0 12.0 Q 171.0 24.0 171.0 41.0 V 284.0 H 382.0 Q 404.0 284.0 425.0 279.0 Q 446.0 274.0 463.0 261.0 Q 480.0 248.0 490.0 227.0 Q 500.0 206.0 500.0 174.0 Q 500.0 117.0 510.0 84.0 Q 520.0 51.0 535.0 33.5 Q 550.0 16.0 566.0 7.0 Q 574.0 2.0 585.0 1.0 Q 596.0 0.0 607.0 3.5 Q 618.0 7.0 624.0 16.0 Q 634.0 30.0 629.5 45.0 Q 625.0 60.0 611.0 69.0 Q 600.0 76.0 594.0 88.5 Q 588.0 101.0 585.0 123.0 Q 582.0 145.0 580.0 182.0 Q 579.0 224.0 562.0 255.5 Q 545.0 287.0 518.0 307.5 Q 504.8 317.5 489.9 324.6 Q 519.3 338.1 543.0 360.5 Q 571.0 387.0 587.0 423.5 Q 603.0 460.0 603.0 502.0 Q 603.0 560.0 576.5 604.5 Q 550.0 649.0 505.0 674.5 Q 460.0 700.0 404.0 700.0 H 128.0 Q 111.0 700.0 99.5 688.5 Q 88.0 677.0 88.0 660.0 V 41.0 Q 88.0 24.0 101.5 12.0 Q 115.0 0.0 134.0 0.0 Z M 171.0 356.0 V 623.0 H 399.0 Q 450.0 623.0 483.5 588.0 Q 517.0 553.0 517.0 500.0 Q 517.0 459.0 500.5 426.5 Q 484.0 394.0 458.5 376.0 Q 433.0 358.0 404.0 356.0 H 171.0 Z" fill="#1c1c1c"/></g>
    <g transform="translate(43.266, 113.300) scale(0.002200, -0.002200)"><path d="M 171.0 41.0 V 659.0 Q 171.0 677.0 159.0 688.5 Q 147.0 700.0 130.0 700.0 Q 112.0 700.0 100.0 688.5 Q 88.0 677.0 88.0 659.0 V 41.0 Q 88.0 24.0 99.0 12.0 Q 110.0 0.0 129.0 0.0 Q 146.0 0.0 158.5 12.0 Q 171.0 24.0 171.0 41.0 Z" fill="#1c1c1c"/></g>
    <g transform="translate(43.836, 113.300) scale(0.002200, -0.002200)"><path d="M 407.0 -10.0 Q 466.0 -10.0 520.5 7.5 Q 575.0 25.0 620.0 54.0 Q 629.0 60.0 634.5 69.0 Q 640.0 78.0 640.0 90.0 V 321.0 Q 640.0 338.0 629.0 350.0 Q 618.0 362.0 600.0 362.0 H 418.0 Q 401.0 362.0 389.5 350.5 Q 378.0 339.0 378.0 322.0 Q 378.0 305.0 389.5 293.5 Q 401.0 282.0 418.0 282.0 H 555.0 V 105.2 Q 527.2 90.7 489.5 81.0 Q 447.0 70.0 407.0 70.0 Q 328.0 70.0 265.5 107.0 Q 203.0 144.0 167.0 207.5 Q 131.0 271.0 131.0 350.0 Q 131.0 430.0 167.0 493.0 Q 203.0 556.0 265.5 593.0 Q 328.0 630.0 407.0 630.0 Q 447.0 630.0 483.0 620.5 Q 519.0 611.0 550.0 595.0 Q 556.0 593.0 561.5 591.0 Q 567.0 589.0 573.0 589.0 Q 588.0 589.0 599.5 601.0 Q 611.0 613.0 611.0 630.0 Q 611.0 640.0 606.5 649.0 Q 602.0 658.0 592.0 663.0 Q 553.0 687.0 505.5 698.5 Q 458.0 710.0 407.0 710.0 Q 330.0 710.0 264.5 683.0 Q 199.0 656.0 149.5 607.0 Q 100.0 558.0 72.5 492.5 Q 45.0 427.0 45.0 350.0 Q 45.0 274.0 72.5 208.5 Q 100.0 143.0 149.5 94.0 Q 199.0 45.0 264.5 17.5 Q 330.0 -10.0 407.0 -10.0 Z" fill="#1c1c1c"/></g>
</svg>
