<?xml version="1.0" encoding="UTF-8"?>
<svg xmlns="http://www.w3.org/2000/svg" width="40.64mm" height="128.50mm" viewBox="0 0 40.64 128.50">
  <!-- Panel Background: 8 HP (40.64 mm) -->
  <rect width="40.64" height="128.50" fill="#6e6e6e"/>

  <!-- Left Edge Color Badge (Centered 88.9mm x 2.54mm, Flush X=0) -->
  <g id="palette-badge">
    <rect x="0.000" y="19.800" width="2.540" height="33.782" fill="#FFFFFF" stroke="none"/>
    <rect x="0.000" y="53.582" width="2.540" height="21.336" fill="#882255" stroke="none"/>
    <rect x="0.000" y="74.918" width="2.540" height="12.446" fill="#FF8866" stroke="none"/>
    <rect x="0.000" y="87.364" width="2.540" height="21.336" fill="#0072B2" stroke="none"/>
  </g>

  <!-- Delineator Line 1 (Between Trajectory & Color at Y = 54.00mm) -->
  <line x1="2.50" y1="54.00" x2="38.14" y2="54.00" stroke="#999999" stroke-width="0.176"/>

  <!-- Delineator Line 2 (Between Color & Intensity at Y = 108.00mm) -->
  <line x1="2.50" y1="108.00" x2="38.14" y2="108.00" stroke="#999999" stroke-width="0.176"/>

  <!-- Label: "sum/mix xl" -->
    <g transform="translate(12.111, 7.620) scale(0.003500, -0.003500)"><path d="M 473.1 368.4 C 467.6 380.3 453.6 385.5 441.7 380.0 L 77.3 212.6 C 67.2 208.0 61.7 196.9 64.1 186.0 C 66.4 175.2 76.1 167.4 87.2 167.4 H 393.8 L 372.7 47.4 H 57.7 C 44.6 47.4 34.0 36.8 34.0 23.7 C 34.0 10.6 44.6 1.5e-05 57.7 1.5e-05 H 392.5 C 404.0 1.5e-05 413.9 8.3 415.8 19.6 L 445.4 187.0 C 446.6 193.9 444.7 201.0 440.2 206.3 C 435.7 211.7 429.0 214.8 422.0 214.8 H 195.5 L 461.5 337.0 C 473.3 342.5 478.5 356.5 473.1 368.4 Z" fill="#ffffff"/></g>
    <g transform="translate(13.689, 7.620) scale(0.003500, -0.003500)"><path d="M 491.7 381.9 C 478.8 384.1 466.5 375.5 464.3 362.6 L 436.9 207.4 L 124.9 64.1 L 176.0 354.4 C 178.3 367.3 169.7 379.6 156.8 381.9 C 143.9 384.1 131.7 375.5 129.4 362.6 L 70.4 27.8 C 68.8 19.1 72.2 10.3 79.2 4.9 C 83.4 1.7 88.5 0.0 93.7 0.0 C 97.0 0.0 100.4 0.7 103.6 2.2 L 426.9 150.7 L 405.2 27.8 C 402.9 14.9 411.5 2.6 424.4 0.4 C 425.8 0.1 427.2 -1.5e-05 428.6 -1.5e-05 C 439.8 -1.5e-05 449.8 8.1 451.9 19.6 L 510.9 354.4 C 513.2 367.3 504.6 379.6 491.7 381.9 Z" fill="#ffffff"/></g>
    <g transform="translate(15.397, 7.620) scale(0.003500, -0.003500)"><path d="M 797.9 377.3 C 790.9 382.7 781.5 383.7 773.5 380.1 L 450.2 231.5 L 471.9 354.4 C 473.4 363.1 470.0 371.9 463.0 377.3 C 456.1 382.7 446.7 383.7 438.7 380.1 L 115.4 231.5 L 137.0 354.4 C 139.3 367.3 130.7 379.6 117.8 381.9 C 104.9 384.1 92.7 375.5 90.4 362.6 L 31.4 27.8 C 29.1 14.9 37.7 2.6 50.6 0.4 C 52.0 0.1 53.3 1.5e-05 54.7 1.5e-05 C 66.0 1.5e-05 76.0 8.1 78.0 19.6 L 105.4 174.8 L 417.4 318.2 L 366.2 27.8 C 363.9 14.9 372.5 2.6 385.4 0.4 C 386.8 0.1 388.2 1.5e-05 389.6 1.5e-05 C 400.8 1.5e-05 410.8 8.1 412.9 19.6 L 440.2 174.8 L 752.3 318.2 L 701.1 27.8 C 698.8 14.9 707.4 2.6 720.3 0.4 C 721.7 0.1 723.1 1.5e-05 724.4 1.5e-05 C 735.7 1.5e-05 745.7 8.1 747.7 19.6 L 806.8 354.4 C 808.3 363.1 804.9 371.9 797.9 377.3 Z" fill="#ffffff"/></g>
    <g transform="translate(18.152, 7.620) scale(0.003500, -0.003500)"><path d="M 523.9 735.9 C 513.1 743.2 498.3 740.3 491.0 729.5 L 38.1 59.8 C 30.7 49.0 33.6 34.3 44.4 26.9 C 48.5 24.2 53.1 22.9 57.7 22.9 C 65.3 22.9 72.7 26.5 77.3 33.3 L 530.2 703.0 C 537.6 713.8 534.7 728.5 523.9 735.9 Z" fill="#ffffff"/></g>
    <g transform="translate(20.143, 7.620) scale(0.003500, -0.003500)"><path d="M 797.9 377.3 C 790.9 382.7 781.5 383.7 773.5 380.1 L 450.2 231.5 L 471.9 354.4 C 473.4 363.1 470.0 371.9 463.0 377.3 C 456.1 382.7 446.7 383.7 438.7 380.1 L 115.4 231.5 L 137.0 354.4 C 139.3 367.3 130.7 379.6 117.8 381.9 C 104.9 384.1 92.7 375.5 90.4 362.6 L 31.4 27.8 C 29.1 14.9 37.7 2.6 50.6 0.4 C 52.0 0.1 53.3 1.5e-05 54.7 1.5e-05 C 66.0 1.5e-05 76.0 8.1 78.0 19.6 L 105.4 174.8 L 417.4 318.2 L 366.2 27.8 C 363.9 14.9 372.5 2.6 385.4 0.4 C 386.8 0.1 388.2 1.5e-05 389.6 1.5e-05 C 400.8 1.5e-05 410.8 8.1 412.9 19.6 L 440.2 174.8 L 752.3 318.2 L 701.1 27.8 C 698.8 14.9 707.4 2.6 720.3 0.4 C 721.7 0.1 723.1 1.5e-05 724.4 1.5e-05 C 735.7 1.5e-05 745.7 8.1 747.7 19.6 L 806.8 354.4 C 808.3 363.1 804.9 371.9 797.9 377.3 Z" fill="#ffffff"/></g>
    <g transform="translate(22.898, 7.620) scale(0.003500, -0.003500)"><path d="M 156.8 381.9 C 144.0 384.1 131.7 375.5 129.4 362.6 L 70.4 27.8 C 68.1 14.9 76.7 2.6 89.6 0.4 C 91.0 0.1 92.3 0.0 93.7 0.0 C 105.0 0.0 115.0 8.1 117.0 19.6 L 176.1 354.4 C 178.3 367.3 169.7 379.6 156.8 381.9 Z M 186.7 551.1 C 172.8 551.1 159.5 539.8 157.1 526.0 C 154.6 512.1 163.9 500.8 177.8 500.8 C 191.7 500.8 204.9 512.1 207.4 526.0 C 209.9 539.8 200.6 551.1 186.7 551.1 Z" fill="#ffffff"/></g>
    <g transform="translate(23.538, 7.620) scale(0.003500, -0.003500)"><path d="M 469.6 373.9 C 461.1 383.8 446.2 385.0 436.2 376.6 L 257.6 224.7 L 135.0 373.6 C 126.7 383.7 111.8 385.1 101.7 376.8 C 91.6 368.5 90.1 353.6 98.4 343.5 L 221.5 194.1 L 42.3 41.7 C 32.4 33.3 31.2 18.3 39.6 8.4 C 44.3 2.8 51.0 0.0 57.7 0.0 C 63.1 0.0 68.6 1.9 73.0 5.7 L 251.6 157.5 L 374.2 8.6 C 378.9 3.0 385.7 0.0 392.5 0.0 C 397.8 0.0 403.2 1.8 407.6 5.4 C 417.7 13.7 419.1 28.7 410.8 38.7 L 287.7 188.2 L 466.9 340.5 C 476.9 349.0 478.1 363.9 469.6 373.9 Z" fill="#ffffff"/></g>
    <g transform="translate(26.058, 7.620) scale(0.003500, -0.003500)"><path d="M 469.6 373.9 C 461.1 383.8 446.2 385.0 436.2 376.6 L 257.6 224.7 L 135.0 373.6 C 126.7 383.7 111.8 385.1 101.7 376.8 C 91.6 368.5 90.1 353.6 98.4 343.5 L 221.5 194.1 L 42.3 41.7 C 32.4 33.3 31.2 18.3 39.6 8.4 C 44.3 2.8 51.0 0.0 57.7 0.0 C 63.1 0.0 68.6 1.9 73.0 5.7 L 251.6 157.5 L 374.2 8.6 C 378.9 3.0 385.7 0.0 392.5 0.0 C 397.8 0.0 403.2 1.8 407.6 5.4 C 417.7 13.7 419.1 28.7 410.8 38.7 L 287.7 188.2 L 466.9 340.5 C 476.9 349.0 478.1 363.9 469.6 373.9 Z" fill="#ffffff"/></g>
    <g transform="translate(27.640, 7.620) scale(0.003500, -0.003500)"><path d="M 272.7 206.4 C 264.2 216.4 249.3 217.6 239.3 209.1 L 92.4 84.3 L 199.1 689.3 C 201.4 702.1 192.8 714.4 179.9 716.7 C 167.0 718.9 154.7 710.4 152.4 697.5 L 34.4 27.8 C 32.6 18.0 37.2 8.1 45.9 3.1 C 49.6 1.0 53.6 -3.1e-05 57.7 -3.1e-05 C 63.2 -3.1e-05 68.6 1.9 73.0 5.6 L 270.0 173.1 C 279.9 181.5 281.1 196.5 272.7 206.4 Z" fill="#ffffff"/></g>
  <!-- Label: "v2.22.0" -->
    <g transform="translate(18.116, 10.414) scale(0.001400, -0.001400)"><path d="M 67.0 522.0 Q 52.0 522.0 44.0 513.0 Q 36.0 504.0 36.0 493.0 Q 36.0 489.0 37.0 485.0 Q 38.0 481.0 39.0 479.0 L 236.0 19.0 Q 240.0 10.0 248.5 4.5 Q 257.0 -1.0 266.0 0.0 Q 285.0 1.0 293.0 19.0 L 489.0 479.0 Q 490.0 483.0 491.5 486.5 Q 493.0 490.0 493.0 496.0 Q 493.0 508.0 484.0 514.5 Q 475.0 521.0 465.0 521.0 Q 444.0 522.0 436.0 502.0 L 265.2 97.4 L 95.0 502.0 Q 91.0 512.0 83.0 517.0 Q 75.0 522.0 67.0 522.0 Z" fill="#aaaaaa"/></g>
    <g transform="translate(18.857, 10.414) scale(0.001400, -0.001400)"><path d="M 474.0 58.0 H 166.7 L 351.0 265.0 Q 415.0 336.0 447.5 397.5 Q 480.0 459.0 480.0 511.0 Q 480.0 572.0 454.5 616.5 Q 429.0 661.0 382.5 685.5 Q 336.0 710.0 272.0 710.0 Q 234.0 710.0 194.5 694.5 Q 155.0 679.0 123.0 653.0 Q 91.0 627.0 73.0 596.0 Q 66.0 587.0 62.5 580.0 Q 59.0 573.0 59.0 566.0 Q 59.0 555.0 68.0 547.5 Q 77.0 540.0 89.0 540.0 Q 97.0 540.0 103.5 544.0 Q 110.0 548.0 116.0 558.0 Q 129.0 585.0 152.5 606.0 Q 176.0 627.0 206.5 640.0 Q 237.0 653.0 268.0 653.0 Q 336.0 653.0 376.0 613.0 Q 416.0 573.0 416.0 507.0 Q 416.0 467.0 388.5 416.5 Q 361.0 366.0 306.0 306.0 L 75.0 51.0 Q 67.0 41.0 67.0 30.0 Q 67.0 15.0 76.5 7.5 Q 86.0 0.0 99.0 0.0 H 474.0 Q 486.0 0.0 494.5 8.0 Q 503.0 16.0 503.0 29.0 Q 503.0 41.0 494.5 49.5 Q 486.0 58.0 474.0 58.0 Z" fill="#aaaaaa"/></g>
    <g transform="translate(19.633, 10.414) scale(0.001400, -0.001400)"><path d="M 87.0 0.0 H 94.0 Q 111.0 0.0 120.0 11.0 Q 129.0 22.0 129.0 39.0 V 60.0 Q 129.0 78.0 120.0 88.0 Q 111.0 98.0 94.0 98.0 H 87.0 Q 70.0 98.0 61.0 88.0 Q 52.0 78.0 52.0 60.0 V 39.0 Q 52.0 22.0 61.0 11.0 Q 70.0 0.0 87.0 0.0 Z" fill="#aaaaaa"/></g>
    <g transform="translate(19.886, 10.414) scale(0.001400, -0.001400)"><path d="M 474.0 58.0 H 166.7 L 351.0 265.0 Q 415.0 336.0 447.5 397.5 Q 480.0 459.0 480.0 511.0 Q 480.0 572.0 454.5 616.5 Q 429.0 661.0 382.5 685.5 Q 336.0 710.0 272.0 710.0 Q 234.0 710.0 194.5 694.5 Q 155.0 679.0 123.0 653.0 Q 91.0 627.0 73.0 596.0 Q 66.0 587.0 62.5 580.0 Q 59.0 573.0 59.0 566.0 Q 59.0 555.0 68.0 547.5 Q 77.0 540.0 89.0 540.0 Q 97.0 540.0 103.5 544.0 Q 110.0 548.0 116.0 558.0 Q 129.0 585.0 152.5 606.0 Q 176.0 627.0 206.5 640.0 Q 237.0 653.0 268.0 653.0 Q 336.0 653.0 376.0 613.0 Q 416.0 573.0 416.0 507.0 Q 416.0 467.0 388.5 416.5 Q 361.0 366.0 306.0 306.0 L 75.0 51.0 Q 67.0 41.0 67.0 30.0 Q 67.0 15.0 76.5 7.5 Q 86.0 0.0 99.0 0.0 H 474.0 Q 486.0 0.0 494.5 8.0 Q 503.0 16.0 503.0 29.0 Q 503.0 41.0 494.5 49.5 Q 486.0 58.0 474.0 58.0 Z" fill="#aaaaaa"/></g>
    <g transform="translate(20.662, 10.414) scale(0.001400, -0.001400)"><path d="M 474.0 58.0 H 166.7 L 351.0 265.0 Q 415.0 336.0 447.5 397.5 Q 480.0 459.0 480.0 511.0 Q 480.0 572.0 454.5 616.5 Q 429.0 661.0 382.5 685.5 Q 336.0 710.0 272.0 710.0 Q 234.0 710.0 194.5 694.5 Q 155.0 679.0 123.0 653.0 Q 91.0 627.0 73.0 596.0 Q 66.0 587.0 62.5 580.0 Q 59.0 573.0 59.0 566.0 Q 59.0 555.0 68.0 547.5 Q 77.0 540.0 89.0 540.0 Q 97.0 540.0 103.5 544.0 Q 110.0 548.0 116.0 558.0 Q 129.0 585.0 152.5 606.0 Q 176.0 627.0 206.5 640.0 Q 237.0 653.0 268.0 653.0 Q 336.0 653.0 376.0 613.0 Q 416.0 573.0 416.0 507.0 Q 416.0 467.0 388.5 416.5 Q 361.0 366.0 306.0 306.0 L 75.0 51.0 Q 67.0 41.0 67.0 30.0 Q 67.0 15.0 76.5 7.5 Q 86.0 0.0 99.0 0.0 H 474.0 Q 486.0 0.0 494.5 8.0 Q 503.0 16.0 503.0 29.0 Q 503.0 41.0 494.5 49.5 Q 486.0 58.0 474.0 58.0 Z" fill="#aaaaaa"/></g>
    <g transform="translate(21.437, 10.414) scale(0.001400, -0.001400)"><path d="M 87.0 0.0 H 94.0 Q 111.0 0.0 120.0 11.0 Q 129.0 22.0 129.0 39.0 V 60.0 Q 129.0 78.0 120.0 88.0 Q 111.0 98.0 94.0 98.0 H 87.0 Q 70.0 98.0 61.0 88.0 Q 52.0 78.0 52.0 60.0 V 39.0 Q 52.0 22.0 61.0 11.0 Q 70.0 0.0 87.0 0.0 Z" fill="#aaaaaa"/></g>
    <g transform="translate(21.691, 10.414) scale(0.001400, -0.001400)"><path d="M 297.0 -10.0 Q 379.0 -10.0 432.5 38.0 Q 486.0 86.0 513.0 167.5 Q 540.0 249.0 540.0 350.0 Q 540.0 452.0 513.0 533.5 Q 486.0 615.0 432.5 662.5 Q 379.0 710.0 297.0 710.0 Q 217.0 710.0 163.0 662.5 Q 109.0 615.0 82.0 533.5 Q 55.0 452.0 55.0 350.0 Q 55.0 249.0 82.0 167.5 Q 109.0 86.0 163.0 38.0 Q 217.0 -10.0 297.0 -10.0 Z M 297.0 52.0 Q 239.0 52.0 199.5 89.0 Q 160.0 126.0 139.5 193.5 Q 119.0 261.0 119.0 350.0 Q 119.0 440.0 139.5 507.5 Q 160.0 575.0 199.5 612.0 Q 239.0 649.0 297.0 649.0 Q 356.0 649.0 395.5 612.0 Q 435.0 575.0 455.5 507.5 Q 476.0 440.0 476.0 350.0 Q 476.0 261.0 455.5 193.5 Q 435.0 126.0 395.5 89.0 Q 356.0 52.0 297.0 52.0 Z" fill="#aaaaaa"/></g>
  <!-- Label: "Header: IN 1" -->
    <g transform="translate(4.266, 15.500) scale(0.002200, -0.002200)"><path d="M 171.0 41.0 V 659.0 Q 171.0 677.0 159.0 688.5 Q 147.0 700.0 130.0 700.0 Q 112.0 700.0 100.0 688.5 Q 88.0 677.0 88.0 659.0 V 41.0 Q 88.0 24.0 99.0 12.0 Q 110.0 0.0 129.0 0.0 Q 146.0 0.0 158.5 12.0 Q 171.0 24.0 171.0 41.0 Z" fill="#1c1c1c"/></g>
    <g transform="translate(4.836, 15.500) scale(0.002200, -0.002200)"><path d="M 606.0 700.0 Q 590.0 700.0 579.5 689.5 Q 569.0 679.0 569.0 663.0 V 145.2 L 160.0 686.0 Q 155.0 693.0 145.5 696.5 Q 136.0 700.0 127.0 700.0 Q 111.0 700.0 99.5 689.0 Q 88.0 678.0 88.0 660.0 V 37.0 Q 88.0 21.0 98.0 10.5 Q 108.0 0.0 124.0 0.0 Q 141.0 0.0 151.5 10.5 Q 162.0 21.0 162.0 37.0 V 552.6 L 570.0 13.0 Q 575.0 7.0 584.0 3.5 Q 593.0 0.0 602.0 0.0 Q 619.0 0.0 631.0 11.5 Q 643.0 23.0 643.0 42.0 V 663.0 Q 643.0 679.0 633.0 689.5 Q 623.0 700.0 606.0 700.0 Z" fill="#1c1c1c"/></g>
    <g transform="translate(7.047, 15.500) scale(0.002200, -0.002200)"><path d="M 230.0 0.0 Q 249.0 0.0 261.5 12.0 Q 274.0 24.0 274.0 41.0 V 660.0 Q 274.0 677.0 263.5 688.5 Q 253.0 700.0 235.0 700.0 Q 227.0 701.0 219.0 699.0 Q 211.0 697.0 203.0 692.0 L 44.0 587.0 Q 23.0 574.0 23.0 552.0 Q 23.0 536.0 35.0 523.5 Q 47.0 511.0 64.0 511.0 Q 77.0 511.0 87.0 518.0 L 188.0 587.7 V 41.0 Q 188.0 24.0 200.0 12.0 Q 212.0 0.0 230.0 0.0 Z" fill="#1c1c1c"/></g>
  <!-- Label: "Header: IN 2" -->
    <g transform="translate(13.565, 15.500) scale(0.002200, -0.002200)"><path d="M 171.0 41.0 V 659.0 Q 171.0 677.0 159.0 688.5 Q 147.0 700.0 130.0 700.0 Q 112.0 700.0 100.0 688.5 Q 88.0 677.0 88.0 659.0 V 41.0 Q 88.0 24.0 99.0 12.0 Q 110.0 0.0 129.0 0.0 Q 146.0 0.0 158.5 12.0 Q 171.0 24.0 171.0 41.0 Z" fill="#1c1c1c"/></g>
    <g transform="translate(14.135, 15.500) scale(0.002200, -0.002200)"><path d="M 606.0 700.0 Q 590.0 700.0 579.5 689.5 Q 569.0 679.0 569.0 663.0 V 145.2 L 160.0 686.0 Q 155.0 693.0 145.5 696.5 Q 136.0 700.0 127.0 700.0 Q 111.0 700.0 99.5 689.0 Q 88.0 678.0 88.0 660.0 V 37.0 Q 88.0 21.0 98.0 10.5 Q 108.0 0.0 124.0 0.0 Q 141.0 0.0 151.5 10.5 Q 162.0 21.0 162.0 37.0 V 552.6 L 570.0 13.0 Q 575.0 7.0 584.0 3.5 Q 593.0 0.0 602.0 0.0 Q 619.0 0.0 631.0 11.5 Q 643.0 23.0 643.0 42.0 V 663.0 Q 643.0 679.0 633.0 689.5 Q 623.0 700.0 606.0 700.0 Z" fill="#1c1c1c"/></g>
    <g transform="translate(16.346, 15.500) scale(0.002200, -0.002200)"><path d="M 469.0 75.0 H 194.0 L 360.0 259.0 Q 422.0 325.0 454.0 389.0 Q 486.0 453.0 486.0 506.0 Q 486.0 568.0 460.0 614.0 Q 434.0 660.0 386.5 685.0 Q 339.0 710.0 275.0 710.0 Q 239.0 710.0 201.5 696.0 Q 164.0 682.0 132.5 658.5 Q 101.0 635.0 80.0 606.0 Q 70.0 594.0 64.0 584.5 Q 58.0 575.0 58.0 564.0 Q 58.0 550.0 70.0 539.5 Q 82.0 529.0 97.0 529.0 Q 106.0 529.0 114.5 532.5 Q 123.0 536.0 131.0 549.0 Q 145.0 573.0 167.0 592.5 Q 189.0 612.0 216.0 623.5 Q 243.0 635.0 270.0 635.0 Q 331.0 635.0 367.5 598.5 Q 404.0 562.0 404.0 501.0 Q 404.0 464.0 378.5 416.5 Q 353.0 369.0 303.0 315.0 L 77.0 68.0 Q 65.0 55.0 65.0 39.0 Q 65.0 21.0 76.5 10.5 Q 88.0 0.0 106.0 0.0 H 469.0 Q 485.0 0.0 496.0 10.5 Q 507.0 21.0 507.0 37.0 Q 507.0 53.0 496.0 64.0 Q 485.0 75.0 469.0 75.0 Z" fill="#1c1c1c"/></g>
  <!-- Label: "Header: SUM" -->
    <g transform="translate(22.751, 15.500) scale(0.002200, -0.002200)"><path d="M 292.0 -10.0 Q 359.0 -9.0 412.5 15.5 Q 466.0 40.0 497.0 83.0 Q 528.0 126.0 528.0 181.0 Q 528.0 233.0 511.5 268.5 Q 495.0 304.0 465.0 327.0 Q 435.0 350.0 393.5 365.5 Q 352.0 381.0 303.0 393.0 Q 258.0 405.0 221.0 420.5 Q 184.0 436.0 162.0 460.5 Q 140.0 485.0 140.0 523.0 Q 140.0 557.0 159.5 581.5 Q 179.0 606.0 214.0 619.5 Q 249.0 633.0 295.0 633.0 Q 326.0 633.0 357.0 624.0 Q 388.0 615.0 414.0 600.0 Q 440.0 585.0 457.0 566.0 Q 466.0 558.0 477.0 558.0 Q 493.0 558.0 505.5 570.5 Q 518.0 583.0 518.0 598.0 Q 518.0 616.0 498.0 635.0 Q 465.0 670.0 410.5 690.0 Q 356.0 710.0 295.0 710.0 Q 226.0 710.0 173.0 686.5 Q 120.0 663.0 90.0 620.0 Q 60.0 577.0 60.0 520.0 Q 60.0 475.0 75.5 441.5 Q 91.0 408.0 119.0 384.5 Q 147.0 361.0 185.5 345.0 Q 224.0 329.0 270.0 318.0 Q 322.0 306.0 361.5 288.5 Q 401.0 271.0 423.5 245.0 Q 446.0 219.0 447.0 179.0 Q 447.0 146.0 426.0 121.0 Q 405.0 96.0 369.5 82.0 Q 334.0 68.0 290.0 68.0 Q 233.0 68.0 187.5 88.0 Q 142.0 108.0 103.0 146.0 Q 92.0 157.0 78.0 157.0 Q 61.0 157.0 49.5 144.5 Q 38.0 132.0 38.0 116.0 Q 38.0 106.0 42.5 97.5 Q 47.0 89.0 54.0 82.0 Q 106.0 34.0 162.0 12.0 Q 218.0 -10.0 292.0 -10.0 Z" fill="#1c1c1c"/></g>
    <g transform="translate(24.014, 15.500) scale(0.002200, -0.002200)"><path d="M 584.0 701.0 Q 566.0 701.0 556.0 689.0 Q 546.0 677.0 546.0 660.0 V 263.0 Q 546.0 208.0 519.5 165.0 Q 493.0 122.0 450.0 97.5 Q 407.0 73.0 356.0 73.0 Q 306.0 73.0 263.5 97.5 Q 221.0 122.0 196.0 165.0 Q 171.0 208.0 171.0 263.0 V 660.0 Q 171.0 677.0 158.5 689.0 Q 146.0 701.0 130.0 701.0 Q 111.0 701.0 99.5 689.0 Q 88.0 677.0 88.0 660.0 V 263.0 Q 88.0 186.0 123.0 125.0 Q 158.0 64.0 218.5 28.5 Q 279.0 -7.0 356.0 -7.0 Q 432.0 -7.0 492.0 28.5 Q 552.0 64.0 587.5 125.0 Q 623.0 186.0 623.0 263.0 V 660.0 Q 623.0 677.0 612.0 689.0 Q 601.0 701.0 584.0 701.0 Z" fill="#1c1c1c"/></g>
    <g transform="translate(25.576, 15.500) scale(0.002200, -0.002200)"><path d="M 129.0 701.0 Q 111.0 701.0 99.5 688.5 Q 88.0 676.0 88.0 660.0 V 41.0 Q 88.0 24.0 98.5 12.0 Q 109.0 0.0 126.0 0.0 Q 143.0 0.0 154.0 12.0 Q 165.0 24.0 165.0 41.0 V 546.6 L 377.0 220.0 Q 383.0 213.0 392.0 208.0 Q 401.0 203.0 410.0 203.0 Q 419.0 203.0 427.5 208.0 Q 436.0 213.0 442.0 220.0 L 653.0 541.0 V 41.0 Q 653.0 24.0 665.0 12.0 Q 677.0 0.0 695.0 0.0 Q 713.0 0.0 725.0 12.0 Q 737.0 24.0 737.0 41.0 V 660.0 Q 737.0 678.0 725.0 689.0 Q 713.0 700.0 697.0 701.0 Q 676.0 702.0 663.0 683.0 L 412.3 308.8 L 165.0 683.0 Q 159.0 691.0 148.5 696.0 Q 138.0 701.0 129.0 701.0 Z" fill="#1c1c1c"/></g>
  <!-- Label: "Header: MULT" -->
    <g transform="translate(31.614, 15.500) scale(0.002200, -0.002200)"><path d="M 129.0 701.0 Q 111.0 701.0 99.5 688.5 Q 88.0 676.0 88.0 660.0 V 41.0 Q 88.0 24.0 98.5 12.0 Q 109.0 0.0 126.0 0.0 Q 143.0 0.0 154.0 12.0 Q 165.0 24.0 165.0 41.0 V 546.6 L 377.0 220.0 Q 383.0 213.0 392.0 208.0 Q 401.0 203.0 410.0 203.0 Q 419.0 203.0 427.5 208.0 Q 436.0 213.0 442.0 220.0 L 653.0 541.0 V 41.0 Q 653.0 24.0 665.0 12.0 Q 677.0 0.0 695.0 0.0 Q 713.0 0.0 725.0 12.0 Q 737.0 24.0 737.0 41.0 V 660.0 Q 737.0 678.0 725.0 689.0 Q 713.0 700.0 697.0 701.0 Q 676.0 702.0 663.0 683.0 L 412.3 308.8 L 165.0 683.0 Q 159.0 691.0 148.5 696.0 Q 138.0 701.0 129.0 701.0 Z" fill="#1c1c1c"/></g>
    <g transform="translate(33.427, 15.500) scale(0.002200, -0.002200)"><path d="M 584.0 701.0 Q 566.0 701.0 556.0 689.0 Q 546.0 677.0 546.0 660.0 V 263.0 Q 546.0 208.0 519.5 165.0 Q 493.0 122.0 450.0 97.5 Q 407.0 73.0 356.0 73.0 Q 306.0 73.0 263.5 97.5 Q 221.0 122.0 196.0 165.0 Q 171.0 208.0 171.0 263.0 V 660.0 Q 171.0 677.0 158.5 689.0 Q 146.0 701.0 130.0 701.0 Q 111.0 701.0 99.5 689.0 Q 88.0 677.0 88.0 660.0 V 263.0 Q 88.0 186.0 123.0 125.0 Q 158.0 64.0 218.5 28.5 Q 279.0 -7.0 356.0 -7.0 Q 432.0 -7.0 492.0 28.5 Q 552.0 64.0 587.5 125.0 Q 623.0 186.0 623.0 263.0 V 660.0 Q 623.0 677.0 612.0 689.0 Q 601.0 701.0 584.0 701.0 Z" fill="#1c1c1c"/></g>
    <g transform="translate(34.989, 15.500) scale(0.002200, -0.002200)"><path d="M 474.0 79.0 H 171.0 V 660.0 Q 171.0 677.0 159.0 688.5 Q 147.0 700.0 130.0 700.0 Q 112.0 700.0 100.0 688.5 Q 88.0 677.0 88.0 660.0 V 41.0 Q 88.0 24.0 99.5 12.0 Q 111.0 0.0 128.0 0.0 H 474.0 Q 491.0 0.0 503.0 11.0 Q 515.0 22.0 515.0 39.0 Q 515.0 56.0 503.0 67.5 Q 491.0 79.0 474.0 79.0 Z" fill="#1c1c1c"/></g>
    <g transform="translate(36.181, 15.500) scale(0.002200, -0.002200)"><path d="M 305.0 0.0 Q 324.0 0.0 336.0 12.0 Q 348.0 24.0 348.0 41.0 V 624.0 H 538.0 Q 555.0 624.0 567.0 634.0 Q 579.0 644.0 579.0 662.0 Q 579.0 679.0 567.0 689.5 Q 555.0 700.0 538.0 700.0 H 73.0 Q 56.0 700.0 44.5 689.5 Q 33.0 679.0 33.0 662.0 Q 33.0 645.0 44.5 634.5 Q 56.0 624.0 73.0 624.0 H 263.0 V 41.0 Q 263.0 24.0 275.0 12.0 Q 287.0 0.0 305.0 0.0 Z" fill="#1c1c1c"/></g>
  <!-- Label: "Row: X" -->
    <g transform="translate(19.511, 21.400) scale(0.002600, -0.002600)"><path d="M 547.0 703.0 Q 528.0 703.0 515.0 684.0 L 314.7 413.0 L 112.0 686.0 Q 100.0 703.0 79.0 703.0 Q 64.0 703.0 51.5 691.5 Q 39.0 680.0 39.0 663.0 Q 39.0 649.0 47.0 639.0 L 261.8 349.2 L 48.0 58.0 Q 38.0 45.0 38.0 31.0 Q 38.0 19.0 48.5 7.5 Q 59.0 -4.0 75.0 -4.0 Q 95.0 -4.0 107.0 14.0 L 307.7 287.2 L 511.0 13.0 Q 524.0 -4.0 544.0 -4.0 Q 558.0 -4.0 571.0 7.0 Q 584.0 18.0 584.0 36.0 Q 584.0 49.0 576.0 61.0 L 360.6 351.2 L 576.0 642.0 Q 585.0 654.0 585.0 667.0 Q 585.0 681.0 573.5 692.0 Q 562.0 703.0 547.0 703.0 Z" fill="#1c1c1c"/></g>
  <!-- Label: "Row: Y" -->
    <g transform="translate(19.576, 39.400) scale(0.002600, -0.002600)"><path d="M 514.0 704.0 Q 494.0 704.0 481.0 684.0 L 290.3 415.7 L 94.0 685.0 Q 81.0 704.0 61.0 704.0 Q 47.0 704.0 33.0 692.5 Q 19.0 681.0 19.0 664.0 Q 19.0 657.0 21.5 649.5 Q 24.0 642.0 30.0 634.0 L 248.0 339.5 V 41.0 Q 248.0 24.0 259.5 12.0 Q 271.0 0.0 289.0 0.0 Q 305.0 0.0 316.5 12.0 Q 328.0 24.0 328.0 41.0 V 333.1 L 547.0 638.0 Q 551.0 644.0 552.5 650.5 Q 554.0 657.0 554.0 663.0 Q 554.0 679.0 542.5 691.5 Q 531.0 704.0 514.0 704.0 Z" fill="#1c1c1c"/></g>
  <!-- Label: "Row: R" -->
    <g transform="translate(19.441, 57.400) scale(0.002600, -0.002600)"><path d="M 134.0 0.0 Q 151.0 0.0 161.0 12.0 Q 171.0 24.0 171.0 41.0 V 284.0 H 382.0 Q 404.0 284.0 425.0 279.0 Q 446.0 274.0 463.0 261.0 Q 480.0 248.0 490.0 227.0 Q 500.0 206.0 500.0 174.0 Q 500.0 117.0 510.0 84.0 Q 520.0 51.0 535.0 33.5 Q 550.0 16.0 566.0 7.0 Q 574.0 2.0 585.0 1.0 Q 596.0 0.0 607.0 3.5 Q 618.0 7.0 624.0 16.0 Q 634.0 30.0 629.5 45.0 Q 625.0 60.0 611.0 69.0 Q 600.0 76.0 594.0 88.5 Q 588.0 101.0 585.0 123.0 Q 582.0 145.0 580.0 182.0 Q 579.0 224.0 562.0 255.5 Q 545.0 287.0 518.0 307.5 Q 504.8 317.5 489.9 324.6 Q 519.3 338.1 543.0 360.5 Q 571.0 387.0 587.0 423.5 Q 603.0 460.0 603.0 502.0 Q 603.0 560.0 576.5 604.5 Q 550.0 649.0 505.0 674.5 Q 460.0 700.0 404.0 700.0 H 128.0 Q 111.0 700.0 99.5 688.5 Q 88.0 677.0 88.0 660.0 V 41.0 Q 88.0 24.0 101.5 12.0 Q 115.0 0.0 134.0 0.0 Z M 171.0 356.0 V 623.0 H 399.0 Q 450.0 623.0 483.5 588.0 Q 517.0 553.0 517.0 500.0 Q 517.0 459.0 500.5 426.5 Q 484.0 394.0 458.5 376.0 Q 433.0 358.0 404.0 356.0 H 171.0 Z" fill="#1c1c1c"/></g>
  <!-- Label: "Row: G" -->
    <g transform="translate(19.416, 75.400) scale(0.002600, -0.002600)"><path d="M 407.0 -10.0 Q 466.0 -10.0 520.5 7.5 Q 575.0 25.0 620.0 54.0 Q 629.0 60.0 634.5 69.0 Q 640.0 78.0 640.0 90.0 V 321.0 Q 640.0 338.0 629.0 350.0 Q 618.0 362.0 600.0 362.0 H 418.0 Q 401.0 362.0 389.5 350.5 Q 378.0 339.0 378.0 322.0 Q 378.0 305.0 389.5 293.5 Q 401.0 282.0 418.0 282.0 H 555.0 V 105.2 Q 527.2 90.7 489.5 81.0 Q 447.0 70.0 407.0 70.0 Q 328.0 70.0 265.5 107.0 Q 203.0 144.0 167.0 207.5 Q 131.0 271.0 131.0 350.0 Q 131.0 430.0 167.0 493.0 Q 203.0 556.0 265.5 593.0 Q 328.0 630.0 407.0 630.0 Q 447.0 630.0 483.0 620.5 Q 519.0 611.0 550.0 595.0 Q 556.0 593.0 561.5 591.0 Q 567.0 589.0 573.0 589.0 Q 588.0 589.0 599.5 601.0 Q 611.0 613.0 611.0 630.0 Q 611.0 640.0 606.5 649.0 Q 602.0 658.0 592.0 663.0 Q 553.0 687.0 505.5 698.5 Q 458.0 710.0 407.0 710.0 Q 330.0 710.0 264.5 683.0 Q 199.0 656.0 149.5 607.0 Q 100.0 558.0 72.5 492.5 Q 45.0 427.0 45.0 350.0 Q 45.0 274.0 72.5 208.5 Q 100.0 143.0 149.5 94.0 Q 199.0 45.0 264.5 17.5 Q 330.0 -10.0 407.0 -10.0 Z" fill="#1c1c1c"/></g>
  <!-- Label: "Row: B" -->
    <g transform="translate(19.471, 93.400) scale(0.002600, -0.002600)"><path d="M 389.0 700.0 H 128.0 Q 111.0 700.0 99.5 688.5 Q 88.0 677.0 88.0 660.0 V 41.0 Q 88.0 24.0 99.5 12.0 Q 111.0 0.0 128.0 0.0 H 391.0 Q 430.0 0.0 468.5 10.0 Q 507.0 20.0 538.5 43.5 Q 570.0 67.0 589.0 105.5 Q 608.0 144.0 608.0 201.0 Q 608.0 254.0 588.5 290.0 Q 569.0 326.0 537.5 348.0 Q 509.3 367.7 476.8 377.7 Q 485.5 381.4 493.5 386.0 Q 532.0 408.0 552.0 445.0 Q 572.0 482.0 572.0 526.0 Q 572.0 609.0 524.5 654.5 Q 477.0 700.0 389.0 700.0 Z M 385.0 323.0 Q 419.0 323.0 450.5 313.0 Q 482.0 303.0 502.0 276.5 Q 522.0 250.0 522.0 201.0 Q 522.0 138.0 484.5 108.0 Q 447.0 78.0 388.0 78.0 H 174.0 V 323.0 Z M 377.0 621.0 Q 428.0 621.0 457.0 593.5 Q 486.0 566.0 486.0 516.0 Q 486.0 460.0 454.5 431.5 Q 423.0 403.0 379.0 403.0 H 174.0 V 621.0 Z" fill="#1c1c1c"/></g>
  <!-- Label: "Row: I" -->
    <g transform="translate(19.983, 111.400) scale(0.002600, -0.002600)"><path d="M 171.0 41.0 V 659.0 Q 171.0 677.0 159.0 688.5 Q 147.0 700.0 130.0 700.0 Q 112.0 700.0 100.0 688.5 Q 88.0 677.0 88.0 659.0 V 41.0 Q 88.0 24.0 99.0 12.0 Q 110.0 0.0 129.0 0.0 Q 146.0 0.0 158.5 12.0 Q 171.0 24.0 171.0 41.0 Z" fill="#1c1c1c"/></g>
</svg>
