<?xml version="1.0" encoding="UTF-8"?>
<svg xmlns="http://www.w3.org/2000/svg" width="30.48mm" height="128.5mm" viewBox="0 0 30.48 128.5">
  <!-- Panel Background: 6 HP -->
  <rect width="30.48" height="128.5" fill="#7c7c7c"/>

  <!-- Delineator Line 1 (Main Controls / Attenuverters) -->
  <line x1="2.54" y1="52.50" x2="27.94" y2="52.50" stroke="#999999" stroke-width="0.176"/>

  <!-- Delineator Line 2 (Attenuverters / I/O Jacks) -->
  <line x1="2.54" y1="80.50" x2="27.94" y2="80.50" stroke="#999999" stroke-width="0.176"/>

  <!-- Label: "wiggle" -->
    <g transform="translate(9.007, 7.620) scale(0.004800, -0.004800)"><path d="M 790.5 381.9 C 777.7 384.1 765.4 375.5 763.1 362.6 L 735.7 207.4 L 423.7 64.1 L 474.9 354.4 C 477.2 367.3 468.6 379.6 455.7 381.9 C 442.8 384.1 430.5 375.5 428.3 362.6 L 400.9 207.4 L 88.9 64.1 L 140.0 354.4 C 142.3 367.3 133.7 379.6 120.8 381.9 C 108.0 384.1 95.7 375.5 93.4 362.6 L 34.4 27.8 C 32.8 19.1 36.2 10.3 43.2 4.9 C 47.4 1.7 52.5 0.0 57.7 0.0 C 61.0 0.0 64.4 0.7 67.6 2.2 L 390.9 150.7 L 369.2 27.8 C 367.7 19.1 371.1 10.3 378.1 4.9 C 382.3 1.7 387.4 0.0 392.5 0.0 C 395.9 0.0 399.3 0.7 402.4 2.2 L 766.8 169.6 C 773.8 172.8 778.9 179.3 780.2 187.0 L 809.7 354.4 C 812.0 367.3 803.4 379.6 790.5 381.9 Z" fill="#ffffff"/></g>
    <g transform="translate(12.780, 7.620) scale(0.004800, -0.004800)"><path d="M 156.8 381.9 C 144.0 384.1 131.7 375.5 129.4 362.6 L 70.4 27.8 C 68.1 14.9 76.7 2.6 89.6 0.4 C 91.0 0.1 92.3 0.0 93.7 0.0 C 105.0 0.0 115.0 8.1 117.0 19.6 L 176.1 354.4 C 178.3 367.3 169.7 379.6 156.8 381.9 Z M 186.7 551.1 C 172.8 551.1 159.5 539.8 157.1 526.0 C 154.6 512.1 163.9 500.8 177.8 500.8 C 191.7 500.8 204.9 512.1 207.4 526.0 C 209.9 539.8 200.6 551.1 186.7 551.1 Z" fill="#ffffff"/></g>
    <g transform="translate(13.658, 7.620) scale(0.004800, -0.004800)"><path d="M 469.7 373.8 C 465.2 379.1 458.6 382.2 451.6 382.2 H 116.7 C 105.2 382.2 95.4 374.0 93.4 362.6 L 34.4 27.8 C 33.1 20.9 35.0 13.8 39.5 8.5 C 44.0 3.1 50.7 0.0 57.7 0.0 H 364.3 L 319.1 -256.4 L 213.9 -128.7 C 205.5 -118.6 190.6 -117.1 180.5 -125.5 C 170.4 -133.8 169.0 -148.7 177.3 -158.8 L 315.2 -326.2 C 319.8 -331.8 326.5 -334.8 333.5 -334.8 C 335.5 -334.8 337.5 -334.6 339.5 -334.1 C 348.4 -331.7 355.2 -324.4 356.8 -315.3 L 415.8 19.1 C 415.8 19.4 415.9 19.7 415.9 20.0 L 474.9 354.4 C 476.1 361.3 474.2 368.4 469.7 373.8 Z M 372.7 47.4 H 85.9 L 136.6 334.9 H 423.3 Z" fill="#ffffff"/></g>
    <g transform="translate(15.828, 7.620) scale(0.004800, -0.004800)"><path d="M 469.7 373.8 C 465.2 379.1 458.6 382.2 451.6 382.2 H 116.7 C 105.2 382.2 95.4 374.0 93.4 362.6 L 34.4 27.8 C 33.1 20.9 35.0 13.8 39.5 8.5 C 44.0 3.1 50.7 0.0 57.7 0.0 H 364.3 L 319.1 -256.4 L 213.9 -128.7 C 205.5 -118.6 190.6 -117.1 180.5 -125.5 C 170.4 -133.8 169.0 -148.7 177.3 -158.8 L 315.2 -326.2 C 319.8 -331.8 326.5 -334.8 333.5 -334.8 C 335.5 -334.8 337.5 -334.6 339.5 -334.1 C 348.4 -331.7 355.2 -324.4 356.8 -315.3 L 415.8 19.1 C 415.8 19.4 415.9 19.7 415.9 20.0 L 474.9 354.4 C 476.1 361.3 474.2 368.4 469.7 373.8 Z M 372.7 47.4 H 85.9 L 136.6 334.9 H 423.3 Z" fill="#ffffff"/></g>
    <g transform="translate(17.998, 7.620) scale(0.004800, -0.004800)"><path d="M 272.7 206.4 C 264.2 216.4 249.3 217.6 239.3 209.1 L 92.4 84.3 L 199.1 689.3 C 201.4 702.1 192.8 714.4 179.9 716.7 C 167.0 718.9 154.7 710.4 152.4 697.5 L 34.4 27.8 C 32.6 18.0 37.2 8.1 45.9 3.1 C 49.6 1.0 53.6 -3.1e-05 57.7 -3.1e-05 C 63.2 -3.1e-05 68.6 1.9 73.0 5.6 L 270.0 173.1 C 279.9 181.5 281.1 196.5 272.7 206.4 Z" fill="#ffffff"/></g>
    <g transform="translate(19.217, 7.620) scale(0.004800, -0.004800)"><path d="M 475.8 366.7 C 472.4 376.0 463.5 382.2 453.6 382.2 H 118.7 C 107.2 382.2 97.4 374.0 95.4 362.6 L 36.4 28.0 C 36.3 27.4 36.2 26.9 36.1 26.3 C 36.1 25.7 36.0 25.1 36.0 24.4 C 35.8 18.8 37.7 13.0 41.6 8.4 C 45.7 3.6 51.2 0.8 56.9 0.2 C 56.9 0.2 56.9 0.2 56.9 0.2 C 56.9 0.2 56.9 0.2 57.0 0.2 C 57.4 0.1 57.8 0.1 58.2 0.1 H 58.2 C 58.7 0.0 59.2 0.0 59.7 0.0 H 394.5 C 407.6 0.0 418.2 10.6 418.2 23.7 C 418.2 36.8 407.6 47.4 394.5 47.4 H 124.1 L 468.9 340.5 C 476.5 346.9 479.2 357.4 475.8 366.7 Z M 94.4 84.3 138.6 334.8 H 389.2 Z" fill="#ffffff"/></g>
  <!-- Label: "v1.0.2" -->
    <g transform="translate(13.253, 10.414) scale(0.001600, -0.001600)"><path d="M74.0 526.0Q55.0 526.0 44.5 514.5Q34.0 503.0 34.0 490.0Q34.0 483.0 35.5 478.0Q37.0 473.0 39.0 469.0L232.0 26.0Q237.0 12.0 248.5 5.5Q260.0 -1.0 273.0 0.0Q297.0 1.0 308.0 26.0L501.0 470.0Q503.0 474.0 504.5 479.5Q506.0 485.0 506.0 491.0Q506.0 506.0 495.0 516.0Q484.0 526.0 469.0 526.0Q443.0 527.0 432.0 500.0L272.7031555175781 125.7938003540039L113.0 501.0Q108.0 513.0 97.0 519.5Q86.0 526.0 74.0 526.0Z" fill="#aaaaaa"/></g>
    <g transform="translate(14.117, 10.414) scale(0.001600, -0.001600)"><path d="M230.0 0.0Q249.0 0.0 261.5 12.0Q274.0 24.0 274.0 41.0V660.0Q274.0 677.0 263.5 688.5Q253.0 700.0 235.0 700.0Q227.0 701.0 219.0 699.0Q211.0 697.0 203.0 692.0L44.0 587.0Q23.0 574.0 23.0 552.0Q23.0 536.0 35.0 523.5Q47.0 511.0 64.0 511.0Q77.0 511.0 87.0 518.0L188.0 587.716796875V41.0Q188.0 24.0 200.0 12.0Q212.0 0.0 230.0 0.0Z" fill="#aaaaaa"/></g>
    <g transform="translate(14.718, 10.414) scale(0.001600, -0.001600)"><path d="M98.0 1.0H106.0Q128.0 1.0 139.0 13.0Q150.0 25.0 150.0 46.0V66.0Q150.0 88.0 139.0 100.0Q128.0 112.0 106.0 112.0H98.0Q77.0 112.0 65.5 100.0Q54.0 88.0 54.0 66.0V46.0Q54.0 25.0 65.5 13.0Q77.0 1.0 98.0 1.0Z" fill="#aaaaaa"/></g>
    <g transform="translate(15.045, 10.414) scale(0.001600, -0.001600)"><path d="M301.0 -10.0Q384.0 -10.0 439.5 37.0Q495.0 84.0 523.0 166.0Q551.0 248.0 551.0 350.0Q551.0 454.0 523.0 535.0Q495.0 616.0 439.5 663.0Q384.0 710.0 301.0 710.0Q218.0 710.0 162.5 663.0Q107.0 616.0 78.5 535.0Q50.0 454.0 50.0 350.0Q50.0 248.0 78.5 166.0Q107.0 84.0 162.5 37.0Q218.0 -10.0 301.0 -10.0ZM301.0 71.0Q248.0 71.0 211.5 105.0Q175.0 139.0 155.5 201.5Q136.0 264.0 136.0 350.0Q136.0 437.0 155.5 499.5Q175.0 562.0 211.5 595.5Q248.0 629.0 301.0 629.0Q354.0 629.0 390.5 595.5Q427.0 562.0 446.0 499.5Q465.0 437.0 465.0 350.0Q465.0 264.0 446.0 201.5Q427.0 139.0 390.5 105.0Q354.0 71.0 301.0 71.0Z" fill="#aaaaaa"/></g>
    <g transform="translate(16.006, 10.414) scale(0.001600, -0.001600)"><path d="M98.0 1.0H106.0Q128.0 1.0 139.0 13.0Q150.0 25.0 150.0 46.0V66.0Q150.0 88.0 139.0 100.0Q128.0 112.0 106.0 112.0H98.0Q77.0 112.0 65.5 100.0Q54.0 88.0 54.0 66.0V46.0Q54.0 25.0 65.5 13.0Q77.0 1.0 98.0 1.0Z" fill="#aaaaaa"/></g>
    <g transform="translate(16.333, 10.414) scale(0.001600, -0.001600)"><path d="M469.0 75.0H194.02061462402344L360.0 259.0Q422.0 325.0 454.0 389.0Q486.0 453.0 486.0 506.0Q486.0 568.0 460.0 614.0Q434.0 660.0 386.5 685.0Q339.0 710.0 275.0 710.0Q239.0 710.0 201.5 696.0Q164.0 682.0 132.5 658.5Q101.0 635.0 80.0 606.0Q70.0 594.0 64.0 584.5Q58.0 575.0 58.0 564.0Q58.0 550.0 70.0 539.5Q82.0 529.0 97.0 529.0Q106.0 529.0 114.5 532.5Q123.0 536.0 131.0 549.0Q145.0 573.0 167.0 592.5Q189.0 612.0 216.0 623.5Q243.0 635.0 270.0 635.0Q331.0 635.0 367.5 598.5Q404.0 562.0 404.0 501.0Q404.0 464.0 378.5 416.5Q353.0 369.0 303.0 315.0L77.0 68.0Q65.0 55.0 65.0 39.0Q65.0 21.0 76.5 10.5Q88.0 0.0 106.0 0.0H469.0Q485.0 0.0 496.0 10.5Q507.0 21.0 507.0 37.0Q507.0 53.0 496.0 64.0Q485.0 75.0 469.0 75.0Z" fill="#aaaaaa"/></g>
  <!-- Label: "X" -->
    <g transform="translate(6.687, 13.070) scale(0.003000, -0.003000)"><path d="M 547.0 703.0 Q 528.0 703.0 515.0 684.0 L 314.7 413.0 L 112.0 686.0 Q 100.0 703.0 79.0 703.0 Q 64.0 703.0 51.5 691.5 Q 39.0 680.0 39.0 663.0 Q 39.0 649.0 47.0 639.0 L 261.8 349.2 L 48.0 58.0 Q 38.0 45.0 38.0 31.0 Q 38.0 19.0 48.5 7.5 Q 59.0 -4.0 75.0 -4.0 Q 95.0 -4.0 107.0 14.0 L 307.7 287.2 L 511.0 13.0 Q 524.0 -4.0 544.0 -4.0 Q 558.0 -4.0 571.0 7.0 Q 584.0 18.0 584.0 36.0 Q 584.0 49.0 576.0 61.0 L 360.6 351.2 L 576.0 642.0 Q 585.0 654.0 585.0 667.0 Q 585.0 681.0 573.5 692.0 Q 562.0 703.0 547.0 703.0 Z" fill="#1c1c1c"/></g>
  <!-- Label: "Y" -->
    <g transform="translate(22.002, 13.070) scale(0.003000, -0.003000)"><path d="M 514.0 704.0 Q 494.0 704.0 481.0 684.0 L 290.3 415.7 L 94.0 685.0 Q 81.0 704.0 61.0 704.0 Q 47.0 704.0 33.0 692.5 Q 19.0 681.0 19.0 664.0 Q 19.0 657.0 21.5 649.5 Q 24.0 642.0 30.0 634.0 L 248.0 339.5 V 41.0 Q 248.0 24.0 259.5 12.0 Q 271.0 0.0 289.0 0.0 Q 305.0 0.0 316.5 12.0 Q 328.0 24.0 328.0 41.0 V 333.1 L 547.0 638.0 Q 551.0 644.0 552.5 650.5 Q 554.0 657.0 554.0 663.0 Q 554.0 679.0 542.5 691.5 Q 531.0 704.0 514.0 704.0 Z" fill="#1c1c1c"/></g>
  <!-- Label: "RATE" -->
    <g transform="translate(11.489, 34.500) scale(0.003000, -0.003000)"><path d="M 134.0 0.0 Q 151.0 0.0 161.0 12.0 Q 171.0 24.0 171.0 41.0 V 284.0 H 382.0 Q 404.0 284.0 425.0 279.0 Q 446.0 274.0 463.0 261.0 Q 480.0 248.0 490.0 227.0 Q 500.0 206.0 500.0 174.0 Q 500.0 117.0 510.0 84.0 Q 520.0 51.0 535.0 33.5 Q 550.0 16.0 566.0 7.0 Q 574.0 2.0 585.0 1.0 Q 596.0 0.0 607.0 3.5 Q 618.0 7.0 624.0 16.0 Q 634.0 30.0 629.5 45.0 Q 625.0 60.0 611.0 69.0 Q 600.0 76.0 594.0 88.5 Q 588.0 101.0 585.0 123.0 Q 582.0 145.0 580.0 182.0 Q 579.0 224.0 562.0 255.5 Q 545.0 287.0 518.0 307.5 Q 504.8 317.5 489.9 324.6 Q 519.3 338.1 543.0 360.5 Q 571.0 387.0 587.0 423.5 Q 603.0 460.0 603.0 502.0 Q 603.0 560.0 576.5 604.5 Q 550.0 649.0 505.0 674.5 Q 460.0 700.0 404.0 700.0 H 128.0 Q 111.0 700.0 99.5 688.5 Q 88.0 677.0 88.0 660.0 V 41.0 Q 88.0 24.0 101.5 12.0 Q 115.0 0.0 134.0 0.0 Z M 171.0 356.0 V 623.0 H 399.0 Q 450.0 623.0 483.5 588.0 Q 517.0 553.0 517.0 500.0 Q 517.0 459.0 500.5 426.5 Q 484.0 394.0 458.5 376.0 Q 433.0 358.0 404.0 356.0 H 171.0 Z" fill="#1c1c1c"/></g>
    <g transform="translate(13.517, 34.500) scale(0.003000, -0.003000)"><path d="M 162.0 187.0 H 478.6 L 546.0 25.0 Q 551.0 12.0 561.0 5.0 Q 571.0 -2.0 583.0 -2.0 Q 598.0 -2.0 610.0 8.5 Q 622.0 19.0 622.0 37.0 Q 622.0 45.0 619.0 53.0 L 361.0 677.0 Q 357.0 689.0 346.5 696.0 Q 336.0 703.0 323.0 703.0 Q 310.0 704.0 299.5 697.5 Q 289.0 691.0 284.0 677.0 L 25.0 47.0 Q 22.0 39.0 23.0 32.0 Q 23.0 18.0 32.0 8.0 Q 41.0 -2.0 60.0 -2.0 Q 71.0 -2.0 81.0 5.0 Q 91.0 12.0 95.0 24.0 L 162.0 187.0 Z M 319.3 569.9 446.1 265.0 H 194.0 L 319.3 569.9 Z" fill="#1c1c1c"/></g>
    <g transform="translate(15.449, 34.500) scale(0.003000, -0.003000)"><path d="M 305.0 0.0 Q 324.0 0.0 336.0 12.0 Q 348.0 24.0 348.0 41.0 V 624.0 H 538.0 Q 555.0 624.0 567.0 634.0 Q 579.0 644.0 579.0 662.0 Q 579.0 679.0 567.0 689.5 Q 555.0 700.0 538.0 700.0 H 73.0 Q 56.0 700.0 44.5 689.5 Q 33.0 679.0 33.0 662.0 Q 33.0 645.0 44.5 634.5 Q 56.0 624.0 73.0 624.0 H 263.0 V 41.0 Q 263.0 24.0 275.0 12.0 Q 287.0 0.0 305.0 0.0 Z" fill="#1c1c1c"/></g>
    <g transform="translate(17.282, 34.500) scale(0.003000, -0.003000)"><path d="M 128.0 700.0 Q 111.0 700.0 99.5 688.5 Q 88.0 677.0 88.0 660.0 V 41.0 Q 88.0 24.0 99.5 12.0 Q 111.0 0.0 128.0 0.0 H 484.0 Q 501.0 0.0 513.0 11.0 Q 525.0 22.0 525.0 39.0 Q 525.0 54.0 513.0 66.0 Q 501.0 78.0 484.0 78.0 H 171.0 V 321.0 H 439.0 Q 456.0 321.0 468.0 331.5 Q 480.0 342.0 480.0 359.0 Q 480.0 376.0 468.0 387.0 Q 456.0 398.0 439.0 398.0 H 171.0 V 623.0 H 484.0 Q 501.0 623.0 513.0 633.5 Q 525.0 644.0 525.0 661.0 Q 525.0 678.0 513.0 689.0 Q 501.0 700.0 484.0 700.0 Z" fill="#1c1c1c"/></g>
  <!-- Label: "X DEPTH CV" -->
    <g transform="translate(2.813, 56.500) scale(0.002000, -0.002000)"><path d="M 378.0 700.0 H 128.0 Q 111.0 700.0 99.5 688.5 Q 88.0 677.0 88.0 660.0 V 41.0 Q 88.0 24.0 99.5 12.0 Q 111.0 0.0 128.0 0.0 H 378.0 Q 477.0 0.0 542.0 47.5 Q 607.0 95.0 640.0 174.5 Q 673.0 254.0 673.0 350.0 Q 673.0 420.0 654.5 483.5 Q 636.0 547.0 599.0 596.0 Q 562.0 645.0 506.5 672.5 Q 451.0 700.0 378.0 700.0 Z M 368.0 78.0 H 171.0 V 623.0 H 368.0 Q 426.0 623.0 467.5 601.0 Q 509.0 579.0 535.5 541.0 Q 562.0 503.0 574.5 453.5 Q 587.0 404.0 587.0 350.0 Q 587.0 276.0 564.5 214.0 Q 542.0 152.0 493.5 115.0 Q 445.0 78.0 368.0 78.0 Z" fill="#2c2c2c"/></g>
    <g transform="translate(4.249, 56.500) scale(0.002000, -0.002000)"><path d="M 128.0 700.0 Q 111.0 700.0 99.5 688.5 Q 88.0 677.0 88.0 660.0 V 41.0 Q 88.0 24.0 99.5 12.0 Q 111.0 0.0 128.0 0.0 H 484.0 Q 501.0 0.0 513.0 11.0 Q 525.0 22.0 525.0 39.0 Q 525.0 54.0 513.0 66.0 Q 501.0 78.0 484.0 78.0 H 171.0 V 321.0 H 439.0 Q 456.0 321.0 468.0 331.5 Q 480.0 342.0 480.0 359.0 Q 480.0 376.0 468.0 387.0 Q 456.0 398.0 439.0 398.0 H 171.0 V 623.0 H 484.0 Q 501.0 623.0 513.0 633.5 Q 525.0 644.0 525.0 661.0 Q 525.0 678.0 513.0 689.0 Q 501.0 700.0 484.0 700.0 Z" fill="#2c2c2c"/></g>
    <g transform="translate(5.389, 56.500) scale(0.002000, -0.002000)"><path d="M 362.0 700.0 H 128.0 Q 111.0 700.0 99.5 688.5 Q 88.0 677.0 88.0 660.0 V 41.0 Q 88.0 24.0 98.5 12.0 Q 109.0 0.0 127.0 0.0 Q 144.0 0.0 155.0 12.0 Q 166.0 24.0 166.0 41.0 V 281.0 H 362.0 Q 417.0 281.0 461.0 309.0 Q 505.0 337.0 530.5 385.0 Q 556.0 433.0 556.0 492.0 Q 556.0 552.0 530.5 599.0 Q 505.0 646.0 461.0 673.0 Q 417.0 700.0 362.0 700.0 Z M 362.0 358.0 H 166.0 V 623.0 H 362.0 Q 395.0 623.0 420.0 605.5 Q 445.0 588.0 460.0 559.0 Q 475.0 530.0 475.0 492.0 Q 475.0 456.0 460.0 425.0 Q 445.0 394.0 420.0 376.0 Q 395.0 358.0 362.0 358.0 Z" fill="#2c2c2c"/></g>
    <g transform="translate(6.587, 56.500) scale(0.002000, -0.002000)"><path d="M 305.0 0.0 Q 324.0 0.0 336.0 12.0 Q 348.0 24.0 348.0 41.0 V 624.0 H 538.0 Q 555.0 624.0 567.0 634.0 Q 579.0 644.0 579.0 662.0 Q 579.0 679.0 567.0 689.5 Q 555.0 700.0 538.0 700.0 H 73.0 Q 56.0 700.0 44.5 689.5 Q 33.0 679.0 33.0 662.0 Q 33.0 645.0 44.5 634.5 Q 56.0 624.0 73.0 624.0 H 263.0 V 41.0 Q 263.0 24.0 275.0 12.0 Q 287.0 0.0 305.0 0.0 Z" fill="#2c2c2c"/></g>
    <g transform="translate(7.809, 56.500) scale(0.002000, -0.002000)"><path d="M 130.0 700.0 Q 112.0 700.0 100.0 688.5 Q 88.0 677.0 88.0 659.0 V 41.0 Q 88.0 24.0 99.0 12.0 Q 110.0 0.0 129.0 0.0 Q 146.0 0.0 158.5 12.0 Q 171.0 24.0 171.0 41.0 V 317.0 H 549.0 V 41.0 Q 549.0 24.0 561.0 12.0 Q 573.0 0.0 590.0 0.0 Q 608.0 0.0 620.0 12.0 Q 632.0 24.0 632.0 41.0 V 659.0 Q 632.0 677.0 620.5 688.5 Q 609.0 700.0 591.0 700.0 Q 574.0 700.0 561.5 688.5 Q 549.0 677.0 549.0 659.0 V 395.0 H 171.0 V 659.0 Q 171.0 677.0 159.0 688.5 Q 147.0 700.0 130.0 700.0 Z" fill="#2c2c2c"/></g>
    <g transform="translate(9.799, 56.500) scale(0.002000, -0.002000)"><path d="M 592.0 654.0 Q 551.0 680.0 501.5 694.0 Q 452.0 708.0 400.0 708.0 Q 325.0 708.0 260.5 681.0 Q 196.0 654.0 147.5 606.0 Q 99.0 558.0 72.0 493.0 Q 45.0 428.0 45.0 350.0 Q 45.0 267.0 73.5 200.5 Q 102.0 134.0 151.0 87.0 Q 200.0 40.0 264.0 15.0 Q 328.0 -10.0 400.0 -10.0 Q 435.0 -10.0 469.5 -3.0 Q 504.0 4.0 536.0 16.5 Q 568.0 29.0 593.0 44.0 Q 609.0 52.0 612.0 69.5 Q 615.0 87.0 603.0 103.0 Q 593.0 115.0 579.0 117.0 Q 565.0 119.0 551.0 112.0 Q 517.0 91.0 479.0 80.0 Q 441.0 69.0 400.0 69.0 Q 343.0 69.0 294.5 88.0 Q 246.0 107.0 209.5 143.5 Q 173.0 180.0 152.0 232.0 Q 131.0 284.0 131.0 350.0 Q 131.0 412.0 151.0 463.0 Q 171.0 514.0 207.0 551.0 Q 243.0 588.0 292.0 608.5 Q 341.0 629.0 400.0 629.0 Q 442.0 629.0 480.0 617.5 Q 518.0 606.0 551.0 586.0 Q 565.0 579.0 579.0 580.0 Q 593.0 581.0 602.0 594.0 Q 614.0 609.0 611.5 627.0 Q 609.0 645.0 592.0 654.0 Z" fill="#2c2c2c"/></g>
    <g transform="translate(11.089, 56.500) scale(0.002000, -0.002000)"><path d="M 596.0 701.0 Q 571.0 701.0 559.0 676.0 L 339.3 131.9 L 112.0 674.0 Q 100.0 702.0 73.0 702.0 Q 60.0 702.0 46.5 691.5 Q 33.0 681.0 33.0 662.0 Q 33.0 657.0 34.0 652.5 Q 35.0 648.0 37.0 644.0 L 297.0 26.0 Q 302.0 14.0 312.0 7.5 Q 322.0 1.0 333.0 0.0 Q 345.0 0.0 355.5 6.5 Q 366.0 13.0 372.0 26.0 L 633.0 645.0 Q 637.0 655.0 637.0 663.0 Q 637.0 680.0 625.0 690.5 Q 613.0 701.0 596.0 701.0 Z" fill="#2c2c2c"/></g>
  <!-- Label: "Y DEPTH CV" -->
    <g transform="translate(18.053, 56.500) scale(0.002000, -0.002000)"><path d="M 378.0 700.0 H 128.0 Q 111.0 700.0 99.5 688.5 Q 88.0 677.0 88.0 660.0 V 41.0 Q 88.0 24.0 99.5 12.0 Q 111.0 0.0 128.0 0.0 H 378.0 Q 477.0 0.0 542.0 47.5 Q 607.0 95.0 640.0 174.5 Q 673.0 254.0 673.0 350.0 Q 673.0 420.0 654.5 483.5 Q 636.0 547.0 599.0 596.0 Q 562.0 645.0 506.5 672.5 Q 451.0 700.0 378.0 700.0 Z M 368.0 78.0 H 171.0 V 623.0 H 368.0 Q 426.0 623.0 467.5 601.0 Q 509.0 579.0 535.5 541.0 Q 562.0 503.0 574.5 453.5 Q 587.0 404.0 587.0 350.0 Q 587.0 276.0 564.5 214.0 Q 542.0 152.0 493.5 115.0 Q 445.0 78.0 368.0 78.0 Z" fill="#2c2c2c"/></g>
    <g transform="translate(19.489, 56.500) scale(0.002000, -0.002000)"><path d="M 128.0 700.0 Q 111.0 700.0 99.5 688.5 Q 88.0 677.0 88.0 660.0 V 41.0 Q 88.0 24.0 99.5 12.0 Q 111.0 0.0 128.0 0.0 H 484.0 Q 501.0 0.0 513.0 11.0 Q 525.0 22.0 525.0 39.0 Q 525.0 54.0 513.0 66.0 Q 501.0 78.0 484.0 78.0 H 171.0 V 321.0 H 439.0 Q 456.0 321.0 468.0 331.5 Q 480.0 342.0 480.0 359.0 Q 480.0 376.0 468.0 387.0 Q 456.0 398.0 439.0 398.0 H 171.0 V 623.0 H 484.0 Q 501.0 623.0 513.0 633.5 Q 525.0 644.0 525.0 661.0 Q 525.0 678.0 513.0 689.0 Q 501.0 700.0 484.0 700.0 Z" fill="#2c2c2c"/></g>
    <g transform="translate(20.629, 56.500) scale(0.002000, -0.002000)"><path d="M 362.0 700.0 H 128.0 Q 111.0 700.0 99.5 688.5 Q 88.0 677.0 88.0 660.0 V 41.0 Q 88.0 24.0 98.5 12.0 Q 109.0 0.0 127.0 0.0 Q 144.0 0.0 155.0 12.0 Q 166.0 24.0 166.0 41.0 V 281.0 H 362.0 Q 417.0 281.0 461.0 309.0 Q 505.0 337.0 530.5 385.0 Q 556.0 433.0 556.0 492.0 Q 556.0 552.0 530.5 599.0 Q 505.0 646.0 461.0 673.0 Q 417.0 700.0 362.0 700.0 Z M 362.0 358.0 H 166.0 V 623.0 H 362.0 Q 395.0 623.0 420.0 605.5 Q 445.0 588.0 460.0 559.0 Q 475.0 530.0 475.0 492.0 Q 475.0 456.0 460.0 425.0 Q 445.0 394.0 420.0 376.0 Q 395.0 358.0 362.0 358.0 Z" fill="#2c2c2c"/></g>
    <g transform="translate(21.827, 56.500) scale(0.002000, -0.002000)"><path d="M 305.0 0.0 Q 324.0 0.0 336.0 12.0 Q 348.0 24.0 348.0 41.0 V 624.0 H 538.0 Q 555.0 624.0 567.0 634.0 Q 579.0 644.0 579.0 662.0 Q 579.0 679.0 567.0 689.5 Q 555.0 700.0 538.0 700.0 H 73.0 Q 56.0 700.0 44.5 689.5 Q 33.0 679.0 33.0 662.0 Q 33.0 645.0 44.5 634.5 Q 56.0 624.0 73.0 624.0 H 263.0 V 41.0 Q 263.0 24.0 275.0 12.0 Q 287.0 0.0 305.0 0.0 Z" fill="#2c2c2c"/></g>
    <g transform="translate(23.049, 56.500) scale(0.002000, -0.002000)"><path d="M 130.0 700.0 Q 112.0 700.0 100.0 688.5 Q 88.0 677.0 88.0 659.0 V 41.0 Q 88.0 24.0 99.0 12.0 Q 110.0 0.0 129.0 0.0 Q 146.0 0.0 158.5 12.0 Q 171.0 24.0 171.0 41.0 V 317.0 H 549.0 V 41.0 Q 549.0 24.0 561.0 12.0 Q 573.0 0.0 590.0 0.0 Q 608.0 0.0 620.0 12.0 Q 632.0 24.0 632.0 41.0 V 659.0 Q 632.0 677.0 620.5 688.5 Q 609.0 700.0 591.0 700.0 Q 574.0 700.0 561.5 688.5 Q 549.0 677.0 549.0 659.0 V 395.0 H 171.0 V 659.0 Q 171.0 677.0 159.0 688.5 Q 147.0 700.0 130.0 700.0 Z" fill="#2c2c2c"/></g>
    <g transform="translate(25.039, 56.500) scale(0.002000, -0.002000)"><path d="M 592.0 654.0 Q 551.0 680.0 501.5 694.0 Q 452.0 708.0 400.0 708.0 Q 325.0 708.0 260.5 681.0 Q 196.0 654.0 147.5 606.0 Q 99.0 558.0 72.0 493.0 Q 45.0 428.0 45.0 350.0 Q 45.0 267.0 73.5 200.5 Q 102.0 134.0 151.0 87.0 Q 200.0 40.0 264.0 15.0 Q 328.0 -10.0 400.0 -10.0 Q 435.0 -10.0 469.5 -3.0 Q 504.0 4.0 536.0 16.5 Q 568.0 29.0 593.0 44.0 Q 609.0 52.0 612.0 69.5 Q 615.0 87.0 603.0 103.0 Q 593.0 115.0 579.0 117.0 Q 565.0 119.0 551.0 112.0 Q 517.0 91.0 479.0 80.0 Q 441.0 69.0 400.0 69.0 Q 343.0 69.0 294.5 88.0 Q 246.0 107.0 209.5 143.5 Q 173.0 180.0 152.0 232.0 Q 131.0 284.0 131.0 350.0 Q 131.0 412.0 151.0 463.0 Q 171.0 514.0 207.0 551.0 Q 243.0 588.0 292.0 608.5 Q 341.0 629.0 400.0 629.0 Q 442.0 629.0 480.0 617.5 Q 518.0 606.0 551.0 586.0 Q 565.0 579.0 579.0 580.0 Q 593.0 581.0 602.0 594.0 Q 614.0 609.0 611.5 627.0 Q 609.0 645.0 592.0 654.0 Z" fill="#2c2c2c"/></g>
    <g transform="translate(26.329, 56.500) scale(0.002000, -0.002000)"><path d="M 596.0 701.0 Q 571.0 701.0 559.0 676.0 L 339.3 131.9 L 112.0 674.0 Q 100.0 702.0 73.0 702.0 Q 60.0 702.0 46.5 691.5 Q 33.0 681.0 33.0 662.0 Q 33.0 657.0 34.0 652.5 Q 35.0 648.0 37.0 644.0 L 297.0 26.0 Q 302.0 14.0 312.0 7.5 Q 322.0 1.0 333.0 0.0 Q 345.0 0.0 355.5 6.5 Q 366.0 13.0 372.0 26.0 L 633.0 645.0 Q 637.0 655.0 637.0 663.0 Q 637.0 680.0 625.0 690.5 Q 613.0 701.0 596.0 701.0 Z" fill="#2c2c2c"/></g>
  <!-- Label: "X RATE CV" -->
    <g transform="translate(3.530, 68.500) scale(0.002000, -0.002000)"><path d="M 134.0 0.0 Q 151.0 0.0 161.0 12.0 Q 171.0 24.0 171.0 41.0 V 284.0 H 382.0 Q 404.0 284.0 425.0 279.0 Q 446.0 274.0 463.0 261.0 Q 480.0 248.0 490.0 227.0 Q 500.0 206.0 500.0 174.0 Q 500.0 117.0 510.0 84.0 Q 520.0 51.0 535.0 33.5 Q 550.0 16.0 566.0 7.0 Q 574.0 2.0 585.0 1.0 Q 596.0 0.0 607.0 3.5 Q 618.0 7.0 624.0 16.0 Q 634.0 30.0 629.5 45.0 Q 625.0 60.0 611.0 69.0 Q 600.0 76.0 594.0 88.5 Q 588.0 101.0 585.0 123.0 Q 582.0 145.0 580.0 182.0 Q 579.0 224.0 562.0 255.5 Q 545.0 287.0 518.0 307.5 Q 504.8 317.5 489.9 324.6 Q 519.3 338.1 543.0 360.5 Q 571.0 387.0 587.0 423.5 Q 603.0 460.0 603.0 502.0 Q 603.0 560.0 576.5 604.5 Q 550.0 649.0 505.0 674.5 Q 460.0 700.0 404.0 700.0 H 128.0 Q 111.0 700.0 99.5 688.5 Q 88.0 677.0 88.0 660.0 V 41.0 Q 88.0 24.0 101.5 12.0 Q 115.0 0.0 134.0 0.0 Z M 171.0 356.0 V 623.0 H 399.0 Q 450.0 623.0 483.5 588.0 Q 517.0 553.0 517.0 500.0 Q 517.0 459.0 500.5 426.5 Q 484.0 394.0 458.5 376.0 Q 433.0 358.0 404.0 356.0 H 171.0 Z" fill="#2c2c2c"/></g>
    <g transform="translate(4.882, 68.500) scale(0.002000, -0.002000)"><path d="M 162.0 187.0 H 478.6 L 546.0 25.0 Q 551.0 12.0 561.0 5.0 Q 571.0 -2.0 583.0 -2.0 Q 598.0 -2.0 610.0 8.5 Q 622.0 19.0 622.0 37.0 Q 622.0 45.0 619.0 53.0 L 361.0 677.0 Q 357.0 689.0 346.5 696.0 Q 336.0 703.0 323.0 703.0 Q 310.0 704.0 299.5 697.5 Q 289.0 691.0 284.0 677.0 L 25.0 47.0 Q 22.0 39.0 23.0 32.0 Q 23.0 18.0 32.0 8.0 Q 41.0 -2.0 60.0 -2.0 Q 71.0 -2.0 81.0 5.0 Q 91.0 12.0 95.0 24.0 L 162.0 187.0 Z M 319.3 569.9 446.1 265.0 H 194.0 L 319.3 569.9 Z" fill="#2c2c2c"/></g>
    <g transform="translate(6.170, 68.500) scale(0.002000, -0.002000)"><path d="M 305.0 0.0 Q 324.0 0.0 336.0 12.0 Q 348.0 24.0 348.0 41.0 V 624.0 H 538.0 Q 555.0 624.0 567.0 634.0 Q 579.0 644.0 579.0 662.0 Q 579.0 679.0 567.0 689.5 Q 555.0 700.0 538.0 700.0 H 73.0 Q 56.0 700.0 44.5 689.5 Q 33.0 679.0 33.0 662.0 Q 33.0 645.0 44.5 634.5 Q 56.0 624.0 73.0 624.0 H 263.0 V 41.0 Q 263.0 24.0 275.0 12.0 Q 287.0 0.0 305.0 0.0 Z" fill="#2c2c2c"/></g>
    <g transform="translate(7.392, 68.500) scale(0.002000, -0.002000)"><path d="M 128.0 700.0 Q 111.0 700.0 99.5 688.5 Q 88.0 677.0 88.0 660.0 V 41.0 Q 88.0 24.0 99.5 12.0 Q 111.0 0.0 128.0 0.0 H 484.0 Q 501.0 0.0 513.0 11.0 Q 525.0 22.0 525.0 39.0 Q 525.0 54.0 513.0 66.0 Q 501.0 78.0 484.0 78.0 H 171.0 V 321.0 H 439.0 Q 456.0 321.0 468.0 331.5 Q 480.0 342.0 480.0 359.0 Q 480.0 376.0 468.0 387.0 Q 456.0 398.0 439.0 398.0 H 171.0 V 623.0 H 484.0 Q 501.0 623.0 513.0 633.5 Q 525.0 644.0 525.0 661.0 Q 525.0 678.0 513.0 689.0 Q 501.0 700.0 484.0 700.0 Z" fill="#2c2c2c"/></g>
    <g transform="translate(9.082, 68.500) scale(0.002000, -0.002000)"><path d="M 592.0 654.0 Q 551.0 680.0 501.5 694.0 Q 452.0 708.0 400.0 708.0 Q 325.0 708.0 260.5 681.0 Q 196.0 654.0 147.5 606.0 Q 99.0 558.0 72.0 493.0 Q 45.0 428.0 45.0 350.0 Q 45.0 267.0 73.5 200.5 Q 102.0 134.0 151.0 87.0 Q 200.0 40.0 264.0 15.0 Q 328.0 -10.0 400.0 -10.0 Q 435.0 -10.0 469.5 -3.0 Q 504.0 4.0 536.0 16.5 Q 568.0 29.0 593.0 44.0 Q 609.0 52.0 612.0 69.5 Q 615.0 87.0 603.0 103.0 Q 593.0 115.0 579.0 117.0 Q 565.0 119.0 551.0 112.0 Q 517.0 91.0 479.0 80.0 Q 441.0 69.0 400.0 69.0 Q 343.0 69.0 294.5 88.0 Q 246.0 107.0 209.5 143.5 Q 173.0 180.0 152.0 232.0 Q 131.0 284.0 131.0 350.0 Q 131.0 412.0 151.0 463.0 Q 171.0 514.0 207.0 551.0 Q 243.0 588.0 292.0 608.5 Q 341.0 629.0 400.0 629.0 Q 442.0 629.0 480.0 617.5 Q 518.0 606.0 551.0 586.0 Q 565.0 579.0 579.0 580.0 Q 593.0 581.0 602.0 594.0 Q 614.0 609.0 611.5 627.0 Q 609.0 645.0 592.0 654.0 Z" fill="#2c2c2c"/></g>
    <g transform="translate(10.372, 68.500) scale(0.002000, -0.002000)"><path d="M 596.0 701.0 Q 571.0 701.0 559.0 676.0 L 339.3 131.9 L 112.0 674.0 Q 100.0 702.0 73.0 702.0 Q 60.0 702.0 46.5 691.5 Q 33.0 681.0 33.0 662.0 Q 33.0 657.0 34.0 652.5 Q 35.0 648.0 37.0 644.0 L 297.0 26.0 Q 302.0 14.0 312.0 7.5 Q 322.0 1.0 333.0 0.0 Q 345.0 0.0 355.5 6.5 Q 366.0 13.0 372.0 26.0 L 633.0 645.0 Q 637.0 655.0 637.0 663.0 Q 637.0 680.0 625.0 690.5 Q 613.0 701.0 596.0 701.0 Z" fill="#2c2c2c"/></g>
  <!-- Label: "Y RATE CV" -->
    <g transform="translate(18.770, 68.500) scale(0.002000, -0.002000)"><path d="M 134.0 0.0 Q 151.0 0.0 161.0 12.0 Q 171.0 24.0 171.0 41.0 V 284.0 H 382.0 Q 404.0 284.0 425.0 279.0 Q 446.0 274.0 463.0 261.0 Q 480.0 248.0 490.0 227.0 Q 500.0 206.0 500.0 174.0 Q 500.0 117.0 510.0 84.0 Q 520.0 51.0 535.0 33.5 Q 550.0 16.0 566.0 7.0 Q 574.0 2.0 585.0 1.0 Q 596.0 0.0 607.0 3.5 Q 618.0 7.0 624.0 16.0 Q 634.0 30.0 629.5 45.0 Q 625.0 60.0 611.0 69.0 Q 600.0 76.0 594.0 88.5 Q 588.0 101.0 585.0 123.0 Q 582.0 145.0 580.0 182.0 Q 579.0 224.0 562.0 255.5 Q 545.0 287.0 518.0 307.5 Q 504.8 317.5 489.9 324.6 Q 519.3 338.1 543.0 360.5 Q 571.0 387.0 587.0 423.5 Q 603.0 460.0 603.0 502.0 Q 603.0 560.0 576.5 604.5 Q 550.0 649.0 505.0 674.5 Q 460.0 700.0 404.0 700.0 H 128.0 Q 111.0 700.0 99.5 688.5 Q 88.0 677.0 88.0 660.0 V 41.0 Q 88.0 24.0 101.5 12.0 Q 115.0 0.0 134.0 0.0 Z M 171.0 356.0 V 623.0 H 399.0 Q 450.0 623.0 483.5 588.0 Q 517.0 553.0 517.0 500.0 Q 517.0 459.0 500.5 426.5 Q 484.0 394.0 458.5 376.0 Q 433.0 358.0 404.0 356.0 H 171.0 Z" fill="#2c2c2c"/></g>
    <g transform="translate(20.122, 68.500) scale(0.002000, -0.002000)"><path d="M 162.0 187.0 H 478.6 L 546.0 25.0 Q 551.0 12.0 561.0 5.0 Q 571.0 -2.0 583.0 -2.0 Q 598.0 -2.0 610.0 8.5 Q 622.0 19.0 622.0 37.0 Q 622.0 45.0 619.0 53.0 L 361.0 677.0 Q 357.0 689.0 346.5 696.0 Q 336.0 703.0 323.0 703.0 Q 310.0 704.0 299.5 697.5 Q 289.0 691.0 284.0 677.0 L 25.0 47.0 Q 22.0 39.0 23.0 32.0 Q 23.0 18.0 32.0 8.0 Q 41.0 -2.0 60.0 -2.0 Q 71.0 -2.0 81.0 5.0 Q 91.0 12.0 95.0 24.0 L 162.0 187.0 Z M 319.3 569.9 446.1 265.0 H 194.0 L 319.3 569.9 Z" fill="#2c2c2c"/></g>
    <g transform="translate(21.410, 68.500) scale(0.002000, -0.002000)"><path d="M 305.0 0.0 Q 324.0 0.0 336.0 12.0 Q 348.0 24.0 348.0 41.0 V 624.0 H 538.0 Q 555.0 624.0 567.0 634.0 Q 579.0 644.0 579.0 662.0 Q 579.0 679.0 567.0 689.5 Q 555.0 700.0 538.0 700.0 H 73.0 Q 56.0 700.0 44.5 689.5 Q 33.0 679.0 33.0 662.0 Q 33.0 645.0 44.5 634.5 Q 56.0 624.0 73.0 624.0 H 263.0 V 41.0 Q 263.0 24.0 275.0 12.0 Q 287.0 0.0 305.0 0.0 Z" fill="#2c2c2c"/></g>
    <g transform="translate(22.632, 68.500) scale(0.002000, -0.002000)"><path d="M 128.0 700.0 Q 111.0 700.0 99.5 688.5 Q 88.0 677.0 88.0 660.0 V 41.0 Q 88.0 24.0 99.5 12.0 Q 111.0 0.0 128.0 0.0 H 484.0 Q 501.0 0.0 513.0 11.0 Q 525.0 22.0 525.0 39.0 Q 525.0 54.0 513.0 66.0 Q 501.0 78.0 484.0 78.0 H 171.0 V 321.0 H 439.0 Q 456.0 321.0 468.0 331.5 Q 480.0 342.0 480.0 359.0 Q 480.0 376.0 468.0 387.0 Q 456.0 398.0 439.0 398.0 H 171.0 V 623.0 H 484.0 Q 501.0 623.0 513.0 633.5 Q 525.0 644.0 525.0 661.0 Q 525.0 678.0 513.0 689.0 Q 501.0 700.0 484.0 700.0 Z" fill="#2c2c2c"/></g>
    <g transform="translate(24.322, 68.500) scale(0.002000, -0.002000)"><path d="M 592.0 654.0 Q 551.0 680.0 501.5 694.0 Q 452.0 708.0 400.0 708.0 Q 325.0 708.0 260.5 681.0 Q 196.0 654.0 147.5 606.0 Q 99.0 558.0 72.0 493.0 Q 45.0 428.0 45.0 350.0 Q 45.0 267.0 73.5 200.5 Q 102.0 134.0 151.0 87.0 Q 200.0 40.0 264.0 15.0 Q 328.0 -10.0 400.0 -10.0 Q 435.0 -10.0 469.5 -3.0 Q 504.0 4.0 536.0 16.5 Q 568.0 29.0 593.0 44.0 Q 609.0 52.0 612.0 69.5 Q 615.0 87.0 603.0 103.0 Q 593.0 115.0 579.0 117.0 Q 565.0 119.0 551.0 112.0 Q 517.0 91.0 479.0 80.0 Q 441.0 69.0 400.0 69.0 Q 343.0 69.0 294.5 88.0 Q 246.0 107.0 209.5 143.5 Q 173.0 180.0 152.0 232.0 Q 131.0 284.0 131.0 350.0 Q 131.0 412.0 151.0 463.0 Q 171.0 514.0 207.0 551.0 Q 243.0 588.0 292.0 608.5 Q 341.0 629.0 400.0 629.0 Q 442.0 629.0 480.0 617.5 Q 518.0 606.0 551.0 586.0 Q 565.0 579.0 579.0 580.0 Q 593.0 581.0 602.0 594.0 Q 614.0 609.0 611.5 627.0 Q 609.0 645.0 592.0 654.0 Z" fill="#2c2c2c"/></g>
    <g transform="translate(25.612, 68.500) scale(0.002000, -0.002000)"><path d="M 596.0 701.0 Q 571.0 701.0 559.0 676.0 L 339.3 131.9 L 112.0 674.0 Q 100.0 702.0 73.0 702.0 Q 60.0 702.0 46.5 691.5 Q 33.0 681.0 33.0 662.0 Q 33.0 657.0 34.0 652.5 Q 35.0 648.0 37.0 644.0 L 297.0 26.0 Q 302.0 14.0 312.0 7.5 Q 322.0 1.0 333.0 0.0 Q 345.0 0.0 355.5 6.5 Q 366.0 13.0 372.0 26.0 L 633.0 645.0 Q 637.0 655.0 637.0 663.0 Q 637.0 680.0 625.0 690.5 Q 613.0 701.0 596.0 701.0 Z" fill="#2c2c2c"/></g>
  <!-- Label: "X" -->
    <g transform="translate(6.687, 84.000) scale(0.003000, -0.003000)"><path d="M 547.0 703.0 Q 528.0 703.0 515.0 684.0 L 314.7 413.0 L 112.0 686.0 Q 100.0 703.0 79.0 703.0 Q 64.0 703.0 51.5 691.5 Q 39.0 680.0 39.0 663.0 Q 39.0 649.0 47.0 639.0 L 261.8 349.2 L 48.0 58.0 Q 38.0 45.0 38.0 31.0 Q 38.0 19.0 48.5 7.5 Q 59.0 -4.0 75.0 -4.0 Q 95.0 -4.0 107.0 14.0 L 307.7 287.2 L 511.0 13.0 Q 524.0 -4.0 544.0 -4.0 Q 558.0 -4.0 571.0 7.0 Q 584.0 18.0 584.0 36.0 Q 584.0 49.0 576.0 61.0 L 360.6 351.2 L 576.0 642.0 Q 585.0 654.0 585.0 667.0 Q 585.0 681.0 573.5 692.0 Q 562.0 703.0 547.0 703.0 Z" fill="#1c1c1c"/></g>
  <!-- Label: "Y" -->
    <g transform="translate(22.002, 84.000) scale(0.003000, -0.003000)"><path d="M 514.0 704.0 Q 494.0 704.0 481.0 684.0 L 290.3 415.7 L 94.0 685.0 Q 81.0 704.0 61.0 704.0 Q 47.0 704.0 33.0 692.5 Q 19.0 681.0 19.0 664.0 Q 19.0 657.0 21.5 649.5 Q 24.0 642.0 30.0 634.0 L 248.0 339.5 V 41.0 Q 248.0 24.0 259.5 12.0 Q 271.0 0.0 289.0 0.0 Q 305.0 0.0 316.5 12.0 Q 328.0 24.0 328.0 41.0 V 333.1 L 547.0 638.0 Q 551.0 644.0 552.5 650.5 Q 554.0 657.0 554.0 663.0 Q 554.0 679.0 542.5 691.5 Q 531.0 704.0 514.0 704.0 Z" fill="#1c1c1c"/></g>
  <!-- Label: "IN" -->
    <g transform="translate(14.053, 88.000) scale(0.002400, -0.002400)"><path d="M 171.0 41.0 V 659.0 Q 171.0 677.0 159.0 688.5 Q 147.0 700.0 130.0 700.0 Q 112.0 700.0 100.0 688.5 Q 88.0 677.0 88.0 659.0 V 41.0 Q 88.0 24.0 99.0 12.0 Q 110.0 0.0 129.0 0.0 Q 146.0 0.0 158.5 12.0 Q 171.0 24.0 171.0 41.0 Z" fill="#2c2c2c"/></g>
    <g transform="translate(14.675, 88.000) scale(0.002400, -0.002400)"><path d="M 606.0 700.0 Q 590.0 700.0 579.5 689.5 Q 569.0 679.0 569.0 663.0 V 145.2 L 160.0 686.0 Q 155.0 693.0 145.5 696.5 Q 136.0 700.0 127.0 700.0 Q 111.0 700.0 99.5 689.0 Q 88.0 678.0 88.0 660.0 V 37.0 Q 88.0 21.0 98.0 10.5 Q 108.0 0.0 124.0 0.0 Q 141.0 0.0 151.5 10.5 Q 162.0 21.0 162.0 37.0 V 552.6 L 570.0 13.0 Q 575.0 7.0 584.0 3.5 Q 593.0 0.0 602.0 0.0 Q 619.0 0.0 631.0 11.5 Q 643.0 23.0 643.0 42.0 V 663.0 Q 643.0 679.0 633.0 689.5 Q 623.0 700.0 606.0 700.0 Z" fill="#2c2c2c"/></g>
  <!-- Label: "AMT." -->
    <g transform="translate(12.500, 97.500) scale(0.002400, -0.002400)"><path d="M 162.0 187.0 H 478.6 L 546.0 25.0 Q 551.0 12.0 561.0 5.0 Q 571.0 -2.0 583.0 -2.0 Q 598.0 -2.0 610.0 8.5 Q 622.0 19.0 622.0 37.0 Q 622.0 45.0 619.0 53.0 L 361.0 677.0 Q 357.0 689.0 346.5 696.0 Q 336.0 703.0 323.0 703.0 Q 310.0 704.0 299.5 697.5 Q 289.0 691.0 284.0 677.0 L 25.0 47.0 Q 22.0 39.0 23.0 32.0 Q 23.0 18.0 32.0 8.0 Q 41.0 -2.0 60.0 -2.0 Q 71.0 -2.0 81.0 5.0 Q 91.0 12.0 95.0 24.0 L 162.0 187.0 Z M 319.3 569.9 446.1 265.0 H 194.0 L 319.3 569.9 Z" fill="#2c2c2c"/></g>
    <g transform="translate(14.046, 97.500) scale(0.002400, -0.002400)"><path d="M 129.0 701.0 Q 111.0 701.0 99.5 688.5 Q 88.0 676.0 88.0 660.0 V 41.0 Q 88.0 24.0 98.5 12.0 Q 109.0 0.0 126.0 0.0 Q 143.0 0.0 154.0 12.0 Q 165.0 24.0 165.0 41.0 V 546.6 L 377.0 220.0 Q 383.0 213.0 392.0 208.0 Q 401.0 203.0 410.0 203.0 Q 419.0 203.0 427.5 208.0 Q 436.0 213.0 442.0 220.0 L 653.0 541.0 V 41.0 Q 653.0 24.0 665.0 12.0 Q 677.0 0.0 695.0 0.0 Q 713.0 0.0 725.0 12.0 Q 737.0 24.0 737.0 41.0 V 660.0 Q 737.0 678.0 725.0 689.0 Q 713.0 700.0 697.0 701.0 Q 676.0 702.0 663.0 683.0 L 412.3 308.8 L 165.0 683.0 Q 159.0 691.0 148.5 696.0 Q 138.0 701.0 129.0 701.0 Z" fill="#2c2c2c"/></g>
    <g transform="translate(16.024, 97.500) scale(0.002400, -0.002400)"><path d="M 305.0 0.0 Q 324.0 0.0 336.0 12.0 Q 348.0 24.0 348.0 41.0 V 624.0 H 538.0 Q 555.0 624.0 567.0 634.0 Q 579.0 644.0 579.0 662.0 Q 579.0 679.0 567.0 689.5 Q 555.0 700.0 538.0 700.0 H 73.0 Q 56.0 700.0 44.5 689.5 Q 33.0 679.0 33.0 662.0 Q 33.0 645.0 44.5 634.5 Q 56.0 624.0 73.0 624.0 H 263.0 V 41.0 Q 263.0 24.0 275.0 12.0 Q 287.0 0.0 305.0 0.0 Z" fill="#2c2c2c"/></g>
    <g transform="translate(17.490, 97.500) scale(0.002400, -0.002400)"><path d="M 98.0 1.0 H 106.0 Q 128.0 1.0 139.0 13.0 Q 150.0 25.0 150.0 46.0 V 66.0 Q 150.0 88.0 139.0 100.0 Q 128.0 112.0 106.0 112.0 H 98.0 Q 77.0 112.0 65.5 100.0 Q 54.0 88.0 54.0 66.0 V 46.0 Q 54.0 25.0 65.5 13.0 Q 77.0 1.0 98.0 1.0 Z" fill="#2c2c2c"/></g>
  <!-- Label: "RATE" -->
    <g transform="translate(12.239, 107.000) scale(0.002400, -0.002400)"><path d="M 134.0 0.0 Q 151.0 0.0 161.0 12.0 Q 171.0 24.0 171.0 41.0 V 284.0 H 382.0 Q 404.0 284.0 425.0 279.0 Q 446.0 274.0 463.0 261.0 Q 480.0 248.0 490.0 227.0 Q 500.0 206.0 500.0 174.0 Q 500.0 117.0 510.0 84.0 Q 520.0 51.0 535.0 33.5 Q 550.0 16.0 566.0 7.0 Q 574.0 2.0 585.0 1.0 Q 596.0 0.0 607.0 3.5 Q 618.0 7.0 624.0 16.0 Q 634.0 30.0 629.5 45.0 Q 625.0 60.0 611.0 69.0 Q 600.0 76.0 594.0 88.5 Q 588.0 101.0 585.0 123.0 Q 582.0 145.0 580.0 182.0 Q 579.0 224.0 562.0 255.5 Q 545.0 287.0 518.0 307.5 Q 504.8 317.5 489.9 324.6 Q 519.3 338.1 543.0 360.5 Q 571.0 387.0 587.0 423.5 Q 603.0 460.0 603.0 502.0 Q 603.0 560.0 576.5 604.5 Q 550.0 649.0 505.0 674.5 Q 460.0 700.0 404.0 700.0 H 128.0 Q 111.0 700.0 99.5 688.5 Q 88.0 677.0 88.0 660.0 V 41.0 Q 88.0 24.0 101.5 12.0 Q 115.0 0.0 134.0 0.0 Z M 171.0 356.0 V 623.0 H 399.0 Q 450.0 623.0 483.5 588.0 Q 517.0 553.0 517.0 500.0 Q 517.0 459.0 500.5 426.5 Q 484.0 394.0 458.5 376.0 Q 433.0 358.0 404.0 356.0 H 171.0 Z" fill="#2c2c2c"/></g>
    <g transform="translate(13.861, 107.000) scale(0.002400, -0.002400)"><path d="M 162.0 187.0 H 478.6 L 546.0 25.0 Q 551.0 12.0 561.0 5.0 Q 571.0 -2.0 583.0 -2.0 Q 598.0 -2.0 610.0 8.5 Q 622.0 19.0 622.0 37.0 Q 622.0 45.0 619.0 53.0 L 361.0 677.0 Q 357.0 689.0 346.5 696.0 Q 336.0 703.0 323.0 703.0 Q 310.0 704.0 299.5 697.5 Q 289.0 691.0 284.0 677.0 L 25.0 47.0 Q 22.0 39.0 23.0 32.0 Q 23.0 18.0 32.0 8.0 Q 41.0 -2.0 60.0 -2.0 Q 71.0 -2.0 81.0 5.0 Q 91.0 12.0 95.0 24.0 L 162.0 187.0 Z M 319.3 569.9 446.1 265.0 H 194.0 L 319.3 569.9 Z" fill="#2c2c2c"/></g>
    <g transform="translate(15.407, 107.000) scale(0.002400, -0.002400)"><path d="M 305.0 0.0 Q 324.0 0.0 336.0 12.0 Q 348.0 24.0 348.0 41.0 V 624.0 H 538.0 Q 555.0 624.0 567.0 634.0 Q 579.0 644.0 579.0 662.0 Q 579.0 679.0 567.0 689.5 Q 555.0 700.0 538.0 700.0 H 73.0 Q 56.0 700.0 44.5 689.5 Q 33.0 679.0 33.0 662.0 Q 33.0 645.0 44.5 634.5 Q 56.0 624.0 73.0 624.0 H 263.0 V 41.0 Q 263.0 24.0 275.0 12.0 Q 287.0 0.0 305.0 0.0 Z" fill="#2c2c2c"/></g>
    <g transform="translate(16.873, 107.000) scale(0.002400, -0.002400)"><path d="M 128.0 700.0 Q 111.0 700.0 99.5 688.5 Q 88.0 677.0 88.0 660.0 V 41.0 Q 88.0 24.0 99.5 12.0 Q 111.0 0.0 128.0 0.0 H 484.0 Q 501.0 0.0 513.0 11.0 Q 525.0 22.0 525.0 39.0 Q 525.0 54.0 513.0 66.0 Q 501.0 78.0 484.0 78.0 H 171.0 V 321.0 H 439.0 Q 456.0 321.0 468.0 331.5 Q 480.0 342.0 480.0 359.0 Q 480.0 376.0 468.0 387.0 Q 456.0 398.0 439.0 398.0 H 171.0 V 623.0 H 484.0 Q 501.0 623.0 513.0 633.5 Q 525.0 644.0 525.0 661.0 Q 525.0 678.0 513.0 689.0 Q 501.0 700.0 484.0 700.0 Z" fill="#2c2c2c"/></g>
  <!-- Label: "OUT" -->
    <g transform="translate(12.738, 116.500) scale(0.002400, -0.002400)"><path d="M 719.0 350.0 Q 719.0 428.0 694.0 493.5 Q 669.0 559.0 624.0 607.5 Q 579.0 656.0 517.0 683.0 Q 455.0 710.0 382.0 710.0 Q 308.0 710.0 246.5 683.0 Q 185.0 656.0 140.0 607.5 Q 95.0 559.0 70.0 493.5 Q 45.0 428.0 45.0 350.0 Q 45.0 273.0 70.0 207.5 Q 95.0 142.0 140.0 93.0 Q 185.0 44.0 246.5 17.0 Q 308.0 -10.0 382.0 -10.0 Q 455.0 -10.0 517.0 17.0 Q 579.0 44.0 624.0 93.0 Q 669.0 142.0 694.0 207.5 Q 719.0 273.0 719.0 350.0 Z M 633.0 350.0 Q 633.0 269.0 600.5 205.5 Q 568.0 142.0 512.0 106.0 Q 456.0 70.0 382.0 70.0 Q 308.0 70.0 251.5 106.0 Q 195.0 142.0 163.0 205.5 Q 131.0 269.0 131.0 350.0 Q 131.0 432.0 163.0 495.0 Q 195.0 558.0 251.5 594.0 Q 308.0 630.0 382.0 630.0 Q 456.0 630.0 512.0 594.0 Q 568.0 558.0 600.5 495.0 Q 633.0 432.0 633.0 350.0 Z" fill="#2c2c2c"/></g>
    <g transform="translate(14.572, 116.500) scale(0.002400, -0.002400)"><path d="M 584.0 701.0 Q 566.0 701.0 556.0 689.0 Q 546.0 677.0 546.0 660.0 V 263.0 Q 546.0 208.0 519.5 165.0 Q 493.0 122.0 450.0 97.5 Q 407.0 73.0 356.0 73.0 Q 306.0 73.0 263.5 97.5 Q 221.0 122.0 196.0 165.0 Q 171.0 208.0 171.0 263.0 V 660.0 Q 171.0 677.0 158.5 689.0 Q 146.0 701.0 130.0 701.0 Q 111.0 701.0 99.5 689.0 Q 88.0 677.0 88.0 660.0 V 263.0 Q 88.0 186.0 123.0 125.0 Q 158.0 64.0 218.5 28.5 Q 279.0 -7.0 356.0 -7.0 Q 432.0 -7.0 492.0 28.5 Q 552.0 64.0 587.5 125.0 Q 623.0 186.0 623.0 263.0 V 660.0 Q 623.0 677.0 612.0 689.0 Q 601.0 701.0 584.0 701.0 Z" fill="#2c2c2c"/></g>
    <g transform="translate(16.276, 116.500) scale(0.002400, -0.002400)"><path d="M 305.0 0.0 Q 324.0 0.0 336.0 12.0 Q 348.0 24.0 348.0 41.0 V 624.0 H 538.0 Q 555.0 624.0 567.0 634.0 Q 579.0 644.0 579.0 662.0 Q 579.0 679.0 567.0 689.5 Q 555.0 700.0 538.0 700.0 H 73.0 Q 56.0 700.0 44.5 689.5 Q 33.0 679.0 33.0 662.0 Q 33.0 645.0 44.5 634.5 Q 56.0 624.0 73.0 624.0 H 263.0 V 41.0 Q 263.0 24.0 275.0 12.0 Q 287.0 0.0 305.0 0.0 Z" fill="#2c2c2c"/></g>
</svg>
